<svg width="31" height="31" viewBox="0 0 31 31" fill="none" xmlns="http://www.w3.org/2000/svg">
<path fill-rule="evenodd" clip-rule="evenodd" d="M29.6014 15.8647C29.5985 15.9603 29.4684 15.9856 29.4308 15.8975C29.4147 15.8595 29.3982 15.8213 29.3814 15.7832C29.3507 15.7134 29.3593 15.6322 29.4051 15.5712C29.4145 15.5587 29.4338 15.5334 29.4568 15.5033C29.5187 15.4225 29.6079 15.4345 29.6079 15.5243C29.6079 15.6421 29.6051 15.744 29.6014 15.8647M28.9201 13.9924C28.8145 14.1826 28.5438 14.1913 28.4266 14.008C28.4084 13.9797 28.3901 13.9513 28.3716 13.9229C27.9491 13.2741 27.4628 12.6372 26.9197 12.0183C26.7864 11.8664 26.8954 11.6279 27.0976 11.6277H27.1025C28.3716 11.6277 29.0369 11.9412 29.24 12.324C29.4094 12.6442 29.3575 13.2041 28.9201 13.9924M28.6373 20.6298C28.5692 20.803 28.498 20.9751 28.4231 21.1455C28.4114 21.169 28.4005 21.1927 28.3884 21.2161C27.9213 22.1151 27.1375 22.8231 26.0901 23.3158C25.855 23.4262 25.598 23.2112 25.668 22.9612C26.0158 21.7164 26.279 20.3664 26.4495 18.9512C26.4813 18.6873 26.6115 18.4451 26.8126 18.2712C27.2433 17.8985 27.6456 17.5264 28.0156 17.157L28.0196 17.1528C28.2017 16.9711 28.5123 17.0493 28.5864 17.2957C28.952 18.5109 28.9723 19.6428 28.6373 20.6298M25.7859 25.1229C25.6794 25.2368 25.5706 25.3493 25.4598 25.4601C25.2667 25.6529 25.0691 25.8394 24.8671 26.0196C24.7398 26.1331 24.5471 25.9911 24.6192 25.8364C24.6398 25.7922 24.6602 25.7478 24.6805 25.7029C24.7653 25.5158 24.8473 25.3239 24.927 25.1283C24.9459 25.0822 24.9856 25.0477 25.0339 25.0354C25.2348 24.9844 25.4306 24.9281 25.6213 24.8666C25.7759 24.8169 25.897 25.0043 25.7859 25.1229M23.6929 23.9995C23.2701 24.0608 22.8255 24.1004 22.3604 24.1168C21.2255 24.1565 20.0254 24.0586 18.7927 23.8316C18.6424 23.804 18.6135 23.6008 18.7498 23.5319C19.0187 23.3958 19.2877 23.2566 19.5566 23.1141C21.4428 22.1143 23.2028 21.0215 24.7434 19.901C24.859 19.817 25.0181 19.9161 24.9947 20.0571C24.7811 21.3412 24.4852 22.55 24.1137 23.6473C24.0503 23.8343 23.8884 23.9712 23.6929 23.9995M23.2583 25.711C22.247 27.7 21.0015 28.8167 19.7942 28.7942C18.4821 28.7709 17.1737 27.4045 16.2048 25.0456L16.2036 25.0429C16.1421 24.8932 16.2128 24.7218 16.3611 24.6574C16.3714 24.6528 16.3817 24.6483 16.392 24.6438C16.4556 24.6161 16.527 24.6111 16.5939 24.63C18.4064 25.1386 20.1922 25.4041 21.8653 25.4041C22.0471 25.4041 22.2277 25.401 22.4067 25.3948C22.6163 25.3873 22.8226 25.3755 23.0252 25.3593C23.2132 25.3445 23.3439 25.543 23.2583 25.711M17.2737 29.4931C16.6724 29.5703 16.0622 29.6099 15.4461 29.6099C12.6926 29.6099 10.059 28.8296 7.79791 27.3735C7.64235 27.2732 7.70846 27.0318 7.89333 27.0234C7.93167 27.0216 7.9675 27.0196 7.99903 27.0177C8.57365 26.9803 9.20368 26.8961 9.88635 26.7646C11.3385 26.4853 12.9528 26.0061 14.643 25.3608C14.7945 25.303 14.9637 25.3782 15.0254 25.5282C15.0258 25.5291 15.0261 25.53 15.0265 25.5308C15.6815 27.1256 16.4877 28.3307 17.3928 29.0972C17.5424 29.224 17.4681 29.4681 17.2737 29.4931M9.08008 19.5665C10.3283 18.5501 11.7909 17.5359 13.3953 16.5757C13.4297 18.6277 13.6548 20.5978 14.053 22.3774C13.4579 22.1236 12.8647 21.8441 12.2766 21.5387C11.1375 20.9467 10.0658 20.2836 9.08008 19.5665M5.1988 25.0652C4.90101 24.5034 5.28589 23.2019 7.24112 21.2239L7.24209 21.2229C7.44627 21.0167 7.42669 20.6782 7.19876 20.4986C7.12042 20.437 7.04264 20.3748 6.96541 20.3126C6.77068 20.1552 6.48886 20.1697 6.31205 20.3468C6.2733 20.3855 6.24441 20.4147 6.23593 20.4234C5.25852 21.4267 4.57446 22.3553 4.19125 23.1906C4.08263 23.4273 3.75456 23.4529 3.61094 23.2357C2.09406 20.9426 1.2793 18.2557 1.2793 15.4432C1.2793 14.4377 1.38375 13.4482 1.58695 12.4871C1.61765 12.3416 1.8228 12.3323 1.86585 12.4746C2.15976 13.4449 2.63811 14.4485 3.29912 15.4635C4.18889 16.8299 5.36228 18.1435 6.75276 19.3484C7.22737 19.7596 7.72865 20.1574 8.25145 20.5412C9.31123 21.3189 10.4628 22.0366 11.688 22.6731C12.2311 22.9554 12.76 23.2247 13.3017 23.4686C13.6032 23.6043 13.9465 23.6148 14.2542 23.494C14.5097 23.394 14.7669 23.29 15.0257 23.1818C15.3071 23.0644 15.4597 22.7576 15.3851 22.4619C15.3758 22.4249 15.3685 22.3952 15.3643 22.3777C14.9378 20.5826 14.7007 18.5618 14.6727 16.4452L14.6719 16.4456C14.6716 16.4204 14.6718 16.3949 14.6715 16.3695C14.6702 16.2538 14.6709 16.1372 14.6689 16.0218C14.6682 15.985 14.6693 15.9226 14.6697 15.8857C14.67 15.871 14.6697 15.8564 14.6697 15.8418C14.6698 15.8418 14.6701 15.8417 14.6702 15.8417C14.6709 15.7092 14.6719 15.5768 14.6743 15.4439C14.6808 15.0808 14.6939 14.7204 14.7126 14.3628C14.7123 14.363 14.7122 14.3631 14.7119 14.3633C14.8434 11.8091 15.2765 9.40913 15.9656 7.39028C16.0293 7.20346 15.9298 7.00067 15.7429 6.93692C15.5608 6.87469 15.3789 6.81525 15.1972 6.7583C15.0135 6.70066 14.8171 6.79983 14.755 6.9822C14.0081 9.17467 13.5473 11.7758 13.4243 14.5283C13.4087 14.8775 13.2186 15.1952 12.9179 15.3735C11.2877 16.3396 9.79055 17.3638 8.49716 18.3962C8.2277 18.6114 7.84282 18.6032 7.58225 18.3772C6.28594 17.2533 5.19491 16.0325 4.37015 14.7659C2.74937 12.2772 2.36421 9.93263 3.28592 8.16532C3.28842 8.16115 3.29065 8.15684 3.29301 8.15281C3.41051 7.9578 3.53274 7.76543 3.65997 7.5757C4.71905 6.17383 6.69026 5.36143 9.30456 5.26962C9.46998 5.26378 9.63652 5.26086 9.80458 5.26086C11.4081 5.26086 13.1291 5.52546 14.8793 6.03049L14.8797 6.03007C14.918 6.04118 14.9564 6.05271 14.9947 6.06396C15.0243 6.07271 15.0539 6.08091 15.0835 6.08979C15.0833 6.08993 15.0833 6.08993 15.0833 6.09007C15.4878 6.21091 15.8935 6.34467 16.2996 6.49079C16.2998 6.49065 16.2998 6.49065 16.2998 6.49051C16.3092 6.49384 16.3187 6.49759 16.3281 6.50093C16.4339 6.53912 16.5396 6.57829 16.6453 6.61815C16.6784 6.63066 16.7116 6.64329 16.7447 6.65607C16.7765 6.6683 16.8083 6.6801 16.8402 6.69246L16.8398 6.69302C17.6946 7.02387 18.5486 7.40861 19.392 7.84697C21.0244 8.69506 22.5187 9.68928 23.819 10.78C21.3374 11.3485 18.4528 12.4453 15.5525 13.9239C15.4188 13.9923 15.3307 14.1267 15.3222 14.2767C15.3121 14.4565 15.2987 14.8179 15.2892 15.1051C15.2832 15.2854 15.4739 15.4048 15.6336 15.3209L15.6353 15.32C18.5068 13.8121 21.3727 12.6851 23.8338 12.0895C24.2938 11.9783 24.5916 11.5365 24.527 11.0677C24.4817 10.7402 24.4307 10.4178 24.3743 10.1011C24.3035 9.70331 24.0857 9.3476 23.7643 9.10286C22.6116 8.22476 21.3413 7.41931 19.9813 6.7126C19.0649 6.23647 18.135 5.81923 17.2031 5.46337C17.0038 5.38726 16.9184 5.15169 17.0224 4.96543C17.9825 3.24799 19.1244 2.28613 20.2368 2.28613C20.2483 2.28613 20.2598 2.28627 20.2714 2.28641C21.5835 2.30988 22.8919 3.6762 23.8608 6.03507C24.3513 7.22916 24.7313 8.60617 24.991 10.1026C24.9896 10.1014 24.9883 10.1003 24.987 10.099C25.0978 10.7377 25.1872 11.3977 25.2534 12.0748C25.2477 12.0784 25.2416 12.0816 25.2359 12.0852C25.2437 12.0932 25.2519 12.1011 25.2598 12.1091C25.3697 13.2453 25.4161 14.4284 25.3944 15.6357C25.3808 16.3993 25.3401 17.1524 25.2742 17.8893C23.5187 19.308 21.3482 20.7198 18.9624 21.9842C18.1783 22.3998 17.3944 22.7866 16.6181 23.1427C16.606 23.1483 16.5941 23.1537 16.582 23.1593C16.5227 23.1863 16.4632 23.2138 16.4039 23.2407C16.4034 23.2405 16.403 23.2404 16.4026 23.2402C15.7593 23.5312 15.1222 23.8004 14.4957 24.0462C14.4958 24.0464 14.4958 24.0467 14.4959 24.0468C14.4605 24.0607 14.4254 24.074 14.3901 24.0878C14.3461 24.105 14.302 24.1219 14.2581 24.1389C14.153 24.1792 14.0483 24.2189 13.9438 24.2579C13.9151 24.2686 13.8862 24.2799 13.8574 24.2904C13.7306 24.3375 13.6045 24.3832 13.4788 24.4282C13.4631 24.4338 13.4474 24.4397 13.4318 24.4453C13.4316 24.4452 13.4314 24.4452 13.4313 24.445C12.0886 24.9232 10.8095 25.2845 9.64388 25.5088C6.82721 26.0511 5.5009 25.6351 5.1988 25.0652M7.2187 3.90665C9.60271 2.19948 12.4515 1.27832 15.442 1.27832C16.2314 1.27832 17.0106 1.34291 17.7741 1.46889C17.9785 1.50264 18.0472 1.76362 17.8841 1.89155C17.1442 2.47157 16.4568 3.32981 15.8484 4.44278C15.7 4.71433 15.3851 4.84711 15.0873 4.76322C13.0718 4.19583 11.0888 3.92887 9.25658 3.99318C8.58071 4.01693 7.94068 4.0854 7.3394 4.19624C7.1705 4.22736 7.07911 4.00651 7.2187 3.90665M26.665 14.2305C26.6608 14.0681 26.8691 13.9988 26.9633 14.131C27.079 14.2934 27.1905 14.4566 27.2973 14.6206C27.4393 14.8387 27.5714 15.0555 27.6942 15.271C27.7707 15.4053 27.7524 15.5738 27.6482 15.6879C27.4828 15.8696 27.3033 16.0574 27.1084 16.2521C27.0373 16.3231 26.9648 16.3942 26.8909 16.4655C26.7993 16.5541 26.6455 16.4866 26.6505 16.3591C26.6595 16.1267 26.6662 15.8935 26.6704 15.6592C26.679 15.1791 26.6769 14.7026 26.665 14.2305M25.2018 5.16929C25.2908 5.25373 25.3789 5.33957 25.466 5.42666C26.831 6.79173 27.8825 8.38681 28.5856 10.124C28.6565 10.2991 28.5078 10.4825 28.3218 10.449C27.915 10.3759 27.4572 10.3433 26.9504 10.3518C26.5991 10.3576 26.2938 10.1115 26.2321 9.76563C25.9567 8.22124 25.5585 6.79465 25.0471 5.54958C25.0179 5.47861 24.9884 5.40846 24.9586 5.33902C24.8936 5.18748 25.0822 5.05567 25.2018 5.16929M30.5544 12.2319C29.9441 9.33213 28.5091 6.66783 26.3645 4.52328C23.4476 1.60633 19.5693 0 15.444 0C11.3188 0 7.44037 1.60633 4.52342 4.52328C3.81394 5.23276 3.18294 5.99933 2.63277 6.81215C2.46915 7.02993 2.32262 7.25995 2.19233 7.50065C0.763233 9.87535 0 12.601 0 15.444C0 19.5693 1.60647 23.4476 4.52342 26.3645C7.44037 29.2815 11.3188 30.8881 15.444 30.8881C19.5693 30.8881 23.4476 29.2815 26.3645 26.3645C27.7412 24.9879 28.8256 23.397 29.5873 21.6672C29.6804 21.4755 29.7616 21.2793 29.8315 21.0791C30.5249 19.3074 30.8881 17.4036 30.8881 15.444C30.8881 14.3653 30.7772 13.304 30.5629 12.2719C30.56 12.2585 30.5574 12.2452 30.5544 12.2319" fill="black"/>
</svg>
