<svg width="102.483" height="100" viewBox="0 0 120.125 117.215" fill="none" xmlns="http://www.w3.org/2000/svg">
<g id="Group 1000014175">
<path id="Vector" d="M60.062 23.6724L75.2143 27.1263" stroke="var(--stroke-0, #8F82D8)" stroke-opacity="0.35" stroke-width="0.854759" stroke-linecap="round"/>
<path id="Vector_2" d="M75.2166 27.1256L87.3781 36.8257" stroke="var(--stroke-0, #8F82D8)" stroke-opacity="0.35" stroke-width="0.854759" stroke-linecap="round"/>
<path id="Vector_3" d="M87.3777 36.825L94.1267 50.8392" stroke="var(--stroke-0, #8F82D8)" stroke-opacity="0.35" stroke-width="0.854759" stroke-linecap="round"/>
<path id="Vector_4" d="M94.1237 50.8397V66.3757" stroke="var(--stroke-0, #8F82D8)" stroke-opacity="0.35" stroke-width="0.854759" stroke-linecap="round"/>
<path id="Vector_5" d="M94.1267 66.3751L87.3777 80.3893" stroke="var(--stroke-0, #8F82D8)" stroke-opacity="0.35" stroke-width="0.854759" stroke-linecap="round"/>
<path id="Vector_6" d="M87.3781 80.3898L75.2166 90.0898" stroke="var(--stroke-0, #8F82D8)" stroke-opacity="0.35" stroke-width="0.854759" stroke-linecap="round"/>
<path id="Vector_7" d="M75.2143 90.0906L60.062 93.5445" stroke="var(--stroke-0, #8F82D8)" stroke-opacity="0.35" stroke-width="0.854759" stroke-linecap="round"/>
<path id="Vector_8" d="M60.0651 93.5445L44.9128 90.0906" stroke="var(--stroke-0, #8F82D8)" stroke-opacity="0.35" stroke-width="0.854759" stroke-linecap="round"/>
<path id="Vector_9" d="M44.9079 90.0898L32.7464 80.3898" stroke="var(--stroke-0, #8F82D8)" stroke-opacity="0.35" stroke-width="0.854759" stroke-linecap="round"/>
<path id="Vector_10" d="M32.7494 80.3893L26.0003 66.3751" stroke="var(--stroke-0, #8F82D8)" stroke-opacity="0.35" stroke-width="0.854759" stroke-linecap="round"/>
<path id="Vector_11" d="M26.0003 66.3757V50.8397" stroke="var(--stroke-0, #8F82D8)" stroke-opacity="0.35" stroke-width="0.854759" stroke-linecap="round"/>
<path id="Vector_12" d="M26.0003 50.8392L32.7494 36.825" stroke="var(--stroke-0, #8F82D8)" stroke-opacity="0.35" stroke-width="0.854759" stroke-linecap="round"/>
<path id="Vector_13" d="M32.7464 36.8257L44.9079 27.1256" stroke="var(--stroke-0, #8F82D8)" stroke-opacity="0.35" stroke-width="0.854759" stroke-linecap="round"/>
<path id="Vector_14" d="M44.9128 27.1263L60.0651 23.6724" stroke="var(--stroke-0, #8F82D8)" stroke-opacity="0.35" stroke-width="0.854759" stroke-linecap="round"/>
<path id="Vector_15" d="M73.0196 1.83587L96.3633 13.0843" stroke="var(--stroke-0, #8F82D8)" stroke-opacity="0.35" stroke-width="0.854759" stroke-linecap="round"/>
<path id="Vector_16" d="M96.3582 13.0855L112.516 33.3459" stroke="var(--stroke-0, #8F82D8)" stroke-opacity="0.35" stroke-width="0.854759" stroke-linecap="round"/>
<path id="Vector_17" d="M112.523 33.3451L118.293 58.6077" stroke="var(--stroke-0, #8F82D8)" stroke-opacity="0.35" stroke-width="0.854759" stroke-linecap="round"/>
<path id="Vector_18" d="M118.293 58.6081L112.523 83.8706" stroke="var(--stroke-0, #8F82D8)" stroke-opacity="0.35" stroke-width="0.854759" stroke-linecap="round"/>
<path id="Vector_19" d="M112.516 83.871L96.3582 104.131" stroke="var(--stroke-0, #8F82D8)" stroke-opacity="0.35" stroke-width="0.854759" stroke-linecap="round"/>
<path id="Vector_20" d="M96.3633 104.131L73.0196 115.379" stroke="var(--stroke-0, #8F82D8)" stroke-opacity="0.35" stroke-width="0.854759" stroke-linecap="round"/>
<path id="Vector_21" d="M73.0208 115.379H47.1098" stroke="var(--stroke-0, #8F82D8)" stroke-opacity="0.35" stroke-width="0.854759" stroke-linecap="round"/>
<path id="Vector_22" d="M47.1043 115.379L23.7606 104.131" stroke="var(--stroke-0, #8F82D8)" stroke-opacity="0.35" stroke-width="0.854759" stroke-linecap="round"/>
<path id="Vector_23" d="M23.7644 104.131L7.60637 83.871" stroke="var(--stroke-0, #8F82D8)" stroke-opacity="0.35" stroke-width="0.854759" stroke-linecap="round"/>
<path id="Vector_24" d="M7.60297 83.8706L1.8332 58.6081" stroke="var(--stroke-0, #8F82D8)" stroke-opacity="0.35" stroke-width="0.854759" stroke-linecap="round"/>
<path id="Vector_25" d="M1.8332 58.6077L7.60297 33.3451" stroke="var(--stroke-0, #8F82D8)" stroke-opacity="0.35" stroke-width="0.854759" stroke-linecap="round"/>
<path id="Vector_26" d="M7.60637 33.3459L23.7644 13.0855" stroke="var(--stroke-0, #8F82D8)" stroke-opacity="0.35" stroke-width="0.854759" stroke-linecap="round"/>
<path id="Vector_27" d="M23.7606 13.0843L47.1043 1.83587" stroke="var(--stroke-0, #8F82D8)" stroke-opacity="0.35" stroke-width="0.854759" stroke-linecap="round"/>
<path id="Vector_28" d="M47.1098 1.83587H73.0208" stroke="var(--stroke-0, #8F82D8)" stroke-opacity="0.35" stroke-width="0.854759" stroke-linecap="round"/>
<path id="Vector_29" d="M60.062 23.671L73.0176 1.83587" stroke="var(--stroke-0, #8F82D8)" stroke-opacity="0.35" stroke-width="0.854759" stroke-linecap="round"/>
<path id="Vector_30" d="M75.2166 27.1262L96.3636 13.0855" stroke="var(--stroke-0, #8F82D8)" stroke-opacity="0.35" stroke-width="0.854759" stroke-linecap="round"/>
<path id="Vector_31" d="M87.3777 36.8255L112.521 33.3451" stroke="var(--stroke-0, #8F82D8)" stroke-opacity="0.35" stroke-width="0.854759" stroke-linecap="round"/>
<path id="Vector_32" d="M94.1237 50.8397L118.288 58.6077" stroke="var(--stroke-0, #8F82D8)" stroke-opacity="0.35" stroke-width="0.854759" stroke-linecap="round"/>
<path id="Vector_33" d="M94.1237 66.3751L112.518 83.8697" stroke="var(--stroke-0, #8F82D8)" stroke-opacity="0.35" stroke-width="0.854759" stroke-linecap="round"/>
<path id="Vector_34" d="M87.3777 80.3898L96.3632 104.13" stroke="var(--stroke-0, #8F82D8)" stroke-opacity="0.35" stroke-width="0.854759" stroke-linecap="round"/>
<path id="Vector_35" d="M75.2163 90.0906L73.0196 115.38" stroke="var(--stroke-0, #8F82D8)" stroke-opacity="0.35" stroke-width="0.854759" stroke-linecap="round"/>
<path id="Vector_36" d="M60.0653 93.5438L47.1098 115.379" stroke="var(--stroke-0, #8F82D8)" stroke-opacity="0.35" stroke-width="0.854759" stroke-linecap="round"/>
<path id="Vector_37" d="M44.9075 90.0906L23.7606 104.131" stroke="var(--stroke-0, #8F82D8)" stroke-opacity="0.35" stroke-width="0.854759" stroke-linecap="round"/>
<path id="Vector_38" d="M32.7498 80.3898L7.60637 83.8701" stroke="var(--stroke-0, #8F82D8)" stroke-opacity="0.35" stroke-width="0.854759" stroke-linecap="round"/>
<path id="Vector_39" d="M25.9974 66.3761L1.8332 58.6081" stroke="var(--stroke-0, #8F82D8)" stroke-opacity="0.35" stroke-width="0.854759" stroke-linecap="round"/>
<path id="Vector_40" d="M26.0008 50.8397L7.60637 33.3451" stroke="var(--stroke-0, #8F82D8)" stroke-opacity="0.35" stroke-width="0.854759" stroke-linecap="round"/>
<path id="Vector_41" d="M32.746 36.8263L23.7606 13.0855" stroke="var(--stroke-0, #8F82D8)" stroke-opacity="0.35" stroke-width="0.854759" stroke-linecap="round"/>
<path id="Vector_42" d="M44.9128 27.1249L47.1096 1.83587" stroke="var(--stroke-0, #8F82D8)" stroke-opacity="0.35" stroke-width="0.854759" stroke-linecap="round"/>
<path id="Vector_43" d="M60.062 23.6723L96.3613 13.0855" stroke="var(--stroke-0, #8F82D8)" stroke-opacity="0.35" stroke-width="0.854759" stroke-linecap="round"/>
<path id="Vector_44" d="M75.2166 27.1256L112.522 33.3453" stroke="var(--stroke-0, #8F82D8)" stroke-opacity="0.35" stroke-width="0.854759" stroke-linecap="round"/>
<path id="Vector_45" d="M87.3777 36.825L118.291 58.6072" stroke="var(--stroke-0, #8F82D8)" stroke-opacity="0.35" stroke-width="0.854759" stroke-linecap="round"/>
<path id="Vector_46" d="M94.1237 50.8397L112.518 83.8703" stroke="var(--stroke-0, #8F82D8)" stroke-opacity="0.35" stroke-width="0.854759" stroke-linecap="round"/>
<path id="Vector_47" d="M94.1237 66.3751L96.3602 104.13" stroke="var(--stroke-0, #8F82D8)" stroke-opacity="0.35" stroke-width="0.854759" stroke-linecap="round"/>
<path id="Vector_48" d="M87.3779 80.3898L73.0196 115.379" stroke="var(--stroke-0, #8F82D8)" stroke-opacity="0.35" stroke-width="0.854759" stroke-linecap="round"/>
<path id="Vector_49" d="M75.2176 90.0906L47.1098 115.38" stroke="var(--stroke-0, #8F82D8)" stroke-opacity="0.35" stroke-width="0.854759" stroke-linecap="round"/>
<path id="Vector_50" d="M60.0598 93.5438L23.7606 104.13" stroke="var(--stroke-0, #8F82D8)" stroke-opacity="0.35" stroke-width="0.854759" stroke-linecap="round"/>
<path id="Vector_51" d="M44.9114 90.0907L7.60637 83.871" stroke="var(--stroke-0, #8F82D8)" stroke-opacity="0.35" stroke-width="0.854759" stroke-linecap="round"/>
<path id="Vector_52" d="M32.7464 80.3902L1.8332 58.6081" stroke="var(--stroke-0, #8F82D8)" stroke-opacity="0.35" stroke-width="0.854759" stroke-linecap="round"/>
<path id="Vector_53" d="M26.0008 66.3757L7.60637 33.3451" stroke="var(--stroke-0, #8F82D8)" stroke-opacity="0.35" stroke-width="0.854759" stroke-linecap="round"/>
<path id="Vector_54" d="M25.997 50.8405L23.7606 13.0855" stroke="var(--stroke-0, #8F82D8)" stroke-opacity="0.35" stroke-width="0.854759" stroke-linecap="round"/>
<path id="Vector_55" d="M32.7464 36.825L47.1046 1.83587" stroke="var(--stroke-0, #8F82D8)" stroke-opacity="0.35" stroke-width="0.854759" stroke-linecap="round"/>
<path id="Vector_56" d="M44.9128 27.1249L73.0206 1.83587" stroke="var(--stroke-0, #8F82D8)" stroke-opacity="0.35" stroke-width="0.854759" stroke-linecap="round"/>
<path id="Vector_57" d="M60.0597 24.996C60.7906 24.996 61.383 24.4035 61.383 23.6727C61.383 22.9418 60.7906 22.3493 60.0597 22.3493C59.3288 22.3493 58.7364 22.9418 58.7364 23.6727C58.7364 24.4035 59.3288 24.996 60.0597 24.996Z" fill="var(--fill-0, #D6C4F7)" stroke="var(--stroke-0, #8F82D8)" stroke-opacity="0.85" stroke-width="1.02571"/>
<path id="Vector_58" d="M75.2143 28.4492C75.9451 28.4492 76.5376 27.8568 76.5376 27.1259C76.5376 26.395 75.9451 25.8026 75.2143 25.8026C74.4834 25.8026 73.8909 26.395 73.8909 27.1259C73.8909 27.8568 74.4834 28.4492 75.2143 28.4492Z" fill="var(--fill-0, #D6C4F7)" stroke="var(--stroke-0, #8F82D8)" stroke-opacity="0.85" stroke-width="1.02571"/>
<path id="Vector_59" d="M87.3753 38.1487C88.1062 38.1487 88.6987 37.5562 88.6987 36.8254C88.6987 36.0945 88.1062 35.502 87.3753 35.502C86.6445 35.502 86.052 36.0945 86.052 36.8254C86.052 37.5562 86.6445 38.1487 87.3753 38.1487Z" fill="var(--fill-0, #D6C4F7)" stroke="var(--stroke-0, #8F82D8)" stroke-opacity="0.85" stroke-width="1.02571"/>
<path id="Vector_60" d="M94.1267 52.1633C94.8576 52.1633 95.4501 51.5709 95.4501 50.84C95.4501 50.1091 94.8576 49.5167 94.1267 49.5167C93.3959 49.5167 92.8034 50.1091 92.8034 50.84C92.8034 51.5709 93.3959 52.1633 94.1267 52.1633Z" fill="var(--fill-0, #D6C4F7)" stroke="var(--stroke-0, #8F82D8)" stroke-opacity="0.85" stroke-width="1.02571"/>
<path id="Vector_61" d="M94.1267 67.6988C94.8576 67.6988 95.4501 67.1063 95.4501 66.3754C95.4501 65.6446 94.8576 65.0521 94.1267 65.0521C93.3959 65.0521 92.8034 65.6446 92.8034 66.3754C92.8034 67.1063 93.3959 67.6988 94.1267 67.6988Z" fill="var(--fill-0, #D6C4F7)" stroke="var(--stroke-0, #8F82D8)" stroke-opacity="0.85" stroke-width="1.02571"/>
<path id="Vector_62" d="M87.3753 81.7134C88.1062 81.7134 88.6987 81.1209 88.6987 80.3901C88.6987 79.6592 88.1062 79.0667 87.3753 79.0667C86.6445 79.0667 86.052 79.6592 86.052 80.3901C86.052 81.1209 86.6445 81.7134 87.3753 81.7134Z" fill="var(--fill-0, #D6C4F7)" stroke="var(--stroke-0, #8F82D8)" stroke-opacity="0.85" stroke-width="1.02571"/>
<path id="Vector_63" d="M75.2143 91.4142C75.9451 91.4142 76.5376 90.8217 76.5376 90.0909C76.5376 89.36 75.9451 88.7675 75.2143 88.7675C74.4834 88.7675 73.8909 89.36 73.8909 90.0909C73.8909 90.8217 74.4834 91.4142 75.2143 91.4142Z" fill="var(--fill-0, #D6C4F7)" stroke="var(--stroke-0, #8F82D8)" stroke-opacity="0.85" stroke-width="1.02571"/>
<path id="Vector_64" d="M60.0597 94.8674C60.7906 94.8674 61.383 94.2749 61.383 93.5441C61.383 92.8132 60.7906 92.2207 60.0597 92.2207C59.3288 92.2207 58.7364 92.8132 58.7364 93.5441C58.7364 94.2749 59.3288 94.8674 60.0597 94.8674Z" fill="var(--fill-0, #D6C4F7)" stroke="var(--stroke-0, #8F82D8)" stroke-opacity="0.85" stroke-width="1.02571"/>
<path id="Vector_65" d="M44.9105 91.4142C45.6413 91.4142 46.2338 90.8217 46.2338 90.0909C46.2338 89.36 45.6413 88.7675 44.9105 88.7675C44.1796 88.7675 43.5871 89.36 43.5871 90.0909C43.5871 90.8217 44.1796 91.4142 44.9105 91.4142Z" fill="var(--fill-0, #D6C4F7)" stroke="var(--stroke-0, #8F82D8)" stroke-opacity="0.85" stroke-width="1.02571"/>
<path id="Vector_66" d="M32.7494 81.7134C33.4802 81.7134 34.0727 81.1209 34.0727 80.3901C34.0727 79.6592 33.4802 79.0667 32.7494 79.0667C32.0185 79.0667 31.426 79.6592 31.426 80.3901C31.426 81.1209 32.0185 81.7134 32.7494 81.7134Z" fill="var(--fill-0, #D6C4F7)" stroke="var(--stroke-0, #8F82D8)" stroke-opacity="0.85" stroke-width="1.02571"/>
<path id="Vector_67" d="M25.998 67.6988C26.7288 67.6988 27.3213 67.1063 27.3213 66.3754C27.3213 65.6446 26.7288 65.0521 25.998 65.0521C25.2671 65.0521 24.6746 65.6446 24.6746 66.3754C24.6746 67.1063 25.2671 67.6988 25.998 67.6988Z" fill="var(--fill-0, #D6C4F7)" stroke="var(--stroke-0, #8F82D8)" stroke-opacity="0.85" stroke-width="1.02571"/>
<path id="Vector_68" d="M25.998 52.1633C26.7288 52.1633 27.3213 51.5709 27.3213 50.84C27.3213 50.1091 26.7288 49.5167 25.998 49.5167C25.2671 49.5167 24.6746 50.1091 24.6746 50.84C24.6746 51.5709 25.2671 52.1633 25.998 52.1633Z" fill="var(--fill-0, #D6C4F7)" stroke="var(--stroke-0, #8F82D8)" stroke-opacity="0.85" stroke-width="1.02571"/>
<path id="Vector_69" d="M32.7494 38.1487C33.4802 38.1487 34.0727 37.5562 34.0727 36.8254C34.0727 36.0945 33.4802 35.502 32.7494 35.502C32.0185 35.502 31.426 36.0945 31.426 36.8254C31.426 37.5562 32.0185 38.1487 32.7494 38.1487Z" fill="var(--fill-0, #D6C4F7)" stroke="var(--stroke-0, #8F82D8)" stroke-opacity="0.85" stroke-width="1.02571"/>
<path id="Vector_70" d="M44.9105 28.4492C45.6413 28.4492 46.2338 27.8568 46.2338 27.1259C46.2338 26.395 45.6413 25.8026 44.9105 25.8026C44.1796 25.8026 43.5871 26.395 43.5871 27.1259C43.5871 27.8568 44.1796 28.4492 44.9105 28.4492Z" fill="var(--fill-0, #D6C4F7)" stroke="var(--stroke-0, #8F82D8)" stroke-opacity="0.85" stroke-width="1.02571"/>
<path id="Vector_71" d="M73.0173 3.15954C73.7481 3.15954 74.3406 2.56706 74.3406 1.8362C74.3406 1.10534 73.7481 0.512856 73.0173 0.512856C72.2864 0.512856 71.6939 1.10534 71.6939 1.8362C71.6939 2.56706 72.2864 3.15954 73.0173 3.15954Z" fill="var(--fill-0, #D6C4F7)" stroke="var(--stroke-0, #8F82D8)" stroke-opacity="0.85" stroke-width="1.02571"/>
<path id="Vector_72" d="M96.3612 14.4092C97.092 14.4092 97.6845 13.8167 97.6845 13.0859C97.6845 12.355 97.092 11.7625 96.3612 11.7625C95.6303 11.7625 95.0378 12.355 95.0378 13.0859C95.0378 13.8167 95.6303 14.4092 96.3612 14.4092Z" fill="var(--fill-0, #D6C4F7)" stroke="var(--stroke-0, #8F82D8)" stroke-opacity="0.85" stroke-width="1.02571"/>
<path id="Vector_73" d="M112.521 34.6688C113.252 34.6688 113.844 34.0763 113.844 33.3454C113.844 32.6146 113.252 32.0221 112.521 32.0221C111.79 32.0221 111.197 32.6146 111.197 33.3454C111.197 34.0763 111.79 34.6688 112.521 34.6688Z" fill="var(--fill-0, #D6C4F7)" stroke="var(--stroke-0, #8F82D8)" stroke-opacity="0.85" stroke-width="1.02571"/>
<path id="Vector_74" d="M118.289 59.9317C119.019 59.9317 119.612 59.3392 119.612 58.6084C119.612 57.8775 119.019 57.285 118.289 57.285C117.558 57.285 116.965 57.8775 116.965 58.6084C116.965 59.3392 117.558 59.9317 118.289 59.9317Z" fill="var(--fill-0, #D6C4F7)" stroke="var(--stroke-0, #8F82D8)" stroke-opacity="0.85" stroke-width="1.02571"/>
<path id="Vector_75" d="M112.521 85.1947C113.252 85.1947 113.844 84.6022 113.844 83.8713C113.844 83.1405 113.252 82.548 112.521 82.548C111.79 82.548 111.197 83.1405 111.197 83.8713C111.197 84.6022 111.79 85.1947 112.521 85.1947Z" fill="var(--fill-0, #D6C4F7)" stroke="var(--stroke-0, #8F82D8)" stroke-opacity="0.85" stroke-width="1.02571"/>
<path id="Vector_76" d="M96.3612 105.454C97.092 105.454 97.6845 104.862 97.6845 104.131C97.6845 103.4 97.092 102.808 96.3612 102.808C95.6303 102.808 95.0378 103.4 95.0378 104.131C95.0378 104.862 95.6303 105.454 96.3612 105.454Z" fill="var(--fill-0, #D6C4F7)" stroke="var(--stroke-0, #8F82D8)" stroke-opacity="0.85" stroke-width="1.02571"/>
<path id="Vector_77" d="M73.0173 116.703C73.7481 116.703 74.3406 116.11 74.3406 115.379C74.3406 114.648 73.7481 114.056 73.0173 114.056C72.2864 114.056 71.6939 114.648 71.6939 115.379C71.6939 116.11 72.2864 116.703 73.0173 116.703Z" fill="var(--fill-0, #D6C4F7)" stroke="var(--stroke-0, #8F82D8)" stroke-opacity="0.85" stroke-width="1.02571"/>
<path id="Vector_78" d="M47.1075 116.703C47.8383 116.703 48.4308 116.11 48.4308 115.379C48.4308 114.648 47.8383 114.056 47.1075 114.056C46.3766 114.056 45.7841 114.648 45.7841 115.379C45.7841 116.11 46.3766 116.703 47.1075 116.703Z" fill="var(--fill-0, #D6C4F7)" stroke="var(--stroke-0, #8F82D8)" stroke-opacity="0.85" stroke-width="1.02571"/>
<path id="Vector_79" d="M23.7636 105.454C24.4944 105.454 25.0869 104.862 25.0869 104.131C25.0869 103.4 24.4944 102.808 23.7636 102.808C23.0327 102.808 22.4402 103.4 22.4402 104.131C22.4402 104.862 23.0327 105.454 23.7636 105.454Z" fill="var(--fill-0, #D6C4F7)" stroke="var(--stroke-0, #8F82D8)" stroke-opacity="0.85" stroke-width="1.02571"/>
<path id="Vector_80" d="M7.60402 85.1947C8.33488 85.1947 8.92736 84.6022 8.92736 83.8713C8.92736 83.1405 8.33488 82.548 7.60402 82.548C6.87316 82.548 6.28068 83.1405 6.28068 83.8713C6.28068 84.6022 6.87316 85.1947 7.60402 85.1947Z" fill="var(--fill-0, #D6C4F7)" stroke="var(--stroke-0, #8F82D8)" stroke-opacity="0.85" stroke-width="1.02571"/>
<path id="Vector_81" d="M1.8362 59.9317C2.56706 59.9317 3.15954 59.3392 3.15954 58.6084C3.15954 57.8775 2.56706 57.285 1.8362 57.285C1.10534 57.285 0.512856 57.8775 0.512856 58.6084C0.512856 59.3392 1.10534 59.9317 1.8362 59.9317Z" fill="var(--fill-0, #D6C4F7)" stroke="var(--stroke-0, #8F82D8)" stroke-opacity="0.85" stroke-width="1.02571"/>
<path id="Vector_82" d="M7.60402 34.6688C8.33488 34.6688 8.92736 34.0763 8.92736 33.3454C8.92736 32.6146 8.33488 32.0221 7.60402 32.0221C6.87316 32.0221 6.28068 32.6146 6.28068 33.3454C6.28068 34.0763 6.87316 34.6688 7.60402 34.6688Z" fill="var(--fill-0, #D6C4F7)" stroke="var(--stroke-0, #8F82D8)" stroke-opacity="0.85" stroke-width="1.02571"/>
<path id="Vector_83" d="M23.7636 14.4092C24.4944 14.4092 25.0869 13.8167 25.0869 13.0859C25.0869 12.355 24.4944 11.7625 23.7636 11.7625C23.0327 11.7625 22.4402 12.355 22.4402 13.0859C22.4402 13.8167 23.0327 14.4092 23.7636 14.4092Z" fill="var(--fill-0, #D6C4F7)" stroke="var(--stroke-0, #8F82D8)" stroke-opacity="0.85" stroke-width="1.02571"/>
<path id="Vector_84" d="M47.1075 3.15954C47.8383 3.15954 48.4308 2.56706 48.4308 1.8362C48.4308 1.10534 47.8383 0.512856 47.1075 0.512856C46.3766 0.512856 45.7841 1.10534 45.7841 1.8362C45.7841 2.56706 46.3766 3.15954 47.1075 3.15954Z" fill="var(--fill-0, #D6C4F7)" stroke="var(--stroke-0, #8F82D8)" stroke-opacity="0.85" stroke-width="1.02571"/>
</g>
</svg>
