<svg width="100" height="100" viewBox="0 0 97.0466 97.0426" fill="none" xmlns="http://www.w3.org/2000/svg">
<g id="Group 1000014176">
<path id="Vector" d="M48.5203 48.5217C42.3205 33.0221 42.3205 17.5225 48.5203 2.02297" stroke="var(--stroke-0, #8F82D8)" stroke-opacity="0.35" stroke-width="0.854759" stroke-linecap="round"/>
<path id="Vector_2" d="M48.521 48.5211C48.7223 31.8238 54.6555 17.5018 66.3204 5.55503" stroke="var(--stroke-0, #8F82D8)" stroke-opacity="0.35" stroke-width="0.854759" stroke-linecap="round"/>
<path id="Vector_3" d="M48.521 2.02288C54.9222 0.825181 60.8553 2.00275 66.3204 5.55557" stroke="var(--stroke-0, #8F82D8)" stroke-opacity="0.35" stroke-width="0.854759" stroke-linecap="round"/>
<path id="Vector_4" d="M48.521 48.522C55.0933 33.1733 66.0537 22.2129 81.4023 15.6407" stroke="var(--stroke-0, #8F82D8)" stroke-opacity="0.35" stroke-width="0.854759" stroke-linecap="round"/>
<path id="Vector_5" d="M48.521 48.5211C60.4678 36.8662 74.7898 30.9331 91.4871 30.7218" stroke="var(--stroke-0, #8F82D8)" stroke-opacity="0.35" stroke-width="0.854759" stroke-linecap="round"/>
<path id="Vector_6" d="M81.4014 15.6407C86.7759 19.3244 90.1375 24.3517 91.4862 30.7226" stroke="var(--stroke-0, #8F82D8)" stroke-opacity="0.35" stroke-width="0.854759" stroke-linecap="round"/>
<path id="Vector_7" d="M48.521 48.5216C64.0206 42.3218 79.5202 42.3218 95.0198 48.5216" stroke="var(--stroke-0, #8F82D8)" stroke-opacity="0.35" stroke-width="0.854759" stroke-linecap="round"/>
<path id="Vector_8" d="M48.521 48.5224C65.2183 48.7237 79.5403 54.6568 91.4871 66.3217" stroke="var(--stroke-0, #8F82D8)" stroke-opacity="0.35" stroke-width="0.854759" stroke-linecap="round"/>
<path id="Vector_9" d="M95.0211 48.5224C96.2188 54.9235 95.0412 60.8566 91.4884 66.3217" stroke="var(--stroke-0, #8F82D8)" stroke-opacity="0.35" stroke-width="0.854759" stroke-linecap="round"/>
<path id="Vector_10" d="M48.521 48.5224C63.8697 55.0946 74.8301 66.055 81.4023 81.4036" stroke="var(--stroke-0, #8F82D8)" stroke-opacity="0.35" stroke-width="0.854759" stroke-linecap="round"/>
<path id="Vector_11" d="M48.521 48.5224C60.1759 60.4691 66.109 74.7911 66.3204 91.4884" stroke="var(--stroke-0, #8F82D8)" stroke-opacity="0.35" stroke-width="0.854759" stroke-linecap="round"/>
<path id="Vector_12" d="M81.4035 81.4027C77.7199 86.7773 72.6926 90.1389 66.3217 91.4875" stroke="var(--stroke-0, #8F82D8)" stroke-opacity="0.35" stroke-width="0.854759" stroke-linecap="round"/>
<path id="Vector_13" d="M48.521 48.5224C54.7209 64.022 54.7209 79.5215 48.521 95.0211" stroke="var(--stroke-0, #8F82D8)" stroke-opacity="0.35" stroke-width="0.854759" stroke-linecap="round"/>
<path id="Vector_14" d="M48.5251 48.5224C48.3238 65.2197 42.3907 79.5417 30.7258 91.4884" stroke="var(--stroke-0, #8F82D8)" stroke-opacity="0.35" stroke-width="0.854759" stroke-linecap="round"/>
<path id="Vector_15" d="M48.5251 95.0198C42.124 96.2175 36.1909 95.0399 30.7258 91.4871" stroke="var(--stroke-0, #8F82D8)" stroke-opacity="0.35" stroke-width="0.854759" stroke-linecap="round"/>
<path id="Vector_16" d="M48.522 48.5224C41.9497 63.871 30.9893 74.8314 15.6407 81.4036" stroke="var(--stroke-0, #8F82D8)" stroke-opacity="0.35" stroke-width="0.854759" stroke-linecap="round"/>
<path id="Vector_17" d="M48.5197 48.5224C36.573 60.1773 22.251 66.1104 5.55369 66.3217" stroke="var(--stroke-0, #8F82D8)" stroke-opacity="0.35" stroke-width="0.854759" stroke-linecap="round"/>
<path id="Vector_18" d="M15.6385 81.4035C10.264 77.7199 6.90235 72.6926 5.55369 66.3217" stroke="var(--stroke-0, #8F82D8)" stroke-opacity="0.35" stroke-width="0.854759" stroke-linecap="round"/>
<path id="Vector_19" d="M48.5244 48.5224C33.0248 54.7222 17.5252 54.7222 2.02564 48.5224" stroke="var(--stroke-0, #8F82D8)" stroke-opacity="0.35" stroke-width="0.854759" stroke-linecap="round"/>
<path id="Vector_20" d="M48.5197 48.5211C31.8225 48.3198 17.5004 42.3867 5.55369 30.7218" stroke="var(--stroke-0, #8F82D8)" stroke-opacity="0.35" stroke-width="0.854759" stroke-linecap="round"/>
<path id="Vector_21" d="M2.02421 48.5211C0.826517 42.12 2.00408 36.1869 5.55691 30.7218" stroke="var(--stroke-0, #8F82D8)" stroke-opacity="0.35" stroke-width="0.854759" stroke-linecap="round"/>
<path id="Vector_22" d="M48.522 48.522C33.1733 41.9497 22.2129 30.9893 15.6407 15.6407" stroke="var(--stroke-0, #8F82D8)" stroke-opacity="0.35" stroke-width="0.854759" stroke-linecap="round"/>
<path id="Vector_23" d="M48.5251 48.5211C36.8703 36.5743 30.9371 22.2523 30.7258 5.55503" stroke="var(--stroke-0, #8F82D8)" stroke-opacity="0.35" stroke-width="0.854759" stroke-linecap="round"/>
<path id="Vector_24" d="M15.6407 15.6398C19.3244 10.2653 24.3517 6.90369 30.7226 5.55503" stroke="var(--stroke-0, #8F82D8)" stroke-opacity="0.35" stroke-width="0.854759" stroke-linecap="round"/>
<path id="Vector_25" d="M48.5233 50.0317C49.3571 50.0317 50.033 49.3558 50.033 48.522C50.033 47.6882 49.3571 47.0123 48.5233 47.0123C47.6895 47.0123 47.0136 47.6882 47.0136 48.522C47.0136 49.3558 47.6895 50.0317 48.5233 50.0317Z" fill="var(--fill-0, #D6C4F7)" stroke="var(--stroke-0, #8F82D8)" stroke-opacity="0.85" stroke-width="1.02571"/>
<path id="Vector_26" d="M48.5233 3.53225C49.3571 3.53225 50.033 2.85634 50.033 2.02256C50.033 1.18877 49.3571 0.512856 48.5233 0.512856C47.6895 0.512856 47.0136 1.18877 47.0136 2.02256C47.0136 2.85634 47.6895 3.53225 48.5233 3.53225Z" fill="var(--fill-0, #D6C4F7)" stroke="var(--stroke-0, #8F82D8)" stroke-opacity="0.85" stroke-width="1.02571"/>
<path id="Vector_27" d="M66.3186 7.06565C67.1524 7.06565 67.8283 6.38973 67.8283 5.55595C67.8283 4.72217 67.1524 4.04625 66.3186 4.04625C65.4848 4.04625 64.8089 4.72217 64.8089 5.55595C64.8089 6.38973 65.4848 7.06565 66.3186 7.06565Z" fill="var(--fill-0, #D6C4F7)" stroke="var(--stroke-0, #8F82D8)" stroke-opacity="0.85" stroke-width="1.02571"/>
<path id="Vector_28" d="M81.4037 17.15C82.2374 17.15 82.9133 16.4741 82.9133 15.6403C82.9133 14.8065 82.2374 14.1306 81.4037 14.1306C80.5699 14.1306 79.894 14.8065 79.894 15.6403C79.894 16.4741 80.5699 17.15 81.4037 17.15Z" fill="var(--fill-0, #D6C4F7)" stroke="var(--stroke-0, #8F82D8)" stroke-opacity="0.85" stroke-width="1.02571"/>
<path id="Vector_29" d="M91.4907 32.2324C92.3244 32.2324 93.0004 31.5565 93.0004 30.7227C93.0004 29.8889 92.3244 29.213 91.4907 29.213C90.6569 29.213 89.981 29.8889 89.981 30.7227C89.981 31.5565 90.6569 32.2324 91.4907 32.2324Z" fill="var(--fill-0, #D6C4F7)" stroke="var(--stroke-0, #8F82D8)" stroke-opacity="0.85" stroke-width="1.02571"/>
<path id="Vector_30" d="M95.0241 50.0317C95.8578 50.0317 96.5338 49.3558 96.5338 48.522C96.5338 47.6882 95.8578 47.0123 95.0241 47.0123C94.1903 47.0123 93.5144 47.6882 93.5144 48.522C93.5144 49.3558 94.1903 50.0317 95.0241 50.0317Z" fill="var(--fill-0, #D6C4F7)" stroke="var(--stroke-0, #8F82D8)" stroke-opacity="0.85" stroke-width="1.02571"/>
<path id="Vector_31" d="M91.4907 67.8309C92.3244 67.8309 93.0004 67.155 93.0004 66.3212C93.0004 65.4875 92.3244 64.8115 91.4907 64.8115C90.6569 64.8115 89.981 65.4875 89.981 66.3212C89.981 67.155 90.6569 67.8309 91.4907 67.8309Z" fill="var(--fill-0, #D6C4F7)" stroke="var(--stroke-0, #8F82D8)" stroke-opacity="0.85" stroke-width="1.02571"/>
<path id="Vector_32" d="M81.4037 82.912C82.2374 82.912 82.9133 82.2361 82.9133 81.4023C82.9133 80.5685 82.2374 79.8926 81.4037 79.8926C80.5699 79.8926 79.894 80.5685 79.894 81.4023C79.894 82.2361 80.5699 82.912 81.4037 82.912Z" fill="var(--fill-0, #D6C4F7)" stroke="var(--stroke-0, #8F82D8)" stroke-opacity="0.85" stroke-width="1.02571"/>
<path id="Vector_33" d="M66.3186 92.9964C67.1524 92.9964 67.8283 92.3204 67.8283 91.4867C67.8283 90.6529 67.1524 89.977 66.3186 89.977C65.4848 89.977 64.8089 90.6529 64.8089 91.4867C64.8089 92.3204 65.4848 92.9964 66.3186 92.9964Z" fill="var(--fill-0, #D6C4F7)" stroke="var(--stroke-0, #8F82D8)" stroke-opacity="0.85" stroke-width="1.02571"/>
<path id="Vector_34" d="M48.5233 96.5297C49.3571 96.5297 50.033 95.8538 50.033 95.02C50.033 94.1863 49.3571 93.5103 48.5233 93.5103C47.6895 93.5103 47.0136 94.1863 47.0136 95.02C47.0136 95.8538 47.6895 96.5297 48.5233 96.5297Z" fill="var(--fill-0, #D6C4F7)" stroke="var(--stroke-0, #8F82D8)" stroke-opacity="0.85" stroke-width="1.02571"/>
<path id="Vector_35" d="M30.7227 92.9964C31.5565 92.9964 32.2324 92.3204 32.2324 91.4867C32.2324 90.6529 31.5565 89.977 30.7227 89.977C29.8889 89.977 29.213 90.6529 29.213 91.4867C29.213 92.3204 29.8889 92.9964 30.7227 92.9964Z" fill="var(--fill-0, #D6C4F7)" stroke="var(--stroke-0, #8F82D8)" stroke-opacity="0.85" stroke-width="1.02571"/>
<path id="Vector_36" d="M15.643 82.912C16.4767 82.912 17.1527 82.2361 17.1527 81.4023C17.1527 80.5685 16.4767 79.8926 15.643 79.8926C14.8092 79.8926 14.1333 80.5685 14.1333 81.4023C14.1333 82.2361 14.8092 82.912 15.643 82.912Z" fill="var(--fill-0, #D6C4F7)" stroke="var(--stroke-0, #8F82D8)" stroke-opacity="0.85" stroke-width="1.02571"/>
<path id="Vector_37" d="M5.55595 67.8309C6.38973 67.8309 7.06565 67.155 7.06565 66.3212C7.06565 65.4875 6.38973 64.8115 5.55595 64.8115C4.72217 64.8115 4.04625 65.4875 4.04625 66.3212C4.04625 67.155 4.72217 67.8309 5.55595 67.8309Z" fill="var(--fill-0, #D6C4F7)" stroke="var(--stroke-0, #8F82D8)" stroke-opacity="0.85" stroke-width="1.02571"/>
<path id="Vector_38" d="M2.02255 50.0317C2.85634 50.0317 3.53225 49.3558 3.53225 48.522C3.53225 47.6882 2.85634 47.0123 2.02255 47.0123C1.18877 47.0123 0.512856 47.6882 0.512856 48.522C0.512856 49.3558 1.18877 50.0317 2.02255 50.0317Z" fill="var(--fill-0, #D6C4F7)" stroke="var(--stroke-0, #8F82D8)" stroke-opacity="0.85" stroke-width="1.02571"/>
<path id="Vector_39" d="M5.55595 32.2324C6.38973 32.2324 7.06565 31.5565 7.06565 30.7227C7.06565 29.8889 6.38973 29.213 5.55595 29.213C4.72217 29.213 4.04625 29.8889 4.04625 30.7227C4.04625 31.5565 4.72217 32.2324 5.55595 32.2324Z" fill="var(--fill-0, #D6C4F7)" stroke="var(--stroke-0, #8F82D8)" stroke-opacity="0.85" stroke-width="1.02571"/>
<path id="Vector_40" d="M15.643 17.15C16.4767 17.15 17.1527 16.4741 17.1527 15.6403C17.1527 14.8065 16.4767 14.1306 15.643 14.1306C14.8092 14.1306 14.1333 14.8065 14.1333 15.6403C14.1333 16.4741 14.8092 17.15 15.643 17.15Z" fill="var(--fill-0, #D6C4F7)" stroke="var(--stroke-0, #8F82D8)" stroke-opacity="0.85" stroke-width="1.02571"/>
<path id="Vector_41" d="M30.7227 7.06565C31.5565 7.06565 32.2324 6.38973 32.2324 5.55595C32.2324 4.72217 31.5565 4.04625 30.7227 4.04625C29.8889 4.04625 29.213 4.72217 29.213 5.55595C29.213 6.38973 29.8889 7.06565 30.7227 7.06565Z" fill="var(--fill-0, #D6C4F7)" stroke="var(--stroke-0, #8F82D8)" stroke-opacity="0.85" stroke-width="1.02571"/>
</g>
</svg>
