<svg width="100" height="114.912" viewBox="0 0 108.591 124.785" fill="none" xmlns="http://www.w3.org/2000/svg">
<g id="Group 1000014174">
<path id="Vector" d="M54.2942 42.22L68.554 48.1329" stroke="var(--stroke-0, #8F82D8)" stroke-opacity="0.35" stroke-width="0.854759" stroke-linecap="round"/>
<path id="Vector_2" d="M68.5561 48.1335L74.469 62.3933" stroke="var(--stroke-0, #8F82D8)" stroke-opacity="0.35" stroke-width="0.854759" stroke-linecap="round"/>
<path id="Vector_3" d="M74.469 62.394L68.5561 76.6538" stroke="var(--stroke-0, #8F82D8)" stroke-opacity="0.35" stroke-width="0.854759" stroke-linecap="round"/>
<path id="Vector_4" d="M68.554 76.6532L54.2942 82.5662" stroke="var(--stroke-0, #8F82D8)" stroke-opacity="0.35" stroke-width="0.854759" stroke-linecap="round"/>
<path id="Vector_5" d="M54.2921 82.5662L40.0323 76.6532" stroke="var(--stroke-0, #8F82D8)" stroke-opacity="0.35" stroke-width="0.854759" stroke-linecap="round"/>
<path id="Vector_6" d="M40.0385 76.6538L34.1255 62.394" stroke="var(--stroke-0, #8F82D8)" stroke-opacity="0.35" stroke-width="0.854759" stroke-linecap="round"/>
<path id="Vector_7" d="M34.1255 62.3933L40.0385 48.1335" stroke="var(--stroke-0, #8F82D8)" stroke-opacity="0.35" stroke-width="0.854759" stroke-linecap="round"/>
<path id="Vector_8" d="M40.0323 48.1329L54.2921 42.22" stroke="var(--stroke-0, #8F82D8)" stroke-opacity="0.35" stroke-width="0.854759" stroke-linecap="round"/>
<path id="Vector_9" d="M54.2942 62.3927V42.22" stroke="var(--stroke-0, #8F82D8)" stroke-opacity="0.35" stroke-width="0.854759" stroke-linecap="round"/>
<path id="Vector_10" d="M54.2942 62.3933L68.554 48.1335" stroke="var(--stroke-0, #8F82D8)" stroke-opacity="0.35" stroke-width="0.854759" stroke-linecap="round"/>
<path id="Vector_11" d="M54.2942 62.394H74.4669" stroke="var(--stroke-0, #8F82D8)" stroke-opacity="0.35" stroke-width="0.854759" stroke-linecap="round"/>
<path id="Vector_12" d="M54.2942 62.394L68.554 76.6538" stroke="var(--stroke-0, #8F82D8)" stroke-opacity="0.35" stroke-width="0.854759" stroke-linecap="round"/>
<path id="Vector_13" d="M54.2942 62.394V82.5667" stroke="var(--stroke-0, #8F82D8)" stroke-opacity="0.35" stroke-width="0.854759" stroke-linecap="round"/>
<path id="Vector_14" d="M54.2921 62.394L40.0323 76.6538" stroke="var(--stroke-0, #8F82D8)" stroke-opacity="0.35" stroke-width="0.854759" stroke-linecap="round"/>
<path id="Vector_15" d="M54.2983 62.394H34.1255" stroke="var(--stroke-0, #8F82D8)" stroke-opacity="0.35" stroke-width="0.854759" stroke-linecap="round"/>
<path id="Vector_16" d="M54.2921 62.3933L40.0323 48.1335" stroke="var(--stroke-0, #8F82D8)" stroke-opacity="0.35" stroke-width="0.854759" stroke-linecap="round"/>
<path id="Vector_17" d="M54.2942 22.062L82.8138 33.8741" stroke="var(--stroke-0, #8F82D8)" stroke-opacity="0.35" stroke-width="0.854759" stroke-linecap="round"/>
<path id="Vector_18" d="M82.818 33.873L94.6301 62.3925" stroke="var(--stroke-0, #8F82D8)" stroke-opacity="0.35" stroke-width="0.854759" stroke-linecap="round"/>
<path id="Vector_19" d="M94.6301 62.394L82.818 90.9136" stroke="var(--stroke-0, #8F82D8)" stroke-opacity="0.35" stroke-width="0.854759" stroke-linecap="round"/>
<path id="Vector_20" d="M82.8138 90.9124L54.2942 102.725" stroke="var(--stroke-0, #8F82D8)" stroke-opacity="0.35" stroke-width="0.854759" stroke-linecap="round"/>
<path id="Vector_21" d="M54.2954 102.725L25.7758 90.9124" stroke="var(--stroke-0, #8F82D8)" stroke-opacity="0.35" stroke-width="0.854759" stroke-linecap="round"/>
<path id="Vector_22" d="M25.7743 90.9136L13.9622 62.394" stroke="var(--stroke-0, #8F82D8)" stroke-opacity="0.35" stroke-width="0.854759" stroke-linecap="round"/>
<path id="Vector_23" d="M13.9622 62.3925L25.7743 33.873" stroke="var(--stroke-0, #8F82D8)" stroke-opacity="0.35" stroke-width="0.854759" stroke-linecap="round"/>
<path id="Vector_24" d="M25.7758 33.8741L54.2954 22.062" stroke="var(--stroke-0, #8F82D8)" stroke-opacity="0.35" stroke-width="0.854759" stroke-linecap="round"/>
<path id="Vector_25" d="M54.2942 1.88933L106.699 32.1415" stroke="var(--stroke-0, #8F82D8)" stroke-opacity="0.35" stroke-width="0.854759" stroke-linecap="round"/>
<path id="Vector_26" d="M106.702 32.141V92.6454" stroke="var(--stroke-0, #8F82D8)" stroke-opacity="0.35" stroke-width="0.854759" stroke-linecap="round"/>
<path id="Vector_27" d="M106.699 92.6457L54.2942 122.898" stroke="var(--stroke-0, #8F82D8)" stroke-opacity="0.35" stroke-width="0.854759" stroke-linecap="round"/>
<path id="Vector_28" d="M54.2971 122.898L1.892 92.6457" stroke="var(--stroke-0, #8F82D8)" stroke-opacity="0.35" stroke-width="0.854759" stroke-linecap="round"/>
<path id="Vector_29" d="M1.892 92.6454V32.141" stroke="var(--stroke-0, #8F82D8)" stroke-opacity="0.35" stroke-width="0.854759" stroke-linecap="round"/>
<path id="Vector_30" d="M1.892 32.1415L54.2971 1.88933" stroke="var(--stroke-0, #8F82D8)" stroke-opacity="0.35" stroke-width="0.854759" stroke-linecap="round"/>
<path id="Vector_31" d="M54.2955 63.7691C55.055 63.7691 55.6706 63.1534 55.6706 62.394C55.6706 61.6345 55.055 61.0189 54.2955 61.0189C53.5361 61.0189 52.9204 61.6345 52.9204 62.394C52.9204 63.1534 53.5361 63.7691 54.2955 63.7691Z" fill="var(--fill-0, #D6C4F7)" stroke="var(--stroke-0, #8F82D8)" stroke-opacity="0.85" stroke-width="1.02571"/>
<path id="Vector_32" d="M54.2955 43.5964C55.055 43.5964 55.6706 42.9807 55.6706 42.2213C55.6706 41.4619 55.055 40.8462 54.2955 40.8462C53.5361 40.8462 52.9204 41.4619 52.9204 42.2213C52.9204 42.9807 53.5361 43.5964 54.2955 43.5964Z" fill="var(--fill-0, #D6C4F7)" stroke="var(--stroke-0, #8F82D8)" stroke-opacity="0.85" stroke-width="1.02571"/>
<path id="Vector_33" d="M68.5574 49.5086C69.3168 49.5086 69.9325 48.8929 69.9325 48.1335C69.9325 47.374 69.3168 46.7584 68.5574 46.7584C67.7979 46.7584 67.1823 47.374 67.1823 48.1335C67.1823 48.8929 67.7979 49.5086 68.5574 49.5086Z" fill="var(--fill-0, #D6C4F7)" stroke="var(--stroke-0, #8F82D8)" stroke-opacity="0.85" stroke-width="1.02571"/>
<path id="Vector_34" d="M74.4695 63.7691C75.229 63.7691 75.8446 63.1534 75.8446 62.394C75.8446 61.6345 75.229 61.0189 74.4695 61.0189C73.7101 61.0189 73.0944 61.6345 73.0944 62.394C73.0944 63.1534 73.7101 63.7691 74.4695 63.7691Z" fill="var(--fill-0, #D6C4F7)" stroke="var(--stroke-0, #8F82D8)" stroke-opacity="0.85" stroke-width="1.02571"/>
<path id="Vector_35" d="M68.5574 78.027C69.3168 78.027 69.9325 77.4113 69.9325 76.6519C69.9325 75.8924 69.3168 75.2768 68.5574 75.2768C67.7979 75.2768 67.1823 75.8924 67.1823 76.6519C67.1823 77.4113 67.7979 78.027 68.5574 78.027Z" fill="var(--fill-0, #D6C4F7)" stroke="var(--stroke-0, #8F82D8)" stroke-opacity="0.85" stroke-width="1.02571"/>
<path id="Vector_36" d="M54.2955 83.9404C55.055 83.9404 55.6706 83.3248 55.6706 82.5653C55.6706 81.8059 55.055 81.1902 54.2955 81.1902C53.5361 81.1902 52.9204 81.8059 52.9204 82.5653C52.9204 83.3248 53.5361 83.9404 54.2955 83.9404Z" fill="var(--fill-0, #D6C4F7)" stroke="var(--stroke-0, #8F82D8)" stroke-opacity="0.85" stroke-width="1.02571"/>
<path id="Vector_37" d="M40.039 78.027C40.7984 78.027 41.4141 77.4113 41.4141 76.6519C41.4141 75.8924 40.7984 75.2768 40.039 75.2768C39.2795 75.2768 38.6639 75.8924 38.6639 76.6519C38.6639 77.4113 39.2795 78.027 40.039 78.027Z" fill="var(--fill-0, #D6C4F7)" stroke="var(--stroke-0, #8F82D8)" stroke-opacity="0.85" stroke-width="1.02571"/>
<path id="Vector_38" d="M34.1215 63.7691C34.8809 63.7691 35.4966 63.1534 35.4966 62.394C35.4966 61.6345 34.8809 61.0189 34.1215 61.0189C33.362 61.0189 32.7464 61.6345 32.7464 62.394C32.7464 63.1534 33.362 63.7691 34.1215 63.7691Z" fill="var(--fill-0, #D6C4F7)" stroke="var(--stroke-0, #8F82D8)" stroke-opacity="0.85" stroke-width="1.02571"/>
<path id="Vector_39" d="M40.039 49.5086C40.7984 49.5086 41.4141 48.8929 41.4141 48.1335C41.4141 47.374 40.7984 46.7584 40.039 46.7584C39.2795 46.7584 38.6639 47.374 38.6639 48.1335C38.6639 48.8929 39.2795 49.5086 40.039 49.5086Z" fill="var(--fill-0, #D6C4F7)" stroke="var(--stroke-0, #8F82D8)" stroke-opacity="0.85" stroke-width="1.02571"/>
<path id="Vector_40" d="M54.2955 23.4371C55.055 23.4371 55.6706 22.8214 55.6706 22.062C55.6706 21.3025 55.055 20.6869 54.2955 20.6869C53.5361 20.6869 52.9204 21.3025 52.9204 22.062C52.9204 22.8214 53.5361 23.4371 54.2955 23.4371Z" fill="var(--fill-0, #D6C4F7)" stroke="var(--stroke-0, #8F82D8)" stroke-opacity="0.85" stroke-width="1.02571"/>
<path id="Vector_41" d="M82.8139 35.248C83.5734 35.248 84.189 34.6324 84.189 33.8729C84.189 33.1135 83.5734 32.4978 82.8139 32.4978C82.0545 32.4978 81.4388 33.1135 81.4388 33.8729C81.4388 34.6324 82.0545 35.248 82.8139 35.248Z" fill="var(--fill-0, #D6C4F7)" stroke="var(--stroke-0, #8F82D8)" stroke-opacity="0.85" stroke-width="1.02571"/>
<path id="Vector_42" d="M94.6275 63.7691C95.387 63.7691 96.0026 63.1534 96.0026 62.394C96.0026 61.6345 95.387 61.0189 94.6275 61.0189C93.8681 61.0189 93.2524 61.6345 93.2524 62.394C93.2524 63.1534 93.8681 63.7691 94.6275 63.7691Z" fill="var(--fill-0, #D6C4F7)" stroke="var(--stroke-0, #8F82D8)" stroke-opacity="0.85" stroke-width="1.02571"/>
<path id="Vector_43" d="M82.8139 92.2875C83.5734 92.2875 84.189 91.6718 84.189 90.9124C84.189 90.1529 83.5734 89.5373 82.8139 89.5373C82.0545 89.5373 81.4388 90.1529 81.4388 90.9124C81.4388 91.6718 82.0545 92.2875 82.8139 92.2875Z" fill="var(--fill-0, #D6C4F7)" stroke="var(--stroke-0, #8F82D8)" stroke-opacity="0.85" stroke-width="1.02571"/>
<path id="Vector_44" d="M54.2955 104.1C55.055 104.1 55.6706 103.484 55.6706 102.725C55.6706 101.965 55.055 101.35 54.2955 101.35C53.5361 101.35 52.9204 101.965 52.9204 102.725C52.9204 103.484 53.5361 104.1 54.2955 104.1Z" fill="var(--fill-0, #D6C4F7)" stroke="var(--stroke-0, #8F82D8)" stroke-opacity="0.85" stroke-width="1.02571"/>
<path id="Vector_45" d="M25.7771 92.2875C26.5366 92.2875 27.1522 91.6718 27.1522 90.9124C27.1522 90.1529 26.5366 89.5373 25.7771 89.5373C25.0177 89.5373 24.402 90.1529 24.402 90.9124C24.402 91.6718 25.0177 92.2875 25.7771 92.2875Z" fill="var(--fill-0, #D6C4F7)" stroke="var(--stroke-0, #8F82D8)" stroke-opacity="0.85" stroke-width="1.02571"/>
<path id="Vector_46" d="M13.9635 63.7691C14.723 63.7691 15.3386 63.1534 15.3386 62.394C15.3386 61.6345 14.723 61.0189 13.9635 61.0189C13.2041 61.0189 12.5884 61.6345 12.5884 62.394C12.5884 63.1534 13.2041 63.7691 13.9635 63.7691Z" fill="var(--fill-0, #D6C4F7)" stroke="var(--stroke-0, #8F82D8)" stroke-opacity="0.85" stroke-width="1.02571"/>
<path id="Vector_47" d="M25.7771 35.248C26.5366 35.248 27.1522 34.6324 27.1522 33.8729C27.1522 33.1135 26.5366 32.4978 25.7771 32.4978C25.0177 32.4978 24.402 33.1135 24.402 33.8729C24.402 34.6324 25.0177 35.248 25.7771 35.248Z" fill="var(--fill-0, #D6C4F7)" stroke="var(--stroke-0, #8F82D8)" stroke-opacity="0.85" stroke-width="1.02571"/>
<path id="Vector_48" d="M54.2955 3.26305C55.055 3.26305 55.6706 2.6474 55.6706 1.88796C55.6706 1.12851 55.055 0.512856 54.2955 0.512856C53.5361 0.512856 52.9204 1.12851 52.9204 1.88796C52.9204 2.6474 53.5361 3.26305 54.2955 3.26305Z" fill="var(--fill-0, #D6C4F7)" stroke="var(--stroke-0, #8F82D8)" stroke-opacity="0.85" stroke-width="1.02571"/>
<path id="Vector_49" d="M106.703 33.5161C107.463 33.5161 108.078 32.9004 108.078 32.141C108.078 31.3815 107.463 30.7659 106.703 30.7659C105.944 30.7659 105.328 31.3815 105.328 32.141C105.328 32.9004 105.944 33.5161 106.703 33.5161Z" fill="var(--fill-0, #D6C4F7)" stroke="var(--stroke-0, #8F82D8)" stroke-opacity="0.85" stroke-width="1.02571"/>
<path id="Vector_50" d="M106.703 94.0194C107.463 94.0194 108.078 93.4038 108.078 92.6443C108.078 91.8849 107.463 91.2692 106.703 91.2692C105.944 91.2692 105.328 91.8849 105.328 92.6443C105.328 93.4038 105.944 94.0194 106.703 94.0194Z" fill="var(--fill-0, #D6C4F7)" stroke="var(--stroke-0, #8F82D8)" stroke-opacity="0.85" stroke-width="1.02571"/>
<path id="Vector_51" d="M54.2955 124.272C55.055 124.272 55.6706 123.657 55.6706 122.897C55.6706 122.138 55.055 121.522 54.2955 121.522C53.5361 121.522 52.9204 122.138 52.9204 122.897C52.9204 123.657 53.5361 124.272 54.2955 124.272Z" fill="var(--fill-0, #D6C4F7)" stroke="var(--stroke-0, #8F82D8)" stroke-opacity="0.85" stroke-width="1.02571"/>
<path id="Vector_52" d="M1.88796 94.0194C2.6474 94.0194 3.26305 93.4038 3.26305 92.6443C3.26305 91.8849 2.6474 91.2692 1.88796 91.2692C1.12851 91.2692 0.512856 91.8849 0.512856 92.6443C0.512856 93.4038 1.12851 94.0194 1.88796 94.0194Z" fill="var(--fill-0, #D6C4F7)" stroke="var(--stroke-0, #8F82D8)" stroke-opacity="0.85" stroke-width="1.02571"/>
<path id="Vector_53" d="M1.88796 33.5161C2.6474 33.5161 3.26305 32.9004 3.26305 32.141C3.26305 31.3815 2.6474 30.7659 1.88796 30.7659C1.12851 30.7659 0.512856 31.3815 0.512856 32.141C0.512856 32.9004 1.12851 33.5161 1.88796 33.5161Z" fill="var(--fill-0, #D6C4F7)" stroke="var(--stroke-0, #8F82D8)" stroke-opacity="0.85" stroke-width="1.02571"/>
</g>
</svg>
