<svg width="130" height="91.21" viewBox="0 0 149.611 104.986" fill="none" xmlns="http://www.w3.org/2000/svg">
<g id="Group 1000014171">
<path id="Vector" d="M74.8043 1.83587L34.0454 35.6075" stroke="var(--stroke-0, #8F82D8)" stroke-opacity="0.35" stroke-width="0.854759" stroke-linecap="round"/>
<path id="Vector_2" d="M74.805 1.83587L115.564 35.6075" stroke="var(--stroke-0, #8F82D8)" stroke-opacity="0.35" stroke-width="0.854759" stroke-linecap="round"/>
<path id="Vector_3" d="M34.0449 35.6063L12.845 69.3779" stroke="var(--stroke-0, #8F82D8)" stroke-opacity="0.35" stroke-width="0.854759" stroke-linecap="round"/>
<path id="Vector_4" d="M34.0454 35.6063L55.2453 69.3779" stroke="var(--stroke-0, #8F82D8)" stroke-opacity="0.35" stroke-width="0.854759" stroke-linecap="round"/>
<path id="Vector_5" d="M115.564 35.6063L94.3643 69.3779" stroke="var(--stroke-0, #8F82D8)" stroke-opacity="0.35" stroke-width="0.854759" stroke-linecap="round"/>
<path id="Vector_6" d="M115.565 35.6063L136.765 69.3779" stroke="var(--stroke-0, #8F82D8)" stroke-opacity="0.35" stroke-width="0.854759" stroke-linecap="round"/>
<path id="Vector_7" d="M12.8434 69.3793L1.8332 103.151" stroke="var(--stroke-0, #8F82D8)" stroke-opacity="0.35" stroke-width="0.854759" stroke-linecap="round"/>
<path id="Vector_8" d="M12.845 69.3793L23.8684 103.151" stroke="var(--stroke-0, #8F82D8)" stroke-opacity="0.35" stroke-width="0.854759" stroke-linecap="round"/>
<path id="Vector_9" d="M55.2467 69.3793L44.2232 103.151" stroke="var(--stroke-0, #8F82D8)" stroke-opacity="0.35" stroke-width="0.854759" stroke-linecap="round"/>
<path id="Vector_10" d="M55.2457 69.3793L66.2559 103.151" stroke="var(--stroke-0, #8F82D8)" stroke-opacity="0.35" stroke-width="0.854759" stroke-linecap="round"/>
<path id="Vector_11" d="M94.3627 69.3793L83.3525 103.151" stroke="var(--stroke-0, #8F82D8)" stroke-opacity="0.35" stroke-width="0.854759" stroke-linecap="round"/>
<path id="Vector_12" d="M94.3643 69.3793L105.388 103.151" stroke="var(--stroke-0, #8F82D8)" stroke-opacity="0.35" stroke-width="0.854759" stroke-linecap="round"/>
<path id="Vector_13" d="M136.766 69.3793L125.743 103.151" stroke="var(--stroke-0, #8F82D8)" stroke-opacity="0.35" stroke-width="0.854759" stroke-linecap="round"/>
<path id="Vector_14" d="M136.765 69.3793L147.775 103.151" stroke="var(--stroke-0, #8F82D8)" stroke-opacity="0.35" stroke-width="0.854759" stroke-linecap="round"/>
<path id="Vector_15" d="M74.8027 3.15954C75.5335 3.15954 76.126 2.56706 76.126 1.8362C76.126 1.10534 75.5335 0.512856 74.8027 0.512856C74.0718 0.512856 73.4793 1.10534 73.4793 1.8362C73.4793 2.56706 74.0718 3.15954 74.8027 3.15954Z" fill="var(--fill-0, #D6C4F7)" stroke="var(--stroke-0, #8F82D8)" stroke-opacity="0.85" stroke-width="1.02571"/>
<path id="Vector_16" d="M34.0483 36.9299C34.7792 36.9299 35.3717 36.3374 35.3717 35.6066C35.3717 34.8757 34.7792 34.2832 34.0483 34.2832C33.3175 34.2832 32.725 34.8757 32.725 35.6066C32.725 36.3374 33.3175 36.9299 34.0483 36.9299Z" fill="var(--fill-0, #D6C4F7)" stroke="var(--stroke-0, #8F82D8)" stroke-opacity="0.85" stroke-width="1.02571"/>
<path id="Vector_17" d="M115.562 36.9299C116.293 36.9299 116.886 36.3374 116.886 35.6066C116.886 34.8757 116.293 34.2832 115.562 34.2832C114.831 34.2832 114.239 34.8757 114.239 35.6066C114.239 36.3374 114.831 36.9299 115.562 36.9299Z" fill="var(--fill-0, #D6C4F7)" stroke="var(--stroke-0, #8F82D8)" stroke-opacity="0.85" stroke-width="1.02571"/>
<path id="Vector_18" d="M12.8426 70.703C13.5735 70.703 14.166 70.1105 14.166 69.3796C14.166 68.6488 13.5735 68.0563 12.8426 68.0563C12.1118 68.0563 11.5193 68.6488 11.5193 69.3796C11.5193 70.1105 12.1118 70.703 12.8426 70.703Z" fill="var(--fill-0, #D6C4F7)" stroke="var(--stroke-0, #8F82D8)" stroke-opacity="0.85" stroke-width="1.02571"/>
<path id="Vector_19" d="M55.2434 70.703C55.9742 70.703 56.5667 70.1105 56.5667 69.3796C56.5667 68.6488 55.9742 68.0563 55.2434 68.0563C54.5125 68.0563 53.92 68.6488 53.92 69.3796C53.92 70.1105 54.5125 70.703 55.2434 70.703Z" fill="var(--fill-0, #D6C4F7)" stroke="var(--stroke-0, #8F82D8)" stroke-opacity="0.85" stroke-width="1.02571"/>
<path id="Vector_20" d="M94.3619 70.703C95.0928 70.703 95.6853 70.1105 95.6853 69.3796C95.6853 68.6488 95.0928 68.0563 94.3619 68.0563C93.6311 68.0563 93.0386 68.6488 93.0386 69.3796C93.0386 70.1105 93.6311 70.703 94.3619 70.703Z" fill="var(--fill-0, #D6C4F7)" stroke="var(--stroke-0, #8F82D8)" stroke-opacity="0.85" stroke-width="1.02571"/>
<path id="Vector_21" d="M136.763 70.703C137.494 70.703 138.086 70.1105 138.086 69.3796C138.086 68.6488 137.494 68.0563 136.763 68.0563C136.032 68.0563 135.439 68.6488 135.439 69.3796C135.439 70.1105 136.032 70.703 136.763 70.703Z" fill="var(--fill-0, #D6C4F7)" stroke="var(--stroke-0, #8F82D8)" stroke-opacity="0.85" stroke-width="1.02571"/>
<path id="Vector_22" d="M1.8362 104.473C2.56706 104.473 3.15954 103.881 3.15954 103.15C3.15954 102.419 2.56706 101.827 1.8362 101.827C1.10534 101.827 0.512856 102.419 0.512856 103.15C0.512856 103.881 1.10534 104.473 1.8362 104.473Z" fill="var(--fill-0, #D6C4F7)" stroke="var(--stroke-0, #8F82D8)" stroke-opacity="0.85" stroke-width="1.02571"/>
<path id="Vector_23" d="M23.8705 104.473C24.6013 104.473 25.1938 103.881 25.1938 103.15C25.1938 102.419 24.6013 101.827 23.8705 101.827C23.1396 101.827 22.5471 102.419 22.5471 103.15C22.5471 103.881 23.1396 104.473 23.8705 104.473Z" fill="var(--fill-0, #D6C4F7)" stroke="var(--stroke-0, #8F82D8)" stroke-opacity="0.85" stroke-width="1.02571"/>
<path id="Vector_24" d="M44.2262 104.473C44.9571 104.473 45.5496 103.881 45.5496 103.15C45.5496 102.419 44.9571 101.827 44.2262 101.827C43.4954 101.827 42.9029 102.419 42.9029 103.15C42.9029 103.881 43.4954 104.473 44.2262 104.473Z" fill="var(--fill-0, #D6C4F7)" stroke="var(--stroke-0, #8F82D8)" stroke-opacity="0.85" stroke-width="1.02571"/>
<path id="Vector_25" d="M66.2552 104.473C66.986 104.473 67.5785 103.881 67.5785 103.15C67.5785 102.419 66.986 101.827 66.2552 101.827C65.5243 101.827 64.9318 102.419 64.9318 103.15C64.9318 103.881 65.5243 104.473 66.2552 104.473Z" fill="var(--fill-0, #D6C4F7)" stroke="var(--stroke-0, #8F82D8)" stroke-opacity="0.85" stroke-width="1.02571"/>
<path id="Vector_26" d="M83.3555 104.473C84.0864 104.473 84.6788 103.881 84.6788 103.15C84.6788 102.419 84.0864 101.827 83.3555 101.827C82.6246 101.827 82.0322 102.419 82.0322 103.15C82.0322 103.881 82.6246 104.473 83.3555 104.473Z" fill="var(--fill-0, #D6C4F7)" stroke="var(--stroke-0, #8F82D8)" stroke-opacity="0.85" stroke-width="1.02571"/>
<path id="Vector_27" d="M105.39 104.473C106.121 104.473 106.713 103.881 106.713 103.15C106.713 102.419 106.121 101.827 105.39 101.827C104.659 101.827 104.066 102.419 104.066 103.15C104.066 103.881 104.659 104.473 105.39 104.473Z" fill="var(--fill-0, #D6C4F7)" stroke="var(--stroke-0, #8F82D8)" stroke-opacity="0.85" stroke-width="1.02571"/>
<path id="Vector_28" d="M125.74 104.473C126.471 104.473 127.064 103.881 127.064 103.15C127.064 102.419 126.471 101.827 125.74 101.827C125.009 101.827 124.417 102.419 124.417 103.15C124.417 103.881 125.009 104.473 125.74 104.473Z" fill="var(--fill-0, #D6C4F7)" stroke="var(--stroke-0, #8F82D8)" stroke-opacity="0.85" stroke-width="1.02571"/>
<path id="Vector_29" d="M147.774 104.473C148.505 104.473 149.098 103.881 149.098 103.15C149.098 102.419 148.505 101.827 147.774 101.827C147.044 101.827 146.451 102.419 146.451 103.15C146.451 103.881 147.044 104.473 147.774 104.473Z" fill="var(--fill-0, #D6C4F7)" stroke="var(--stroke-0, #8F82D8)" stroke-opacity="0.85" stroke-width="1.02571"/>
</g>
</svg>
