<svg width="101" height="101" viewBox="0 0 100.998 101.002" fill="none" xmlns="http://www.w3.org/2000/svg">
<g>
<path d="M62.4188 62.418H38.5801" stroke="#8F82D8" stroke-opacity="0.67" stroke-width="0.5" stroke-linecap="round"/>
<path d="M38.5801 62.4168V38.5781" stroke="#8F82D8" stroke-opacity="0.67" stroke-width="0.5" stroke-linecap="round"/>
<path d="M38.5801 38.5781H62.4188" stroke="#8F82D8" stroke-opacity="0.67" stroke-width="0.5" stroke-linecap="round"/>
<path d="M62.418 38.5781V62.4168" stroke="#8F82D8" stroke-opacity="0.67" stroke-width="0.5" stroke-linecap="round"/>
<path d="M84.2113 50.5L74.3379 74.3387" stroke="#8F82D8" stroke-opacity="0.67" stroke-width="0.5" stroke-linecap="round"/>
<path d="M74.3387 74.3359L50.5 84.2093" stroke="#8F82D8" stroke-opacity="0.67" stroke-width="0.5" stroke-linecap="round"/>
<path d="M50.4988 84.2093L26.6602 74.3359" stroke="#8F82D8" stroke-opacity="0.67" stroke-width="0.5" stroke-linecap="round"/>
<path d="M26.6605 74.3387L16.7871 50.5" stroke="#8F82D8" stroke-opacity="0.67" stroke-width="0.5" stroke-linecap="round"/>
<path d="M16.7871 50.5028L26.6605 26.6641" stroke="#8F82D8" stroke-opacity="0.67" stroke-width="0.5" stroke-linecap="round"/>
<path d="M26.6602 26.6625L50.4988 16.7891" stroke="#8F82D8" stroke-opacity="0.67" stroke-width="0.5" stroke-linecap="round"/>
<path d="M50.5 16.7891L74.3387 26.6625" stroke="#8F82D8" stroke-opacity="0.67" stroke-width="0.5" stroke-linecap="round"/>
<path d="M74.3379 26.6641L84.2113 50.5028" stroke="#8F82D8" stroke-opacity="0.67" stroke-width="0.5" stroke-linecap="round"/>
<path d="M99.3476 63.5938L86.2559 86.26" stroke="#8F82D8" stroke-opacity="0.67" stroke-width="0.5" stroke-linecap="round"/>
<path d="M86.2561 86.2578L63.5898 99.3496" stroke="#8F82D8" stroke-opacity="0.67" stroke-width="0.5" stroke-linecap="round"/>
<path d="M63.5917 99.3516H37.4082" stroke="#8F82D8" stroke-opacity="0.67" stroke-width="0.5" stroke-linecap="round"/>
<path d="M37.4085 99.3496L14.7422 86.2578" stroke="#8F82D8" stroke-opacity="0.67" stroke-width="0.5" stroke-linecap="round"/>
<path d="M14.7402 86.26L1.64844 63.5938" stroke="#8F82D8" stroke-opacity="0.67" stroke-width="0.5" stroke-linecap="round"/>
<path d="M1.64844 63.5897V37.4062" stroke="#8F82D8" stroke-opacity="0.67" stroke-width="0.5" stroke-linecap="round"/>
<path d="M1.64844 37.4085L14.7402 14.7422" stroke="#8F82D8" stroke-opacity="0.67" stroke-width="0.5" stroke-linecap="round"/>
<path d="M14.7422 14.7402L37.4085 1.64844" stroke="#8F82D8" stroke-opacity="0.67" stroke-width="0.5" stroke-linecap="round"/>
<path d="M37.4082 1.64844H63.5917" stroke="#8F82D8" stroke-opacity="0.67" stroke-width="0.5" stroke-linecap="round"/>
<path d="M63.5898 1.64844L86.2561 14.7402" stroke="#8F82D8" stroke-opacity="0.67" stroke-width="0.5" stroke-linecap="round"/>
<path d="M86.2559 14.7422L99.3476 37.4085" stroke="#8F82D8" stroke-opacity="0.67" stroke-width="0.5" stroke-linecap="round"/>
<path d="M99.3496 37.4062V63.5897" stroke="#8F82D8" stroke-opacity="0.67" stroke-width="0.5" stroke-linecap="round"/>
<path d="M62.418 62.4193L84.2107 50.5" stroke="#8F82D8" stroke-opacity="0.67" stroke-width="0.5" stroke-linecap="round"/>
<path d="M38.5801 62.418L50.4994 84.2107" stroke="#8F82D8" stroke-opacity="0.67" stroke-width="0.5" stroke-linecap="round"/>
<path d="M38.5799 38.5781L16.7871 50.4975" stroke="#8F82D8" stroke-opacity="0.67" stroke-width="0.5" stroke-linecap="round"/>
<path d="M62.4193 38.5818L50.5 16.7891" stroke="#8F82D8" stroke-opacity="0.67" stroke-width="0.5" stroke-linecap="round"/>
<path d="M84.2109 50.5L99.3486 63.5917" stroke="#8F82D8" stroke-opacity="0.67" stroke-width="0.5" stroke-linecap="round"/>
<path d="M74.3368 74.3359L63.5898 99.347" stroke="#8F82D8" stroke-opacity="0.67" stroke-width="0.5" stroke-linecap="round"/>
<path d="M50.4999 84.2109L37.4082 99.3486" stroke="#8F82D8" stroke-opacity="0.67" stroke-width="0.5" stroke-linecap="round"/>
<path d="M26.6595 74.3407L1.64844 63.5938" stroke="#8F82D8" stroke-opacity="0.67" stroke-width="0.5" stroke-linecap="round"/>
<path d="M16.7861 50.498L1.64844 37.4062" stroke="#8F82D8" stroke-opacity="0.67" stroke-width="0.5" stroke-linecap="round"/>
<path d="M26.6602 26.6595L37.4071 1.64844" stroke="#8F82D8" stroke-opacity="0.67" stroke-width="0.5" stroke-linecap="round"/>
<path d="M50.5 16.7861L63.5917 1.64844" stroke="#8F82D8" stroke-opacity="0.67" stroke-width="0.5" stroke-linecap="round"/>
<path d="M74.3379 26.6641L99.349 37.411" stroke="#8F82D8" stroke-opacity="0.67" stroke-width="0.5" stroke-linecap="round"/>
<path d="M62.4189 61.0195C63.1918 61.0195 63.8184 61.6461 63.8184 62.4189C63.8184 63.1918 63.1918 63.8184 62.4189 63.8184C61.6461 63.8184 61.0195 63.1918 61.0195 62.4189C61.0195 61.6461 61.6461 61.0195 62.4189 61.0195Z" fill="#ECECEC" stroke="#332584" stroke-width="0.5"/>
<path d="M38.5791 61.0195C39.352 61.0195 39.9785 61.6461 39.9785 62.4189C39.9785 63.1918 39.352 63.8184 38.5791 63.8184C37.8062 63.8184 37.1797 63.1918 37.1797 62.4189C37.1797 61.6461 37.8062 61.0195 38.5791 61.0195Z" fill="#ECECEC" stroke="#332584" stroke-width="0.5"/>
<path d="M38.5791 37.1797C39.352 37.1797 39.9785 37.8062 39.9785 38.5791C39.9785 39.352 39.352 39.9785 38.5791 39.9785C37.8062 39.9785 37.1797 39.352 37.1797 38.5791C37.1797 37.8062 37.8062 37.1797 38.5791 37.1797Z" fill="#ECECEC" stroke="#332584" stroke-width="0.5"/>
<path d="M62.4189 37.1797C63.1918 37.1797 63.8184 37.8062 63.8184 38.5791C63.8184 39.352 63.1918 39.9785 62.4189 39.9785C61.6461 39.9785 61.0195 39.352 61.0195 38.5791C61.0195 37.8062 61.6461 37.1797 62.4189 37.1797Z" fill="#ECECEC" stroke="#332584" stroke-width="0.5"/>
<path d="M84.2119 49.1016C84.9848 49.1016 85.6113 49.7281 85.6113 50.501C85.6113 51.2738 84.9848 51.9004 84.2119 51.9004C83.439 51.9004 82.8125 51.2738 82.8125 50.501C82.8125 49.7281 83.439 49.1016 84.2119 49.1016Z" fill="#ECECEC" stroke="#332584" stroke-width="0.5"/>
<path d="M74.3388 72.9374C75.1117 72.9374 75.7382 73.5639 75.7382 74.3368C75.7382 75.1096 75.1117 75.7362 74.3388 75.7362C73.5659 75.7362 72.9394 75.1096 72.9394 74.3368C72.9394 73.5639 73.5659 72.9374 74.3388 72.9374Z" fill="#ECECEC" stroke="#332584" stroke-width="0.5"/>
<path d="M50.501 82.8125C51.2738 82.8125 51.9004 83.439 51.9004 84.2119C51.9004 84.9848 51.2738 85.6113 50.501 85.6113C49.7281 85.6113 49.1016 84.9848 49.1016 84.2119C49.1016 83.439 49.7281 82.8125 50.501 82.8125Z" fill="#ECECEC" stroke="#332584" stroke-width="0.5"/>
<path d="M26.6612 72.9374C27.4341 72.9374 28.0606 73.5639 28.0606 74.3368C28.0606 75.1096 27.4341 75.7362 26.6612 75.7362C25.8884 75.7362 25.2618 75.1096 25.2618 74.3368C25.2618 73.5639 25.8884 72.9374 26.6612 72.9374Z" fill="#ECECEC" stroke="#332584" stroke-width="0.5"/>
<path d="M16.7881 49.1016C17.561 49.1016 18.1875 49.7281 18.1875 50.501C18.1875 51.2738 17.561 51.9004 16.7881 51.9004C16.0152 51.9004 15.3887 51.2738 15.3887 50.501C15.3887 49.7281 16.0152 49.1016 16.7881 49.1016Z" fill="#ECECEC" stroke="#332584" stroke-width="0.5"/>
<path d="M26.6611 25.2617C27.434 25.2617 28.0605 25.8883 28.0605 26.6611C28.0605 27.434 27.434 28.0605 26.6611 28.0605C25.8883 28.0605 25.2617 27.434 25.2617 26.6611C25.2617 25.8883 25.8883 25.2617 26.6611 25.2617Z" fill="#ECECEC" stroke="#332584" stroke-width="0.5"/>
<path d="M50.501 15.3867C51.2738 15.3867 51.9004 16.0133 51.9004 16.7861C51.9004 17.559 51.2738 18.1855 50.501 18.1855C49.7281 18.1855 49.1016 17.559 49.1016 16.7861C49.1016 16.0133 49.7281 15.3867 50.501 15.3867Z" fill="#ECECEC" stroke="#332584" stroke-width="0.5"/>
<path d="M74.3389 25.2617C75.1117 25.2617 75.7383 25.8883 75.7383 26.6611C75.7383 27.434 75.1117 28.0605 74.3389 28.0605C73.566 28.0605 72.9395 27.434 72.9395 26.6611C72.9395 25.8883 73.566 25.2617 74.3389 25.2617Z" fill="#ECECEC" stroke="#332584" stroke-width="0.5"/>
<path d="M99.3486 62.1914C100.122 62.1914 100.748 62.818 100.748 63.5908C100.748 64.3637 100.121 64.9902 99.3486 64.9902C98.5758 64.9902 97.9492 64.3637 97.9492 63.5908C97.9492 62.8179 98.5758 62.1914 99.3486 62.1914Z" fill="#ECECEC" stroke="#332584" stroke-width="0.5"/>
<path d="M86.2568 84.8594C87.0297 84.8594 87.6562 85.4859 87.6562 86.2588C87.6562 87.0317 87.0297 87.6582 86.2568 87.6582C85.484 87.6582 84.8574 87.0317 84.8574 86.2588C84.8574 85.4859 85.484 84.8594 86.2568 84.8594Z" fill="#ECECEC" stroke="#332584" stroke-width="0.5"/>
<path d="M63.5908 97.9531C64.3637 97.9531 64.9902 98.5797 64.9902 99.3525C64.9902 100.125 64.3637 100.752 63.5908 100.752C62.818 100.752 62.1914 100.125 62.1914 99.3525C62.1914 98.5797 62.8179 97.9531 63.5908 97.9531Z" fill="#ECECEC" stroke="#332584" stroke-width="0.5"/>
<path d="M37.4092 97.9531C38.182 97.9531 38.8086 98.5797 38.8086 99.3525C38.8086 100.125 38.182 100.752 37.4092 100.752C36.6363 100.752 36.0098 100.125 36.0098 99.3525C36.0098 98.5797 36.6363 97.9531 37.4092 97.9531Z" fill="#ECECEC" stroke="#332584" stroke-width="0.5"/>
<path d="M14.7412 84.8594C15.5141 84.8594 16.1406 85.4859 16.1406 86.2588C16.1406 87.0317 15.5141 87.6582 14.7412 87.6582C13.9683 87.6582 13.3418 87.0317 13.3418 86.2588C13.3418 85.4859 13.9683 84.8594 14.7412 84.8594Z" fill="#ECECEC" stroke="#332584" stroke-width="0.5"/>
<path d="M1.64941 62.1914C2.42228 62.1914 3.04883 62.818 3.04883 63.5908C3.04882 64.3637 2.42228 64.9902 1.64941 64.9902C0.876546 64.9902 0.250004 64.3637 0.25 63.5908C0.25 62.8179 0.876543 62.1914 1.64941 62.1914Z" fill="#ECECEC" stroke="#332584" stroke-width="0.5"/>
<path d="M1.64941 36.0078C2.42228 36.0078 3.04883 36.6344 3.04883 37.4072C3.04882 38.1801 2.42228 38.8066 1.64941 38.8066C0.876546 38.8066 0.250004 38.1801 0.25 37.4072C0.25 36.6344 0.876543 36.0078 1.64941 36.0078Z" fill="#ECECEC" stroke="#332584" stroke-width="0.5"/>
<path d="M14.7412 13.3438C15.5141 13.3438 16.1406 13.9703 16.1406 14.7432C16.1406 15.516 15.5141 16.1426 14.7412 16.1426C13.9683 16.1426 13.3418 15.516 13.3418 14.7432C13.3418 13.9703 13.9683 13.3438 14.7412 13.3438Z" fill="#ECECEC" stroke="#332584" stroke-width="0.5"/>
<path d="M37.4092 0.25C38.182 0.250004 38.8086 0.876546 38.8086 1.64941C38.8086 2.42228 38.182 3.04882 37.4092 3.04883C36.6363 3.04883 36.0098 2.42228 36.0098 1.64941C36.0098 0.876543 36.6363 0.25 37.4092 0.25Z" fill="#ECECEC" stroke="#332584" stroke-width="0.5"/>
<path d="M63.5908 0.25C64.3637 0.250004 64.9902 0.876546 64.9902 1.64941C64.9902 2.42228 64.3637 3.04882 63.5908 3.04883C62.818 3.04883 62.1914 2.42228 62.1914 1.64941C62.1914 0.876543 62.8179 0.25 63.5908 0.25Z" fill="#ECECEC" stroke="#332584" stroke-width="0.5"/>
<path d="M86.2568 13.3438C87.0297 13.3438 87.6562 13.9703 87.6562 14.7432C87.6562 15.516 87.0297 16.1426 86.2568 16.1426C85.484 16.1426 84.8574 15.516 84.8574 14.7432C84.8574 13.9703 85.484 13.3438 86.2568 13.3438Z" fill="#ECECEC" stroke="#332584" stroke-width="0.5"/>
<path d="M99.3486 36.0078C100.122 36.0078 100.748 36.6344 100.748 37.4072C100.748 38.1801 100.121 38.8066 99.3486 38.8066C98.5758 38.8066 97.9492 38.1801 97.9492 37.4072C97.9492 36.6344 98.5758 36.0078 99.3486 36.0078Z" fill="#ECECEC" stroke="#332584" stroke-width="0.5"/>
</g>
</svg>
