<?xml version="1.0" encoding="utf-8"?>
<!-- Generator: Adobe Illustrator 27.9.3, SVG Export Plug-In . SVG Version: 9.03 Build 53313)  -->
<svg version="1.1" xmlns="http://www.w3.org/2000/svg" xmlns:xlink="http://www.w3.org/1999/xlink" x="0px" y="0px"
	 viewBox="0 0 132 34" style="enable-background:new 0 0 132 34;" xml:space="preserve">
<style type="text/css">
	.st0{clip-path:url(#SVGID_00000152262350106184519890000007559724956864424338_);}
	.st1{fill-rule:evenodd;clip-rule:evenodd;fill:#17141A;}
</style>
<g id="Layer_2">
</g>
<g id="Layer_1">
	<g>
		<defs>
			<rect id="SVGID_1_" x="0.1" width="131.2" height="34"/>
		</defs>
		<clipPath id="SVGID_00000178174203794055954230000008347555292352038806_">
			<use xlink:href="#SVGID_1_"  style="overflow:visible;"/>
		</clipPath>
		<g style="clip-path:url(#SVGID_00000178174203794055954230000008347555292352038806_);">
			<path class="st1" d="M56.7,13.6h5.8c0.5,0,0.9-0.4,0.9-1c-0.1-0.4-0.4-0.8-0.9-0.8h-7.2c-0.5,0-0.9,0.4-0.9,0.9v8.6
				c0,0.5,0.4,0.9,0.9,0.9h7.2c0.5,0,0.9-0.4,0.9-1c-0.1-0.4-0.4-0.8-0.9-0.8h-5.7c-0.3,0-0.6-0.3-0.6-0.6v-1.5
				c0-0.3,0.3-0.6,0.6-0.6H61c0.5,0,0.9-0.4,0.9-1c-0.1-0.4-0.4-0.8-0.9-0.8h-4.3c-0.3,0-0.6-0.3-0.6-0.6v-1.5
				C56.1,13.8,56.3,13.6,56.7,13.6z M46.7,13.6c1,0,1.8,0.3,2.4,1c0.2,0.2,0.4,0.2,0.6,0.2c0.5,0,0.9-0.4,0.9-0.9
				c0-0.2-0.1-0.5-0.4-0.7c-1-1-2.2-1.4-3.6-1.4c-1.4,0-2.6,0.5-3.7,1.5c-1,1-1.5,2.2-1.5,3.7c0,1.4,0.5,2.6,1.5,3.7
				c1,1,2.2,1.5,3.7,1.5c1.4,0,2.6-0.5,3.7-1.5c0.3-0.3,0.3-0.9,0-1.2c-0.3-0.3-0.9-0.3-1.2,0c-0.7,0.7-1.5,1-2.4,1
				c-0.9,0-1.8-0.3-2.4-1c-0.7-0.7-1-1.5-1-2.4c0-0.9,0.3-1.8,1-2.4C45,13.9,45.8,13.6,46.7,13.6z M74.9,20.5h-5.7
				c-0.3,0-0.6-0.3-0.6-0.6v-7.2c0-0.4-0.3-0.8-0.8-0.9c-0.5-0.1-1,0.3-1,0.9v8.6c0,0.5,0.4,0.9,0.9,0.9h7.2c0.5,0,0.9-0.4,0.9-1
				C75.7,20.8,75.3,20.5,74.9,20.5z M111.2,11.8h-8.6c-0.5,0-0.9,0.4-0.9,1c0.1,0.4,0.4,0.8,0.9,0.8h2.9c0.3,0,0.6,0.3,0.6,0.6v7.2
				c0,0.5,0.4,0.9,1,0.9c0.4-0.1,0.8-0.4,0.8-0.9v-7.2c0-0.3,0.3-0.6,0.6-0.6h2.9c0.5,0,0.9-0.4,0.9-1
				C112,12.2,111.6,11.8,111.2,11.8z M115.8,11.8c-0.5,0-0.9,0.4-0.9,0.9v8.6c0,0.5,0.4,0.9,0.9,0.9s0.9-0.4,0.9-0.9v-8.6
				C116.6,12.2,116.2,11.8,115.8,11.8z M98.5,16.9c-0.8-0.5-1.9-0.8-3.2-0.8c-1.8,0-2.7-0.4-2.7-1.3c0-0.9,0.9-1.3,2.7-1.3
				c1,0,1.9,0.2,2.8,0.5c0.5,0.2,0.9,0,1.1-0.5c0.2-0.4-0.1-0.9-0.5-1.1c-1-0.4-2.1-0.6-3.4-0.6c-1.3,0-2.4,0.3-3.2,0.8
				c-0.8,0.5-1.2,1.3-1.2,2.2c0,1,0.4,1.8,1.2,2.3c0.8,0.5,1.9,0.8,3.2,0.8c1.8,0,2.7,0.4,2.7,1.3c0,0.9-0.9,1.3-2.7,1.3h-0.4
				c-0.9,0-1.8-0.2-2.8-0.5c-0.4-0.2-0.9,0-1.1,0.5c-0.2,0.4,0.1,1,0.5,1.1c1,0.4,2.1,0.6,3.4,0.6h0.4c1.3,0,2.4-0.3,3.2-0.8
				c0.8-0.5,1.2-1.3,1.2-2.2C99.7,18.2,99.3,17.4,98.5,16.9z M80.8,13.6h5.8c0.5,0,0.9-0.4,0.9-1c-0.1-0.4-0.4-0.8-0.9-0.8h-7.2
				c-0.5,0-0.9,0.4-0.9,0.9v8.6c0,0.5,0.4,0.9,0.9,0.9h7.2c0.5,0,0.9-0.4,0.9-1c-0.1-0.4-0.4-0.8-0.9-0.8h-5.7
				c-0.3,0-0.6-0.3-0.6-0.6v-1.5c0-0.3,0.3-0.6,0.6-0.6h4.3c0.5,0,0.9-0.4,0.9-1c-0.1-0.4-0.4-0.8-0.9-0.8h-4.3
				c-0.3,0-0.6-0.3-0.6-0.6v-1.5C80.3,13.8,80.5,13.6,80.8,13.6z M32.1,17.2c0,0.1-0.1,0.1-0.2,0c0,0,0-0.1-0.1-0.1
				c0-0.1,0-0.2,0-0.2c0,0,0,0,0.1-0.1c0.1-0.1,0.2-0.1,0.2,0C32.1,16.9,32.1,17.1,32.1,17.2z M31.4,15.2c-0.1,0.2-0.4,0.2-0.5,0
				c0,0,0-0.1-0.1-0.1c-0.5-0.7-1-1.4-1.6-2.1c-0.1-0.2,0-0.4,0.2-0.4h0c1.4,0,2.1,0.3,2.3,0.8C31.9,13.7,31.9,14.3,31.4,15.2z
				 M31.1,22.4c-0.1,0.2-0.2,0.4-0.2,0.6c0,0,0,0.1,0,0.1c-0.5,1-1.4,1.7-2.5,2.3c-0.3,0.1-0.5-0.1-0.5-0.4c0.4-1.3,0.7-2.8,0.8-4.3
				c0-0.3,0.2-0.5,0.4-0.7c0.5-0.4,0.9-0.8,1.3-1.2l0,0c0.2-0.2,0.5-0.1,0.6,0.2C31.4,20.1,31.5,21.3,31.1,22.4z M28,27.2
				c-0.1,0.1-0.2,0.2-0.4,0.4c-0.2,0.2-0.4,0.4-0.6,0.6c-0.1,0.1-0.3,0-0.3-0.2c0,0,0-0.1,0.1-0.1c0.1-0.2,0.2-0.4,0.3-0.6
				c0,0,0.1-0.1,0.1-0.1c0.2-0.1,0.4-0.1,0.6-0.2C28,26.9,28.1,27.1,28,27.2z M25.7,26c-0.5,0.1-0.9,0.1-1.4,0.1
				c-1.2,0-2.5-0.1-3.9-0.3c-0.2,0-0.2-0.3,0-0.3c0.3-0.1,0.6-0.3,0.9-0.5c2-1.1,4-2.3,5.6-3.5c0.1-0.1,0.3,0,0.3,0.2
				c-0.2,1.4-0.6,2.7-1,3.9C26.1,25.8,26,26,25.7,26z M25.3,27.9c-1.1,2.2-2.4,3.4-3.8,3.3c-1.4,0-2.8-1.5-3.9-4.1l0,0
				c-0.1-0.2,0-0.3,0.2-0.4c0,0,0,0,0,0c0.1,0,0.1,0,0.2,0c2,0.6,3.9,0.8,5.7,0.8c0.2,0,0.4,0,0.6,0c0.2,0,0.5,0,0.7,0
				C25.2,27.5,25.4,27.7,25.3,27.9z M18.8,32c-0.7,0.1-1.3,0.1-2,0.1c-3,0-5.8-0.8-8.3-2.4c-0.2-0.1-0.1-0.4,0.1-0.4
				c0,0,0.1,0,0.1,0c0.6,0,1.3-0.1,2-0.3c1.6-0.3,3.3-0.8,5.2-1.5c0.2-0.1,0.3,0,0.4,0.2c0,0,0,0,0,0c0.7,1.7,1.6,3,2.6,3.9
				C19.1,31.7,19,31.9,18.8,32z M9.9,21.2c1.4-1.1,2.9-2.2,4.7-3.2c0,2.2,0.3,4.4,0.7,6.3c-0.6-0.3-1.3-0.6-1.9-0.9
				C12.1,22.7,11,22,9.9,21.2z M5.7,27.2c-0.3-0.6,0.1-2,2.2-4.2l0,0c0.2-0.2,0.2-0.6,0-0.8c-0.1-0.1-0.2-0.1-0.3-0.2
				c-0.2-0.2-0.5-0.2-0.7,0c0,0-0.1,0.1-0.1,0.1c-1.1,1.1-1.8,2.1-2.2,3c-0.1,0.3-0.5,0.3-0.6,0c-1.6-2.5-2.5-5.4-2.5-8.4
				c0-1.1,0.1-2.2,0.3-3.2c0-0.2,0.3-0.2,0.3,0c0.3,1.1,0.8,2.1,1.6,3.2c1,1.5,2.2,2.9,3.7,4.2c0.5,0.4,1.1,0.9,1.6,1.3
				c1.1,0.8,2.4,1.6,3.7,2.3c0.6,0.3,1.2,0.6,1.7,0.9c0.3,0.1,0.7,0.2,1,0c0.3-0.1,0.6-0.2,0.8-0.3c0.3-0.1,0.5-0.5,0.4-0.8
				c0,0,0-0.1,0-0.1c-0.5-1.9-0.7-4.1-0.7-6.4l0,0c0,0,0-0.1,0-0.1c0-0.1,0-0.3,0-0.4c0,0,0-0.1,0-0.1c0,0,0,0,0,0c0,0,0,0,0,0
				c0-0.1,0-0.3,0-0.4c0-0.4,0-0.8,0-1.2c0,0,0,0,0,0c0.1-2.8,0.6-5.4,1.4-7.6c0.1-0.2,0-0.4-0.2-0.5c-0.2-0.1-0.4-0.1-0.6-0.2
				c-0.2-0.1-0.4,0-0.5,0.2c-0.8,2.4-1.3,5.2-1.4,8.2c0,0.4-0.2,0.7-0.5,0.9c-1.8,1-3.4,2.2-4.8,3.3c-0.3,0.2-0.7,0.2-1,0
				c-1.4-1.2-2.6-2.5-3.5-3.9C3,13.3,2.6,10.8,3.6,8.8c0,0,0,0,0,0C3.8,8.6,3.9,8.4,4,8.2c1.1-1.5,3.3-2.4,6.1-2.5
				c0.2,0,0.4,0,0.5,0c1.7,0,3.6,0.3,5.5,0.8l0,0c0,0,0.1,0,0.1,0c0,0,0.1,0,0.1,0c0,0,0,0,0,0c0.4,0.1,0.9,0.3,1.3,0.4c0,0,0,0,0,0
				c0,0,0,0,0,0c0.1,0,0.2,0.1,0.3,0.1c0,0,0.1,0,0.1,0c0,0,0.1,0,0.1,0l0,0c0.9,0.4,1.9,0.8,2.8,1.3c1.8,0.9,3.4,2,4.8,3.2
				c-2.7,0.6-5.8,1.8-9,3.4c-0.1,0.1-0.2,0.2-0.2,0.4c0,0.2,0,0.6,0,0.9c0,0.2,0.2,0.3,0.4,0.2l0,0c3.1-1.6,6.2-2.9,8.9-3.5
				c0.5-0.1,0.8-0.6,0.8-1.1c0-0.4-0.1-0.7-0.2-1c-0.1-0.4-0.3-0.8-0.7-1.1c-1.2-1-2.6-1.8-4.1-2.6c-1-0.5-2-1-3-1.4
				c-0.2-0.1-0.3-0.3-0.2-0.5c1-1.9,2.3-2.9,3.5-2.9c0,0,0,0,0,0c1.4,0,2.8,1.5,3.9,4.1c0.5,1.3,0.9,2.8,1.2,4.4c0,0,0,0,0,0
				c0.1,0.7,0.2,1.4,0.3,2.1c0,0,0,0,0,0c0,0,0,0,0,0c0.1,1.2,0.2,2.5,0.1,3.8c0,0.8-0.1,1.6-0.1,2.4c-1.9,1.5-4.3,3.1-6.8,4.4
				c-0.8,0.5-1.7,0.9-2.5,1.3c0,0,0,0,0,0c-0.1,0-0.1,0.1-0.2,0.1c0,0,0,0,0,0c-0.7,0.3-1.4,0.6-2.1,0.9c0,0,0,0,0,0
				c0,0-0.1,0-0.1,0c0,0-0.1,0-0.1,0.1c-0.1,0-0.2,0.1-0.3,0.1c0,0-0.1,0-0.1,0c-0.1,0.1-0.3,0.1-0.4,0.1c0,0,0,0-0.1,0c0,0,0,0,0,0
				c-1.5,0.5-2.8,0.9-4.1,1.2C7.5,28.2,6,27.8,5.7,27.2z M7.9,4.2c2.6-1.8,5.7-2.8,8.9-2.8c0.9,0,1.7,0.1,2.5,0.2
				c0.2,0,0.3,0.3,0.1,0.5c-0.8,0.6-1.5,1.6-2.2,2.8c-0.2,0.3-0.5,0.4-0.8,0.3c-2.2-0.6-4.3-0.9-6.3-0.8C9.4,4.4,8.7,4.4,8,4.5
				C7.8,4.6,7.7,4.3,7.9,4.2z M29,15.4c0-0.2,0.2-0.3,0.3-0.1c0.1,0.2,0.2,0.4,0.4,0.5c0.2,0.2,0.3,0.5,0.4,0.7
				c0.1,0.1,0.1,0.3,0,0.5c-0.2,0.2-0.4,0.4-0.6,0.6c-0.1,0.1-0.2,0.2-0.2,0.2c-0.1,0.1-0.3,0-0.3-0.1c0-0.3,0-0.5,0-0.8
				C29,16.4,29,15.9,29,15.4z M27.4,5.6c0.1,0.1,0.2,0.2,0.3,0.3c1.5,1.5,2.6,3.2,3.4,5.1c0.1,0.2-0.1,0.4-0.3,0.4
				c-0.4-0.1-0.9-0.1-1.5-0.1c-0.4,0-0.7-0.3-0.8-0.6c-0.3-1.7-0.7-3.2-1.3-4.6c0-0.1-0.1-0.2-0.1-0.2C27,5.6,27.2,5.5,27.4,5.6z
				 M33.2,13.3c-0.7-3.1-2.2-6-4.5-8.4C25.5,1.7,21.3,0,16.8,0C12.3,0,8.1,1.7,5,4.9c-0.8,0.8-1.5,1.6-2,2.5
				C2.7,7.6,2.6,7.9,2.4,8.1c-1.5,2.6-2.4,5.5-2.4,8.6c0,4.5,1.7,8.7,4.9,11.8c3.2,3.2,7.4,4.9,11.8,4.9c4.5,0,8.7-1.7,11.8-4.9
				c1.5-1.5,2.7-3.2,3.5-5.1c0.1-0.2,0.2-0.4,0.3-0.6c0.8-1.9,1.1-4,1.1-6.1C33.5,15.6,33.4,14.4,33.2,13.3
				C33.2,13.3,33.2,13.3,33.2,13.3z M126.9,18.3h-3.2c-0.3,0-0.5-0.3-0.3-0.6L125,15c0.1-0.3,0.5-0.3,0.7,0l1.6,2.7
				C127.4,18,127.2,18.3,126.9,18.3z M131.1,20.9l-5-8.7c-0.4-0.6-1.1-0.6-1.5,0l-5,8.7c-0.1,0.1-0.1,0.2-0.1,0.3
				c0,0.5,0.3,0.9,0.8,0.9c0.3,0,0.6-0.2,0.8-0.5l0.8-1.3c0.1-0.2,0.3-0.3,0.5-0.3h5.8c0.2,0,0.4,0.1,0.5,0.3l0.8,1.3
				c0.2,0.3,0.5,0.5,0.8,0.5c0.5,0,0.9-0.4,0.9-0.9C131.2,21.2,131.1,21.1,131.1,20.9z"/>
		</g>
	</g>
</g>
</svg>
