<svg preserveAspectRatio="xMidYMid meet" width="146" height="37" overflow="visible" style="display: block;" viewBox="0 0 146 37.2698" fill="none" xmlns="http://www.w3.org/2000/svg">
<g id="logo">
<path id="Fill 1" fill-rule="evenodd" clip-rule="evenodd" d="M63.025 15.1012H69.449C70.0163 15.1012 70.473 14.6031 70.4033 14.0226C70.3448 13.5355 69.9141 13.1784 69.4235 13.1784H61.4374C60.9087 13.1784 60.4761 13.611 60.4761 14.1399V23.7537C60.4761 24.2826 60.9087 24.7152 61.4374 24.7152H69.449C70.0163 24.7152 70.473 24.2169 70.4033 23.6364C70.3448 23.1495 69.9141 22.7924 69.4235 22.7924H63.025C62.6791 22.7924 62.3987 22.512 62.3987 22.1661V20.5342C62.3987 20.1885 62.6791 19.9081 63.025 19.9081H67.8467C68.414 19.9081 68.8707 19.41 68.8009 18.8296C68.7425 18.3424 68.3117 17.9853 67.8214 17.9853H63.025C62.6791 17.9853 62.3987 17.7051 62.3987 17.3592V15.7273C62.3987 15.3816 62.6791 15.1012 63.025 15.1012M51.973 15.1012C53.0466 15.1012 53.9439 15.4858 54.681 16.2388C54.8573 16.4151 55.0976 16.5113 55.37 16.5113C55.8987 16.5113 56.3315 16.0786 56.3315 15.5498C56.3315 15.2775 56.2032 15.0211 55.9307 14.7808C54.7931 13.7072 53.4633 13.1784 51.973 13.1784C50.3868 13.1784 49.0247 13.7393 47.8871 14.877C46.7656 15.9985 46.2048 17.3605 46.2048 18.9468C46.2048 20.533 46.7656 21.8951 47.8871 23.0327C49.0247 24.1542 50.3868 24.7152 51.973 24.7152C53.5595 24.7152 54.9213 24.1542 56.043 23.0327C56.4275 22.6481 56.4275 22.0392 56.043 21.6707C55.6743 21.2862 55.0656 21.2862 54.681 21.6707C53.928 22.4238 53.0307 22.7924 51.973 22.7924C50.9155 22.7924 50.0023 22.4238 49.2491 21.6707C48.496 20.9177 48.1276 20.0043 48.1276 18.9468C48.1276 17.8893 48.496 16.992 49.2491 16.2388C50.0023 15.4858 50.9155 15.1012 51.973 15.1012M83.2996 22.7924H76.9022C76.5558 22.7924 76.2749 22.5115 76.2749 22.1651V14.165C76.2749 13.6745 75.9176 13.2437 75.4306 13.1854C74.85 13.1159 74.3521 13.5726 74.3521 14.1399V23.7537C74.3521 24.2826 74.7847 24.7151 75.3136 24.7151H83.325C83.8925 24.7151 84.3492 24.2169 84.2795 23.6363C84.2208 23.1495 83.7901 22.7924 83.2996 22.7924M123.754 13.1784H114.165C113.598 13.1784 113.141 13.6767 113.211 14.257C113.269 14.7441 113.7 15.1012 114.19 15.1012H117.384C117.73 15.1012 118.011 15.3816 118.011 15.7275V23.7537C118.011 24.3212 118.509 24.7778 119.09 24.7081C119.576 24.6495 119.934 24.2188 119.934 23.7282V15.7275C119.934 15.3816 120.214 15.1012 120.56 15.1012H123.779C124.346 15.1012 124.803 14.6031 124.734 14.0226C124.675 13.5355 124.244 13.1784 123.754 13.1784M128.835 13.1784C128.306 13.1784 127.874 13.611 127.874 14.1399V23.7537C127.874 24.2826 128.306 24.7152 128.835 24.7152C129.364 24.7152 129.797 24.2826 129.797 23.7537V14.1399C129.797 13.611 129.364 13.1784 128.835 13.1784M109.599 18.8347C108.717 18.2737 107.532 17.9853 106.041 17.9853C104.071 17.9853 103.077 17.5046 103.077 16.5432C103.077 15.5819 104.071 15.1012 106.041 15.1012C107.131 15.1012 108.173 15.3095 109.166 15.7101C109.743 15.8864 110.143 15.6781 110.368 15.1173C110.56 14.6205 110.304 14.1399 109.775 13.8996C108.669 13.4187 107.435 13.1784 106.041 13.1784C104.583 13.1784 103.414 13.4829 102.5 14.0757C101.603 14.6686 101.154 15.5017 101.154 16.5432C101.154 17.6489 101.603 18.4981 102.484 19.0589C103.366 19.6197 104.551 19.9081 106.041 19.9081C108.012 19.9081 109.006 20.3888 109.006 21.3502C109.006 22.3115 108.012 22.7924 106.041 22.7924H105.561C104.567 22.7924 103.526 22.5841 102.452 22.1833C101.956 22.0072 101.443 22.2314 101.235 22.7604C101.042 23.2571 101.331 23.8338 101.827 24.0101C102.933 24.4747 104.167 24.7152 105.561 24.7152H106.041C107.5 24.7152 108.669 24.4106 109.567 23.8177C110.48 23.2249 110.929 22.3917 110.929 21.3502C110.929 20.2446 110.48 19.3954 109.599 18.8347M89.9573 15.1012H96.3828C96.9503 15.1012 97.407 14.6031 97.3373 14.0226C97.2788 13.5355 96.8481 13.1784 96.3575 13.1784H88.3714C87.8425 13.1784 87.4099 13.611 87.4099 14.1399V23.7537C87.4099 24.2826 87.8425 24.7152 88.3714 24.7152H96.3828C96.9503 24.7152 97.407 24.2169 97.3373 23.6364C97.2786 23.1495 96.8481 22.7924 96.3575 22.7924H89.9573C89.6124 22.7924 89.3327 22.5127 89.3327 22.1678V20.5329C89.3327 20.1878 89.6124 19.9081 89.9573 19.9081H94.7806C95.3481 19.9081 95.8045 19.41 95.7349 18.8296C95.6764 18.3424 95.2457 17.9853 94.7552 17.9853H89.9573C89.6124 17.9853 89.3327 17.7058 89.3327 17.3607V15.7258C89.3327 15.3807 89.6124 15.1012 89.9573 15.1012M35.7196 19.1429C35.716 19.2583 35.559 19.2887 35.5137 19.1824C35.4942 19.1366 35.4743 19.0905 35.4541 19.0445C35.4171 18.9603 35.4275 18.8624 35.4827 18.7887C35.4941 18.7737 35.5173 18.7432 35.5451 18.7069C35.6198 18.6093 35.7274 18.6238 35.7274 18.7321C35.7274 18.8743 35.7241 18.9973 35.7196 19.1429M34.894 16.8834C34.7666 17.1128 34.44 17.1234 34.2985 16.9021C34.2766 16.868 34.2544 16.8338 34.2321 16.7994C33.7223 16.0166 33.1356 15.2482 32.4803 14.5014C32.3194 14.318 32.451 14.0303 32.695 14.0301H32.7009C34.2321 14.0301 35.0349 14.4084 35.2799 14.8703C35.4844 15.2566 35.4217 15.9321 34.894 16.8834M34.5514 24.892C34.4693 25.101 34.3833 25.3087 34.293 25.5143C34.2789 25.5426 34.2657 25.5713 34.2511 25.5994C33.6875 26.6843 32.7418 27.5385 31.4779 28.133C31.1944 28.2662 30.8842 28.0068 30.9686 27.7051C31.3883 26.2031 31.7059 24.5743 31.9117 22.8667C31.9501 22.5483 32.1071 22.256 32.3498 22.0461C32.8695 21.5965 33.3548 21.1475 33.8013 20.7017L33.8061 20.6967C34.0259 20.4775 34.4006 20.5718 34.4901 20.8691C34.9312 22.3354 34.9557 23.7011 34.5514 24.892M31.1146 30.3136C30.9861 30.451 30.8549 30.5868 30.7211 30.7205C30.4882 30.9531 30.2497 31.1782 30.006 31.3956C29.8523 31.5325 29.6199 31.3612 29.7069 31.1745C29.7317 31.1212 29.7563 31.0676 29.7808 31.0134C29.8832 30.7877 29.982 30.5561 30.0782 30.3201C30.101 30.2645 30.149 30.2229 30.2073 30.208C30.4496 30.1465 30.6859 30.0786 30.916 30.0044C31.1026 29.9444 31.2487 30.1705 31.1146 30.3136M28.5905 28.9588C28.0803 29.0327 27.5438 29.0805 26.9826 29.1003C25.6132 29.1482 24.1652 29.0301 22.6778 28.7562C22.4964 28.7229 22.4616 28.4777 22.626 28.3945C22.9505 28.2303 23.2751 28.0624 23.5995 27.8904C25.8755 26.6841 27.999 25.3655 29.858 24.0135C29.9974 23.9121 30.1895 24.0318 30.1611 24.2019C29.9034 25.7513 29.5464 27.2098 29.0981 28.5338C29.0217 28.7594 28.8263 28.9246 28.5905 28.9588M28.0651 31.023C26.8448 33.423 25.342 34.7704 23.8853 34.7433C22.3021 34.7151 20.7233 33.0663 19.5542 30.2201L19.5529 30.2169C19.4786 30.0362 19.5639 29.8294 19.7429 29.7517C19.7553 29.7461 19.7677 29.7408 19.7801 29.7352C19.8569 29.7019 19.943 29.6959 20.0238 29.7186C22.2107 30.3324 24.3655 30.6526 26.3843 30.6526C26.6037 30.6526 26.8216 30.649 27.0376 30.6414C27.2905 30.6324 27.5394 30.6181 27.7839 30.5987C28.0106 30.5807 28.1683 30.8202 28.0651 31.023M20.8409 35.5869C20.1154 35.6801 19.3792 35.7278 18.6357 35.7278C15.3133 35.7278 12.1356 34.7863 9.40737 33.0294C9.21967 32.9084 9.29944 32.6172 9.52251 32.6069C9.56877 32.6048 9.61201 32.6024 9.65005 32.6001C10.3434 32.555 11.1036 32.4534 11.9273 32.2947C13.6795 31.9577 15.6273 31.3795 17.6667 30.6008C17.8495 30.5311 18.0537 30.6218 18.1281 30.8028C18.1286 30.804 18.1289 30.805 18.1294 30.806C18.9198 32.7303 19.8925 34.1843 20.9847 35.1093C21.1652 35.2623 21.0755 35.5567 20.8409 35.5869M10.9563 23.6096C12.4625 22.3831 14.2272 21.1594 16.1631 20.0008C16.2047 22.4768 16.4762 24.854 16.9567 27.0012C16.2387 26.695 15.5229 26.3578 14.8133 25.9892C13.4389 25.275 12.1457 24.4749 10.9563 23.6096M6.27232 30.2443C5.913 29.5664 6.3774 27.9961 8.7366 25.6094L8.73778 25.6082C8.98414 25.3593 8.96051 24.9509 8.68549 24.7342C8.59097 24.66 8.49711 24.5849 8.40393 24.5098C8.16897 24.3199 7.82892 24.3373 7.61557 24.551C7.56882 24.5978 7.53396 24.633 7.52373 24.6435C6.34438 25.8541 5.51899 26.9746 5.0566 27.9825C4.92554 28.2681 4.52969 28.2989 4.35639 28.0368C2.52611 25.27 1.54301 22.0279 1.54301 18.6343C1.54301 17.4211 1.66904 16.2272 1.91423 15.0674C1.95127 14.892 2.1988 14.8807 2.25076 15.0524C2.60538 16.2232 3.18257 17.4342 3.98015 18.6588C5.05375 20.3076 6.46957 21.8925 8.14735 23.3464C8.72001 23.8426 9.32485 24.3226 9.95567 24.7856C11.2344 25.724 12.6239 26.59 14.1023 27.358C14.7575 27.6986 15.3957 28.0235 16.0494 28.3178C16.4132 28.4816 16.8273 28.4943 17.1987 28.3485C17.5069 28.2278 17.8173 28.1023 18.1295 27.9718C18.4691 27.8301 18.6532 27.4599 18.5632 27.1031C18.552 27.0585 18.5431 27.0227 18.5381 27.0016C18.0234 24.8356 17.7373 22.3973 17.7037 19.8433L17.7027 19.8438C17.7023 19.8135 17.7025 19.7827 17.7022 19.752C17.7006 19.6124 17.7015 19.4718 17.699 19.3325C17.6981 19.2881 17.6995 19.2128 17.7 19.1683C17.7003 19.1505 17.7 19.1329 17.7 19.1153C17.7001 19.1153 17.7005 19.1151 17.7006 19.1151C17.7015 18.9553 17.7027 18.7955 17.7055 18.6352C17.7134 18.1971 17.7291 17.7622 17.7518 17.3308C17.7514 17.3309 17.7513 17.3311 17.7509 17.3313C17.9096 14.2494 18.4322 11.3536 19.2636 8.91762C19.3405 8.6922 19.2204 8.44752 18.995 8.37059C18.7753 8.29551 18.5557 8.22378 18.3365 8.15507C18.1148 8.08552 17.8778 8.20518 17.8029 8.42523C16.9017 11.0707 16.3457 14.2092 16.1973 17.5304C16.1784 17.9517 15.9491 18.3352 15.5863 18.5502C13.6193 19.716 11.8128 20.9518 10.2521 22.1975C9.92702 22.4571 9.46262 22.4472 9.14821 22.1746C7.58407 20.8184 6.26762 19.3454 5.27246 17.8171C3.31682 14.8142 2.85208 11.9852 3.96423 9.85278C3.96724 9.84776 3.96993 9.84256 3.97277 9.8377C4.11456 9.6024 4.26204 9.37028 4.41555 9.14135C5.69345 7.44984 8.07193 6.46959 11.2264 6.35881C11.426 6.35177 11.6269 6.34825 11.8297 6.34825C13.7646 6.34825 15.841 6.66751 17.9529 7.27688L17.9534 7.27638C17.9996 7.28979 18.0459 7.3037 18.0921 7.31727C18.1278 7.32783 18.1635 7.33772 18.1992 7.34844C18.1991 7.34861 18.1991 7.34861 18.1991 7.34878C18.6871 7.49458 19.1766 7.65598 19.6667 7.83228C19.6668 7.83212 19.6668 7.83212 19.6668 7.83195C19.6782 7.83597 19.6896 7.8405 19.701 7.84452C19.8287 7.89061 19.9563 7.93787 20.0838 7.98597C20.1237 8.00105 20.1638 8.0163 20.2036 8.03172C20.242 8.04647 20.2804 8.06071 20.319 8.07563L20.3184 8.0763C21.3498 8.47551 22.3803 8.93974 23.398 9.46866C25.3677 10.492 27.1707 11.6916 28.7397 13.0077C25.7453 13.6937 22.2647 15.017 18.7652 16.8012C18.6038 16.8836 18.4976 17.0459 18.4873 17.2269C18.4751 17.4437 18.459 17.8798 18.4474 18.2264C18.4402 18.4439 18.6703 18.5881 18.8631 18.4868L18.8651 18.4857C22.3299 16.6663 25.7878 15.3064 28.7574 14.5878C29.3125 14.4535 29.6718 13.9204 29.5939 13.3548C29.5392 12.9596 29.4777 12.5706 29.4097 12.1885C29.3242 11.7085 29.0614 11.2793 28.6736 10.984C27.2828 9.92451 25.75 8.95264 24.1091 8.09993C23.0033 7.52542 21.8813 7.02197 20.7569 6.5926C20.5164 6.50076 20.4133 6.21652 20.5388 5.99178C21.6972 3.91949 23.075 2.75891 24.4173 2.75891C24.4312 2.75891 24.4451 2.75908 24.459 2.75925C26.0423 2.78757 27.621 4.43618 28.7901 7.28241C29.3819 8.72321 29.8404 10.3847 30.1538 12.1904C30.1521 12.1889 30.1505 12.1875 30.1489 12.186C30.2827 12.9566 30.3904 13.753 30.4704 14.57C30.4635 14.5744 30.4561 14.5782 30.4493 14.5826C30.4587 14.5921 30.4685 14.6017 30.4781 14.6114C30.6107 15.9823 30.6666 17.4099 30.6405 18.8666C30.6241 19.788 30.575 20.6967 30.4955 21.5858C28.3773 23.2976 25.7583 25.0012 22.8796 26.5268C21.9335 27.0282 20.9876 27.495 20.051 27.9247C20.0364 27.9314 20.022 27.9379 20.0074 27.9446C19.9358 27.9773 19.8641 28.0105 19.7925 28.0428C19.7919 28.0426 19.7914 28.0425 19.7909 28.0423C19.0147 28.3934 18.246 28.7182 17.49 29.0149C17.4901 29.015 17.4902 29.0154 17.4903 29.0155C17.4476 29.0323 17.4052 29.0484 17.3626 29.065C17.3095 29.0857 17.2564 29.1062 17.2034 29.1266C17.0765 29.1752 16.9502 29.2232 16.8241 29.2703C16.7894 29.2832 16.7546 29.2967 16.7199 29.3095C16.5669 29.3663 16.4147 29.4214 16.263 29.4757C16.2441 29.4824 16.2252 29.4896 16.2064 29.4963C16.2061 29.4962 16.2059 29.4962 16.2057 29.496C14.5856 30.073 13.0422 30.5089 11.6358 30.7796C8.23718 31.4339 6.63683 30.932 6.27232 30.2443M8.71078 4.71375C11.5873 2.65387 15.0247 1.54239 18.6331 1.54239C19.5855 1.54239 20.5257 1.62032 21.447 1.77233C21.6937 1.81306 21.7765 2.12796 21.5797 2.28232C20.687 2.98218 19.8575 4.01774 19.1235 5.36066C18.9443 5.68831 18.5644 5.84853 18.2051 5.7473C15.7731 5.06268 13.3804 4.74057 11.1697 4.81816C10.3542 4.84682 9.58192 4.92945 8.85641 5.06319C8.65262 5.10073 8.54235 4.83425 8.71078 4.71375M32.1745 17.1705C32.1695 16.9746 32.4208 16.891 32.5345 17.0506C32.6741 17.2465 32.8087 17.4434 32.9375 17.6413C33.1088 17.9044 33.2682 18.1661 33.4164 18.426C33.5087 18.588 33.4866 18.7913 33.3609 18.9291C33.1613 19.1483 32.9447 19.3749 32.7096 19.6099C32.6238 19.6955 32.5363 19.7813 32.4472 19.8673C32.3365 19.9742 32.151 19.8928 32.1571 19.7389C32.168 19.4585 32.176 19.1771 32.181 18.8944C32.1914 18.3152 32.1889 17.7402 32.1745 17.1705M30.4045 6.23721C30.512 6.3391 30.6182 6.44268 30.7233 6.54776C32.3704 8.19486 33.6391 10.1195 34.4874 12.2156C34.5731 12.4269 34.3936 12.6481 34.1692 12.6078C33.6783 12.5196 33.1259 12.4802 32.5144 12.4904C32.0905 12.4975 31.7222 12.2005 31.6477 11.7832C31.3154 9.91973 30.8349 8.19838 30.2178 6.69608C30.1827 6.61044 30.1471 6.5258 30.1111 6.44201C30.0327 6.25916 30.2602 6.10012 30.4045 6.23721M36.8673 14.7591C36.1309 11.2602 34.3993 8.04547 31.8117 5.45783C28.292 1.93821 23.6125 0 18.6348 0C13.6573 0 8.97762 1.93821 5.458 5.45783C4.60193 6.3139 3.84056 7.23884 3.17672 8.21959C2.9793 8.48238 2.80249 8.75991 2.64529 9.05035C0.920923 11.9157 0 15.2045 0 18.6348C0 23.6125 1.93838 28.292 5.458 31.8117C8.97762 35.3313 13.6573 37.2698 18.6348 37.2698C23.6125 37.2698 28.292 35.3313 31.8117 31.8117C33.4728 30.1506 34.7812 28.231 35.7003 26.1438C35.8126 25.9125 35.9106 25.6757 35.9949 25.4342C36.8316 23.2964 37.2698 20.9994 37.2698 18.6348C37.2698 17.3333 37.1361 16.0527 36.8775 14.8073C36.874 14.7912 36.8708 14.7752 36.8673 14.7591M141.25 20.388H137.725C137.393 20.388 137.186 20.0292 137.353 19.7422L139.121 16.6904C139.287 16.4038 139.7 16.4045 139.866 16.6914L141.623 19.7434C141.788 20.0302 141.581 20.388 141.25 20.388M145.888 23.2883L140.328 13.6424C139.927 13.0174 139.062 13.0174 138.661 13.6424L133.101 23.2883C133.034 23.4092 133.001 23.53 132.992 23.67C132.957 24.2146 133.38 24.7015 133.925 24.7141C134.306 24.7229 134.602 24.531 134.832 24.1216L135.692 22.627C135.804 22.4314 136.012 22.3108 136.238 22.3108H142.735C142.961 22.3108 143.169 22.4314 143.282 22.627L144.141 24.1216C144.358 24.5094 144.651 24.7022 145.004 24.7137C145.544 24.7317 146 24.2929 146 23.7529C146 23.6088 145.968 23.4645 145.888 23.2883" fill="var(--fill-0, white)"/>
</g>
</svg>
