<svg xmlns="http://www.w3.org/2000/svg" viewBox="150 60 700 880" style="background:#08070C">
<g>
  <animateTransform attributeName="transform" type="translate" values="0 0;0 8;0 0" dur="3.5s" repeatCount="indefinite" calcMode="spline" keySplines="0.4 0 0.6 1;0.4 0 0.6 1"/>
  <animate attributeName="opacity" values="1;0.1;1" dur="5s" repeatCount="indefinite" calcMode="spline" keySplines="0.4 0 0.6 1;0.4 0 0.6 1"/>
<path d="M601.197 783.671L553.109 865.399" stroke="#9294DC" stroke-opacity="0.156" stroke-linecap="round"/>
<path d="M600.822 784.693C601.386 784.899 602.01 784.61 602.217 784.046C602.423 783.482 602.133 782.858 601.57 782.651C601.006 782.445 600.381 782.734 600.175 783.298C599.969 783.862 600.258 784.486 600.822 784.693Z" fill="#985CFD" fill-opacity="0.32" stroke="#8A9CFB" stroke-opacity="0.32"/>
<path d="M552.69 866.544C553.32 866.775 554.018 866.451 554.249 865.821C554.48 865.191 554.156 864.493 553.526 864.263C552.896 864.032 552.198 864.356 551.967 864.986C551.736 865.616 552.06 866.314 552.69 866.544Z" fill="#985CFD" fill-opacity="0.46" stroke="#8A9CFB" stroke-opacity="0.46"/>
<path d="M601.199 783.672L553.111 865.4" stroke="#9294DC" stroke-opacity="0.156" stroke-linecap="round"/>
<path d="M600.824 784.691C601.388 784.897 602.012 784.608 602.219 784.044C602.425 783.48 602.135 782.856 601.572 782.649C601.008 782.443 600.383 782.732 600.177 783.296C599.971 783.86 600.26 784.484 600.824 784.691Z" fill="#985CFD" fill-opacity="0.32" stroke="#8A9CFB" stroke-opacity="0.32"/>
<path d="M552.692 866.542C553.322 866.773 554.02 866.449 554.251 865.819C554.482 865.189 554.158 864.491 553.528 864.261C552.898 864.03 552.2 864.354 551.969 864.984C551.738 865.614 552.062 866.312 552.692 866.542Z" fill="#985CFD" fill-opacity="0.46" stroke="#8A9CFB" stroke-opacity="0.46"/>
<path d="M402.72 780.699L332.61 700.636" stroke="#9294DC" stroke-opacity="0.12" stroke-linecap="round"/>
<path d="M402.724 780.698L354.767 862.564" stroke="#9294DC" stroke-opacity="0.128" stroke-linecap="round"/>
<path d="M332.61 700.634L284.747 782.49" stroke="#9294DC" stroke-opacity="0.168" stroke-linecap="round"/>
<path d="M354.762 862.564L284.747 782.49" stroke="#9294DC" stroke-opacity="0.176" stroke-linecap="round"/>
<path d="M402.368 781.658C402.899 781.852 403.487 781.58 403.681 781.049C403.875 780.519 403.603 779.931 403.072 779.737C402.541 779.542 401.954 779.815 401.76 780.346C401.565 780.876 401.838 781.464 402.368 781.658Z" fill="#985CFD" fill-opacity="0.25" stroke="#8A9CFB" stroke-opacity="0.25"/>
<path d="M332.228 701.677C332.805 701.889 333.444 701.592 333.655 701.015C333.867 700.438 333.57 699.799 332.993 699.588C332.416 699.376 331.777 699.673 331.566 700.25C331.354 700.827 331.651 701.466 332.228 701.677Z" fill="#985CFD" fill-opacity="0.35" stroke="#8A9CFB" stroke-opacity="0.35"/>
<path d="M354.368 863.641C354.963 863.859 355.622 863.553 355.839 862.958C356.057 862.364 355.752 861.705 355.157 861.487C354.562 861.269 353.904 861.575 353.686 862.17C353.468 862.764 353.774 863.423 354.368 863.641Z" fill="#985CFD" fill-opacity="0.39" stroke="#8A9CFB" stroke-opacity="0.39"/>
<path d="M284.323 783.651C284.965 783.886 285.675 783.557 285.909 782.916C286.144 782.274 285.815 781.564 285.174 781.329C284.532 781.095 283.822 781.424 283.588 782.065C283.353 782.706 283.682 783.417 284.323 783.651Z" fill="#985CFD" fill-opacity="0.49" stroke="#8A9CFB" stroke-opacity="0.49"/>
<path d="M402.72 780.698L332.61 700.635" stroke="#9294DC" stroke-opacity="0.12" stroke-linecap="round"/>
<path d="M402.722 780.697L354.765 862.563" stroke="#9294DC" stroke-opacity="0.128" stroke-linecap="round"/>
<path d="M332.61 700.633L284.747 782.489" stroke="#9294DC" stroke-opacity="0.168" stroke-linecap="round"/>
<path d="M354.762 862.563L284.747 782.489" stroke="#9294DC" stroke-opacity="0.176" stroke-linecap="round"/>
<path d="M402.368 781.657C402.899 781.851 403.487 781.579 403.681 781.048C403.875 780.518 403.603 779.93 403.072 779.736C402.541 779.541 401.954 779.814 401.76 780.345C401.565 780.875 401.838 781.463 402.368 781.657Z" fill="#985CFD" fill-opacity="0.25" stroke="#8A9CFB" stroke-opacity="0.25"/>
<path d="M332.228 701.678C332.805 701.89 333.444 701.593 333.655 701.016C333.867 700.439 333.57 699.8 332.993 699.589C332.416 699.377 331.777 699.674 331.566 700.251C331.354 700.828 331.651 701.467 332.228 701.678Z" fill="#985CFD" fill-opacity="0.35" stroke="#8A9CFB" stroke-opacity="0.35"/>
<path d="M354.368 863.642C354.963 863.86 355.622 863.554 355.839 862.959C356.057 862.365 355.752 861.706 355.157 861.488C354.562 861.27 353.904 861.576 353.686 862.171C353.468 862.765 353.774 863.424 354.368 863.642Z" fill="#985CFD" fill-opacity="0.39" stroke="#8A9CFB" stroke-opacity="0.39"/>
<path d="M284.323 783.651C284.965 783.886 285.675 783.557 285.909 782.916C286.144 782.274 285.815 781.564 285.174 781.329C284.532 781.095 283.822 781.424 283.588 782.065C283.353 782.706 283.682 783.417 284.323 783.651Z" fill="#985CFD" fill-opacity="0.49" stroke="#8A9CFB" stroke-opacity="0.49"/>
<path d="M566.785 508.115L519.031 589.92" stroke="#9294DC" stroke-opacity="0.276" stroke-linecap="round"/>
<path d="M566.32 509.385C567.021 509.641 567.797 509.281 568.054 508.58C568.31 507.879 567.95 507.103 567.25 506.847C566.549 506.59 565.772 506.95 565.516 507.651C565.259 508.352 565.619 509.128 566.32 509.385Z" fill="#985CFD" fill-opacity="0.62" stroke="#8A9CFB" stroke-opacity="0.62"/>
<path d="M518.523 591.304C519.288 591.584 520.135 591.191 520.415 590.426C520.696 589.661 520.302 588.814 519.537 588.534C518.772 588.253 517.925 588.647 517.645 589.411C517.365 590.176 517.758 591.024 518.523 591.304Z" fill="#985CFD" fill-opacity="0.76" stroke="#8A9CFB" stroke-opacity="0.76"/>
<path d="M566.785 508.114L519.031 589.919" stroke="#9294DC" stroke-opacity="0.276" stroke-linecap="round"/>
<path d="M566.32 509.383C567.021 509.639 567.797 509.279 568.054 508.578C568.31 507.877 567.95 507.101 567.25 506.845C566.549 506.588 565.772 506.948 565.516 507.649C565.259 508.35 565.619 509.126 566.32 509.383Z" fill="#985CFD" fill-opacity="0.62" stroke="#8A9CFB" stroke-opacity="0.62"/>
<path d="M518.523 591.304C519.288 591.584 520.135 591.191 520.415 590.426C520.696 589.661 520.302 588.814 519.537 588.534C518.772 588.253 517.925 588.647 517.645 589.411C517.365 590.176 517.758 591.024 518.523 591.304Z" fill="#985CFD" fill-opacity="0.76" stroke="#8A9CFB" stroke-opacity="0.76"/>
<path d="M659.19 654.577L589.178 574.867" stroke="#9294DC" stroke-opacity="0.324" stroke-linecap="round"/>
<path d="M659.191 654.577L611.161 736.144" stroke="#9294DC" stroke-opacity="0.332" stroke-linecap="round"/>
<path d="M589.179 574.869L541.23 656.466" stroke="#9294DC" stroke-opacity="0.372" stroke-linecap="round"/>
<path d="M611.16 736.145L541.229 656.465" stroke="#9294DC" stroke-opacity="0.38" stroke-linecap="round"/>
<path d="M658.683 655.97C659.453 656.252 660.305 655.857 660.587 655.087C660.868 654.318 660.473 653.466 659.704 653.184C658.934 652.902 658.082 653.298 657.8 654.067C657.519 654.836 657.914 655.688 658.683 655.97Z" fill="#985CFD" fill-opacity="0.76" stroke="#8A9CFB" stroke-opacity="0.76"/>
<path d="M588.64 576.339C589.454 576.637 590.355 576.219 590.653 575.406C590.951 574.592 590.533 573.691 589.719 573.393C588.906 573.095 588.005 573.513 587.707 574.327C587.409 575.14 587.827 576.041 588.64 576.339Z" fill="#985CFD" fill-opacity="0.86" stroke="#8A9CFB" stroke-opacity="0.86"/>
<path d="M610.611 737.653C611.444 737.958 612.368 737.53 612.673 736.697C612.978 735.863 612.55 734.94 611.716 734.635C610.883 734.329 609.96 734.758 609.654 735.591C609.349 736.425 609.777 737.348 610.611 737.653Z" fill="#985CFD" fill-opacity="0.9" stroke="#8A9CFB" stroke-opacity="0.9"/>
<path d="M540.646 658.054C541.524 658.375 542.496 657.924 542.817 657.046C543.139 656.168 542.688 655.196 541.81 654.875C540.932 654.554 539.96 655.005 539.639 655.882C539.317 656.76 539.768 657.732 540.646 658.054Z" fill="#985CFD" stroke="#8A9CFB"/>
<path d="M659.19 654.578L589.178 574.868" stroke="#9294DC" stroke-opacity="0.324" stroke-linecap="round"/>
<path d="M659.189 654.576L611.159 736.143" stroke="#9294DC" stroke-opacity="0.332" stroke-linecap="round"/>
<path d="M589.177 574.867L541.228 656.464" stroke="#9294DC" stroke-opacity="0.372" stroke-linecap="round"/>
<path d="M611.16 736.144L541.229 656.464" stroke="#9294DC" stroke-opacity="0.38" stroke-linecap="round"/>
<path d="M658.681 655.968C659.451 656.25 660.303 655.855 660.585 655.085C660.866 654.316 660.471 653.464 659.702 653.182C658.932 652.9 658.08 653.296 657.798 654.065C657.517 654.834 657.912 655.687 658.681 655.968Z" fill="#985CFD" fill-opacity="0.76" stroke="#8A9CFB" stroke-opacity="0.76"/>
<path d="M588.642 576.339C589.456 576.637 590.357 576.219 590.655 575.406C590.953 574.592 590.535 573.691 589.721 573.393C588.908 573.095 588.007 573.513 587.709 574.327C587.411 575.14 587.829 576.041 588.642 576.339Z" fill="#985CFD" fill-opacity="0.86" stroke="#8A9CFB" stroke-opacity="0.86"/>
<path d="M610.609 737.653C611.443 737.958 612.366 737.53 612.671 736.697C612.976 735.863 612.548 734.94 611.714 734.635C610.881 734.329 609.958 734.758 609.652 735.591C609.347 736.425 609.775 737.348 610.609 737.653Z" fill="#985CFD" fill-opacity="0.9" stroke="#8A9CFB" stroke-opacity="0.9"/>
<path d="M540.646 658.052C541.524 658.373 542.496 657.922 542.817 657.044C543.139 656.167 542.688 655.194 541.81 654.873C540.932 654.552 539.96 655.003 539.639 655.88C539.317 656.758 539.768 657.73 540.646 658.052Z" fill="#985CFD" stroke="#8A9CFB"/>
<path d="M427.704 670.159L411.642 763.614" stroke="#9294DC" stroke-opacity="0.156" stroke-linecap="round"/>
<path d="M427.331 671.178C426.767 670.971 426.478 670.347 426.684 669.783C426.891 669.219 427.515 668.929 428.079 669.136C428.643 669.342 428.932 669.967 428.726 670.531C428.519 671.094 427.895 671.384 427.331 671.178Z" fill="#985CFD" fill-opacity="0.32" stroke="#8A9CFB" stroke-opacity="0.32"/>
<path d="M411.225 764.754C410.595 764.523 410.271 763.825 410.502 763.195C410.732 762.565 411.43 762.241 412.06 762.472C412.69 762.703 413.014 763.4 412.783 764.031C412.553 764.661 411.855 764.984 411.225 764.754Z" fill="#985CFD" fill-opacity="0.46" stroke="#8A9CFB" stroke-opacity="0.46"/>
<path d="M427.702 670.159L411.64 763.614" stroke="#9294DC" stroke-opacity="0.156" stroke-linecap="round"/>
<path d="M427.329 671.179C426.765 670.972 426.476 670.348 426.682 669.784C426.889 669.22 427.513 668.93 428.077 669.137C428.641 669.343 428.93 669.968 428.724 670.532C428.517 671.095 427.893 671.385 427.329 671.179Z" fill="#985CFD" fill-opacity="0.32" stroke="#8A9CFB" stroke-opacity="0.32"/>
<path d="M411.223 764.755C410.593 764.524 410.269 763.826 410.5 763.196C410.73 762.566 411.428 762.242 412.058 762.473C412.688 762.704 413.012 763.401 412.781 764.032C412.551 764.662 411.853 764.985 411.223 764.755Z" fill="#985CFD" fill-opacity="0.46" stroke="#8A9CFB" stroke-opacity="0.46"/>
<path d="M462.341 742.743L567.574 726.889" stroke="#9294DC" stroke-opacity="0.12" stroke-linecap="round"/>
<path d="M462.34 742.743L446.089 836.219" stroke="#9294DC" stroke-opacity="0.128" stroke-linecap="round"/>
<path d="M567.573 726.887L551.256 820.295" stroke="#9294DC" stroke-opacity="0.168" stroke-linecap="round"/>
<path d="M446.092 836.218L551.26 820.294" stroke="#9294DC" stroke-opacity="0.176" stroke-linecap="round"/>
<path d="M461.99 743.704C461.459 743.509 461.187 742.922 461.381 742.391C461.575 741.86 462.163 741.588 462.694 741.782C463.224 741.976 463.497 742.564 463.302 743.095C463.108 743.625 462.52 743.898 461.99 743.704Z" fill="#985CFD" fill-opacity="0.25" stroke="#8A9CFB" stroke-opacity="0.25"/>
<path d="M567.192 727.933C566.615 727.721 566.318 727.082 566.53 726.505C566.741 725.928 567.38 725.632 567.957 725.843C568.534 726.054 568.831 726.693 568.619 727.27C568.408 727.847 567.769 728.144 567.192 727.933Z" fill="#985CFD" fill-opacity="0.35" stroke="#8A9CFB" stroke-opacity="0.35"/>
<path d="M445.699 837.298C445.104 837.08 444.799 836.421 445.016 835.826C445.234 835.232 445.893 834.926 446.488 835.144C447.082 835.362 447.388 836.02 447.17 836.615C446.952 837.21 446.294 837.515 445.699 837.298Z" fill="#985CFD" fill-opacity="0.39" stroke="#8A9CFB" stroke-opacity="0.39"/>
<path d="M550.835 821.455C550.193 821.221 549.864 820.51 550.099 819.869C550.333 819.228 551.044 818.899 551.685 819.133C552.326 819.368 552.655 820.078 552.421 820.72C552.186 821.361 551.476 821.69 550.835 821.455Z" fill="#985CFD" fill-opacity="0.49" stroke="#8A9CFB" stroke-opacity="0.49"/>
<path d="M462.337 742.743L567.57 726.888" stroke="#9294DC" stroke-opacity="0.12" stroke-linecap="round"/>
<path d="M462.337 742.742L446.085 836.218" stroke="#9294DC" stroke-opacity="0.128" stroke-linecap="round"/>
<path d="M567.571 726.887L551.254 820.295" stroke="#9294DC" stroke-opacity="0.168" stroke-linecap="round"/>
<path d="M446.09 836.217L551.258 820.293" stroke="#9294DC" stroke-opacity="0.176" stroke-linecap="round"/>
<path d="M461.988 743.702C461.457 743.507 461.185 742.92 461.379 742.389C461.573 741.858 462.161 741.586 462.692 741.78C463.222 741.974 463.495 742.562 463.301 743.093C463.106 743.623 462.519 743.896 461.988 743.702Z" fill="#985CFD" fill-opacity="0.25" stroke="#8A9CFB" stroke-opacity="0.25"/>
<path d="M567.188 727.931C566.611 727.719 566.314 727.08 566.526 726.503C566.737 725.926 567.376 725.63 567.953 725.841C568.53 726.052 568.827 726.691 568.615 727.268C568.404 727.846 567.765 728.142 567.188 727.931Z" fill="#985CFD" fill-opacity="0.35" stroke="#8A9CFB" stroke-opacity="0.35"/>
<path d="M445.695 837.296C445.1 837.078 444.795 836.419 445.012 835.824C445.23 835.23 445.889 834.924 446.484 835.142C447.078 835.36 447.384 836.018 447.166 836.613C446.948 837.208 446.29 837.513 445.695 837.296Z" fill="#985CFD" fill-opacity="0.39" stroke="#8A9CFB" stroke-opacity="0.39"/>
<path d="M550.831 821.456C550.189 821.222 549.86 820.511 550.095 819.87C550.33 819.229 551.04 818.9 551.681 819.134C552.322 819.369 552.651 820.079 552.417 820.721C552.182 821.362 551.472 821.691 550.831 821.456Z" fill="#985CFD" fill-opacity="0.49" stroke="#8A9CFB" stroke-opacity="0.49"/>
<path d="M578.116 640.92L591.97 734.624" stroke="#9294DC" stroke-opacity="0.276" stroke-linecap="round"/>
<path d="M578.076 642.27C577.33 642.247 576.744 641.624 576.767 640.878C576.79 640.132 577.413 639.545 578.159 639.568C578.905 639.591 579.491 640.214 579.468 640.96C579.446 641.706 578.822 642.293 578.076 642.27Z" fill="#985CFD" fill-opacity="0.62" stroke="#8A9CFB" stroke-opacity="0.62"/>
<path d="M591.92 736.101C591.106 736.076 590.466 735.396 590.491 734.581C590.515 733.767 591.196 733.127 592.01 733.152C592.824 733.177 593.464 733.857 593.439 734.672C593.414 735.486 592.734 736.126 591.92 736.101Z" fill="#985CFD" fill-opacity="0.76" stroke="#8A9CFB" stroke-opacity="0.76"/>
<path d="M578.112 640.918L591.966 734.622" stroke="#9294DC" stroke-opacity="0.276" stroke-linecap="round"/>
<path d="M578.072 642.271C577.326 642.248 576.74 641.625 576.763 640.879C576.786 640.133 577.409 639.546 578.155 639.569C578.901 639.592 579.487 640.215 579.465 640.961C579.442 641.707 578.818 642.293 578.072 642.271Z" fill="#985CFD" fill-opacity="0.62" stroke="#8A9CFB" stroke-opacity="0.62"/>
<path d="M591.918 736.101C591.104 736.076 590.464 735.396 590.489 734.581C590.513 733.767 591.194 733.127 592.008 733.152C592.822 733.177 593.462 733.857 593.437 734.672C593.412 735.486 592.732 736.126 591.918 736.101Z" fill="#985CFD" fill-opacity="0.76" stroke="#8A9CFB" stroke-opacity="0.76"/>
<path d="M389.001 558.766L493.932 543.118" stroke="#9294DC" stroke-opacity="0.324" stroke-linecap="round"/>
<path d="M389.003 558.766L372.999 652.061" stroke="#9294DC" stroke-opacity="0.332" stroke-linecap="round"/>
<path d="M493.932 543.118L477.849 636.383" stroke="#9294DC" stroke-opacity="0.372" stroke-linecap="round"/>
<path d="M372.999 652.06L477.85 636.383" stroke="#9294DC" stroke-opacity="0.38" stroke-linecap="round"/>
<path d="M388.491 560.157C387.721 559.875 387.326 559.023 387.608 558.254C387.89 557.484 388.742 557.089 389.511 557.371C390.281 557.652 390.676 558.505 390.394 559.274C390.112 560.043 389.26 560.439 388.491 560.157Z" fill="#985CFD" fill-opacity="0.76" stroke="#8A9CFB" stroke-opacity="0.76"/>
<path d="M493.393 544.591C492.58 544.293 492.162 543.391 492.459 542.578C492.757 541.764 493.658 541.346 494.472 541.644C495.286 541.942 495.704 542.843 495.406 543.657C495.108 544.47 494.207 544.888 493.393 544.591Z" fill="#985CFD" fill-opacity="0.86" stroke="#8A9CFB" stroke-opacity="0.86"/>
<path d="M372.446 653.569C371.612 653.264 371.184 652.341 371.489 651.507C371.795 650.674 372.718 650.246 373.551 650.551C374.385 650.856 374.813 651.779 374.508 652.613C374.203 653.446 373.28 653.875 372.446 653.569Z" fill="#985CFD" fill-opacity="0.9" stroke="#8A9CFB" stroke-opacity="0.9"/>
<path d="M477.266 637.971C476.389 637.649 475.938 636.677 476.259 635.799C476.58 634.922 477.552 634.471 478.43 634.792C479.308 635.113 479.759 636.086 479.438 636.963C479.116 637.841 478.144 638.292 477.266 637.971Z" fill="#985CFD" stroke="#8A9CFB"/>
<path d="M388.999 558.766L493.93 543.118" stroke="#9294DC" stroke-opacity="0.324" stroke-linecap="round"/>
<path d="M389.001 558.765L372.997 652.06" stroke="#9294DC" stroke-opacity="0.332" stroke-linecap="round"/>
<path d="M493.93 543.117L477.847 636.383" stroke="#9294DC" stroke-opacity="0.372" stroke-linecap="round"/>
<path d="M372.997 652.06L477.848 636.383" stroke="#9294DC" stroke-opacity="0.38" stroke-linecap="round"/>
<path d="M388.489 560.157C387.72 559.875 387.324 559.023 387.606 558.254C387.888 557.484 388.74 557.089 389.509 557.371C390.279 557.652 390.674 558.505 390.392 559.274C390.11 560.043 389.258 560.439 388.489 560.157Z" fill="#985CFD" fill-opacity="0.76" stroke="#8A9CFB" stroke-opacity="0.76"/>
<path d="M493.391 544.591C492.578 544.293 492.16 543.391 492.457 542.578C492.755 541.764 493.657 541.346 494.47 541.644C495.284 541.942 495.702 542.843 495.404 543.657C495.106 544.47 494.205 544.888 493.391 544.591Z" fill="#985CFD" fill-opacity="0.86" stroke="#8A9CFB" stroke-opacity="0.86"/>
<path d="M372.442 653.569C371.609 653.264 371.18 652.341 371.485 651.507C371.791 650.674 372.714 650.246 373.547 650.551C374.381 650.856 374.809 651.779 374.504 652.613C374.199 653.446 373.276 653.875 372.442 653.569Z" fill="#985CFD" fill-opacity="0.9" stroke="#8A9CFB" stroke-opacity="0.9"/>
<path d="M477.264 637.974C476.387 637.652 475.936 636.68 476.257 635.802C476.578 634.925 477.551 634.474 478.428 634.795C479.306 635.116 479.757 636.089 479.436 636.966C479.114 637.844 478.142 638.295 477.264 637.974Z" fill="#985CFD" stroke="#8A9CFB"/>
</g>
<g>
  <animateTransform attributeName="transform" type="translate" values="0 0;0 8;0 0" dur="3.5s" repeatCount="indefinite" calcMode="spline" keySplines="0.4 0 0.6 1;0.4 0 0.6 1"/>
  <animate attributeName="opacity" values="0.1;1;0.1" dur="5s" repeatCount="indefinite" calcMode="spline" keySplines="0.4 0 0.6 1;0.4 0 0.6 1"/>
<path d="M401.82 107.93C402.039 107.762 402.353 107.803 402.521 108.022L479.563 208.513C479.731 208.732 479.69 209.046 479.471 209.214C479.252 209.382 478.938 209.34 478.77 209.121L401.728 108.631C401.56 108.412 401.601 108.098 401.82 107.93Z" fill="#9294DC" fill-opacity="0.104"/>
<path d="M478.681 208.7C478.746 208.431 479.016 208.266 479.285 208.331C479.553 208.396 479.717 208.666 479.653 208.935L434.321 396.781C434.256 397.049 433.986 397.215 433.717 397.15C433.449 397.085 433.283 396.815 433.348 396.546L478.681 208.7Z" fill="#9294DC" fill-opacity="0.116"/>
<path d="M401.637 108.208C401.701 107.94 401.972 107.774 402.24 107.839C402.509 107.904 402.674 108.175 402.61 108.443L321.275 445.98C321.211 446.249 320.94 446.414 320.672 446.349C320.403 446.285 320.238 446.014 320.303 445.746L401.637 108.208Z" fill="#9294DC" fill-opacity="0.144"/>
<path d="M433.631 396.203C433.884 396.093 434.178 396.208 434.289 396.461C434.399 396.714 434.282 397.009 434.029 397.119L320.986 446.32C320.733 446.43 320.438 446.314 320.328 446.061C320.218 445.808 320.333 445.513 320.586 445.403L433.631 396.203Z" fill="#9294DC" fill-opacity="0.152"/>
<path d="M478.674 208.735C478.72 208.462 478.978 208.278 479.251 208.324L649.394 236.972C649.667 237.018 649.851 237.276 649.805 237.549C649.759 237.821 649.501 238.004 649.229 237.959L479.084 209.311C478.812 209.265 478.628 209.007 478.674 208.735Z" fill="#9294DC" fill-opacity="0.16"/>
<path d="M424.417 180.28C424.545 180.035 424.846 179.94 425.091 180.068L479.396 208.372C479.641 208.5 479.736 208.803 479.609 209.047C479.481 209.292 479.179 209.387 478.934 209.259L424.629 180.954C424.384 180.826 424.289 180.524 424.417 180.28Z" fill="#9294DC" fill-opacity="0.172"/>
<path d="M401.975 107.849C402.238 107.766 402.519 107.913 402.602 108.176L425.339 180.362C425.422 180.625 425.276 180.905 425.012 180.988C424.749 181.071 424.468 180.925 424.385 180.662L401.647 108.477C401.564 108.213 401.711 107.932 401.975 107.849Z" fill="#9294DC" fill-opacity="0.18"/>
<path d="M433.34 396.578C433.386 396.306 433.643 396.122 433.915 396.167L604.071 424.636C604.343 424.681 604.527 424.94 604.481 425.212C604.435 425.484 604.178 425.668 603.905 425.622L433.751 397.153C433.479 397.108 433.295 396.85 433.34 396.578Z" fill="#9294DC" fill-opacity="0.192"/>
<path d="M379.207 367.915C379.336 367.671 379.639 367.577 379.883 367.706L434.067 396.219C434.311 396.348 434.406 396.65 434.277 396.895C434.149 397.139 433.846 397.233 433.601 397.104L379.416 368.591C379.172 368.463 379.078 368.16 379.207 367.915Z" fill="#9294DC" fill-opacity="0.208"/>
<path d="M401.631 108.243C401.677 107.971 401.935 107.787 402.208 107.833L707.941 159.4C708.213 159.446 708.396 159.704 708.351 159.976C708.305 160.248 708.046 160.432 707.774 160.386L402.041 108.82C401.769 108.774 401.585 108.516 401.631 108.243Z" fill="#9294DC" fill-opacity="0.22"/>
<path d="M379.247 367.848C379.414 367.628 379.728 367.584 379.948 367.751C380.168 367.918 380.211 368.231 380.045 368.451L321.186 446.165C321.019 446.385 320.706 446.429 320.485 446.262C320.265 446.095 320.222 445.782 320.389 445.562L379.247 367.848Z" fill="#9294DC" fill-opacity="0.228"/>
<path d="M648.823 237.346C648.888 237.078 649.159 236.912 649.427 236.977C649.696 237.042 649.861 237.313 649.796 237.581L604.474 425.249C604.41 425.517 604.139 425.683 603.871 425.618C603.602 425.553 603.437 425.283 603.502 425.014L648.823 237.346Z" fill="#9294DC" fill-opacity="0.236"/>
<path d="M424.374 180.394C424.439 180.126 424.709 179.96 424.978 180.025C425.246 180.09 425.412 180.36 425.347 180.629L380.134 368.267C380.07 368.536 379.799 368.701 379.531 368.636C379.262 368.572 379.097 368.301 379.162 368.033L424.374 180.394Z" fill="#9294DC" fill-opacity="0.264"/>
<path d="M707.459 159.592C707.625 159.371 707.939 159.327 708.159 159.494C708.38 159.66 708.424 159.974 708.257 160.195L649.711 237.766C649.545 237.986 649.231 238.03 649.011 237.864C648.79 237.697 648.747 237.383 648.913 237.163L707.459 159.592Z" fill="#9294DC" fill-opacity="0.272"/>
<path d="M320.298 445.779C320.343 445.507 320.601 445.323 320.873 445.368L626.584 496.414C626.856 496.459 627.04 496.717 626.995 496.989C626.949 497.261 626.692 497.445 626.419 497.4L320.709 446.355C320.437 446.309 320.253 446.052 320.298 445.779Z" fill="#9294DC" fill-opacity="0.28"/>
<path d="M594.44 208.903C594.568 208.658 594.87 208.563 595.115 208.69L649.543 237.021C649.788 237.149 649.884 237.45 649.756 237.695C649.629 237.94 649.327 238.035 649.083 237.908L594.653 209.578C594.408 209.451 594.313 209.148 594.44 208.903Z" fill="#9294DC" fill-opacity="0.292"/>
<path d="M424.366 180.428C424.411 180.156 424.67 179.972 424.942 180.018L594.962 208.64C595.234 208.686 595.418 208.944 595.372 209.217C595.326 209.489 595.069 209.672 594.796 209.627L424.776 181.004C424.504 180.959 424.32 180.7 424.366 180.428Z" fill="#9294DC" fill-opacity="0.308"/>
<path d="M603.838 424.655C604.101 424.572 604.383 424.719 604.465 424.982L626.976 496.76C627.058 497.023 626.912 497.304 626.648 497.386C626.385 497.469 626.104 497.322 626.022 497.059L603.511 425.282C603.428 425.019 603.575 424.738 603.838 424.655Z" fill="#9294DC" fill-opacity="0.32"/>
<path d="M549.179 396.374C549.308 396.13 549.61 396.036 549.854 396.164L604.218 424.688C604.462 424.816 604.556 425.118 604.428 425.362C604.3 425.607 603.998 425.701 603.754 425.573L549.389 397.049C549.145 396.92 549.051 396.618 549.179 396.374Z" fill="#9294DC" fill-opacity="0.328"/>
<path d="M379.156 368.066C379.202 367.794 379.459 367.61 379.732 367.655L549.709 396.114C549.981 396.16 550.164 396.418 550.119 396.69C550.073 396.962 549.815 397.145 549.543 397.1L379.567 368.642C379.295 368.596 379.111 368.339 379.156 368.066Z" fill="#9294DC" fill-opacity="0.34"/>
<path d="M707.656 159.434C707.91 159.324 708.205 159.439 708.315 159.693C708.425 159.946 708.309 160.24 708.057 160.35L595.081 209.591C594.828 209.702 594.534 209.586 594.424 209.333C594.313 209.08 594.429 208.785 594.682 208.674L707.656 159.434Z" fill="#9294DC" fill-opacity="0.348"/>
<path d="M707.369 159.777C707.434 159.508 707.704 159.343 707.973 159.408C708.241 159.472 708.407 159.743 708.342 160.011L626.985 497.028C626.921 497.296 626.65 497.461 626.381 497.396C626.113 497.331 625.948 497.062 626.013 496.793L707.369 159.777Z" fill="#9294DC" fill-opacity="0.356"/>
<path d="M594.393 209.018C594.458 208.75 594.729 208.584 594.997 208.649C595.266 208.714 595.431 208.985 595.366 209.253L550.11 396.727C550.045 396.996 549.774 397.161 549.506 397.096C549.238 397.032 549.073 396.762 549.137 396.494L594.393 209.018Z" fill="#9294DC" fill-opacity="0.384"/>
<path d="M549.318 396.21C549.537 396.042 549.851 396.083 550.019 396.302L626.894 496.603C627.062 496.822 627.02 497.137 626.801 497.305C626.582 497.472 626.267 497.431 626.1 497.211L549.226 396.911C549.058 396.692 549.099 396.378 549.318 396.21Z" fill="#9294DC" fill-opacity="0.396"/>
<path d="M479.516 210.127C480.24 209.933 480.669 209.189 480.475 208.465C480.281 207.741 479.537 207.311 478.813 207.505C478.089 207.699 477.659 208.443 477.853 209.167C478.047 209.892 478.791 210.321 479.516 210.127Z" fill="#9294DC" fill-opacity="0.25"/>
<path d="M479.992 208.594C479.869 208.137 479.399 207.866 478.942 207.988C478.484 208.111 478.213 208.581 478.335 209.038C478.458 209.495 478.928 209.767 479.385 209.645C479.843 209.522 480.114 209.052 479.992 208.594ZM480.958 208.336C481.223 209.326 480.635 210.345 479.644 210.61C478.654 210.876 477.635 210.288 477.369 209.297C477.104 208.306 477.692 207.288 478.683 207.022C479.674 206.757 480.692 207.345 480.958 208.336Z" fill="#9294DC" fill-opacity="0.25"/>
<path d="M402.482 109.669C403.224 109.47 403.664 108.708 403.466 107.965C403.267 107.223 402.504 106.783 401.762 106.982C401.02 107.181 400.579 107.943 400.778 108.686C400.977 109.428 401.74 109.868 402.482 109.669Z" fill="#9294DC" fill-opacity="0.28"/>
<path d="M402.982 108.095C402.854 107.62 402.366 107.338 401.891 107.465C401.415 107.592 401.133 108.081 401.26 108.557C401.388 109.032 401.877 109.313 402.352 109.186C402.827 109.059 403.109 108.57 402.982 108.095ZM403.948 107.837C404.218 108.845 403.619 109.882 402.611 110.152C401.602 110.422 400.565 109.824 400.294 108.815C400.024 107.807 400.623 106.769 401.632 106.499C402.641 106.229 403.677 106.828 403.948 107.837Z" fill="#9294DC" fill-opacity="0.28"/>
<path d="M434.211 398.07C434.99 397.861 435.452 397.061 435.243 396.283C435.035 395.505 434.235 395.043 433.456 395.251C432.678 395.46 432.216 396.26 432.425 397.038C432.633 397.817 433.433 398.279 434.211 398.07Z" fill="#9294DC" fill-opacity="0.34"/>
<path d="M434.759 396.412C434.622 395.901 434.096 395.597 433.585 395.734C433.073 395.871 432.77 396.397 432.907 396.909C433.044 397.42 433.569 397.724 434.081 397.587C434.593 397.45 434.896 396.924 434.759 396.412ZM435.725 396.154C436.005 397.199 435.385 398.273 434.34 398.553C433.295 398.833 432.221 398.213 431.941 397.168C431.661 396.123 432.281 395.048 433.326 394.768C434.371 394.488 435.445 395.109 435.725 396.154Z" fill="#9294DC" fill-opacity="0.34"/>
<path d="M321.2 447.386C322.042 447.16 322.541 446.295 322.316 445.453C322.09 444.612 321.225 444.112 320.383 444.338C319.542 444.563 319.042 445.428 319.268 446.27C319.493 447.112 320.358 447.611 321.2 447.386Z" fill="#9294DC" fill-opacity="0.43"/>
<path d="M321.833 445.583C321.679 445.008 321.088 444.667 320.513 444.821C319.938 444.975 319.597 445.566 319.751 446.141C319.905 446.716 320.496 447.057 321.071 446.902C321.646 446.748 321.987 446.158 321.833 445.583ZM322.799 445.324C323.095 446.433 322.438 447.571 321.33 447.868C320.222 448.165 319.082 447.508 318.785 446.4C318.488 445.291 319.146 444.152 320.254 443.855C321.363 443.558 322.502 444.216 322.799 445.324Z" fill="#9294DC" fill-opacity="0.43"/>
<path d="M649.757 239.12C650.671 238.875 651.214 237.935 650.969 237.021C650.724 236.107 649.784 235.564 648.87 235.809C647.956 236.054 647.413 236.994 647.658 237.908C647.903 238.822 648.843 239.365 649.757 239.12Z" fill="#9294DC" fill-opacity="0.55"/>
<path d="M650.485 237.151C650.311 236.504 649.646 236.119 648.999 236.292C648.351 236.466 647.967 237.132 648.14 237.779C648.314 238.426 648.98 238.81 649.627 238.636C650.274 238.463 650.658 237.798 650.485 237.151ZM651.45 236.892C651.767 238.073 651.066 239.286 649.886 239.602C648.705 239.919 647.491 239.218 647.175 238.038C646.858 236.857 647.559 235.643 648.74 235.326C649.921 235.01 651.134 235.711 651.45 236.892Z" fill="#9294DC" fill-opacity="0.55"/>
<path d="M425.324 182.243C426.28 181.987 426.848 181.004 426.591 180.048C426.335 179.091 425.352 178.524 424.396 178.78C423.439 179.036 422.872 180.019 423.128 180.976C423.384 181.932 424.367 182.5 425.324 182.243Z" fill="#9294DC" fill-opacity="0.62"/>
<path d="M426.109 180.178C425.924 179.488 425.216 179.078 424.526 179.263C423.837 179.448 423.427 180.157 423.612 180.847C423.797 181.536 424.506 181.945 425.195 181.76C425.885 181.575 426.294 180.867 426.109 180.178ZM427.075 179.919C427.402 181.142 426.677 182.398 425.454 182.726C424.231 183.054 422.974 182.328 422.646 181.105C422.318 179.882 423.044 178.625 424.268 178.297C425.491 177.97 426.747 178.696 427.075 179.919Z" fill="#9294DC" fill-opacity="0.62"/>
<path d="M604.461 426.885C605.429 426.625 606.004 425.63 605.744 424.661C605.485 423.693 604.489 423.118 603.521 423.378C602.553 423.637 601.978 424.633 602.237 425.601C602.497 426.57 603.492 427.144 604.461 426.885Z" fill="#9294DC" fill-opacity="0.63"/>
<path d="M605.261 424.791C605.073 424.089 604.351 423.673 603.65 423.861C602.948 424.049 602.531 424.77 602.719 425.472C602.908 426.173 603.629 426.59 604.331 426.402C605.032 426.214 605.449 425.493 605.261 424.791ZM606.227 424.532C606.558 425.767 605.824 427.037 604.589 427.368C603.354 427.699 602.085 426.966 601.754 425.731C601.423 424.496 602.156 423.226 603.391 422.895C604.626 422.564 605.896 423.297 606.227 424.532Z" fill="#9294DC" fill-opacity="0.63"/>
<path d="M380.137 369.979C381.147 369.708 381.747 368.669 381.476 367.659C381.206 366.648 380.167 366.048 379.156 366.319C378.145 366.59 377.546 367.629 377.816 368.639C378.087 369.65 379.126 370.25 380.137 369.979Z" fill="#9294DC" fill-opacity="0.7"/>
<path d="M380.993 367.788C380.793 367.044 380.029 366.603 379.285 366.802C378.541 367.002 378.099 367.766 378.299 368.51C378.498 369.254 379.263 369.696 380.007 369.496C380.75 369.297 381.192 368.532 380.993 367.788ZM381.959 367.529C382.301 368.807 381.543 370.12 380.265 370.462C378.988 370.804 377.675 370.046 377.333 368.769C376.99 367.492 377.748 366.179 379.026 365.836C380.303 365.494 381.616 366.252 381.959 367.529Z" fill="#9294DC" fill-opacity="0.7"/>
<path d="M708.381 161.854C709.464 161.563 710.107 160.45 709.817 159.367C709.527 158.284 708.413 157.641 707.33 157.932C706.247 158.222 705.604 159.335 705.895 160.418C706.185 161.501 707.298 162.144 708.381 161.854Z" fill="#9294DC" fill-opacity="0.82"/>
<path d="M709.333 159.497C709.114 158.68 708.275 158.196 707.459 158.415C706.642 158.633 706.158 159.472 706.377 160.289C706.595 161.105 707.435 161.59 708.251 161.371C709.067 161.152 709.552 160.313 709.333 159.497ZM710.299 159.238C710.66 160.588 709.859 161.975 708.51 162.337C707.16 162.698 705.772 161.897 705.411 160.548C705.049 159.198 705.85 157.81 707.2 157.449C708.55 157.087 709.937 157.888 710.299 159.238Z" fill="#9294DC" fill-opacity="0.82"/>
<path d="M595.44 211.208C596.587 210.9 597.267 209.722 596.96 208.576C596.652 207.429 595.474 206.749 594.328 207.056C593.181 207.363 592.501 208.542 592.808 209.688C593.115 210.834 594.294 211.515 595.44 211.208Z" fill="#9294DC" fill-opacity="0.91"/>
<path d="M596.476 208.706C596.24 207.826 595.336 207.304 594.457 207.539C593.577 207.775 593.055 208.679 593.29 209.559C593.526 210.439 594.431 210.96 595.31 210.724C596.189 210.489 596.711 209.585 596.476 208.706ZM597.442 208.447C597.82 209.86 596.982 211.312 595.569 211.69C594.156 212.069 592.703 211.231 592.324 209.818C591.946 208.405 592.785 206.952 594.198 206.573C595.611 206.195 597.063 207.034 597.442 208.447Z" fill="#9294DC" fill-opacity="0.91"/>
<path d="M627.073 499.044C628.253 498.728 628.953 497.516 628.637 496.336C628.321 495.156 627.108 494.456 625.929 494.772C624.749 495.089 624.049 496.301 624.365 497.481C624.681 498.66 625.894 499.36 627.073 499.044Z" fill="#9294DC" fill-opacity="0.97"/>
<path d="M628.153 496.465C627.909 495.552 626.97 495.011 626.057 495.255C625.144 495.5 624.603 496.438 624.847 497.351C625.092 498.264 626.03 498.806 626.943 498.562C627.856 498.317 628.398 497.378 628.153 496.465ZM629.119 496.206C629.507 497.653 628.648 499.14 627.202 499.528C625.756 499.915 624.269 499.056 623.881 497.61C623.494 496.164 624.352 494.677 625.798 494.29C627.244 493.902 628.732 494.76 629.119 496.206Z" fill="#9294DC" fill-opacity="0.97"/>
<path d="M550.206 398.774C551.403 398.453 552.114 397.222 551.793 396.024C551.472 394.826 550.241 394.116 549.044 394.436C547.846 394.757 547.135 395.989 547.456 397.186C547.777 398.384 549.008 399.095 550.206 398.774Z" fill="#9294DC"/>
<path d="M551.309 396.153C551.06 395.223 550.103 394.67 549.172 394.919C548.241 395.169 547.689 396.126 547.938 397.057C548.188 397.988 549.144 398.54 550.075 398.291C551.006 398.041 551.559 397.084 551.309 396.153ZM552.275 395.895C552.668 397.359 551.799 398.864 550.334 399.257C548.87 399.649 547.365 398.78 546.972 397.316C546.58 395.851 547.449 394.346 548.913 393.954C550.378 393.561 551.883 394.43 552.275 395.895Z" fill="#9294DC"/>
<path d="M401.818 107.928C402.037 107.76 402.351 107.801 402.519 108.02L479.561 208.511C479.729 208.73 479.688 209.044 479.469 209.212C479.25 209.38 478.936 209.338 478.768 209.119L401.726 108.629C401.558 108.41 401.599 108.096 401.818 107.928Z" fill="#9294DC" fill-opacity="0.104"/>
<path d="M478.679 208.698C478.744 208.429 479.014 208.264 479.283 208.329C479.551 208.394 479.716 208.664 479.651 208.933L434.319 396.779C434.254 397.048 433.984 397.213 433.715 397.148C433.447 397.083 433.282 396.813 433.346 396.544L478.679 208.698Z" fill="#9294DC" fill-opacity="0.116"/>
<path d="M401.635 108.205C401.7 107.937 401.97 107.772 402.239 107.836C402.507 107.901 402.672 108.172 402.608 108.44L321.273 445.977C321.209 446.246 320.938 446.411 320.67 446.347C320.401 446.282 320.236 446.011 320.301 445.743L401.635 108.205Z" fill="#9294DC" fill-opacity="0.144"/>
<path d="M433.631 396.202C433.884 396.092 434.178 396.207 434.289 396.46C434.399 396.713 434.282 397.008 434.029 397.118L320.986 446.319C320.733 446.429 320.438 446.313 320.328 446.06C320.218 445.807 320.333 445.512 320.586 445.402L433.631 396.202Z" fill="#9294DC" fill-opacity="0.152"/>
<path d="M478.674 208.732C478.72 208.459 478.978 208.276 479.251 208.321L649.394 236.969C649.667 237.015 649.851 237.273 649.805 237.546C649.759 237.818 649.501 238.001 649.229 237.956L479.084 209.308C478.812 209.262 478.628 209.004 478.674 208.732Z" fill="#9294DC" fill-opacity="0.16"/>
<path d="M424.417 180.278C424.545 180.033 424.846 179.938 425.091 180.066L479.396 208.37C479.641 208.498 479.736 208.801 479.609 209.045C479.481 209.29 479.179 209.385 478.934 209.257L424.629 180.952C424.384 180.824 424.289 180.522 424.417 180.278Z" fill="#9294DC" fill-opacity="0.172"/>
<path d="M401.973 107.846C402.236 107.763 402.517 107.91 402.6 108.173L425.337 180.359C425.42 180.622 425.274 180.902 425.011 180.985C424.747 181.068 424.466 180.922 424.383 180.659L401.645 108.474C401.562 108.21 401.709 107.929 401.973 107.846Z" fill="#9294DC" fill-opacity="0.18"/>
<path d="M433.338 396.577C433.384 396.305 433.641 396.121 433.913 396.166L604.069 424.635C604.341 424.68 604.525 424.939 604.479 425.211C604.433 425.483 604.176 425.667 603.903 425.621L433.749 397.152C433.477 397.107 433.293 396.849 433.338 396.577Z" fill="#9294DC" fill-opacity="0.192"/>
<path d="M379.207 367.913C379.336 367.669 379.639 367.575 379.883 367.704L434.067 396.217C434.311 396.346 434.406 396.648 434.277 396.893C434.149 397.137 433.846 397.231 433.601 397.102L379.416 368.589C379.172 368.461 379.078 368.158 379.207 367.913Z" fill="#9294DC" fill-opacity="0.208"/>
<path d="M401.629 108.24C401.675 107.968 401.934 107.784 402.206 107.83L707.939 159.397C708.211 159.443 708.394 159.701 708.349 159.973C708.303 160.245 708.044 160.429 707.772 160.383L402.039 108.817C401.767 108.771 401.583 108.513 401.629 108.24Z" fill="#9294DC" fill-opacity="0.22"/>
<path d="M379.247 367.846C379.414 367.626 379.728 367.583 379.948 367.749C380.168 367.916 380.211 368.229 380.045 368.449L321.186 446.163C321.019 446.383 320.706 446.427 320.485 446.26C320.265 446.093 320.222 445.78 320.389 445.56L379.247 367.846Z" fill="#9294DC" fill-opacity="0.228"/>
<path d="M648.823 237.343C648.888 237.075 649.159 236.91 649.427 236.974C649.696 237.039 649.861 237.31 649.796 237.578L604.474 425.246C604.41 425.514 604.139 425.68 603.871 425.615C603.602 425.55 603.437 425.28 603.502 425.011L648.823 237.343Z" fill="#9294DC" fill-opacity="0.236"/>
<path d="M424.372 180.391C424.437 180.123 424.707 179.958 424.976 180.022C425.244 180.087 425.41 180.358 425.345 180.626L380.132 368.264C380.068 368.533 379.797 368.698 379.529 368.633C379.26 368.569 379.095 368.298 379.16 368.03L424.372 180.391Z" fill="#9294DC" fill-opacity="0.264"/>
<path d="M707.459 159.59C707.625 159.369 707.939 159.325 708.159 159.492C708.38 159.658 708.424 159.972 708.257 160.193L649.711 237.764C649.545 237.984 649.231 238.028 649.011 237.862C648.79 237.695 648.747 237.381 648.913 237.161L707.459 159.59Z" fill="#9294DC" fill-opacity="0.272"/>
<path d="M320.296 445.778C320.342 445.506 320.599 445.322 320.871 445.367L626.582 496.413C626.854 496.458 627.038 496.716 626.993 496.988C626.947 497.26 626.69 497.444 626.417 497.399L320.707 446.354C320.435 446.308 320.251 446.051 320.296 445.778Z" fill="#9294DC" fill-opacity="0.28"/>
<path d="M594.44 208.901C594.568 208.656 594.87 208.561 595.115 208.688L649.543 237.019C649.788 237.147 649.884 237.448 649.756 237.693C649.629 237.938 649.327 238.034 649.083 237.906L594.653 209.576C594.408 209.449 594.313 209.146 594.44 208.901Z" fill="#9294DC" fill-opacity="0.292"/>
<path d="M424.366 180.425C424.411 180.153 424.67 179.969 424.942 180.015L594.962 208.637C595.234 208.683 595.418 208.941 595.372 209.214C595.326 209.486 595.069 209.669 594.796 209.624L424.776 181.002C424.504 180.956 424.32 180.697 424.366 180.425Z" fill="#9294DC" fill-opacity="0.308"/>
<path d="M603.838 424.652C604.101 424.569 604.383 424.716 604.465 424.979L626.976 496.757C627.058 497.02 626.912 497.301 626.648 497.384C626.385 497.466 626.104 497.319 626.022 497.056L603.511 425.279C603.428 425.016 603.575 424.735 603.838 424.652Z" fill="#9294DC" fill-opacity="0.32"/>
<path d="M549.181 396.373C549.31 396.129 549.612 396.035 549.856 396.163L604.22 424.687C604.464 424.815 604.558 425.117 604.43 425.361C604.302 425.606 604 425.7 603.755 425.572L549.391 397.048C549.147 396.919 549.053 396.617 549.181 396.373Z" fill="#9294DC" fill-opacity="0.328"/>
<path d="M379.156 368.065C379.202 367.793 379.459 367.609 379.732 367.654L549.709 396.113C549.981 396.159 550.164 396.417 550.119 396.689C550.073 396.961 549.815 397.144 549.543 397.099L379.567 368.641C379.295 368.595 379.111 368.338 379.156 368.065Z" fill="#9294DC" fill-opacity="0.34"/>
<path d="M707.656 159.432C707.91 159.322 708.205 159.437 708.315 159.691C708.425 159.944 708.309 160.238 708.057 160.348L595.081 209.589C594.828 209.7 594.534 209.584 594.424 209.331C594.313 209.078 594.429 208.783 594.682 208.672L707.656 159.432Z" fill="#9294DC" fill-opacity="0.348"/>
<path d="M707.369 159.774C707.434 159.505 707.704 159.34 707.973 159.405C708.241 159.469 708.407 159.74 708.342 160.008L626.985 497.025C626.921 497.293 626.65 497.458 626.381 497.393C626.113 497.328 625.948 497.059 626.013 496.79L707.369 159.774Z" fill="#9294DC" fill-opacity="0.356"/>
<path d="M594.393 209.017C594.458 208.749 594.729 208.584 594.997 208.648C595.266 208.713 595.431 208.984 595.366 209.252L550.11 396.726C550.045 396.995 549.774 397.16 549.506 397.095C549.238 397.031 549.073 396.761 549.137 396.493L594.393 209.017Z" fill="#9294DC" fill-opacity="0.384"/>
<path d="M549.32 396.209C549.539 396.041 549.853 396.082 550.021 396.301L626.896 496.602C627.064 496.821 627.022 497.136 626.803 497.304C626.584 497.471 626.269 497.43 626.101 497.21L549.227 396.91C549.06 396.691 549.101 396.377 549.32 396.209Z" fill="#9294DC" fill-opacity="0.396"/>
<path d="M479.516 210.126C480.24 209.932 480.669 209.188 480.475 208.464C480.281 207.74 479.537 207.31 478.813 207.504C478.089 207.698 477.659 208.442 477.853 209.166C478.047 209.891 478.791 210.32 479.516 210.126Z" fill="#9294DC" fill-opacity="0.25"/>
<path d="M479.992 208.593C479.869 208.136 479.399 207.865 478.942 207.987C478.484 208.11 478.213 208.58 478.335 209.037C478.458 209.494 478.928 209.766 479.385 209.644C479.843 209.521 480.114 209.051 479.992 208.593ZM480.958 208.335C481.223 209.325 480.635 210.344 479.644 210.609C478.654 210.875 477.635 210.287 477.369 209.296C477.104 208.305 477.692 207.287 478.683 207.021C479.674 206.756 480.692 207.344 480.958 208.335Z" fill="#9294DC" fill-opacity="0.25"/>
<path d="M402.48 109.668C403.222 109.469 403.662 108.707 403.464 107.964C403.265 107.222 402.502 106.782 401.76 106.981C401.018 107.18 400.577 107.942 400.776 108.685C400.975 109.427 401.738 109.867 402.48 109.668Z" fill="#9294DC" fill-opacity="0.28"/>
<path d="M402.982 108.094C402.854 107.619 402.366 107.337 401.891 107.464C401.415 107.591 401.133 108.08 401.26 108.556C401.388 109.031 401.877 109.312 402.352 109.185C402.827 109.058 403.109 108.57 402.982 108.094ZM403.948 107.836C404.218 108.844 403.619 109.881 402.611 110.151C401.602 110.421 400.565 109.823 400.294 108.814C400.024 107.806 400.623 106.768 401.632 106.498C402.641 106.228 403.677 106.827 403.948 107.836Z" fill="#9294DC" fill-opacity="0.28"/>
<path d="M434.21 398.068C434.988 397.859 435.45 397.059 435.241 396.281C435.033 395.503 434.233 395.041 433.454 395.249C432.676 395.458 432.214 396.258 432.423 397.036C432.631 397.815 433.431 398.277 434.21 398.068Z" fill="#9294DC" fill-opacity="0.34"/>
<path d="M434.757 396.41C434.62 395.899 434.094 395.595 433.583 395.732C433.071 395.869 432.768 396.395 432.905 396.907C433.042 397.418 433.568 397.722 434.079 397.585C434.591 397.448 434.894 396.922 434.757 396.41ZM435.723 396.152C436.003 397.197 435.383 398.271 434.338 398.551C433.293 398.831 432.219 398.211 431.939 397.166C431.659 396.121 432.279 395.046 433.324 394.766C434.369 394.486 435.443 395.107 435.723 396.152Z" fill="#9294DC" fill-opacity="0.34"/>
<path d="M321.198 447.387C322.04 447.161 322.539 446.296 322.314 445.454C322.088 444.613 321.223 444.113 320.381 444.339C319.54 444.564 319.04 445.429 319.266 446.271C319.491 447.113 320.356 447.612 321.198 447.387Z" fill="#9294DC" fill-opacity="0.43"/>
<path d="M321.831 445.584C321.677 445.009 321.086 444.668 320.511 444.822C319.936 444.976 319.595 445.567 319.749 446.142C319.903 446.717 320.494 447.057 321.069 446.903C321.644 446.749 321.985 446.159 321.831 445.584ZM322.797 445.325C323.093 446.434 322.436 447.572 321.328 447.869C320.22 448.166 319.08 447.509 318.783 446.401C318.486 445.292 319.144 444.153 320.252 443.856C321.361 443.559 322.5 444.217 322.797 445.325Z" fill="#9294DC" fill-opacity="0.43"/>
<path d="M649.755 239.118C650.669 238.873 651.212 237.933 650.967 237.019C650.722 236.105 649.782 235.563 648.868 235.807C647.954 236.052 647.411 236.992 647.656 237.906C647.901 238.82 648.841 239.363 649.755 239.118Z" fill="#9294DC" fill-opacity="0.55"/>
<path d="M650.485 237.149C650.311 236.502 649.646 236.117 648.999 236.29C648.351 236.464 647.967 237.13 648.14 237.777C648.314 238.424 648.98 238.808 649.627 238.634C650.274 238.461 650.658 237.796 650.485 237.149ZM651.45 236.89C651.767 238.071 651.066 239.284 649.886 239.6C648.705 239.917 647.491 239.217 647.175 238.036C646.858 236.855 647.559 235.641 648.74 235.324C649.921 235.008 651.134 235.709 651.45 236.89Z" fill="#9294DC" fill-opacity="0.55"/>
<path d="M425.322 182.241C426.278 181.985 426.846 181.002 426.589 180.046C426.333 179.089 425.35 178.522 424.394 178.778C423.437 179.034 422.87 180.017 423.126 180.974C423.382 181.93 424.365 182.498 425.322 182.241Z" fill="#9294DC" fill-opacity="0.62"/>
<path d="M426.105 180.176C425.92 179.486 425.212 179.077 424.522 179.261C423.833 179.446 423.423 180.155 423.608 180.845C423.793 181.534 424.502 181.943 425.192 181.758C425.881 181.573 426.29 180.865 426.105 180.176ZM427.071 179.917C427.399 181.14 426.673 182.396 425.45 182.724C424.227 183.052 422.97 182.326 422.642 181.104C422.315 179.88 423.041 178.623 424.264 178.295C425.487 177.968 426.743 178.694 427.071 179.917Z" fill="#9294DC" fill-opacity="0.62"/>
<path d="M604.457 426.883C605.425 426.623 606 425.628 605.74 424.659C605.481 423.691 604.486 423.116 603.517 423.376C602.549 423.635 601.974 424.631 602.234 425.599C602.493 426.568 603.488 427.142 604.457 426.883Z" fill="#9294DC" fill-opacity="0.63"/>
<path d="M605.259 424.789C605.071 424.087 604.349 423.671 603.648 423.859C602.946 424.047 602.53 424.768 602.718 425.47C602.906 426.172 603.627 426.588 604.329 426.4C605.03 426.212 605.447 425.491 605.259 424.789ZM606.225 424.53C606.556 425.765 605.822 427.035 604.587 427.366C603.352 427.697 602.083 426.964 601.752 425.729C601.421 424.494 602.154 423.224 603.389 422.893C604.624 422.562 605.894 423.295 606.225 424.53Z" fill="#9294DC" fill-opacity="0.63"/>
<path d="M380.135 369.978C381.145 369.707 381.745 368.669 381.474 367.658C381.204 366.647 380.165 366.047 379.154 366.318C378.144 366.589 377.544 367.628 377.815 368.639C378.085 369.649 379.124 370.249 380.135 369.978Z" fill="#9294DC" fill-opacity="0.7"/>
<path d="M380.991 367.787C380.791 367.043 380.027 366.602 379.283 366.801C378.539 367.001 378.097 367.765 378.297 368.509C378.496 369.253 379.261 369.695 380.005 369.495C380.748 369.296 381.19 368.531 380.991 367.787ZM381.957 367.529C382.299 368.806 381.541 370.119 380.263 370.461C378.986 370.803 377.673 370.045 377.331 368.768C376.988 367.491 377.747 366.178 379.024 365.835C380.301 365.493 381.614 366.251 381.957 367.529Z" fill="#9294DC" fill-opacity="0.7"/>
<path d="M708.379 161.852C709.462 161.562 710.105 160.448 709.815 159.365C709.525 158.282 708.411 157.639 707.328 157.93C706.245 158.22 705.602 159.333 705.893 160.416C706.183 161.499 707.296 162.142 708.379 161.852Z" fill="#9294DC" fill-opacity="0.82"/>
<path d="M709.333 159.495C709.114 158.678 708.275 158.194 707.459 158.413C706.642 158.631 706.158 159.47 706.377 160.287C706.595 161.103 707.435 161.588 708.251 161.369C709.067 161.15 709.552 160.311 709.333 159.495ZM710.299 159.236C710.66 160.586 709.859 161.973 708.51 162.335C707.16 162.696 705.772 161.895 705.411 160.546C705.049 159.196 705.85 157.808 707.2 157.447C708.55 157.085 709.937 157.886 710.299 159.236Z" fill="#9294DC" fill-opacity="0.82"/>
<path d="M595.436 211.206C596.583 210.898 597.263 209.72 596.956 208.574C596.649 207.427 595.47 206.747 594.324 207.054C593.177 207.361 592.497 208.54 592.804 209.686C593.111 210.833 594.29 211.513 595.436 211.206Z" fill="#9294DC" fill-opacity="0.91"/>
<path d="M596.474 208.704C596.238 207.824 595.334 207.302 594.455 207.537C593.575 207.773 593.053 208.677 593.288 209.557C593.524 210.437 594.429 210.958 595.308 210.723C596.188 210.487 596.709 209.583 596.474 208.704ZM597.44 208.445C597.818 209.858 596.98 211.31 595.567 211.688C594.154 212.067 592.701 211.229 592.322 209.816C591.944 208.403 592.783 206.95 594.196 206.571C595.609 206.193 597.061 207.032 597.44 208.445Z" fill="#9294DC" fill-opacity="0.91"/>
<path d="M627.071 499.042C628.251 498.726 628.951 497.514 628.635 496.334C628.319 495.154 627.106 494.454 625.927 494.77C624.747 495.087 624.047 496.299 624.363 497.479C624.679 498.658 625.892 499.358 627.071 499.042Z" fill="#9294DC" fill-opacity="0.97"/>
<path d="M628.153 496.463C627.909 495.55 626.97 495.009 626.057 495.254C625.144 495.498 624.603 496.436 624.847 497.349C625.092 498.262 626.03 498.804 626.943 498.56C627.856 498.315 628.398 497.376 628.153 496.463ZM629.119 496.204C629.507 497.651 628.648 499.138 627.202 499.526C625.756 499.913 624.269 499.054 623.881 497.608C623.494 496.162 624.352 494.675 625.798 494.288C627.244 493.9 628.732 494.758 629.119 496.204Z" fill="#9294DC" fill-opacity="0.97"/>
<path d="M550.204 398.773C551.402 398.452 552.112 397.221 551.791 396.023C551.47 394.825 550.239 394.115 549.042 394.436C547.844 394.756 547.133 395.988 547.454 397.185C547.775 398.383 549.006 399.094 550.204 398.773Z" fill="#9294DC"/>
<path d="M551.309 396.153C551.06 395.222 550.103 394.669 549.172 394.919C548.241 395.168 547.689 396.125 547.938 397.056C548.188 397.987 549.144 398.539 550.075 398.29C551.006 398.04 551.559 397.083 551.309 396.153ZM552.275 395.894C552.668 397.358 551.799 398.863 550.334 399.256C548.87 399.648 547.365 398.779 546.972 397.315C546.58 395.85 547.449 394.345 548.913 393.953C550.378 393.56 551.883 394.429 552.275 395.894Z" fill="#9294DC"/>
<path d="M401.818 107.928C402.037 107.76 402.351 107.801 402.519 108.02L479.561 208.511C479.729 208.73 479.688 209.044 479.469 209.212C479.25 209.38 478.936 209.338 478.768 209.119L401.726 108.629C401.558 108.41 401.599 108.096 401.818 107.928Z" fill="#9294DC" fill-opacity="0.104"/>
<path d="M478.679 208.699C478.744 208.43 479.014 208.265 479.283 208.33C479.551 208.395 479.716 208.665 479.651 208.934L434.319 396.78C434.254 397.049 433.984 397.214 433.715 397.149C433.447 397.084 433.282 396.814 433.346 396.545L478.679 208.699Z" fill="#9294DC" fill-opacity="0.116"/>
<path d="M401.635 108.206C401.7 107.938 401.97 107.773 402.239 107.837C402.507 107.902 402.672 108.173 402.608 108.441L321.273 445.978C321.209 446.247 320.938 446.412 320.67 446.347C320.401 446.283 320.236 446.012 320.301 445.744L401.635 108.206Z" fill="#9294DC" fill-opacity="0.144"/>
<path d="M433.631 396.202C433.884 396.092 434.178 396.207 434.289 396.46C434.399 396.713 434.282 397.008 434.029 397.118L320.986 446.319C320.733 446.429 320.438 446.313 320.328 446.06C320.218 445.807 320.333 445.512 320.586 445.402L433.631 396.202Z" fill="#9294DC" fill-opacity="0.152"/>
<path d="M478.672 208.733C478.718 208.46 478.976 208.276 479.249 208.322L649.392 236.97C649.665 237.016 649.849 237.274 649.803 237.547C649.757 237.819 649.499 238.002 649.227 237.957L479.082 209.309C478.81 209.263 478.626 209.005 478.672 208.733Z" fill="#9294DC" fill-opacity="0.16"/>
<path d="M424.415 180.278C424.543 180.033 424.844 179.938 425.089 180.066L479.394 208.37C479.639 208.498 479.734 208.801 479.607 209.045C479.479 209.29 479.177 209.385 478.932 209.257L424.627 180.952C424.382 180.824 424.287 180.522 424.415 180.278Z" fill="#9294DC" fill-opacity="0.172"/>
<path d="M401.973 107.847C402.236 107.764 402.517 107.911 402.6 108.174L425.337 180.36C425.42 180.623 425.274 180.903 425.011 180.986C424.747 181.069 424.466 180.923 424.383 180.66L401.645 108.475C401.562 108.211 401.709 107.93 401.973 107.847Z" fill="#9294DC" fill-opacity="0.18"/>
<path d="M433.338 396.577C433.384 396.305 433.641 396.121 433.913 396.166L604.069 424.635C604.341 424.68 604.525 424.939 604.479 425.211C604.433 425.483 604.176 425.667 603.903 425.621L433.749 397.152C433.477 397.107 433.293 396.849 433.338 396.577Z" fill="#9294DC" fill-opacity="0.192"/>
<path d="M379.207 367.914C379.336 367.67 379.639 367.576 379.883 367.705L434.067 396.218C434.311 396.347 434.406 396.649 434.277 396.894C434.149 397.138 433.846 397.232 433.601 397.103L379.416 368.59C379.172 368.462 379.078 368.159 379.207 367.914Z" fill="#9294DC" fill-opacity="0.208"/>
<path d="M401.629 108.241C401.675 107.969 401.934 107.785 402.206 107.831L707.939 159.398C708.211 159.444 708.394 159.702 708.349 159.974C708.303 160.246 708.044 160.43 707.772 160.384L402.039 108.818C401.767 108.772 401.583 108.514 401.629 108.241Z" fill="#9294DC" fill-opacity="0.22"/>
<path d="M379.247 367.846C379.414 367.626 379.728 367.583 379.948 367.749C380.168 367.916 380.211 368.229 380.045 368.449L321.186 446.163C321.019 446.383 320.706 446.427 320.485 446.26C320.265 446.093 320.222 445.78 320.389 445.56L379.247 367.846Z" fill="#9294DC" fill-opacity="0.228"/>
<path d="M648.822 237.344C648.886 237.076 649.157 236.911 649.425 236.975C649.694 237.04 649.859 237.311 649.794 237.579L604.472 425.247C604.408 425.515 604.137 425.681 603.869 425.616C603.6 425.551 603.435 425.281 603.5 425.012L648.822 237.344Z" fill="#9294DC" fill-opacity="0.236"/>
<path d="M424.372 180.392C424.437 180.124 424.707 179.959 424.976 180.023C425.244 180.088 425.41 180.359 425.345 180.627L380.132 368.265C380.068 368.534 379.797 368.699 379.529 368.634C379.26 368.57 379.095 368.299 379.16 368.031L424.372 180.392Z" fill="#9294DC" fill-opacity="0.264"/>
<path d="M707.459 159.591C707.625 159.37 707.939 159.326 708.159 159.493C708.38 159.659 708.424 159.973 708.257 160.194L649.711 237.765C649.545 237.985 649.231 238.029 649.011 237.863C648.79 237.696 648.747 237.382 648.913 237.162L707.459 159.591Z" fill="#9294DC" fill-opacity="0.272"/>
<path d="M320.295 445.778C320.341 445.506 320.598 445.322 320.87 445.367L626.581 496.413C626.853 496.458 627.037 496.716 626.992 496.988C626.946 497.26 626.689 497.444 626.416 497.399L320.706 446.354C320.434 446.308 320.25 446.051 320.295 445.778Z" fill="#9294DC" fill-opacity="0.28"/>
<path d="M594.44 208.902C594.568 208.657 594.87 208.562 595.115 208.689L649.543 237.02C649.788 237.148 649.884 237.449 649.756 237.694C649.629 237.939 649.327 238.034 649.083 237.907L594.653 209.577C594.408 209.45 594.313 209.147 594.44 208.902Z" fill="#9294DC" fill-opacity="0.292"/>
<path d="M424.366 180.426C424.411 180.154 424.67 179.97 424.942 180.016L594.962 208.638C595.234 208.684 595.418 208.942 595.372 209.215C595.326 209.487 595.069 209.67 594.796 209.625L424.776 181.003C424.504 180.957 424.32 180.698 424.366 180.426Z" fill="#9294DC" fill-opacity="0.308"/>
<path d="M603.836 424.653C604.099 424.57 604.381 424.717 604.463 424.98L626.974 496.758C627.056 497.021 626.91 497.302 626.646 497.385C626.383 497.467 626.102 497.32 626.02 497.057L603.509 425.28C603.426 425.017 603.573 424.736 603.836 424.653Z" fill="#9294DC" fill-opacity="0.32"/>
<path d="M549.181 396.373C549.31 396.129 549.612 396.035 549.856 396.163L604.22 424.687C604.464 424.815 604.558 425.117 604.43 425.361C604.302 425.606 604 425.7 603.755 425.572L549.391 397.048C549.147 396.919 549.053 396.617 549.181 396.373Z" fill="#9294DC" fill-opacity="0.328"/>
<path d="M379.156 368.065C379.202 367.793 379.459 367.609 379.732 367.654L549.709 396.113C549.981 396.159 550.164 396.417 550.119 396.689C550.073 396.961 549.815 397.144 549.543 397.099L379.567 368.641C379.295 368.595 379.111 368.338 379.156 368.065Z" fill="#9294DC" fill-opacity="0.34"/>
<path d="M707.656 159.432C707.91 159.322 708.205 159.437 708.315 159.691C708.425 159.944 708.309 160.238 708.057 160.348L595.081 209.589C594.828 209.7 594.534 209.584 594.424 209.331C594.313 209.078 594.429 208.783 594.682 208.672L707.656 159.432Z" fill="#9294DC" fill-opacity="0.348"/>
<path d="M707.367 159.775C707.432 159.506 707.702 159.341 707.971 159.406C708.239 159.47 708.405 159.741 708.34 160.009L626.983 497.026C626.919 497.294 626.648 497.459 626.379 497.394C626.111 497.329 625.946 497.06 626.011 496.791L707.367 159.775Z" fill="#9294DC" fill-opacity="0.356"/>
<path d="M594.393 209.018C594.458 208.75 594.729 208.584 594.997 208.649C595.266 208.714 595.431 208.985 595.366 209.253L550.11 396.727C550.045 396.996 549.774 397.161 549.506 397.096C549.238 397.032 549.073 396.762 549.137 396.494L594.393 209.018Z" fill="#9294DC" fill-opacity="0.384"/>
<path d="M549.32 396.209C549.539 396.041 549.853 396.082 550.021 396.301L626.896 496.602C627.064 496.821 627.022 497.136 626.803 497.304C626.584 497.471 626.269 497.43 626.101 497.21L549.227 396.91C549.06 396.691 549.101 396.377 549.32 396.209Z" fill="#9294DC" fill-opacity="0.396"/>
<path d="M479.516 210.126C480.24 209.932 480.669 209.188 480.475 208.464C480.281 207.74 479.537 207.31 478.813 207.504C478.089 207.698 477.659 208.442 477.853 209.166C478.047 209.891 478.791 210.32 479.516 210.126Z" fill="#9294DC" fill-opacity="0.25"/>
<path d="M479.992 208.593C479.869 208.136 479.399 207.865 478.942 207.987C478.484 208.11 478.213 208.58 478.335 209.037C478.458 209.494 478.928 209.766 479.385 209.644C479.843 209.521 480.114 209.051 479.992 208.593ZM480.958 208.335C481.223 209.325 480.635 210.344 479.644 210.609C478.654 210.875 477.635 210.287 477.369 209.296C477.104 208.305 477.692 207.287 478.683 207.021C479.674 206.756 480.692 207.344 480.958 208.335Z" fill="#9294DC" fill-opacity="0.25"/>
<path d="M402.48 109.668C403.222 109.469 403.662 108.707 403.464 107.964C403.265 107.222 402.502 106.782 401.76 106.981C401.018 107.18 400.577 107.942 400.776 108.685C400.975 109.427 401.738 109.867 402.48 109.668Z" fill="#9294DC" fill-opacity="0.28"/>
<path d="M402.982 108.094C402.854 107.619 402.366 107.337 401.891 107.464C401.415 107.591 401.133 108.08 401.26 108.556C401.388 109.031 401.877 109.312 402.352 109.185C402.827 109.058 403.109 108.57 402.982 108.094ZM403.948 107.836C404.218 108.844 403.619 109.881 402.611 110.151C401.602 110.421 400.565 109.823 400.294 108.814C400.024 107.806 400.623 106.768 401.632 106.498C402.641 106.228 403.677 106.827 403.948 107.836Z" fill="#9294DC" fill-opacity="0.28"/>
<path d="M434.21 398.068C434.988 397.859 435.45 397.059 435.241 396.281C435.033 395.503 434.233 395.041 433.454 395.249C432.676 395.458 432.214 396.258 432.423 397.036C432.631 397.815 433.431 398.277 434.21 398.068Z" fill="#9294DC" fill-opacity="0.34"/>
<path d="M434.757 396.41C434.62 395.899 434.094 395.595 433.583 395.732C433.071 395.869 432.768 396.395 432.905 396.907C433.042 397.418 433.568 397.722 434.079 397.585C434.591 397.448 434.894 396.922 434.757 396.41ZM435.723 396.152C436.003 397.197 435.383 398.271 434.338 398.551C433.293 398.831 432.219 398.211 431.939 397.166C431.659 396.121 432.279 395.046 433.324 394.766C434.369 394.486 435.443 395.107 435.723 396.152Z" fill="#9294DC" fill-opacity="0.34"/>
<path d="M321.197 447.387C322.039 447.161 322.538 446.296 322.313 445.454C322.087 444.613 321.222 444.113 320.38 444.339C319.539 444.564 319.039 445.429 319.265 446.271C319.49 447.113 320.356 447.612 321.197 447.387Z" fill="#9294DC" fill-opacity="0.43"/>
<path d="M321.83 445.584C321.676 445.009 321.085 444.668 320.51 444.822C319.935 444.976 319.594 445.567 319.748 446.142C319.902 446.717 320.493 447.057 321.068 446.903C321.643 446.749 321.984 446.159 321.83 445.584ZM322.796 445.325C323.092 446.434 322.435 447.572 321.327 447.869C320.219 448.166 319.079 447.509 318.782 446.401C318.485 445.292 319.143 444.153 320.251 443.856C321.36 443.559 322.499 444.217 322.796 445.325Z" fill="#9294DC" fill-opacity="0.43"/>
<path d="M649.755 239.118C650.669 238.873 651.212 237.933 650.967 237.019C650.722 236.105 649.782 235.563 648.868 235.807C647.954 236.052 647.411 236.992 647.656 237.906C647.901 238.82 648.841 239.363 649.755 239.118Z" fill="#9294DC" fill-opacity="0.55"/>
<path d="M650.485 237.149C650.311 236.502 649.646 236.117 648.999 236.29C648.351 236.464 647.967 237.13 648.14 237.777C648.314 238.424 648.98 238.808 649.627 238.634C650.274 238.461 650.658 237.796 650.485 237.149ZM651.45 236.89C651.767 238.071 651.066 239.284 649.886 239.6C648.705 239.917 647.491 239.217 647.175 238.036C646.858 236.855 647.559 235.641 648.74 235.324C649.921 235.008 651.134 235.709 651.45 236.89Z" fill="#9294DC" fill-opacity="0.55"/>
<path d="M425.322 182.241C426.278 181.985 426.846 181.002 426.589 180.046C426.333 179.089 425.35 178.522 424.394 178.778C423.437 179.034 422.87 180.017 423.126 180.974C423.382 181.93 424.365 182.498 425.322 182.241Z" fill="#9294DC" fill-opacity="0.62"/>
<path d="M426.105 180.176C425.92 179.486 425.212 179.077 424.522 179.261C423.833 179.446 423.423 180.155 423.608 180.845C423.793 181.534 424.502 181.943 425.192 181.758C425.881 181.573 426.29 180.865 426.105 180.176ZM427.071 179.917C427.399 181.14 426.673 182.396 425.45 182.724C424.227 183.052 422.97 182.326 422.642 181.104C422.315 179.88 423.041 178.623 424.264 178.295C425.487 177.968 426.743 178.694 427.071 179.917Z" fill="#9294DC" fill-opacity="0.62"/>
<path d="M604.457 426.883C605.425 426.623 606 425.628 605.74 424.659C605.481 423.691 604.486 423.116 603.517 423.376C602.549 423.635 601.974 424.631 602.234 425.599C602.493 426.568 603.488 427.142 604.457 426.883Z" fill="#9294DC" fill-opacity="0.63"/>
<path d="M605.259 424.789C605.071 424.087 604.349 423.671 603.648 423.859C602.946 424.047 602.53 424.768 602.718 425.47C602.906 426.172 603.627 426.588 604.329 426.4C605.03 426.212 605.447 425.491 605.259 424.789ZM606.225 424.53C606.556 425.765 605.822 427.035 604.587 427.366C603.352 427.697 602.083 426.964 601.752 425.729C601.421 424.494 602.154 423.224 603.389 422.893C604.624 422.562 605.894 423.295 606.225 424.53Z" fill="#9294DC" fill-opacity="0.63"/>
<path d="M380.135 369.978C381.145 369.707 381.745 368.669 381.474 367.658C381.204 366.647 380.165 366.047 379.154 366.318C378.144 366.589 377.544 367.628 377.815 368.639C378.085 369.649 379.124 370.249 380.135 369.978Z" fill="#9294DC" fill-opacity="0.7"/>
<path d="M380.991 367.787C380.791 367.043 380.027 366.602 379.283 366.801C378.539 367.001 378.097 367.765 378.297 368.509C378.496 369.253 379.261 369.695 380.005 369.495C380.748 369.296 381.19 368.531 380.991 367.787ZM381.957 367.529C382.299 368.806 381.541 370.119 380.263 370.461C378.986 370.803 377.673 370.045 377.331 368.768C376.988 367.491 377.747 366.178 379.024 365.835C380.301 365.493 381.614 366.251 381.957 367.529Z" fill="#9294DC" fill-opacity="0.7"/>
<path d="M708.379 161.852C709.462 161.562 710.105 160.448 709.815 159.365C709.525 158.282 708.411 157.639 707.328 157.93C706.245 158.22 705.602 159.333 705.893 160.416C706.183 161.499 707.296 162.142 708.379 161.852Z" fill="#9294DC" fill-opacity="0.82"/>
<path d="M709.333 159.495C709.114 158.678 708.275 158.194 707.459 158.413C706.642 158.631 706.158 159.47 706.377 160.287C706.595 161.103 707.435 161.588 708.251 161.369C709.067 161.15 709.552 160.311 709.333 159.495ZM710.299 159.236C710.66 160.586 709.859 161.973 708.51 162.335C707.16 162.696 705.772 161.895 705.411 160.546C705.049 159.196 705.85 157.808 707.2 157.447C708.55 157.085 709.937 157.886 710.299 159.236Z" fill="#9294DC" fill-opacity="0.82"/>
<path d="M595.436 211.206C596.583 210.898 597.263 209.72 596.956 208.574C596.649 207.427 595.47 206.747 594.324 207.054C593.177 207.361 592.497 208.54 592.804 209.686C593.111 210.833 594.29 211.513 595.436 211.206Z" fill="#9294DC" fill-opacity="0.91"/>
<path d="M596.474 208.704C596.238 207.824 595.334 207.302 594.455 207.537C593.575 207.773 593.053 208.677 593.288 209.557C593.524 210.437 594.429 210.958 595.308 210.723C596.188 210.487 596.709 209.583 596.474 208.704ZM597.44 208.445C597.818 209.858 596.98 211.31 595.567 211.688C594.154 212.067 592.701 211.229 592.322 209.816C591.944 208.403 592.783 206.95 594.196 206.571C595.609 206.193 597.061 207.032 597.44 208.445Z" fill="#9294DC" fill-opacity="0.91"/>
<path d="M627.071 499.042C628.251 498.726 628.951 497.514 628.635 496.334C628.319 495.154 627.106 494.454 625.927 494.77C624.747 495.087 624.047 496.299 624.363 497.479C624.679 498.658 625.892 499.358 627.071 499.042Z" fill="#9294DC" fill-opacity="0.97"/>
<path d="M628.153 496.463C627.909 495.55 626.97 495.009 626.057 495.254C625.144 495.498 624.603 496.436 624.847 497.349C625.092 498.262 626.03 498.804 626.943 498.56C627.856 498.315 628.398 497.376 628.153 496.463ZM629.119 496.204C629.507 497.651 628.648 499.138 627.202 499.526C625.756 499.913 624.269 499.054 623.881 497.608C623.494 496.162 624.352 494.675 625.798 494.288C627.244 493.9 628.732 494.758 629.119 496.204Z" fill="#9294DC" fill-opacity="0.97"/>
<path d="M550.204 398.773C551.402 398.452 552.112 397.221 551.791 396.023C551.47 394.825 550.239 394.115 549.042 394.436C547.844 394.756 547.133 395.988 547.454 397.185C547.775 398.383 549.006 399.094 550.204 398.773Z" fill="#9294DC"/>
<path d="M551.309 396.153C551.06 395.222 550.103 394.669 549.172 394.919C548.241 395.168 547.689 396.125 547.938 397.056C548.188 397.987 549.144 398.539 550.075 398.29C551.006 398.04 551.559 397.083 551.309 396.153ZM552.275 395.894C552.668 397.358 551.799 398.863 550.334 399.256C548.87 399.648 547.365 398.779 546.972 397.315C546.58 395.85 547.449 394.345 548.913 393.953C550.378 393.56 551.883 394.429 552.275 395.894Z" fill="#9294DC"/>
</g>

<!-- Helix with comet trails synced to 5s crossfade -->
<g transform="translate(5, 0)">
  <!-- Helix base line -->
  <path d="M748.507 555.999C687.589 548.588 317.806 518.698 251.157 513.295C184.508 507.893 184.096 492.387 251.157 485.756C318.218 479.125 623.112 452.752 715.007 445.761C806.901 438.771 771.599 424.403 715.007 416.233C658.415 408.063 589.683 395.547 522.116 386.538" fill="none" stroke="#9294DC" stroke-width="0.8" stroke-opacity="0.12" stroke-linecap="round"/>
  <!-- Comet trail 1 - bright head -->
  <path d="M748.507 555.999C687.589 548.588 317.806 518.698 251.157 513.295C184.508 507.893 184.096 492.387 251.157 485.756C318.218 479.125 623.112 452.752 715.007 445.761C806.901 438.771 771.599 424.403 715.007 416.233C658.415 408.063 589.683 395.547 522.116 386.538" fill="none" stroke="#FFFFFF" stroke-opacity="0.9" stroke-width="2.5" stroke-linecap="round" pathLength="1">
    <animate attributeName="stroke-dasharray" values="0.06 0.94" dur="3.5s" repeatCount="indefinite"/>
    <animate attributeName="stroke-dashoffset" values="1;0" dur="3.5s" repeatCount="indefinite"/>
  </path>
  <!-- Comet trail 2 -->
  <path d="M748.507 555.999C687.589 548.588 317.806 518.698 251.157 513.295C184.508 507.893 184.096 492.387 251.157 485.756C318.218 479.125 623.112 452.752 715.007 445.761C806.901 438.771 771.599 424.403 715.007 416.233C658.415 408.063 589.683 395.547 522.116 386.538" fill="none" stroke="#E0D4FA" stroke-opacity="0.7" stroke-width="2.2" stroke-linecap="round" pathLength="1">
    <animate attributeName="stroke-dasharray" values="0.06 0.94" dur="3.5s" repeatCount="indefinite"/>
    <animate attributeName="stroke-dashoffset" values="1;0" dur="3.5s" begin="0.03s" repeatCount="indefinite"/>
  </path>
  <!-- Comet trail 3 -->
  <path d="M748.507 555.999C687.589 548.588 317.806 518.698 251.157 513.295C184.508 507.893 184.096 492.387 251.157 485.756C318.218 479.125 623.112 452.752 715.007 445.761C806.901 438.771 771.599 424.403 715.007 416.233C658.415 408.063 589.683 395.547 522.116 386.538" fill="none" stroke="#6EA4C8" stroke-opacity="0.5" stroke-width="1.9" stroke-linecap="round" pathLength="1">
    <animate attributeName="stroke-dasharray" values="0.06 0.94" dur="3.5s" repeatCount="indefinite"/>
    <animate attributeName="stroke-dashoffset" values="1;0" dur="3.5s" begin="0.06s" repeatCount="indefinite"/>
  </path>
  <!-- Comet trail 4 -->
  <path d="M748.507 555.999C687.589 548.588 317.806 518.698 251.157 513.295C184.508 507.893 184.096 492.387 251.157 485.756C318.218 479.125 623.112 452.752 715.007 445.761C806.901 438.771 771.599 424.403 715.007 416.233C658.415 408.063 589.683 395.547 522.116 386.538" fill="none" stroke="#6EA4C8" stroke-opacity="0.35" stroke-width="1.6" stroke-linecap="round" pathLength="1">
    <animate attributeName="stroke-dasharray" values="0.06 0.94" dur="3.5s" repeatCount="indefinite"/>
    <animate attributeName="stroke-dashoffset" values="1;0" dur="3.5s" begin="0.09s" repeatCount="indefinite"/>
  </path>
  <!-- Comet trail 5 -->
  <path d="M748.507 555.999C687.589 548.588 317.806 518.698 251.157 513.295C184.508 507.893 184.096 492.387 251.157 485.756C318.218 479.125 623.112 452.752 715.007 445.761C806.901 438.771 771.599 424.403 715.007 416.233C658.415 408.063 589.683 395.547 522.116 386.538" fill="none" stroke="#6EA4C8" stroke-opacity="0.2" stroke-width="1.3" stroke-linecap="round" pathLength="1">
    <animate attributeName="stroke-dasharray" values="0.06 0.94" dur="3.5s" repeatCount="indefinite"/>
    <animate attributeName="stroke-dashoffset" values="1;0" dur="3.5s" begin="0.12s" repeatCount="indefinite"/>
  </path>
</g>
</svg>