<svg xmlns="http://www.w3.org/2000/svg" viewBox="-60 -186 950 912">
<rect x="-60" y="-186" width="950" height="912" fill="#08070C"/>

<defs>
  <!-- Base ellipse gradients (right side) -->
  <linearGradient id="eg0" x1="649.5" y1="270" x2="413.6" y2="270" gradientUnits="userSpaceOnUse">
    <stop stop-color="#8C8C8C"/><stop offset="0.69" stop-color="#1E3A54"/><stop offset="1" stop-opacity="0"/>
  </linearGradient>
  <linearGradient id="eg1" x1="594.5" y1="270" x2="413.6" y2="270" gradientUnits="userSpaceOnUse">
    <stop stop-color="#8C8C8C"/><stop offset="0.69" stop-color="#1E3A54"/><stop offset="1" stop-opacity="0"/>
  </linearGradient>
  <linearGradient id="eg2" x1="548.5" y1="270" x2="414.6" y2="270" gradientUnits="userSpaceOnUse">
    <stop stop-color="#8C8C8C"/><stop offset="0.69" stop-color="#1E3A54"/><stop offset="1" stop-opacity="0"/>
  </linearGradient>
  <linearGradient id="eg3" x1="488.5" y1="270" x2="414.5" y2="270" gradientUnits="userSpaceOnUse">
    <stop stop-color="#8C8C8C"/><stop offset="0.69" stop-color="#1E3A54"/><stop offset="1" stop-opacity="0"/>
  </linearGradient>
  <linearGradient id="eg4" x1="433.5" y1="270" x2="413.6" y2="270" gradientUnits="userSpaceOnUse">
    <stop stop-color="#8C8C8C"/><stop offset="0.69" stop-color="#1E3A54"/><stop offset="1" stop-opacity="0"/>
  </linearGradient>
  <!-- Left side -->
  <linearGradient id="eg5" x1="180" y1="270" x2="415.9" y2="270" gradientUnits="userSpaceOnUse">
    <stop stop-color="#8C8C8C"/><stop offset="0.69" stop-color="#1E3A54"/><stop offset="1" stop-opacity="0"/>
  </linearGradient>
  <linearGradient id="eg6" x1="235" y1="270" x2="415.9" y2="270" gradientUnits="userSpaceOnUse">
    <stop stop-color="#8C8C8C"/><stop offset="0.69" stop-color="#1E3A54"/><stop offset="1" stop-opacity="0"/>
  </linearGradient>
  <linearGradient id="eg7" x1="283.3" y1="270" x2="417.1" y2="270" gradientUnits="userSpaceOnUse">
    <stop stop-color="#8C8C8C"/><stop offset="0.69" stop-color="#1E3A54"/><stop offset="1" stop-opacity="0"/>
  </linearGradient>
  <linearGradient id="eg8" x1="343.2" y1="270" x2="417.2" y2="270" gradientUnits="userSpaceOnUse">
    <stop stop-color="#8C8C8C"/><stop offset="0.69" stop-color="#1E3A54"/><stop offset="1" stop-opacity="0"/>
  </linearGradient>
  <linearGradient id="eg9" x1="395.9" y1="270" x2="415.9" y2="270" gradientUnits="userSpaceOnUse">
    <stop stop-color="#8C8C8C"/><stop offset="0.69" stop-color="#1E3A54"/><stop offset="1" stop-opacity="0"/>
  </linearGradient>

  <!-- Horizontal center dip mask — ellipses fade where they overlap (center) -->
  <linearGradient id="centerDip" x1="0" y1="270" x2="830" y2="270" gradientUnits="userSpaceOnUse">
    <stop offset="0" stop-color="white"/>
    <stop offset="0.46" stop-color="white"/>
    <stop offset="0.49" stop-color="white" stop-opacity="0.2"/>
    <stop offset="0.50" stop-color="white" stop-opacity="0.15"/>
    <stop offset="0.51" stop-color="white" stop-opacity="0.2"/>
    <stop offset="0.54" stop-color="white"/>
    <stop offset="1" stop-color="white"/>
  </linearGradient>
  <mask id="centerMask">
    <rect x="-60" y="-186" width="950" height="912" fill="url(#centerDip)"/>
  </mask>
</defs>

<!-- LAYER 1: Base ellipses (always visible, low opacity, center dip) -->
<g id="base-ellipses" opacity="0.6" mask="url(#centerMask)">
  <path d="M621.555 0.5C736.001 0.5 828.984 120.97 828.984 269.866C828.984 418.762 736.001 539.232 621.555 539.232C507.108 539.232 414.126 418.762 414.126 269.866C414.126 120.971 507.108 0.500289 621.555 0.5Z" stroke="url(#eg0)" fill="none"/>
  <path d="M573.062 0.5C616.841 0.5 656.565 30.5382 685.371 79.2959C714.171 128.042 731.999 195.418 731.999 269.866C731.999 344.314 714.17 411.689 685.371 460.436C656.565 509.193 616.841 539.232 573.062 539.232C529.284 539.232 489.56 509.193 460.754 460.436C431.955 411.689 414.126 344.314 414.126 269.866C414.126 195.418 431.954 128.042 460.754 79.2959C489.56 30.5382 529.284 0.500077 573.062 0.5Z" stroke="url(#eg1)" fill="none"/>
  <path d="M532.614 0.5C548.739 0.5 564.141 7.97224 578.192 21.5664C592.246 35.1629 604.925 54.8619 615.584 79.2422C636.901 128.001 650.1 195.397 650.1 269.866C650.1 344.335 636.901 411.731 615.584 460.49C604.925 484.87 592.246 504.569 578.192 518.165C564.141 531.759 548.739 539.232 532.614 539.232C516.49 539.232 501.089 531.759 487.037 518.165C472.983 504.569 460.304 484.87 449.645 460.49C428.327 411.731 415.13 344.335 415.13 269.866C415.13 195.397 428.327 128.001 449.645 79.2422C460.304 54.8618 472.983 35.1629 487.037 21.5664C501.089 7.97239 516.49 0.500111 532.614 0.5Z" stroke="url(#eg2)" fill="none"/>
  <path d="M479.779 0.5C488.494 0.5 496.949 7.81964 504.744 21.4551C512.517 35.0524 519.534 54.7616 525.434 79.1592C537.23 127.947 544.531 195.372 544.531 269.866C544.531 344.36 537.23 411.785 525.434 460.572C519.534 484.97 512.517 504.679 504.744 518.276C496.949 531.912 488.494 539.232 479.779 539.232C471.064 539.232 462.61 531.912 454.815 518.276C447.042 504.679 440.025 484.97 434.126 460.572C422.33 411.785 415.028 344.36 415.028 269.866C415.028 195.372 422.33 127.947 434.126 79.1592C440.025 54.7616 447.042 35.0524 454.815 21.4551C462.61 7.8199 471.064 0.500197 479.779 0.5Z" stroke="url(#eg3)" fill="none"/>
  <path d="M431.19 0.5C431.522 0.50017 431.992 0.767594 432.565 1.66309C433.121 2.52985 433.687 3.8519 434.254 5.63379C435.385 9.19097 436.483 14.4626 437.532 21.2832C439.63 34.9175 441.522 54.661 443.111 79.0742C446.289 127.896 448.254 195.352 448.254 269.866C448.254 344.38 446.289 411.835 443.111 460.657C441.522 485.07 439.63 504.814 437.532 518.448C436.483 525.269 435.385 530.54 434.254 534.098C433.687 535.88 433.121 537.203 432.565 538.069C431.992 538.965 431.522 539.232 431.19 539.232C430.859 539.232 430.389 538.965 429.815 538.069C429.26 537.203 428.694 535.88 428.127 534.098C426.996 530.54 425.897 525.269 424.848 518.448C422.75 504.814 420.858 485.07 419.27 460.657C416.092 411.835 414.126 344.38 414.126 269.866C414.126 195.352 416.092 127.896 419.27 79.0742C420.858 54.6611 422.75 34.9175 424.848 21.2832C425.897 14.4626 426.996 9.19098 428.127 5.63379C428.694 3.85185 429.26 2.52982 429.815 1.66309C430.389 0.76737 430.859 0.5 431.19 0.5Z" stroke="url(#eg4)" fill="none"/>
  <path d="M207.93 0.5C93.4831 0.5 0.5 120.97 0.5 269.866C0.500089 418.762 93.4832 539.232 207.93 539.232C322.376 539.232 415.358 418.762 415.358 269.866C415.358 120.971 322.376 0.500289 207.93 0.5Z" stroke="url(#eg5)" fill="none"/>
  <path d="M256.422 0.5C212.643 0.5 172.919 30.5382 144.113 79.2959C115.314 128.042 97.4854 195.418 97.4854 269.866C97.4854 344.314 115.314 411.689 144.113 460.436C172.919 509.193 212.643 539.232 256.422 539.232C300.201 539.232 339.924 509.193 368.73 460.436C397.53 411.689 415.358 344.314 415.358 269.866C415.358 195.418 397.53 128.042 368.73 79.2959C339.924 30.5382 300.201 0.500077 256.422 0.5Z" stroke="url(#eg6)" fill="none"/>
  <path d="M299.102 0.5C282.977 0.5 267.575 7.97224 253.523 21.5664C239.469 35.1629 226.791 54.8619 216.132 79.2422C194.814 128.001 181.616 195.397 181.616 269.866C181.616 344.335 194.814 411.731 216.132 460.49C226.791 484.87 239.47 504.569 253.523 518.165C267.575 531.759 282.977 539.232 299.102 539.232C315.226 539.232 330.627 531.759 344.679 518.165C358.733 504.569 371.412 484.87 382.071 460.49C403.389 411.731 416.586 344.335 416.586 269.866C416.586 195.397 403.389 128.001 382.071 79.2422C371.412 54.8618 358.733 35.1629 344.679 21.5664C330.627 7.97239 315.226 0.500111 299.102 0.5Z" stroke="url(#eg7)" fill="none"/>
  <path d="M351.936 0.5C343.22 0.5 334.766 7.81964 326.971 21.4551C319.198 35.0524 312.18 54.7616 306.281 79.1592C294.485 127.947 287.184 195.372 287.184 269.866C287.184 344.36 294.485 411.785 306.281 460.572C312.18 484.97 319.198 504.679 326.971 518.276C334.766 531.912 343.22 539.232 351.936 539.232C360.651 539.232 369.105 531.912 376.899 518.276C384.672 504.679 391.69 484.97 397.589 460.572C409.385 411.785 416.687 344.36 416.687 269.866C416.687 195.372 409.385 127.947 397.589 79.1592C391.69 54.7616 384.672 35.0524 376.899 21.4551C369.105 7.8199 360.65 0.500197 351.936 0.5Z" stroke="url(#eg8)" fill="none"/>
  <path d="M398.294 0.5C397.962 0.50017 397.493 0.767594 396.919 1.66309C396.364 2.52985 395.797 3.8519 395.23 5.63379C394.099 9.19097 393.002 14.4626 391.952 21.2832C389.854 34.9175 387.962 54.661 386.373 79.0742C383.195 127.896 381.23 195.352 381.23 269.866C381.23 344.38 383.195 411.835 386.373 460.657C387.962 485.07 389.854 504.814 391.952 518.448C393.002 525.269 394.099 530.54 395.23 534.098C395.797 535.88 396.363 537.203 396.919 538.069C397.493 538.965 397.962 539.232 398.294 539.232C398.626 539.232 399.095 538.965 399.669 538.069C400.224 537.203 400.791 535.88 401.357 534.098C402.489 530.54 403.587 525.269 404.637 518.448C406.735 504.814 408.626 485.07 410.215 460.657C413.392 411.835 415.358 344.38 415.358 269.866C415.358 195.352 413.392 127.896 410.215 79.0742C408.626 54.6611 406.735 34.9175 404.637 21.2832C403.587 14.4626 402.489 9.19098 401.357 5.63379C400.791 3.85185 400.224 2.52982 399.669 1.66309C399.095 0.76737 398.626 0.5 398.294 0.5Z" stroke="url(#eg9)" fill="none"/>
</g>

<!-- LAYER 2: Comet trail light — smooth gradient fade along path -->
<g mask="url(#centerMask)">
  <path d="M621.555 0.5C736.001 0.5 828.984 120.97 828.984 269.866C828.984 418.762 736.001 539.232 621.555 539.232C507.108 539.232 414.126 418.762 414.126 269.866C414.126 120.971 507.108 0.500289 621.555 0.5Z" pathLength="1" stroke="#9294DC" stroke-opacity="1.000" stroke-dasharray="0.025 0.975" fill="none">
    <animate attributeName="stroke-dashoffset" values="0.0;-1.0" dur="3s" begin="0.3s" repeatCount="indefinite"/>
  </path>
  <path d="M573.062 0.5C616.841 0.5 656.565 30.5382 685.371 79.2959C714.171 128.042 731.999 195.418 731.999 269.866C731.999 344.314 714.17 411.689 685.371 460.436C656.565 509.193 616.841 539.232 573.062 539.232C529.284 539.232 489.56 509.193 460.754 460.436C431.955 411.689 414.126 344.314 414.126 269.866C414.126 195.418 431.954 128.042 460.754 79.2959C489.56 30.5382 529.284 0.500077 573.062 0.5Z" pathLength="1" stroke="#9294DC" stroke-opacity="1.000" stroke-dasharray="0.025 0.975" fill="none">
    <animate attributeName="stroke-dashoffset" values="0.0;-1.0" dur="3s" begin="0.2s" repeatCount="indefinite"/>
  </path>
  <path d="M532.614 0.5C548.739 0.5 564.141 7.97224 578.192 21.5664C592.246 35.1629 604.925 54.8619 615.584 79.2422C636.901 128.001 650.1 195.397 650.1 269.866C650.1 344.335 636.901 411.731 615.584 460.49C604.925 484.87 592.246 504.569 578.192 518.165C564.141 531.759 548.739 539.232 532.614 539.232C516.49 539.232 501.089 531.759 487.037 518.165C472.983 504.569 460.304 484.87 449.645 460.49C428.327 411.731 415.13 344.335 415.13 269.866C415.13 195.397 428.327 128.001 449.645 79.2422C460.304 54.8618 472.983 35.1629 487.037 21.5664C501.089 7.97239 516.49 0.500111 532.614 0.5Z" pathLength="1" stroke="#9294DC" stroke-opacity="1.000" stroke-dasharray="0.025 0.975" fill="none">
    <animate attributeName="stroke-dashoffset" values="0.0;-1.0" dur="3s" begin="0.12s" repeatCount="indefinite"/>
  </path>
  <path d="M479.779 0.5C488.494 0.5 496.949 7.81964 504.744 21.4551C512.517 35.0524 519.534 54.7616 525.434 79.1592C537.23 127.947 544.531 195.372 544.531 269.866C544.531 344.36 537.23 411.785 525.434 460.572C519.534 484.97 512.517 504.679 504.744 518.276C496.949 531.912 488.494 539.232 479.779 539.232C471.064 539.232 462.61 531.912 454.815 518.276C447.042 504.679 440.025 484.97 434.126 460.572C422.33 411.785 415.028 344.36 415.028 269.866C415.028 195.372 422.33 127.947 434.126 79.1592C440.025 54.7616 447.042 35.0524 454.815 21.4551C462.61 7.8199 471.064 0.500197 479.779 0.5Z" pathLength="1" stroke="#9294DC" stroke-opacity="1.000" stroke-dasharray="0.025 0.975" fill="none">
    <animate attributeName="stroke-dashoffset" values="0.0;-1.0" dur="3s" begin="0.06s" repeatCount="indefinite"/>
  </path>
  <path d="M431.19 0.5C431.522 0.50017 431.992 0.767594 432.565 1.66309C433.121 2.52985 433.687 3.8519 434.254 5.63379C435.385 9.19097 436.483 14.4626 437.532 21.2832C439.63 34.9175 441.522 54.661 443.111 79.0742C446.289 127.896 448.254 195.352 448.254 269.866C448.254 344.38 446.289 411.835 443.111 460.657C441.522 485.07 439.63 504.814 437.532 518.448C436.483 525.269 435.385 530.54 434.254 534.098C433.687 535.88 433.121 537.203 432.565 538.069C431.992 538.965 431.522 539.232 431.19 539.232C430.859 539.232 430.389 538.965 429.815 538.069C429.26 537.203 428.694 535.88 428.127 534.098C426.996 530.54 425.897 525.269 424.848 518.448C422.75 504.814 420.858 485.07 419.27 460.657C416.092 411.835 414.126 344.38 414.126 269.866C414.126 195.352 416.092 127.896 419.27 79.0742C420.858 54.6611 422.75 34.9175 424.848 21.2832C425.897 14.4626 426.996 9.19098 428.127 5.63379C428.694 3.85185 429.26 2.52982 429.815 1.66309C430.389 0.76737 430.859 0.5 431.19 0.5Z" pathLength="1" stroke="#9294DC" stroke-opacity="1.000" stroke-dasharray="0.025 0.975" fill="none">
    <animate attributeName="stroke-dashoffset" values="0.0;-1.0" dur="3s" begin="0.0s" repeatCount="indefinite"/>
  </path>
  <path d="M207.93 0.5C93.4831 0.5 0.5 120.97 0.5 269.866C0.500089 418.762 93.4832 539.232 207.93 539.232C322.376 539.232 415.358 418.762 415.358 269.866C415.358 120.971 322.376 0.500289 207.93 0.5Z" pathLength="1" stroke="#9294DC" stroke-opacity="1.000" stroke-dasharray="0.025 0.975" fill="none">
    <animate attributeName="stroke-dashoffset" values="0.0;-1.0" dur="3s" begin="0.3s" repeatCount="indefinite"/>
  </path>
  <path d="M256.422 0.5C212.643 0.5 172.919 30.5382 144.113 79.2959C115.314 128.042 97.4854 195.418 97.4854 269.866C97.4854 344.314 115.314 411.689 144.113 460.436C172.919 509.193 212.643 539.232 256.422 539.232C300.201 539.232 339.924 509.193 368.73 460.436C397.53 411.689 415.358 344.314 415.358 269.866C415.358 195.418 397.53 128.042 368.73 79.2959C339.924 30.5382 300.201 0.500077 256.422 0.5Z" pathLength="1" stroke="#9294DC" stroke-opacity="1.000" stroke-dasharray="0.025 0.975" fill="none">
    <animate attributeName="stroke-dashoffset" values="0.0;-1.0" dur="3s" begin="0.2s" repeatCount="indefinite"/>
  </path>
  <path d="M299.102 0.5C282.977 0.5 267.575 7.97224 253.523 21.5664C239.469 35.1629 226.791 54.8619 216.132 79.2422C194.814 128.001 181.616 195.397 181.616 269.866C181.616 344.335 194.814 411.731 216.132 460.49C226.791 484.87 239.47 504.569 253.523 518.165C267.575 531.759 282.977 539.232 299.102 539.232C315.226 539.232 330.627 531.759 344.679 518.165C358.733 504.569 371.412 484.87 382.071 460.49C403.389 411.731 416.586 344.335 416.586 269.866C416.586 195.397 403.389 128.001 382.071 79.2422C371.412 54.8618 358.733 35.1629 344.679 21.5664C330.627 7.97239 315.226 0.500111 299.102 0.5Z" pathLength="1" stroke="#9294DC" stroke-opacity="1.000" stroke-dasharray="0.025 0.975" fill="none">
    <animate attributeName="stroke-dashoffset" values="0.0;-1.0" dur="3s" begin="0.12s" repeatCount="indefinite"/>
  </path>
  <path d="M351.936 0.5C343.22 0.5 334.766 7.81964 326.971 21.4551C319.198 35.0524 312.18 54.7616 306.281 79.1592C294.485 127.947 287.184 195.372 287.184 269.866C287.184 344.36 294.485 411.785 306.281 460.572C312.18 484.97 319.198 504.679 326.971 518.276C334.766 531.912 343.22 539.232 351.936 539.232C360.651 539.232 369.105 531.912 376.899 518.276C384.672 504.679 391.69 484.97 397.589 460.572C409.385 411.785 416.687 344.36 416.687 269.866C416.687 195.372 409.385 127.947 397.589 79.1592C391.69 54.7616 384.672 35.0524 376.899 21.4551C369.105 7.8199 360.65 0.500197 351.936 0.5Z" pathLength="1" stroke="#9294DC" stroke-opacity="1.000" stroke-dasharray="0.025 0.975" fill="none">
    <animate attributeName="stroke-dashoffset" values="0.0;-1.0" dur="3s" begin="0.06s" repeatCount="indefinite"/>
  </path>
  <path d="M398.294 0.5C397.962 0.50017 397.493 0.767594 396.919 1.66309C396.364 2.52985 395.797 3.8519 395.23 5.63379C394.099 9.19097 393.002 14.4626 391.952 21.2832C389.854 34.9175 387.962 54.661 386.373 79.0742C383.195 127.896 381.23 195.352 381.23 269.866C381.23 344.38 383.195 411.835 386.373 460.657C387.962 485.07 389.854 504.814 391.952 518.448C393.002 525.269 394.099 530.54 395.23 534.098C395.797 535.88 396.363 537.203 396.919 538.069C397.493 538.965 397.962 539.232 398.294 539.232C398.626 539.232 399.095 538.965 399.669 538.069C400.224 537.203 400.791 535.88 401.357 534.098C402.489 530.54 403.587 525.269 404.637 518.448C406.735 504.814 408.626 485.07 410.215 460.657C413.392 411.835 415.358 344.38 415.358 269.866C415.358 195.352 413.392 127.896 410.215 79.0742C408.626 54.6611 406.735 34.9175 404.637 21.2832C403.587 14.4626 402.489 9.19098 401.357 5.63379C400.791 3.85185 400.224 2.52982 399.669 1.66309C399.095 0.76737 398.626 0.5 398.294 0.5Z" pathLength="1" stroke="#9294DC" stroke-opacity="1.000" stroke-dasharray="0.025 0.975" fill="none">
    <animate attributeName="stroke-dashoffset" values="0.0;-1.0" dur="3s" begin="0.0s" repeatCount="indefinite"/>
  </path>
</g>
<g mask="url(#centerMask)">
  <path d="M621.555 0.5C736.001 0.5 828.984 120.97 828.984 269.866C828.984 418.762 736.001 539.232 621.555 539.232C507.108 539.232 414.126 418.762 414.126 269.866C414.126 120.971 507.108 0.500289 621.555 0.5Z" pathLength="1" stroke="#9294DC" stroke-opacity="1.000" stroke-dasharray="0.025 0.975" fill="none">
    <animate attributeName="stroke-dashoffset" values="0.025;-0.975" dur="3s" begin="0.3s" repeatCount="indefinite"/>
  </path>
  <path d="M573.062 0.5C616.841 0.5 656.565 30.5382 685.371 79.2959C714.171 128.042 731.999 195.418 731.999 269.866C731.999 344.314 714.17 411.689 685.371 460.436C656.565 509.193 616.841 539.232 573.062 539.232C529.284 539.232 489.56 509.193 460.754 460.436C431.955 411.689 414.126 344.314 414.126 269.866C414.126 195.418 431.954 128.042 460.754 79.2959C489.56 30.5382 529.284 0.500077 573.062 0.5Z" pathLength="1" stroke="#9294DC" stroke-opacity="1.000" stroke-dasharray="0.025 0.975" fill="none">
    <animate attributeName="stroke-dashoffset" values="0.025;-0.975" dur="3s" begin="0.2s" repeatCount="indefinite"/>
  </path>
  <path d="M532.614 0.5C548.739 0.5 564.141 7.97224 578.192 21.5664C592.246 35.1629 604.925 54.8619 615.584 79.2422C636.901 128.001 650.1 195.397 650.1 269.866C650.1 344.335 636.901 411.731 615.584 460.49C604.925 484.87 592.246 504.569 578.192 518.165C564.141 531.759 548.739 539.232 532.614 539.232C516.49 539.232 501.089 531.759 487.037 518.165C472.983 504.569 460.304 484.87 449.645 460.49C428.327 411.731 415.13 344.335 415.13 269.866C415.13 195.397 428.327 128.001 449.645 79.2422C460.304 54.8618 472.983 35.1629 487.037 21.5664C501.089 7.97239 516.49 0.500111 532.614 0.5Z" pathLength="1" stroke="#9294DC" stroke-opacity="1.000" stroke-dasharray="0.025 0.975" fill="none">
    <animate attributeName="stroke-dashoffset" values="0.025;-0.975" dur="3s" begin="0.12s" repeatCount="indefinite"/>
  </path>
  <path d="M479.779 0.5C488.494 0.5 496.949 7.81964 504.744 21.4551C512.517 35.0524 519.534 54.7616 525.434 79.1592C537.23 127.947 544.531 195.372 544.531 269.866C544.531 344.36 537.23 411.785 525.434 460.572C519.534 484.97 512.517 504.679 504.744 518.276C496.949 531.912 488.494 539.232 479.779 539.232C471.064 539.232 462.61 531.912 454.815 518.276C447.042 504.679 440.025 484.97 434.126 460.572C422.33 411.785 415.028 344.36 415.028 269.866C415.028 195.372 422.33 127.947 434.126 79.1592C440.025 54.7616 447.042 35.0524 454.815 21.4551C462.61 7.8199 471.064 0.500197 479.779 0.5Z" pathLength="1" stroke="#9294DC" stroke-opacity="1.000" stroke-dasharray="0.025 0.975" fill="none">
    <animate attributeName="stroke-dashoffset" values="0.025;-0.975" dur="3s" begin="0.06s" repeatCount="indefinite"/>
  </path>
  <path d="M431.19 0.5C431.522 0.50017 431.992 0.767594 432.565 1.66309C433.121 2.52985 433.687 3.8519 434.254 5.63379C435.385 9.19097 436.483 14.4626 437.532 21.2832C439.63 34.9175 441.522 54.661 443.111 79.0742C446.289 127.896 448.254 195.352 448.254 269.866C448.254 344.38 446.289 411.835 443.111 460.657C441.522 485.07 439.63 504.814 437.532 518.448C436.483 525.269 435.385 530.54 434.254 534.098C433.687 535.88 433.121 537.203 432.565 538.069C431.992 538.965 431.522 539.232 431.19 539.232C430.859 539.232 430.389 538.965 429.815 538.069C429.26 537.203 428.694 535.88 428.127 534.098C426.996 530.54 425.897 525.269 424.848 518.448C422.75 504.814 420.858 485.07 419.27 460.657C416.092 411.835 414.126 344.38 414.126 269.866C414.126 195.352 416.092 127.896 419.27 79.0742C420.858 54.6611 422.75 34.9175 424.848 21.2832C425.897 14.4626 426.996 9.19098 428.127 5.63379C428.694 3.85185 429.26 2.52982 429.815 1.66309C430.389 0.76737 430.859 0.5 431.19 0.5Z" pathLength="1" stroke="#9294DC" stroke-opacity="1.000" stroke-dasharray="0.025 0.975" fill="none">
    <animate attributeName="stroke-dashoffset" values="0.025;-0.975" dur="3s" begin="0.0s" repeatCount="indefinite"/>
  </path>
  <path d="M207.93 0.5C93.4831 0.5 0.5 120.97 0.5 269.866C0.500089 418.762 93.4832 539.232 207.93 539.232C322.376 539.232 415.358 418.762 415.358 269.866C415.358 120.971 322.376 0.500289 207.93 0.5Z" pathLength="1" stroke="#9294DC" stroke-opacity="1.000" stroke-dasharray="0.025 0.975" fill="none">
    <animate attributeName="stroke-dashoffset" values="0.025;-0.975" dur="3s" begin="0.3s" repeatCount="indefinite"/>
  </path>
  <path d="M256.422 0.5C212.643 0.5 172.919 30.5382 144.113 79.2959C115.314 128.042 97.4854 195.418 97.4854 269.866C97.4854 344.314 115.314 411.689 144.113 460.436C172.919 509.193 212.643 539.232 256.422 539.232C300.201 539.232 339.924 509.193 368.73 460.436C397.53 411.689 415.358 344.314 415.358 269.866C415.358 195.418 397.53 128.042 368.73 79.2959C339.924 30.5382 300.201 0.500077 256.422 0.5Z" pathLength="1" stroke="#9294DC" stroke-opacity="1.000" stroke-dasharray="0.025 0.975" fill="none">
    <animate attributeName="stroke-dashoffset" values="0.025;-0.975" dur="3s" begin="0.2s" repeatCount="indefinite"/>
  </path>
  <path d="M299.102 0.5C282.977 0.5 267.575 7.97224 253.523 21.5664C239.469 35.1629 226.791 54.8619 216.132 79.2422C194.814 128.001 181.616 195.397 181.616 269.866C181.616 344.335 194.814 411.731 216.132 460.49C226.791 484.87 239.47 504.569 253.523 518.165C267.575 531.759 282.977 539.232 299.102 539.232C315.226 539.232 330.627 531.759 344.679 518.165C358.733 504.569 371.412 484.87 382.071 460.49C403.389 411.731 416.586 344.335 416.586 269.866C416.586 195.397 403.389 128.001 382.071 79.2422C371.412 54.8618 358.733 35.1629 344.679 21.5664C330.627 7.97239 315.226 0.500111 299.102 0.5Z" pathLength="1" stroke="#9294DC" stroke-opacity="1.000" stroke-dasharray="0.025 0.975" fill="none">
    <animate attributeName="stroke-dashoffset" values="0.025;-0.975" dur="3s" begin="0.12s" repeatCount="indefinite"/>
  </path>
  <path d="M351.936 0.5C343.22 0.5 334.766 7.81964 326.971 21.4551C319.198 35.0524 312.18 54.7616 306.281 79.1592C294.485 127.947 287.184 195.372 287.184 269.866C287.184 344.36 294.485 411.785 306.281 460.572C312.18 484.97 319.198 504.679 326.971 518.276C334.766 531.912 343.22 539.232 351.936 539.232C360.651 539.232 369.105 531.912 376.899 518.276C384.672 504.679 391.69 484.97 397.589 460.572C409.385 411.785 416.687 344.36 416.687 269.866C416.687 195.372 409.385 127.947 397.589 79.1592C391.69 54.7616 384.672 35.0524 376.899 21.4551C369.105 7.8199 360.65 0.500197 351.936 0.5Z" pathLength="1" stroke="#9294DC" stroke-opacity="1.000" stroke-dasharray="0.025 0.975" fill="none">
    <animate attributeName="stroke-dashoffset" values="0.025;-0.975" dur="3s" begin="0.06s" repeatCount="indefinite"/>
  </path>
  <path d="M398.294 0.5C397.962 0.50017 397.493 0.767594 396.919 1.66309C396.364 2.52985 395.797 3.8519 395.23 5.63379C394.099 9.19097 393.002 14.4626 391.952 21.2832C389.854 34.9175 387.962 54.661 386.373 79.0742C383.195 127.896 381.23 195.352 381.23 269.866C381.23 344.38 383.195 411.835 386.373 460.657C387.962 485.07 389.854 504.814 391.952 518.448C393.002 525.269 394.099 530.54 395.23 534.098C395.797 535.88 396.363 537.203 396.919 538.069C397.493 538.965 397.962 539.232 398.294 539.232C398.626 539.232 399.095 538.965 399.669 538.069C400.224 537.203 400.791 535.88 401.357 534.098C402.489 530.54 403.587 525.269 404.637 518.448C406.735 504.814 408.626 485.07 410.215 460.657C413.392 411.835 415.358 344.38 415.358 269.866C415.358 195.352 413.392 127.896 410.215 79.0742C408.626 54.6611 406.735 34.9175 404.637 21.2832C403.587 14.4626 402.489 9.19098 401.357 5.63379C400.791 3.85185 400.224 2.52982 399.669 1.66309C399.095 0.76737 398.626 0.5 398.294 0.5Z" pathLength="1" stroke="#9294DC" stroke-opacity="1.000" stroke-dasharray="0.025 0.975" fill="none">
    <animate attributeName="stroke-dashoffset" values="0.025;-0.975" dur="3s" begin="0.0s" repeatCount="indefinite"/>
  </path>
</g>
<g mask="url(#centerMask)">
  <path d="M621.555 0.5C736.001 0.5 828.984 120.97 828.984 269.866C828.984 418.762 736.001 539.232 621.555 539.232C507.108 539.232 414.126 418.762 414.126 269.866C414.126 120.971 507.108 0.500289 621.555 0.5Z" pathLength="1" stroke="#9294DC" stroke-opacity="0.900" stroke-dasharray="0.025 0.975" fill="none">
    <animate attributeName="stroke-dashoffset" values="0.05;-0.95" dur="3s" begin="0.3s" repeatCount="indefinite"/>
  </path>
  <path d="M573.062 0.5C616.841 0.5 656.565 30.5382 685.371 79.2959C714.171 128.042 731.999 195.418 731.999 269.866C731.999 344.314 714.17 411.689 685.371 460.436C656.565 509.193 616.841 539.232 573.062 539.232C529.284 539.232 489.56 509.193 460.754 460.436C431.955 411.689 414.126 344.314 414.126 269.866C414.126 195.418 431.954 128.042 460.754 79.2959C489.56 30.5382 529.284 0.500077 573.062 0.5Z" pathLength="1" stroke="#9294DC" stroke-opacity="0.900" stroke-dasharray="0.025 0.975" fill="none">
    <animate attributeName="stroke-dashoffset" values="0.05;-0.95" dur="3s" begin="0.2s" repeatCount="indefinite"/>
  </path>
  <path d="M532.614 0.5C548.739 0.5 564.141 7.97224 578.192 21.5664C592.246 35.1629 604.925 54.8619 615.584 79.2422C636.901 128.001 650.1 195.397 650.1 269.866C650.1 344.335 636.901 411.731 615.584 460.49C604.925 484.87 592.246 504.569 578.192 518.165C564.141 531.759 548.739 539.232 532.614 539.232C516.49 539.232 501.089 531.759 487.037 518.165C472.983 504.569 460.304 484.87 449.645 460.49C428.327 411.731 415.13 344.335 415.13 269.866C415.13 195.397 428.327 128.001 449.645 79.2422C460.304 54.8618 472.983 35.1629 487.037 21.5664C501.089 7.97239 516.49 0.500111 532.614 0.5Z" pathLength="1" stroke="#9294DC" stroke-opacity="0.900" stroke-dasharray="0.025 0.975" fill="none">
    <animate attributeName="stroke-dashoffset" values="0.05;-0.95" dur="3s" begin="0.12s" repeatCount="indefinite"/>
  </path>
  <path d="M479.779 0.5C488.494 0.5 496.949 7.81964 504.744 21.4551C512.517 35.0524 519.534 54.7616 525.434 79.1592C537.23 127.947 544.531 195.372 544.531 269.866C544.531 344.36 537.23 411.785 525.434 460.572C519.534 484.97 512.517 504.679 504.744 518.276C496.949 531.912 488.494 539.232 479.779 539.232C471.064 539.232 462.61 531.912 454.815 518.276C447.042 504.679 440.025 484.97 434.126 460.572C422.33 411.785 415.028 344.36 415.028 269.866C415.028 195.372 422.33 127.947 434.126 79.1592C440.025 54.7616 447.042 35.0524 454.815 21.4551C462.61 7.8199 471.064 0.500197 479.779 0.5Z" pathLength="1" stroke="#9294DC" stroke-opacity="0.900" stroke-dasharray="0.025 0.975" fill="none">
    <animate attributeName="stroke-dashoffset" values="0.05;-0.95" dur="3s" begin="0.06s" repeatCount="indefinite"/>
  </path>
  <path d="M431.19 0.5C431.522 0.50017 431.992 0.767594 432.565 1.66309C433.121 2.52985 433.687 3.8519 434.254 5.63379C435.385 9.19097 436.483 14.4626 437.532 21.2832C439.63 34.9175 441.522 54.661 443.111 79.0742C446.289 127.896 448.254 195.352 448.254 269.866C448.254 344.38 446.289 411.835 443.111 460.657C441.522 485.07 439.63 504.814 437.532 518.448C436.483 525.269 435.385 530.54 434.254 534.098C433.687 535.88 433.121 537.203 432.565 538.069C431.992 538.965 431.522 539.232 431.19 539.232C430.859 539.232 430.389 538.965 429.815 538.069C429.26 537.203 428.694 535.88 428.127 534.098C426.996 530.54 425.897 525.269 424.848 518.448C422.75 504.814 420.858 485.07 419.27 460.657C416.092 411.835 414.126 344.38 414.126 269.866C414.126 195.352 416.092 127.896 419.27 79.0742C420.858 54.6611 422.75 34.9175 424.848 21.2832C425.897 14.4626 426.996 9.19098 428.127 5.63379C428.694 3.85185 429.26 2.52982 429.815 1.66309C430.389 0.76737 430.859 0.5 431.19 0.5Z" pathLength="1" stroke="#9294DC" stroke-opacity="0.900" stroke-dasharray="0.025 0.975" fill="none">
    <animate attributeName="stroke-dashoffset" values="0.05;-0.95" dur="3s" begin="0.0s" repeatCount="indefinite"/>
  </path>
  <path d="M207.93 0.5C93.4831 0.5 0.5 120.97 0.5 269.866C0.500089 418.762 93.4832 539.232 207.93 539.232C322.376 539.232 415.358 418.762 415.358 269.866C415.358 120.971 322.376 0.500289 207.93 0.5Z" pathLength="1" stroke="#9294DC" stroke-opacity="0.900" stroke-dasharray="0.025 0.975" fill="none">
    <animate attributeName="stroke-dashoffset" values="0.05;-0.95" dur="3s" begin="0.3s" repeatCount="indefinite"/>
  </path>
  <path d="M256.422 0.5C212.643 0.5 172.919 30.5382 144.113 79.2959C115.314 128.042 97.4854 195.418 97.4854 269.866C97.4854 344.314 115.314 411.689 144.113 460.436C172.919 509.193 212.643 539.232 256.422 539.232C300.201 539.232 339.924 509.193 368.73 460.436C397.53 411.689 415.358 344.314 415.358 269.866C415.358 195.418 397.53 128.042 368.73 79.2959C339.924 30.5382 300.201 0.500077 256.422 0.5Z" pathLength="1" stroke="#9294DC" stroke-opacity="0.900" stroke-dasharray="0.025 0.975" fill="none">
    <animate attributeName="stroke-dashoffset" values="0.05;-0.95" dur="3s" begin="0.2s" repeatCount="indefinite"/>
  </path>
  <path d="M299.102 0.5C282.977 0.5 267.575 7.97224 253.523 21.5664C239.469 35.1629 226.791 54.8619 216.132 79.2422C194.814 128.001 181.616 195.397 181.616 269.866C181.616 344.335 194.814 411.731 216.132 460.49C226.791 484.87 239.47 504.569 253.523 518.165C267.575 531.759 282.977 539.232 299.102 539.232C315.226 539.232 330.627 531.759 344.679 518.165C358.733 504.569 371.412 484.87 382.071 460.49C403.389 411.731 416.586 344.335 416.586 269.866C416.586 195.397 403.389 128.001 382.071 79.2422C371.412 54.8618 358.733 35.1629 344.679 21.5664C330.627 7.97239 315.226 0.500111 299.102 0.5Z" pathLength="1" stroke="#9294DC" stroke-opacity="0.900" stroke-dasharray="0.025 0.975" fill="none">
    <animate attributeName="stroke-dashoffset" values="0.05;-0.95" dur="3s" begin="0.12s" repeatCount="indefinite"/>
  </path>
  <path d="M351.936 0.5C343.22 0.5 334.766 7.81964 326.971 21.4551C319.198 35.0524 312.18 54.7616 306.281 79.1592C294.485 127.947 287.184 195.372 287.184 269.866C287.184 344.36 294.485 411.785 306.281 460.572C312.18 484.97 319.198 504.679 326.971 518.276C334.766 531.912 343.22 539.232 351.936 539.232C360.651 539.232 369.105 531.912 376.899 518.276C384.672 504.679 391.69 484.97 397.589 460.572C409.385 411.785 416.687 344.36 416.687 269.866C416.687 195.372 409.385 127.947 397.589 79.1592C391.69 54.7616 384.672 35.0524 376.899 21.4551C369.105 7.8199 360.65 0.500197 351.936 0.5Z" pathLength="1" stroke="#9294DC" stroke-opacity="0.900" stroke-dasharray="0.025 0.975" fill="none">
    <animate attributeName="stroke-dashoffset" values="0.05;-0.95" dur="3s" begin="0.06s" repeatCount="indefinite"/>
  </path>
  <path d="M398.294 0.5C397.962 0.50017 397.493 0.767594 396.919 1.66309C396.364 2.52985 395.797 3.8519 395.23 5.63379C394.099 9.19097 393.002 14.4626 391.952 21.2832C389.854 34.9175 387.962 54.661 386.373 79.0742C383.195 127.896 381.23 195.352 381.23 269.866C381.23 344.38 383.195 411.835 386.373 460.657C387.962 485.07 389.854 504.814 391.952 518.448C393.002 525.269 394.099 530.54 395.23 534.098C395.797 535.88 396.363 537.203 396.919 538.069C397.493 538.965 397.962 539.232 398.294 539.232C398.626 539.232 399.095 538.965 399.669 538.069C400.224 537.203 400.791 535.88 401.357 534.098C402.489 530.54 403.587 525.269 404.637 518.448C406.735 504.814 408.626 485.07 410.215 460.657C413.392 411.835 415.358 344.38 415.358 269.866C415.358 195.352 413.392 127.896 410.215 79.0742C408.626 54.6611 406.735 34.9175 404.637 21.2832C403.587 14.4626 402.489 9.19098 401.357 5.63379C400.791 3.85185 400.224 2.52982 399.669 1.66309C399.095 0.76737 398.626 0.5 398.294 0.5Z" pathLength="1" stroke="#9294DC" stroke-opacity="0.900" stroke-dasharray="0.025 0.975" fill="none">
    <animate attributeName="stroke-dashoffset" values="0.05;-0.95" dur="3s" begin="0.0s" repeatCount="indefinite"/>
  </path>
</g>
<g mask="url(#centerMask)">
  <path d="M621.555 0.5C736.001 0.5 828.984 120.97 828.984 269.866C828.984 418.762 736.001 539.232 621.555 539.232C507.108 539.232 414.126 418.762 414.126 269.866C414.126 120.971 507.108 0.500289 621.555 0.5Z" pathLength="1" stroke="#9294DC" stroke-opacity="0.720" stroke-dasharray="0.025 0.975" fill="none">
    <animate attributeName="stroke-dashoffset" values="0.075;-0.925" dur="3s" begin="0.3s" repeatCount="indefinite"/>
  </path>
  <path d="M573.062 0.5C616.841 0.5 656.565 30.5382 685.371 79.2959C714.171 128.042 731.999 195.418 731.999 269.866C731.999 344.314 714.17 411.689 685.371 460.436C656.565 509.193 616.841 539.232 573.062 539.232C529.284 539.232 489.56 509.193 460.754 460.436C431.955 411.689 414.126 344.314 414.126 269.866C414.126 195.418 431.954 128.042 460.754 79.2959C489.56 30.5382 529.284 0.500077 573.062 0.5Z" pathLength="1" stroke="#9294DC" stroke-opacity="0.720" stroke-dasharray="0.025 0.975" fill="none">
    <animate attributeName="stroke-dashoffset" values="0.075;-0.925" dur="3s" begin="0.2s" repeatCount="indefinite"/>
  </path>
  <path d="M532.614 0.5C548.739 0.5 564.141 7.97224 578.192 21.5664C592.246 35.1629 604.925 54.8619 615.584 79.2422C636.901 128.001 650.1 195.397 650.1 269.866C650.1 344.335 636.901 411.731 615.584 460.49C604.925 484.87 592.246 504.569 578.192 518.165C564.141 531.759 548.739 539.232 532.614 539.232C516.49 539.232 501.089 531.759 487.037 518.165C472.983 504.569 460.304 484.87 449.645 460.49C428.327 411.731 415.13 344.335 415.13 269.866C415.13 195.397 428.327 128.001 449.645 79.2422C460.304 54.8618 472.983 35.1629 487.037 21.5664C501.089 7.97239 516.49 0.500111 532.614 0.5Z" pathLength="1" stroke="#9294DC" stroke-opacity="0.720" stroke-dasharray="0.025 0.975" fill="none">
    <animate attributeName="stroke-dashoffset" values="0.075;-0.925" dur="3s" begin="0.12s" repeatCount="indefinite"/>
  </path>
  <path d="M479.779 0.5C488.494 0.5 496.949 7.81964 504.744 21.4551C512.517 35.0524 519.534 54.7616 525.434 79.1592C537.23 127.947 544.531 195.372 544.531 269.866C544.531 344.36 537.23 411.785 525.434 460.572C519.534 484.97 512.517 504.679 504.744 518.276C496.949 531.912 488.494 539.232 479.779 539.232C471.064 539.232 462.61 531.912 454.815 518.276C447.042 504.679 440.025 484.97 434.126 460.572C422.33 411.785 415.028 344.36 415.028 269.866C415.028 195.372 422.33 127.947 434.126 79.1592C440.025 54.7616 447.042 35.0524 454.815 21.4551C462.61 7.8199 471.064 0.500197 479.779 0.5Z" pathLength="1" stroke="#9294DC" stroke-opacity="0.720" stroke-dasharray="0.025 0.975" fill="none">
    <animate attributeName="stroke-dashoffset" values="0.075;-0.925" dur="3s" begin="0.06s" repeatCount="indefinite"/>
  </path>
  <path d="M431.19 0.5C431.522 0.50017 431.992 0.767594 432.565 1.66309C433.121 2.52985 433.687 3.8519 434.254 5.63379C435.385 9.19097 436.483 14.4626 437.532 21.2832C439.63 34.9175 441.522 54.661 443.111 79.0742C446.289 127.896 448.254 195.352 448.254 269.866C448.254 344.38 446.289 411.835 443.111 460.657C441.522 485.07 439.63 504.814 437.532 518.448C436.483 525.269 435.385 530.54 434.254 534.098C433.687 535.88 433.121 537.203 432.565 538.069C431.992 538.965 431.522 539.232 431.19 539.232C430.859 539.232 430.389 538.965 429.815 538.069C429.26 537.203 428.694 535.88 428.127 534.098C426.996 530.54 425.897 525.269 424.848 518.448C422.75 504.814 420.858 485.07 419.27 460.657C416.092 411.835 414.126 344.38 414.126 269.866C414.126 195.352 416.092 127.896 419.27 79.0742C420.858 54.6611 422.75 34.9175 424.848 21.2832C425.897 14.4626 426.996 9.19098 428.127 5.63379C428.694 3.85185 429.26 2.52982 429.815 1.66309C430.389 0.76737 430.859 0.5 431.19 0.5Z" pathLength="1" stroke="#9294DC" stroke-opacity="0.720" stroke-dasharray="0.025 0.975" fill="none">
    <animate attributeName="stroke-dashoffset" values="0.075;-0.925" dur="3s" begin="0.0s" repeatCount="indefinite"/>
  </path>
  <path d="M207.93 0.5C93.4831 0.5 0.5 120.97 0.5 269.866C0.500089 418.762 93.4832 539.232 207.93 539.232C322.376 539.232 415.358 418.762 415.358 269.866C415.358 120.971 322.376 0.500289 207.93 0.5Z" pathLength="1" stroke="#9294DC" stroke-opacity="0.720" stroke-dasharray="0.025 0.975" fill="none">
    <animate attributeName="stroke-dashoffset" values="0.075;-0.925" dur="3s" begin="0.3s" repeatCount="indefinite"/>
  </path>
  <path d="M256.422 0.5C212.643 0.5 172.919 30.5382 144.113 79.2959C115.314 128.042 97.4854 195.418 97.4854 269.866C97.4854 344.314 115.314 411.689 144.113 460.436C172.919 509.193 212.643 539.232 256.422 539.232C300.201 539.232 339.924 509.193 368.73 460.436C397.53 411.689 415.358 344.314 415.358 269.866C415.358 195.418 397.53 128.042 368.73 79.2959C339.924 30.5382 300.201 0.500077 256.422 0.5Z" pathLength="1" stroke="#9294DC" stroke-opacity="0.720" stroke-dasharray="0.025 0.975" fill="none">
    <animate attributeName="stroke-dashoffset" values="0.075;-0.925" dur="3s" begin="0.2s" repeatCount="indefinite"/>
  </path>
  <path d="M299.102 0.5C282.977 0.5 267.575 7.97224 253.523 21.5664C239.469 35.1629 226.791 54.8619 216.132 79.2422C194.814 128.001 181.616 195.397 181.616 269.866C181.616 344.335 194.814 411.731 216.132 460.49C226.791 484.87 239.47 504.569 253.523 518.165C267.575 531.759 282.977 539.232 299.102 539.232C315.226 539.232 330.627 531.759 344.679 518.165C358.733 504.569 371.412 484.87 382.071 460.49C403.389 411.731 416.586 344.335 416.586 269.866C416.586 195.397 403.389 128.001 382.071 79.2422C371.412 54.8618 358.733 35.1629 344.679 21.5664C330.627 7.97239 315.226 0.500111 299.102 0.5Z" pathLength="1" stroke="#9294DC" stroke-opacity="0.720" stroke-dasharray="0.025 0.975" fill="none">
    <animate attributeName="stroke-dashoffset" values="0.075;-0.925" dur="3s" begin="0.12s" repeatCount="indefinite"/>
  </path>
  <path d="M351.936 0.5C343.22 0.5 334.766 7.81964 326.971 21.4551C319.198 35.0524 312.18 54.7616 306.281 79.1592C294.485 127.947 287.184 195.372 287.184 269.866C287.184 344.36 294.485 411.785 306.281 460.572C312.18 484.97 319.198 504.679 326.971 518.276C334.766 531.912 343.22 539.232 351.936 539.232C360.651 539.232 369.105 531.912 376.899 518.276C384.672 504.679 391.69 484.97 397.589 460.572C409.385 411.785 416.687 344.36 416.687 269.866C416.687 195.372 409.385 127.947 397.589 79.1592C391.69 54.7616 384.672 35.0524 376.899 21.4551C369.105 7.8199 360.65 0.500197 351.936 0.5Z" pathLength="1" stroke="#9294DC" stroke-opacity="0.720" stroke-dasharray="0.025 0.975" fill="none">
    <animate attributeName="stroke-dashoffset" values="0.075;-0.925" dur="3s" begin="0.06s" repeatCount="indefinite"/>
  </path>
  <path d="M398.294 0.5C397.962 0.50017 397.493 0.767594 396.919 1.66309C396.364 2.52985 395.797 3.8519 395.23 5.63379C394.099 9.19097 393.002 14.4626 391.952 21.2832C389.854 34.9175 387.962 54.661 386.373 79.0742C383.195 127.896 381.23 195.352 381.23 269.866C381.23 344.38 383.195 411.835 386.373 460.657C387.962 485.07 389.854 504.814 391.952 518.448C393.002 525.269 394.099 530.54 395.23 534.098C395.797 535.88 396.363 537.203 396.919 538.069C397.493 538.965 397.962 539.232 398.294 539.232C398.626 539.232 399.095 538.965 399.669 538.069C400.224 537.203 400.791 535.88 401.357 534.098C402.489 530.54 403.587 525.269 404.637 518.448C406.735 504.814 408.626 485.07 410.215 460.657C413.392 411.835 415.358 344.38 415.358 269.866C415.358 195.352 413.392 127.896 410.215 79.0742C408.626 54.6611 406.735 34.9175 404.637 21.2832C403.587 14.4626 402.489 9.19098 401.357 5.63379C400.791 3.85185 400.224 2.52982 399.669 1.66309C399.095 0.76737 398.626 0.5 398.294 0.5Z" pathLength="1" stroke="#9294DC" stroke-opacity="0.720" stroke-dasharray="0.025 0.975" fill="none">
    <animate attributeName="stroke-dashoffset" values="0.075;-0.925" dur="3s" begin="0.0s" repeatCount="indefinite"/>
  </path>
</g>
<g mask="url(#centerMask)">
  <path d="M621.555 0.5C736.001 0.5 828.984 120.97 828.984 269.866C828.984 418.762 736.001 539.232 621.555 539.232C507.108 539.232 414.126 418.762 414.126 269.866C414.126 120.971 507.108 0.500289 621.555 0.5Z" pathLength="1" stroke="#9294DC" stroke-opacity="0.540" stroke-dasharray="0.025 0.975" fill="none">
    <animate attributeName="stroke-dashoffset" values="0.1;-0.9" dur="3s" begin="0.3s" repeatCount="indefinite"/>
  </path>
  <path d="M573.062 0.5C616.841 0.5 656.565 30.5382 685.371 79.2959C714.171 128.042 731.999 195.418 731.999 269.866C731.999 344.314 714.17 411.689 685.371 460.436C656.565 509.193 616.841 539.232 573.062 539.232C529.284 539.232 489.56 509.193 460.754 460.436C431.955 411.689 414.126 344.314 414.126 269.866C414.126 195.418 431.954 128.042 460.754 79.2959C489.56 30.5382 529.284 0.500077 573.062 0.5Z" pathLength="1" stroke="#9294DC" stroke-opacity="0.540" stroke-dasharray="0.025 0.975" fill="none">
    <animate attributeName="stroke-dashoffset" values="0.1;-0.9" dur="3s" begin="0.2s" repeatCount="indefinite"/>
  </path>
  <path d="M532.614 0.5C548.739 0.5 564.141 7.97224 578.192 21.5664C592.246 35.1629 604.925 54.8619 615.584 79.2422C636.901 128.001 650.1 195.397 650.1 269.866C650.1 344.335 636.901 411.731 615.584 460.49C604.925 484.87 592.246 504.569 578.192 518.165C564.141 531.759 548.739 539.232 532.614 539.232C516.49 539.232 501.089 531.759 487.037 518.165C472.983 504.569 460.304 484.87 449.645 460.49C428.327 411.731 415.13 344.335 415.13 269.866C415.13 195.397 428.327 128.001 449.645 79.2422C460.304 54.8618 472.983 35.1629 487.037 21.5664C501.089 7.97239 516.49 0.500111 532.614 0.5Z" pathLength="1" stroke="#9294DC" stroke-opacity="0.540" stroke-dasharray="0.025 0.975" fill="none">
    <animate attributeName="stroke-dashoffset" values="0.1;-0.9" dur="3s" begin="0.12s" repeatCount="indefinite"/>
  </path>
  <path d="M479.779 0.5C488.494 0.5 496.949 7.81964 504.744 21.4551C512.517 35.0524 519.534 54.7616 525.434 79.1592C537.23 127.947 544.531 195.372 544.531 269.866C544.531 344.36 537.23 411.785 525.434 460.572C519.534 484.97 512.517 504.679 504.744 518.276C496.949 531.912 488.494 539.232 479.779 539.232C471.064 539.232 462.61 531.912 454.815 518.276C447.042 504.679 440.025 484.97 434.126 460.572C422.33 411.785 415.028 344.36 415.028 269.866C415.028 195.372 422.33 127.947 434.126 79.1592C440.025 54.7616 447.042 35.0524 454.815 21.4551C462.61 7.8199 471.064 0.500197 479.779 0.5Z" pathLength="1" stroke="#9294DC" stroke-opacity="0.540" stroke-dasharray="0.025 0.975" fill="none">
    <animate attributeName="stroke-dashoffset" values="0.1;-0.9" dur="3s" begin="0.06s" repeatCount="indefinite"/>
  </path>
  <path d="M431.19 0.5C431.522 0.50017 431.992 0.767594 432.565 1.66309C433.121 2.52985 433.687 3.8519 434.254 5.63379C435.385 9.19097 436.483 14.4626 437.532 21.2832C439.63 34.9175 441.522 54.661 443.111 79.0742C446.289 127.896 448.254 195.352 448.254 269.866C448.254 344.38 446.289 411.835 443.111 460.657C441.522 485.07 439.63 504.814 437.532 518.448C436.483 525.269 435.385 530.54 434.254 534.098C433.687 535.88 433.121 537.203 432.565 538.069C431.992 538.965 431.522 539.232 431.19 539.232C430.859 539.232 430.389 538.965 429.815 538.069C429.26 537.203 428.694 535.88 428.127 534.098C426.996 530.54 425.897 525.269 424.848 518.448C422.75 504.814 420.858 485.07 419.27 460.657C416.092 411.835 414.126 344.38 414.126 269.866C414.126 195.352 416.092 127.896 419.27 79.0742C420.858 54.6611 422.75 34.9175 424.848 21.2832C425.897 14.4626 426.996 9.19098 428.127 5.63379C428.694 3.85185 429.26 2.52982 429.815 1.66309C430.389 0.76737 430.859 0.5 431.19 0.5Z" pathLength="1" stroke="#9294DC" stroke-opacity="0.540" stroke-dasharray="0.025 0.975" fill="none">
    <animate attributeName="stroke-dashoffset" values="0.1;-0.9" dur="3s" begin="0.0s" repeatCount="indefinite"/>
  </path>
  <path d="M207.93 0.5C93.4831 0.5 0.5 120.97 0.5 269.866C0.500089 418.762 93.4832 539.232 207.93 539.232C322.376 539.232 415.358 418.762 415.358 269.866C415.358 120.971 322.376 0.500289 207.93 0.5Z" pathLength="1" stroke="#9294DC" stroke-opacity="0.540" stroke-dasharray="0.025 0.975" fill="none">
    <animate attributeName="stroke-dashoffset" values="0.1;-0.9" dur="3s" begin="0.3s" repeatCount="indefinite"/>
  </path>
  <path d="M256.422 0.5C212.643 0.5 172.919 30.5382 144.113 79.2959C115.314 128.042 97.4854 195.418 97.4854 269.866C97.4854 344.314 115.314 411.689 144.113 460.436C172.919 509.193 212.643 539.232 256.422 539.232C300.201 539.232 339.924 509.193 368.73 460.436C397.53 411.689 415.358 344.314 415.358 269.866C415.358 195.418 397.53 128.042 368.73 79.2959C339.924 30.5382 300.201 0.500077 256.422 0.5Z" pathLength="1" stroke="#9294DC" stroke-opacity="0.540" stroke-dasharray="0.025 0.975" fill="none">
    <animate attributeName="stroke-dashoffset" values="0.1;-0.9" dur="3s" begin="0.2s" repeatCount="indefinite"/>
  </path>
  <path d="M299.102 0.5C282.977 0.5 267.575 7.97224 253.523 21.5664C239.469 35.1629 226.791 54.8619 216.132 79.2422C194.814 128.001 181.616 195.397 181.616 269.866C181.616 344.335 194.814 411.731 216.132 460.49C226.791 484.87 239.47 504.569 253.523 518.165C267.575 531.759 282.977 539.232 299.102 539.232C315.226 539.232 330.627 531.759 344.679 518.165C358.733 504.569 371.412 484.87 382.071 460.49C403.389 411.731 416.586 344.335 416.586 269.866C416.586 195.397 403.389 128.001 382.071 79.2422C371.412 54.8618 358.733 35.1629 344.679 21.5664C330.627 7.97239 315.226 0.500111 299.102 0.5Z" pathLength="1" stroke="#9294DC" stroke-opacity="0.540" stroke-dasharray="0.025 0.975" fill="none">
    <animate attributeName="stroke-dashoffset" values="0.1;-0.9" dur="3s" begin="0.12s" repeatCount="indefinite"/>
  </path>
  <path d="M351.936 0.5C343.22 0.5 334.766 7.81964 326.971 21.4551C319.198 35.0524 312.18 54.7616 306.281 79.1592C294.485 127.947 287.184 195.372 287.184 269.866C287.184 344.36 294.485 411.785 306.281 460.572C312.18 484.97 319.198 504.679 326.971 518.276C334.766 531.912 343.22 539.232 351.936 539.232C360.651 539.232 369.105 531.912 376.899 518.276C384.672 504.679 391.69 484.97 397.589 460.572C409.385 411.785 416.687 344.36 416.687 269.866C416.687 195.372 409.385 127.947 397.589 79.1592C391.69 54.7616 384.672 35.0524 376.899 21.4551C369.105 7.8199 360.65 0.500197 351.936 0.5Z" pathLength="1" stroke="#9294DC" stroke-opacity="0.540" stroke-dasharray="0.025 0.975" fill="none">
    <animate attributeName="stroke-dashoffset" values="0.1;-0.9" dur="3s" begin="0.06s" repeatCount="indefinite"/>
  </path>
  <path d="M398.294 0.5C397.962 0.50017 397.493 0.767594 396.919 1.66309C396.364 2.52985 395.797 3.8519 395.23 5.63379C394.099 9.19097 393.002 14.4626 391.952 21.2832C389.854 34.9175 387.962 54.661 386.373 79.0742C383.195 127.896 381.23 195.352 381.23 269.866C381.23 344.38 383.195 411.835 386.373 460.657C387.962 485.07 389.854 504.814 391.952 518.448C393.002 525.269 394.099 530.54 395.23 534.098C395.797 535.88 396.363 537.203 396.919 538.069C397.493 538.965 397.962 539.232 398.294 539.232C398.626 539.232 399.095 538.965 399.669 538.069C400.224 537.203 400.791 535.88 401.357 534.098C402.489 530.54 403.587 525.269 404.637 518.448C406.735 504.814 408.626 485.07 410.215 460.657C413.392 411.835 415.358 344.38 415.358 269.866C415.358 195.352 413.392 127.896 410.215 79.0742C408.626 54.6611 406.735 34.9175 404.637 21.2832C403.587 14.4626 402.489 9.19098 401.357 5.63379C400.791 3.85185 400.224 2.52982 399.669 1.66309C399.095 0.76737 398.626 0.5 398.294 0.5Z" pathLength="1" stroke="#9294DC" stroke-opacity="0.540" stroke-dasharray="0.025 0.975" fill="none">
    <animate attributeName="stroke-dashoffset" values="0.1;-0.9" dur="3s" begin="0.0s" repeatCount="indefinite"/>
  </path>
</g>
<g mask="url(#centerMask)">
  <path d="M621.555 0.5C736.001 0.5 828.984 120.97 828.984 269.866C828.984 418.762 736.001 539.232 621.555 539.232C507.108 539.232 414.126 418.762 414.126 269.866C414.126 120.971 507.108 0.500289 621.555 0.5Z" pathLength="1" stroke="#9294DC" stroke-opacity="0.396" stroke-dasharray="0.025 0.975" fill="none">
    <animate attributeName="stroke-dashoffset" values="0.125;-0.875" dur="3s" begin="0.3s" repeatCount="indefinite"/>
  </path>
  <path d="M573.062 0.5C616.841 0.5 656.565 30.5382 685.371 79.2959C714.171 128.042 731.999 195.418 731.999 269.866C731.999 344.314 714.17 411.689 685.371 460.436C656.565 509.193 616.841 539.232 573.062 539.232C529.284 539.232 489.56 509.193 460.754 460.436C431.955 411.689 414.126 344.314 414.126 269.866C414.126 195.418 431.954 128.042 460.754 79.2959C489.56 30.5382 529.284 0.500077 573.062 0.5Z" pathLength="1" stroke="#9294DC" stroke-opacity="0.396" stroke-dasharray="0.025 0.975" fill="none">
    <animate attributeName="stroke-dashoffset" values="0.125;-0.875" dur="3s" begin="0.2s" repeatCount="indefinite"/>
  </path>
  <path d="M532.614 0.5C548.739 0.5 564.141 7.97224 578.192 21.5664C592.246 35.1629 604.925 54.8619 615.584 79.2422C636.901 128.001 650.1 195.397 650.1 269.866C650.1 344.335 636.901 411.731 615.584 460.49C604.925 484.87 592.246 504.569 578.192 518.165C564.141 531.759 548.739 539.232 532.614 539.232C516.49 539.232 501.089 531.759 487.037 518.165C472.983 504.569 460.304 484.87 449.645 460.49C428.327 411.731 415.13 344.335 415.13 269.866C415.13 195.397 428.327 128.001 449.645 79.2422C460.304 54.8618 472.983 35.1629 487.037 21.5664C501.089 7.97239 516.49 0.500111 532.614 0.5Z" pathLength="1" stroke="#9294DC" stroke-opacity="0.396" stroke-dasharray="0.025 0.975" fill="none">
    <animate attributeName="stroke-dashoffset" values="0.125;-0.875" dur="3s" begin="0.12s" repeatCount="indefinite"/>
  </path>
  <path d="M479.779 0.5C488.494 0.5 496.949 7.81964 504.744 21.4551C512.517 35.0524 519.534 54.7616 525.434 79.1592C537.23 127.947 544.531 195.372 544.531 269.866C544.531 344.36 537.23 411.785 525.434 460.572C519.534 484.97 512.517 504.679 504.744 518.276C496.949 531.912 488.494 539.232 479.779 539.232C471.064 539.232 462.61 531.912 454.815 518.276C447.042 504.679 440.025 484.97 434.126 460.572C422.33 411.785 415.028 344.36 415.028 269.866C415.028 195.372 422.33 127.947 434.126 79.1592C440.025 54.7616 447.042 35.0524 454.815 21.4551C462.61 7.8199 471.064 0.500197 479.779 0.5Z" pathLength="1" stroke="#9294DC" stroke-opacity="0.396" stroke-dasharray="0.025 0.975" fill="none">
    <animate attributeName="stroke-dashoffset" values="0.125;-0.875" dur="3s" begin="0.06s" repeatCount="indefinite"/>
  </path>
  <path d="M431.19 0.5C431.522 0.50017 431.992 0.767594 432.565 1.66309C433.121 2.52985 433.687 3.8519 434.254 5.63379C435.385 9.19097 436.483 14.4626 437.532 21.2832C439.63 34.9175 441.522 54.661 443.111 79.0742C446.289 127.896 448.254 195.352 448.254 269.866C448.254 344.38 446.289 411.835 443.111 460.657C441.522 485.07 439.63 504.814 437.532 518.448C436.483 525.269 435.385 530.54 434.254 534.098C433.687 535.88 433.121 537.203 432.565 538.069C431.992 538.965 431.522 539.232 431.19 539.232C430.859 539.232 430.389 538.965 429.815 538.069C429.26 537.203 428.694 535.88 428.127 534.098C426.996 530.54 425.897 525.269 424.848 518.448C422.75 504.814 420.858 485.07 419.27 460.657C416.092 411.835 414.126 344.38 414.126 269.866C414.126 195.352 416.092 127.896 419.27 79.0742C420.858 54.6611 422.75 34.9175 424.848 21.2832C425.897 14.4626 426.996 9.19098 428.127 5.63379C428.694 3.85185 429.26 2.52982 429.815 1.66309C430.389 0.76737 430.859 0.5 431.19 0.5Z" pathLength="1" stroke="#9294DC" stroke-opacity="0.396" stroke-dasharray="0.025 0.975" fill="none">
    <animate attributeName="stroke-dashoffset" values="0.125;-0.875" dur="3s" begin="0.0s" repeatCount="indefinite"/>
  </path>
  <path d="M207.93 0.5C93.4831 0.5 0.5 120.97 0.5 269.866C0.500089 418.762 93.4832 539.232 207.93 539.232C322.376 539.232 415.358 418.762 415.358 269.866C415.358 120.971 322.376 0.500289 207.93 0.5Z" pathLength="1" stroke="#9294DC" stroke-opacity="0.396" stroke-dasharray="0.025 0.975" fill="none">
    <animate attributeName="stroke-dashoffset" values="0.125;-0.875" dur="3s" begin="0.3s" repeatCount="indefinite"/>
  </path>
  <path d="M256.422 0.5C212.643 0.5 172.919 30.5382 144.113 79.2959C115.314 128.042 97.4854 195.418 97.4854 269.866C97.4854 344.314 115.314 411.689 144.113 460.436C172.919 509.193 212.643 539.232 256.422 539.232C300.201 539.232 339.924 509.193 368.73 460.436C397.53 411.689 415.358 344.314 415.358 269.866C415.358 195.418 397.53 128.042 368.73 79.2959C339.924 30.5382 300.201 0.500077 256.422 0.5Z" pathLength="1" stroke="#9294DC" stroke-opacity="0.396" stroke-dasharray="0.025 0.975" fill="none">
    <animate attributeName="stroke-dashoffset" values="0.125;-0.875" dur="3s" begin="0.2s" repeatCount="indefinite"/>
  </path>
  <path d="M299.102 0.5C282.977 0.5 267.575 7.97224 253.523 21.5664C239.469 35.1629 226.791 54.8619 216.132 79.2422C194.814 128.001 181.616 195.397 181.616 269.866C181.616 344.335 194.814 411.731 216.132 460.49C226.791 484.87 239.47 504.569 253.523 518.165C267.575 531.759 282.977 539.232 299.102 539.232C315.226 539.232 330.627 531.759 344.679 518.165C358.733 504.569 371.412 484.87 382.071 460.49C403.389 411.731 416.586 344.335 416.586 269.866C416.586 195.397 403.389 128.001 382.071 79.2422C371.412 54.8618 358.733 35.1629 344.679 21.5664C330.627 7.97239 315.226 0.500111 299.102 0.5Z" pathLength="1" stroke="#9294DC" stroke-opacity="0.396" stroke-dasharray="0.025 0.975" fill="none">
    <animate attributeName="stroke-dashoffset" values="0.125;-0.875" dur="3s" begin="0.12s" repeatCount="indefinite"/>
  </path>
  <path d="M351.936 0.5C343.22 0.5 334.766 7.81964 326.971 21.4551C319.198 35.0524 312.18 54.7616 306.281 79.1592C294.485 127.947 287.184 195.372 287.184 269.866C287.184 344.36 294.485 411.785 306.281 460.572C312.18 484.97 319.198 504.679 326.971 518.276C334.766 531.912 343.22 539.232 351.936 539.232C360.651 539.232 369.105 531.912 376.899 518.276C384.672 504.679 391.69 484.97 397.589 460.572C409.385 411.785 416.687 344.36 416.687 269.866C416.687 195.372 409.385 127.947 397.589 79.1592C391.69 54.7616 384.672 35.0524 376.899 21.4551C369.105 7.8199 360.65 0.500197 351.936 0.5Z" pathLength="1" stroke="#9294DC" stroke-opacity="0.396" stroke-dasharray="0.025 0.975" fill="none">
    <animate attributeName="stroke-dashoffset" values="0.125;-0.875" dur="3s" begin="0.06s" repeatCount="indefinite"/>
  </path>
  <path d="M398.294 0.5C397.962 0.50017 397.493 0.767594 396.919 1.66309C396.364 2.52985 395.797 3.8519 395.23 5.63379C394.099 9.19097 393.002 14.4626 391.952 21.2832C389.854 34.9175 387.962 54.661 386.373 79.0742C383.195 127.896 381.23 195.352 381.23 269.866C381.23 344.38 383.195 411.835 386.373 460.657C387.962 485.07 389.854 504.814 391.952 518.448C393.002 525.269 394.099 530.54 395.23 534.098C395.797 535.88 396.363 537.203 396.919 538.069C397.493 538.965 397.962 539.232 398.294 539.232C398.626 539.232 399.095 538.965 399.669 538.069C400.224 537.203 400.791 535.88 401.357 534.098C402.489 530.54 403.587 525.269 404.637 518.448C406.735 504.814 408.626 485.07 410.215 460.657C413.392 411.835 415.358 344.38 415.358 269.866C415.358 195.352 413.392 127.896 410.215 79.0742C408.626 54.6611 406.735 34.9175 404.637 21.2832C403.587 14.4626 402.489 9.19098 401.357 5.63379C400.791 3.85185 400.224 2.52982 399.669 1.66309C399.095 0.76737 398.626 0.5 398.294 0.5Z" pathLength="1" stroke="#9294DC" stroke-opacity="0.396" stroke-dasharray="0.025 0.975" fill="none">
    <animate attributeName="stroke-dashoffset" values="0.125;-0.875" dur="3s" begin="0.0s" repeatCount="indefinite"/>
  </path>
</g>
<g mask="url(#centerMask)">
  <path d="M621.555 0.5C736.001 0.5 828.984 120.97 828.984 269.866C828.984 418.762 736.001 539.232 621.555 539.232C507.108 539.232 414.126 418.762 414.126 269.866C414.126 120.971 507.108 0.500289 621.555 0.5Z" pathLength="1" stroke="#9294DC" stroke-opacity="0.270" stroke-dasharray="0.025 0.975" fill="none">
    <animate attributeName="stroke-dashoffset" values="0.15;-0.85" dur="3s" begin="0.3s" repeatCount="indefinite"/>
  </path>
  <path d="M573.062 0.5C616.841 0.5 656.565 30.5382 685.371 79.2959C714.171 128.042 731.999 195.418 731.999 269.866C731.999 344.314 714.17 411.689 685.371 460.436C656.565 509.193 616.841 539.232 573.062 539.232C529.284 539.232 489.56 509.193 460.754 460.436C431.955 411.689 414.126 344.314 414.126 269.866C414.126 195.418 431.954 128.042 460.754 79.2959C489.56 30.5382 529.284 0.500077 573.062 0.5Z" pathLength="1" stroke="#9294DC" stroke-opacity="0.270" stroke-dasharray="0.025 0.975" fill="none">
    <animate attributeName="stroke-dashoffset" values="0.15;-0.85" dur="3s" begin="0.2s" repeatCount="indefinite"/>
  </path>
  <path d="M532.614 0.5C548.739 0.5 564.141 7.97224 578.192 21.5664C592.246 35.1629 604.925 54.8619 615.584 79.2422C636.901 128.001 650.1 195.397 650.1 269.866C650.1 344.335 636.901 411.731 615.584 460.49C604.925 484.87 592.246 504.569 578.192 518.165C564.141 531.759 548.739 539.232 532.614 539.232C516.49 539.232 501.089 531.759 487.037 518.165C472.983 504.569 460.304 484.87 449.645 460.49C428.327 411.731 415.13 344.335 415.13 269.866C415.13 195.397 428.327 128.001 449.645 79.2422C460.304 54.8618 472.983 35.1629 487.037 21.5664C501.089 7.97239 516.49 0.500111 532.614 0.5Z" pathLength="1" stroke="#9294DC" stroke-opacity="0.270" stroke-dasharray="0.025 0.975" fill="none">
    <animate attributeName="stroke-dashoffset" values="0.15;-0.85" dur="3s" begin="0.12s" repeatCount="indefinite"/>
  </path>
  <path d="M479.779 0.5C488.494 0.5 496.949 7.81964 504.744 21.4551C512.517 35.0524 519.534 54.7616 525.434 79.1592C537.23 127.947 544.531 195.372 544.531 269.866C544.531 344.36 537.23 411.785 525.434 460.572C519.534 484.97 512.517 504.679 504.744 518.276C496.949 531.912 488.494 539.232 479.779 539.232C471.064 539.232 462.61 531.912 454.815 518.276C447.042 504.679 440.025 484.97 434.126 460.572C422.33 411.785 415.028 344.36 415.028 269.866C415.028 195.372 422.33 127.947 434.126 79.1592C440.025 54.7616 447.042 35.0524 454.815 21.4551C462.61 7.8199 471.064 0.500197 479.779 0.5Z" pathLength="1" stroke="#9294DC" stroke-opacity="0.270" stroke-dasharray="0.025 0.975" fill="none">
    <animate attributeName="stroke-dashoffset" values="0.15;-0.85" dur="3s" begin="0.06s" repeatCount="indefinite"/>
  </path>
  <path d="M431.19 0.5C431.522 0.50017 431.992 0.767594 432.565 1.66309C433.121 2.52985 433.687 3.8519 434.254 5.63379C435.385 9.19097 436.483 14.4626 437.532 21.2832C439.63 34.9175 441.522 54.661 443.111 79.0742C446.289 127.896 448.254 195.352 448.254 269.866C448.254 344.38 446.289 411.835 443.111 460.657C441.522 485.07 439.63 504.814 437.532 518.448C436.483 525.269 435.385 530.54 434.254 534.098C433.687 535.88 433.121 537.203 432.565 538.069C431.992 538.965 431.522 539.232 431.19 539.232C430.859 539.232 430.389 538.965 429.815 538.069C429.26 537.203 428.694 535.88 428.127 534.098C426.996 530.54 425.897 525.269 424.848 518.448C422.75 504.814 420.858 485.07 419.27 460.657C416.092 411.835 414.126 344.38 414.126 269.866C414.126 195.352 416.092 127.896 419.27 79.0742C420.858 54.6611 422.75 34.9175 424.848 21.2832C425.897 14.4626 426.996 9.19098 428.127 5.63379C428.694 3.85185 429.26 2.52982 429.815 1.66309C430.389 0.76737 430.859 0.5 431.19 0.5Z" pathLength="1" stroke="#9294DC" stroke-opacity="0.270" stroke-dasharray="0.025 0.975" fill="none">
    <animate attributeName="stroke-dashoffset" values="0.15;-0.85" dur="3s" begin="0.0s" repeatCount="indefinite"/>
  </path>
  <path d="M207.93 0.5C93.4831 0.5 0.5 120.97 0.5 269.866C0.500089 418.762 93.4832 539.232 207.93 539.232C322.376 539.232 415.358 418.762 415.358 269.866C415.358 120.971 322.376 0.500289 207.93 0.5Z" pathLength="1" stroke="#9294DC" stroke-opacity="0.270" stroke-dasharray="0.025 0.975" fill="none">
    <animate attributeName="stroke-dashoffset" values="0.15;-0.85" dur="3s" begin="0.3s" repeatCount="indefinite"/>
  </path>
  <path d="M256.422 0.5C212.643 0.5 172.919 30.5382 144.113 79.2959C115.314 128.042 97.4854 195.418 97.4854 269.866C97.4854 344.314 115.314 411.689 144.113 460.436C172.919 509.193 212.643 539.232 256.422 539.232C300.201 539.232 339.924 509.193 368.73 460.436C397.53 411.689 415.358 344.314 415.358 269.866C415.358 195.418 397.53 128.042 368.73 79.2959C339.924 30.5382 300.201 0.500077 256.422 0.5Z" pathLength="1" stroke="#9294DC" stroke-opacity="0.270" stroke-dasharray="0.025 0.975" fill="none">
    <animate attributeName="stroke-dashoffset" values="0.15;-0.85" dur="3s" begin="0.2s" repeatCount="indefinite"/>
  </path>
  <path d="M299.102 0.5C282.977 0.5 267.575 7.97224 253.523 21.5664C239.469 35.1629 226.791 54.8619 216.132 79.2422C194.814 128.001 181.616 195.397 181.616 269.866C181.616 344.335 194.814 411.731 216.132 460.49C226.791 484.87 239.47 504.569 253.523 518.165C267.575 531.759 282.977 539.232 299.102 539.232C315.226 539.232 330.627 531.759 344.679 518.165C358.733 504.569 371.412 484.87 382.071 460.49C403.389 411.731 416.586 344.335 416.586 269.866C416.586 195.397 403.389 128.001 382.071 79.2422C371.412 54.8618 358.733 35.1629 344.679 21.5664C330.627 7.97239 315.226 0.500111 299.102 0.5Z" pathLength="1" stroke="#9294DC" stroke-opacity="0.270" stroke-dasharray="0.025 0.975" fill="none">
    <animate attributeName="stroke-dashoffset" values="0.15;-0.85" dur="3s" begin="0.12s" repeatCount="indefinite"/>
  </path>
  <path d="M351.936 0.5C343.22 0.5 334.766 7.81964 326.971 21.4551C319.198 35.0524 312.18 54.7616 306.281 79.1592C294.485 127.947 287.184 195.372 287.184 269.866C287.184 344.36 294.485 411.785 306.281 460.572C312.18 484.97 319.198 504.679 326.971 518.276C334.766 531.912 343.22 539.232 351.936 539.232C360.651 539.232 369.105 531.912 376.899 518.276C384.672 504.679 391.69 484.97 397.589 460.572C409.385 411.785 416.687 344.36 416.687 269.866C416.687 195.372 409.385 127.947 397.589 79.1592C391.69 54.7616 384.672 35.0524 376.899 21.4551C369.105 7.8199 360.65 0.500197 351.936 0.5Z" pathLength="1" stroke="#9294DC" stroke-opacity="0.270" stroke-dasharray="0.025 0.975" fill="none">
    <animate attributeName="stroke-dashoffset" values="0.15;-0.85" dur="3s" begin="0.06s" repeatCount="indefinite"/>
  </path>
  <path d="M398.294 0.5C397.962 0.50017 397.493 0.767594 396.919 1.66309C396.364 2.52985 395.797 3.8519 395.23 5.63379C394.099 9.19097 393.002 14.4626 391.952 21.2832C389.854 34.9175 387.962 54.661 386.373 79.0742C383.195 127.896 381.23 195.352 381.23 269.866C381.23 344.38 383.195 411.835 386.373 460.657C387.962 485.07 389.854 504.814 391.952 518.448C393.002 525.269 394.099 530.54 395.23 534.098C395.797 535.88 396.363 537.203 396.919 538.069C397.493 538.965 397.962 539.232 398.294 539.232C398.626 539.232 399.095 538.965 399.669 538.069C400.224 537.203 400.791 535.88 401.357 534.098C402.489 530.54 403.587 525.269 404.637 518.448C406.735 504.814 408.626 485.07 410.215 460.657C413.392 411.835 415.358 344.38 415.358 269.866C415.358 195.352 413.392 127.896 410.215 79.0742C408.626 54.6611 406.735 34.9175 404.637 21.2832C403.587 14.4626 402.489 9.19098 401.357 5.63379C400.791 3.85185 400.224 2.52982 399.669 1.66309C399.095 0.76737 398.626 0.5 398.294 0.5Z" pathLength="1" stroke="#9294DC" stroke-opacity="0.270" stroke-dasharray="0.025 0.975" fill="none">
    <animate attributeName="stroke-dashoffset" values="0.15;-0.85" dur="3s" begin="0.0s" repeatCount="indefinite"/>
  </path>
</g>
<g mask="url(#centerMask)">
  <path d="M621.555 0.5C736.001 0.5 828.984 120.97 828.984 269.866C828.984 418.762 736.001 539.232 621.555 539.232C507.108 539.232 414.126 418.762 414.126 269.866C414.126 120.971 507.108 0.500289 621.555 0.5Z" pathLength="1" stroke="#9294DC" stroke-opacity="0.180" stroke-dasharray="0.025 0.975" fill="none">
    <animate attributeName="stroke-dashoffset" values="0.175;-0.825" dur="3s" begin="0.3s" repeatCount="indefinite"/>
  </path>
  <path d="M573.062 0.5C616.841 0.5 656.565 30.5382 685.371 79.2959C714.171 128.042 731.999 195.418 731.999 269.866C731.999 344.314 714.17 411.689 685.371 460.436C656.565 509.193 616.841 539.232 573.062 539.232C529.284 539.232 489.56 509.193 460.754 460.436C431.955 411.689 414.126 344.314 414.126 269.866C414.126 195.418 431.954 128.042 460.754 79.2959C489.56 30.5382 529.284 0.500077 573.062 0.5Z" pathLength="1" stroke="#9294DC" stroke-opacity="0.180" stroke-dasharray="0.025 0.975" fill="none">
    <animate attributeName="stroke-dashoffset" values="0.175;-0.825" dur="3s" begin="0.2s" repeatCount="indefinite"/>
  </path>
  <path d="M532.614 0.5C548.739 0.5 564.141 7.97224 578.192 21.5664C592.246 35.1629 604.925 54.8619 615.584 79.2422C636.901 128.001 650.1 195.397 650.1 269.866C650.1 344.335 636.901 411.731 615.584 460.49C604.925 484.87 592.246 504.569 578.192 518.165C564.141 531.759 548.739 539.232 532.614 539.232C516.49 539.232 501.089 531.759 487.037 518.165C472.983 504.569 460.304 484.87 449.645 460.49C428.327 411.731 415.13 344.335 415.13 269.866C415.13 195.397 428.327 128.001 449.645 79.2422C460.304 54.8618 472.983 35.1629 487.037 21.5664C501.089 7.97239 516.49 0.500111 532.614 0.5Z" pathLength="1" stroke="#9294DC" stroke-opacity="0.180" stroke-dasharray="0.025 0.975" fill="none">
    <animate attributeName="stroke-dashoffset" values="0.175;-0.825" dur="3s" begin="0.12s" repeatCount="indefinite"/>
  </path>
  <path d="M479.779 0.5C488.494 0.5 496.949 7.81964 504.744 21.4551C512.517 35.0524 519.534 54.7616 525.434 79.1592C537.23 127.947 544.531 195.372 544.531 269.866C544.531 344.36 537.23 411.785 525.434 460.572C519.534 484.97 512.517 504.679 504.744 518.276C496.949 531.912 488.494 539.232 479.779 539.232C471.064 539.232 462.61 531.912 454.815 518.276C447.042 504.679 440.025 484.97 434.126 460.572C422.33 411.785 415.028 344.36 415.028 269.866C415.028 195.372 422.33 127.947 434.126 79.1592C440.025 54.7616 447.042 35.0524 454.815 21.4551C462.61 7.8199 471.064 0.500197 479.779 0.5Z" pathLength="1" stroke="#9294DC" stroke-opacity="0.180" stroke-dasharray="0.025 0.975" fill="none">
    <animate attributeName="stroke-dashoffset" values="0.175;-0.825" dur="3s" begin="0.06s" repeatCount="indefinite"/>
  </path>
  <path d="M431.19 0.5C431.522 0.50017 431.992 0.767594 432.565 1.66309C433.121 2.52985 433.687 3.8519 434.254 5.63379C435.385 9.19097 436.483 14.4626 437.532 21.2832C439.63 34.9175 441.522 54.661 443.111 79.0742C446.289 127.896 448.254 195.352 448.254 269.866C448.254 344.38 446.289 411.835 443.111 460.657C441.522 485.07 439.63 504.814 437.532 518.448C436.483 525.269 435.385 530.54 434.254 534.098C433.687 535.88 433.121 537.203 432.565 538.069C431.992 538.965 431.522 539.232 431.19 539.232C430.859 539.232 430.389 538.965 429.815 538.069C429.26 537.203 428.694 535.88 428.127 534.098C426.996 530.54 425.897 525.269 424.848 518.448C422.75 504.814 420.858 485.07 419.27 460.657C416.092 411.835 414.126 344.38 414.126 269.866C414.126 195.352 416.092 127.896 419.27 79.0742C420.858 54.6611 422.75 34.9175 424.848 21.2832C425.897 14.4626 426.996 9.19098 428.127 5.63379C428.694 3.85185 429.26 2.52982 429.815 1.66309C430.389 0.76737 430.859 0.5 431.19 0.5Z" pathLength="1" stroke="#9294DC" stroke-opacity="0.180" stroke-dasharray="0.025 0.975" fill="none">
    <animate attributeName="stroke-dashoffset" values="0.175;-0.825" dur="3s" begin="0.0s" repeatCount="indefinite"/>
  </path>
  <path d="M207.93 0.5C93.4831 0.5 0.5 120.97 0.5 269.866C0.500089 418.762 93.4832 539.232 207.93 539.232C322.376 539.232 415.358 418.762 415.358 269.866C415.358 120.971 322.376 0.500289 207.93 0.5Z" pathLength="1" stroke="#9294DC" stroke-opacity="0.180" stroke-dasharray="0.025 0.975" fill="none">
    <animate attributeName="stroke-dashoffset" values="0.175;-0.825" dur="3s" begin="0.3s" repeatCount="indefinite"/>
  </path>
  <path d="M256.422 0.5C212.643 0.5 172.919 30.5382 144.113 79.2959C115.314 128.042 97.4854 195.418 97.4854 269.866C97.4854 344.314 115.314 411.689 144.113 460.436C172.919 509.193 212.643 539.232 256.422 539.232C300.201 539.232 339.924 509.193 368.73 460.436C397.53 411.689 415.358 344.314 415.358 269.866C415.358 195.418 397.53 128.042 368.73 79.2959C339.924 30.5382 300.201 0.500077 256.422 0.5Z" pathLength="1" stroke="#9294DC" stroke-opacity="0.180" stroke-dasharray="0.025 0.975" fill="none">
    <animate attributeName="stroke-dashoffset" values="0.175;-0.825" dur="3s" begin="0.2s" repeatCount="indefinite"/>
  </path>
  <path d="M299.102 0.5C282.977 0.5 267.575 7.97224 253.523 21.5664C239.469 35.1629 226.791 54.8619 216.132 79.2422C194.814 128.001 181.616 195.397 181.616 269.866C181.616 344.335 194.814 411.731 216.132 460.49C226.791 484.87 239.47 504.569 253.523 518.165C267.575 531.759 282.977 539.232 299.102 539.232C315.226 539.232 330.627 531.759 344.679 518.165C358.733 504.569 371.412 484.87 382.071 460.49C403.389 411.731 416.586 344.335 416.586 269.866C416.586 195.397 403.389 128.001 382.071 79.2422C371.412 54.8618 358.733 35.1629 344.679 21.5664C330.627 7.97239 315.226 0.500111 299.102 0.5Z" pathLength="1" stroke="#9294DC" stroke-opacity="0.180" stroke-dasharray="0.025 0.975" fill="none">
    <animate attributeName="stroke-dashoffset" values="0.175;-0.825" dur="3s" begin="0.12s" repeatCount="indefinite"/>
  </path>
  <path d="M351.936 0.5C343.22 0.5 334.766 7.81964 326.971 21.4551C319.198 35.0524 312.18 54.7616 306.281 79.1592C294.485 127.947 287.184 195.372 287.184 269.866C287.184 344.36 294.485 411.785 306.281 460.572C312.18 484.97 319.198 504.679 326.971 518.276C334.766 531.912 343.22 539.232 351.936 539.232C360.651 539.232 369.105 531.912 376.899 518.276C384.672 504.679 391.69 484.97 397.589 460.572C409.385 411.785 416.687 344.36 416.687 269.866C416.687 195.372 409.385 127.947 397.589 79.1592C391.69 54.7616 384.672 35.0524 376.899 21.4551C369.105 7.8199 360.65 0.500197 351.936 0.5Z" pathLength="1" stroke="#9294DC" stroke-opacity="0.180" stroke-dasharray="0.025 0.975" fill="none">
    <animate attributeName="stroke-dashoffset" values="0.175;-0.825" dur="3s" begin="0.06s" repeatCount="indefinite"/>
  </path>
  <path d="M398.294 0.5C397.962 0.50017 397.493 0.767594 396.919 1.66309C396.364 2.52985 395.797 3.8519 395.23 5.63379C394.099 9.19097 393.002 14.4626 391.952 21.2832C389.854 34.9175 387.962 54.661 386.373 79.0742C383.195 127.896 381.23 195.352 381.23 269.866C381.23 344.38 383.195 411.835 386.373 460.657C387.962 485.07 389.854 504.814 391.952 518.448C393.002 525.269 394.099 530.54 395.23 534.098C395.797 535.88 396.363 537.203 396.919 538.069C397.493 538.965 397.962 539.232 398.294 539.232C398.626 539.232 399.095 538.965 399.669 538.069C400.224 537.203 400.791 535.88 401.357 534.098C402.489 530.54 403.587 525.269 404.637 518.448C406.735 504.814 408.626 485.07 410.215 460.657C413.392 411.835 415.358 344.38 415.358 269.866C415.358 195.352 413.392 127.896 410.215 79.0742C408.626 54.6611 406.735 34.9175 404.637 21.2832C403.587 14.4626 402.489 9.19098 401.357 5.63379C400.791 3.85185 400.224 2.52982 399.669 1.66309C399.095 0.76737 398.626 0.5 398.294 0.5Z" pathLength="1" stroke="#9294DC" stroke-opacity="0.180" stroke-dasharray="0.025 0.975" fill="none">
    <animate attributeName="stroke-dashoffset" values="0.175;-0.825" dur="3s" begin="0.0s" repeatCount="indefinite"/>
  </path>
</g>
<!-- LAYER 3: Wireframe polyhedron with up-down bounce -->
<g transform="translate(414.7, 270)">
  <g>
    <animateTransform attributeName="transform" type="translate" values="0 0;0 -10;0 0" dur="3.5s" repeatCount="indefinite" calcMode="spline" keySplines="0.4 0 0.6 1;0.4 0 0.6 1"/>
    <g transform="translate(-414.7, -270)">
      <g transform="translate(193, 36.5)">
        <!-- Wireframe lines -->
        <path d="M146.461 368.473L211.826 219.34" stroke="#9294DC" stroke-opacity="0.209" stroke-linecap="round"/>
        <path d="M374.046 208.72L211.826 219.339" stroke="#9294DC" stroke-opacity="0.209" stroke-linecap="round"/>
        <path d="M211.828 219.34L122.599 91.5615" stroke="#9294DC" stroke-opacity="0.223" stroke-linecap="round"/>
        <path d="M146.461 368.472L268.17 449.865" stroke="#9294DC" stroke-opacity="0.295" stroke-linecap="round"/>
        <path d="M374.049 208.72L408.681 351.26" stroke="#9294DC" stroke-opacity="0.295" stroke-linecap="round"/>
        <path d="M146.46 368.474L16.9512 332.766" stroke="#9294DC" stroke-opacity="0.302" stroke-linecap="round"/>
        <path d="M374.049 208.72L384.817 74.582" stroke="#9294DC" stroke-opacity="0.302" stroke-linecap="round"/>
        <path d="M2.22754 161.81L122.598 91.5615" stroke="#9294DC" stroke-opacity="0.317" stroke-linecap="round"/>
        <path d="M229.581 2.23242L122.599 91.5606" stroke="#9294DC" stroke-opacity="0.317" stroke-linecap="round"/>
        <path d="M408.679 351.26L268.17 449.865" stroke="#9294DC" stroke-opacity="0.346" stroke-linecap="round"/>
        <path d="M2.22754 161.812L16.9537 332.766" stroke="#9294DC" stroke-opacity="0.367" stroke-linecap="round"/>
        <path d="M229.578 2.23242L384.814 74.5818" stroke="#9294DC" stroke-opacity="0.367" stroke-linecap="round"/>
        <path d="M213.808 464.336L268.172 449.866" stroke="#9294DC" stroke-opacity="0.432" stroke-linecap="round"/>
        <path d="M440.868 304.992L408.68 351.261" stroke="#9294DC" stroke-opacity="0.432" stroke-linecap="round"/>
        <path d="M58.8013 392.045L16.9512 332.766" stroke="#9294DC" stroke-opacity="0.446" stroke-linecap="round"/>
        <path d="M426.082 134.27L384.813 74.582" stroke="#9294DC" stroke-opacity="0.454" stroke-linecap="round"/>
        <path d="M2.22754 161.809L34.9975 115.832" stroke="#9294DC" stroke-opacity="0.468" stroke-linecap="round"/>
        <path d="M229.58 2.23242L175.273 17.4025" stroke="#9294DC" stroke-opacity="0.468" stroke-linecap="round"/>
        <path d="M213.804 464.335L58.8018 392.044" stroke="#9294DC" stroke-opacity="0.533" stroke-linecap="round"/>
        <path d="M440.868 304.993L426.084 134.271" stroke="#9294DC" stroke-opacity="0.533" stroke-linecap="round"/>
        <path d="M175.273 17.4033L34.9961 115.834" stroke="#9294DC" stroke-opacity="0.554" stroke-linecap="round"/>
        <path d="M213.807 464.336L320.499 374.833" stroke="#9294DC" stroke-opacity="0.583" stroke-linecap="round"/>
        <path d="M440.868 304.992L320.498 374.833" stroke="#9294DC" stroke-opacity="0.583" stroke-linecap="round"/>
        <path d="M69.9191 258.023L58.8018 392.045" stroke="#9294DC" stroke-opacity="0.598" stroke-linecap="round"/>
        <path d="M296.691 98.8545L426.083 134.271" stroke="#9294DC" stroke-opacity="0.598" stroke-linecap="round"/>
        <path d="M69.9197 258.022L34.9961 115.832" stroke="#9294DC" stroke-opacity="0.605" stroke-linecap="round"/>
        <path d="M296.691 98.8547L175.273 17.4033" stroke="#9294DC" stroke-opacity="0.605" stroke-linecap="round"/>
        <path d="M320.496 374.832L231.499 247.462" stroke="#9294DC" stroke-opacity="0.677" stroke-linecap="round"/>
        <path d="M69.9201 258.023L231.5 247.462" stroke="#9294DC" stroke-opacity="0.691" stroke-linecap="round"/>
        <path d="M296.69 98.8545L231.499 247.462" stroke="#9294DC" stroke-opacity="0.691" stroke-linecap="round"/>
        <!-- Nodes -->
        <circle cx="211.827" cy="219.34" r="1.4" fill="#985CFD" fill-opacity="0.450" stroke="#8A9CFB" stroke-opacity="0.450"/>
        <circle cx="146.462" cy="368.472" r="1.5" fill="#985CFD" fill-opacity="0.612" stroke="#8A9CFB" stroke-opacity="0.612"/>
        <circle cx="374.045" cy="208.719" r="1.5" fill="#985CFD" fill-opacity="0.612" stroke="#8A9CFB" stroke-opacity="0.612"/>
        <circle cx="122.599" cy="91.562" r="1.54" fill="#985CFD" fill-opacity="0.648" stroke="#8A9CFB" stroke-opacity="0.648"/>
        <circle cx="268.169" cy="449.866" r="1.68" fill="#985CFD" fill-opacity="0.864" stroke="#8A9CFB" stroke-opacity="0.864"/>
        <circle cx="408.68" cy="351.261" r="1.68" fill="#985CFD" fill-opacity="0.864" stroke="#8A9CFB" stroke-opacity="0.864"/>
        <circle cx="16.954" cy="332.763" r="1.71" fill="#985CFD" fill-opacity="0.900" stroke="#8A9CFB" stroke-opacity="0.900"/>
        <circle cx="384.816" cy="74.582" r="1.71" fill="#985CFD" fill-opacity="0.900" stroke="#8A9CFB" stroke-opacity="0.900"/>
        <circle cx="2.229" cy="161.81" r="1.73" fill="#985CFD" fill-opacity="0.936" stroke="#8A9CFB" stroke-opacity="0.936"/>
        <circle cx="229.581" cy="2.233" r="1.73" fill="#985CFD" fill-opacity="0.936" stroke="#8A9CFB" stroke-opacity="0.936"/>
        <circle cx="213.807" cy="464.336" r="1.99" fill="#985CFD" fill-opacity="1.000" stroke="#8A9CFB" stroke-opacity="1.000"/>
        <circle cx="440.867" cy="304.992" r="1.99" fill="#985CFD" fill-opacity="1.000" stroke="#8A9CFB" stroke-opacity="1.000"/>
        <circle cx="58.802" cy="392.043" r="2.01" fill="#985CFD" fill-opacity="1.000" stroke="#8A9CFB" stroke-opacity="1.000"/>
        <circle cx="426.083" cy="134.271" r="2.01" fill="#985CFD" fill-opacity="1.000" stroke="#8A9CFB" stroke-opacity="1.000"/>
        <circle cx="34.997" cy="115.832" r="2.04" fill="#985CFD" fill-opacity="1.000" stroke="#8A9CFB" stroke-opacity="1.000"/>
        <circle cx="175.274" cy="17.403" r="2.04" fill="#985CFD" fill-opacity="1.000" stroke="#8A9CFB" stroke-opacity="1.000"/>
        <circle cx="320.499" cy="374.832" r="2.18" fill="#985CFD" fill-opacity="1.000" stroke="#8A9CFB" stroke-opacity="1.000"/>
        <circle cx="69.919" cy="258.024" r="2.21" fill="#985CFD" fill-opacity="1.000" stroke="#8A9CFB" stroke-opacity="1.000"/>
        <circle cx="296.692" cy="98.855" r="2.21" fill="#985CFD" fill-opacity="1.000" stroke="#8A9CFB" stroke-opacity="1.000"/>
        <circle cx="231.499" cy="247.462" r="2.32" fill="#985CFD" stroke="#8A9CFB"/>
        <!-- Hue overlay rectangle (from Figma mix-blend-hue layer) -->
        <rect x="0" y="0" width="443" height="467" fill="rgba(224,212,250,0.74)" style="mix-blend-mode: hue;"/>
      </g>
    </g>
  </g>
</g>

</svg>
