<svg width="46" height="35" viewBox="0 0 46 35" fill="none" xmlns="http://www.w3.org/2000/svg">
<g clip-path="url(#clip0_1442_931)">
<path d="M0 22.9399V12H9.92321V13.6408H1.63882V16.6338H8.29943V18.305H1.63882V21.298H9.92321V22.9389H0V22.9399Z" fill="black"/>
<path d="M11.1406 22.9399V12H19.9967C20.3578 12 20.6888 12.089 20.9886 12.2659C21.2895 12.4428 21.527 12.6815 21.7032 12.9799C21.8784 13.2784 21.9665 13.6104 21.9665 13.9751V20.9649C21.9665 21.3295 21.8784 21.6616 21.7032 21.96C21.5281 22.2584 21.2895 22.4972 20.9886 22.6741C20.6877 22.851 20.3567 22.9399 19.9967 22.9399H11.1406ZM13.1255 21.2991H19.9516C20.0623 21.2991 20.1525 21.2611 20.2224 21.1852C20.2922 21.1092 20.3277 21.0202 20.3277 20.9193V14.0207C20.3277 13.9197 20.2922 13.8307 20.2224 13.7548C20.1525 13.6788 20.0623 13.6408 19.9516 13.6408H13.1255C13.0255 13.6408 12.9396 13.6788 12.8697 13.7548C12.7999 13.8307 12.7644 13.9197 12.7644 14.0207V20.9193C12.7644 21.0202 12.7999 21.1092 12.8697 21.1852C12.9396 21.2611 13.0255 21.2991 13.1255 21.2991Z" fill="black"/>
<path d="M23.3047 22.9399V12H33.2279V13.6408H24.9435V16.6338H31.6041V18.305H24.9435V21.298H33.2279V22.9389H23.3047V22.9399Z" fill="black"/>
<path d="M34.4141 22.9399V12H36.3538L43.6011 20.7218V12H45.24V22.9399H43.3003L36.0378 14.203V22.9399H34.4141Z" fill="black"/>
</g>
<defs>
<clipPath id="clip0_1442_931">
<rect width="45.24" height="34.9399" fill="white"/>
</clipPath>
</defs>
</svg>
