<svg width="198" height="36" viewBox="0 0 198 36" fill="none" xmlns="http://www.w3.org/2000/svg">
<g clip-path="url(#clip0_1515_195)">
<path d="M135.616 22.3833L130.446 13.3218C130.187 12.8899 129.63 12.751 129.203 13.0136C129.078 13.0896 128.973 13.1959 128.897 13.3218L123.727 22.3833C123.667 22.494 123.632 22.6166 123.626 22.7425C123.592 23.2493 123.971 23.6877 124.472 23.7224C124.48 23.7224 124.486 23.7224 124.493 23.7235C124.847 23.7311 125.117 23.552 125.336 23.1679L126.136 21.7636C126.24 21.5791 126.433 21.4663 126.644 21.4663H132.68C132.89 21.4663 133.084 21.5802 133.188 21.7636L133.988 23.1679C134.189 23.5314 134.455 23.7127 134.789 23.7235C135.285 23.743 135.704 23.3513 135.722 22.8488C135.722 22.8402 135.722 22.8304 135.722 22.8217C135.719 22.6698 135.683 22.52 135.615 22.3844L135.616 22.3833ZM131.305 19.6594H128.032C127.811 19.6594 127.633 19.4771 127.634 19.2536C127.634 19.183 127.652 19.1146 127.687 19.0539L129.332 16.1868C129.442 15.9936 129.687 15.9274 129.879 16.0392C129.94 16.075 129.989 16.126 130.025 16.1868L131.657 19.0539C131.768 19.2481 131.701 19.4945 131.51 19.6062C131.447 19.6421 131.377 19.6605 131.306 19.6605L131.305 19.6594ZM34.2636 14.3701C32.2723 4.9115 23.0702 -1.12549 13.7101 0.886478C10.4346 1.59078 7.43205 3.23811 5.06355 5.63099C4.27691 6.42536 3.56658 7.29461 2.94328 8.22571C2.75845 8.47531 2.59295 8.73793 2.44788 9.01249C-2.45355 17.3208 0.236271 28.0719 8.45618 33.0259C16.6761 37.9798 27.315 35.2614 32.2164 26.9552C32.5743 26.3486 32.8956 25.7203 33.1793 25.0746C33.2825 24.8575 33.3749 24.6351 33.4533 24.4083C34.6731 21.2297 34.9578 17.7625 34.2733 14.4244L34.2636 14.3712V14.3701ZM28.2542 6.3635C28.3542 6.46009 28.452 6.55667 28.5498 6.65651C30.0586 8.17579 31.2482 9.987 32.0488 11.9816C32.1047 12.1205 32.038 12.2779 31.9016 12.3343C31.8543 12.3538 31.8027 12.3593 31.7533 12.3495C31.245 12.2627 30.7302 12.2258 30.2155 12.2388C29.8221 12.2475 29.4804 11.9653 29.4095 11.5747C29.1333 9.93816 28.6873 8.3364 28.0791 6.79433L27.9813 6.55667C27.9437 6.46985 27.9813 6.36893 28.0673 6.32986C28.1307 6.30165 28.2037 6.31467 28.2542 6.36242V6.3635ZM29.9006 16.636C29.8995 16.5329 29.9812 16.4472 30.0833 16.4461C30.1435 16.4461 30.2004 16.4743 30.2359 16.5232C30.367 16.7077 30.4916 16.8932 30.6109 17.0788C30.77 17.3251 30.9183 17.5715 31.0548 17.8157C31.1418 17.9676 31.1203 18.1586 31.0032 18.2877C30.8173 18.4972 30.6152 18.711 30.3981 18.9269L30.1596 19.1689C30.1015 19.2329 30.0027 19.2362 29.9393 19.1776C29.9038 19.1439 29.8855 19.0962 29.8898 19.0474C29.9006 18.7847 29.907 18.52 29.9113 18.2606C29.9156 17.7115 29.9124 17.171 29.8984 16.636H29.9006ZM8.08865 4.9332C10.7774 2.98743 14.0045 1.94455 17.3123 1.95432C18.1881 1.95432 19.0639 2.02594 19.9279 2.17027C20.073 2.19632 20.1697 2.33631 20.1429 2.48281C20.1321 2.54575 20.0988 2.60219 20.0505 2.64234C19.2219 3.29997 18.4503 4.2734 17.7679 5.53441C17.6014 5.84152 17.2478 5.99236 16.9136 5.89795C14.7901 5.2707 12.5849 4.97661 10.3733 5.02762C9.65118 5.05149 8.93225 5.12854 8.22191 5.25768C8.12412 5.27179 8.03277 5.20342 8.0188 5.10358C8.00913 5.03847 8.036 4.97227 8.08865 4.9332ZM5.82009 28.9184C5.48695 28.2803 5.91788 26.8055 8.1123 24.5635C8.32507 24.3464 8.32293 23.997 8.10907 23.7821C8.0951 23.768 8.08006 23.7539 8.06394 23.742L7.80173 23.5314C7.58357 23.3524 7.26763 23.3697 7.0699 23.5705L6.98393 23.6573C5.89317 24.7946 5.11405 25.8473 4.69065 26.7936C4.60468 26.9835 4.38223 27.067 4.19524 26.9802C4.13183 26.9509 4.0781 26.9042 4.03942 26.8456C2.32537 24.2249 1.41515 21.1516 1.42375 18.011C1.42375 16.8846 1.53873 15.7625 1.76978 14.661C1.76548 14.5742 1.83211 14.5004 1.91808 14.496C2.00405 14.4917 2.07713 14.559 2.08142 14.6469C2.45647 15.8471 2.99702 16.9876 3.68801 18.0349C4.77125 19.679 6.07478 21.1624 7.56316 22.443C8.09618 22.915 8.65391 23.3611 9.24389 23.7951C10.4658 24.6991 11.7542 25.5065 13.0986 26.2119C13.7079 26.5266 14.3011 26.8413 14.9094 27.1126C15.2468 27.2678 15.6326 27.2786 15.9786 27.143C16.2656 27.0301 16.5536 26.9118 16.8437 26.7892C17.1597 26.6557 17.3316 26.3085 17.2478 25.9731C17.2371 25.9308 17.2295 25.8972 17.2242 25.8766C16.7234 23.6703 16.4622 21.4153 16.445 19.1515V18.4635V18.0132C16.445 17.6019 16.4665 17.1928 16.4891 16.788C16.6449 13.8926 17.1231 11.172 17.8915 8.88443C17.9624 8.67282 17.8517 8.44275 17.6422 8.37004C17.4369 8.30059 17.2328 8.23331 17.0296 8.1682C16.8233 8.10309 16.603 8.21486 16.5332 8.42213C15.696 10.9062 15.1791 13.8558 15.0405 16.9768C15.0233 17.3718 14.8105 17.7321 14.4731 17.9339C12.744 18.9606 11.0869 20.1054 9.51362 21.3621C9.21058 21.6052 8.77965 21.5965 8.48735 21.3404C7.10429 20.151 5.89209 18.7739 4.88516 17.247C3.06687 14.4255 2.63379 11.7678 3.66867 9.76453L3.67619 9.75042C3.80837 9.52796 3.94592 9.31092 4.08777 9.09496C5.27633 7.50622 7.48793 6.58488 10.4195 6.48179C10.6044 6.47528 10.7914 6.47202 10.9805 6.47202C12.9095 6.49373 14.8256 6.78673 16.6739 7.34453L16.8029 7.38359L16.9028 7.41181C17.3563 7.54963 17.8109 7.70047 18.2666 7.86543L18.2988 7.87628L18.6545 8.00976L18.7663 8.05208L18.8737 8.09332C19.8516 8.47531 20.807 8.91156 21.7376 9.3999C23.5076 10.3234 25.1722 11.4379 26.7035 12.725C23.9192 13.3685 20.6845 14.6143 17.4305 16.2899C17.28 16.3669 17.1812 16.5188 17.1736 16.6903C17.1608 16.8932 17.1468 17.3024 17.136 17.6355C17.1307 17.782 17.2446 17.9057 17.3907 17.9101C17.4369 17.9112 17.4821 17.9014 17.5229 17.8797C20.7436 16.1694 23.9589 14.8878 26.7154 14.2171C27.2312 14.0902 27.5676 13.5899 27.4945 13.0581C27.444 12.687 27.3859 12.3191 27.3236 11.9556C27.2441 11.5052 27.0001 11.1015 26.6401 10.8248C25.3044 9.80034 23.8848 8.8942 22.3964 8.11502C21.3852 7.58327 20.3449 7.11012 19.2799 6.69775C19.0779 6.6207 18.9758 6.3928 19.0521 6.18878C19.0596 6.17034 19.0672 6.15189 19.0768 6.13452C20.1536 4.18658 21.4346 3.09704 22.6822 3.09704H22.7209C24.1932 3.12417 25.6611 4.67167 26.7465 7.34778C27.3365 8.83234 27.7653 10.3766 28.0275 11.9545C28.1522 12.6783 28.2521 13.4271 28.3262 14.1932L28.3058 14.2063L28.3327 14.2334C28.4595 15.5617 28.5122 16.8965 28.4885 18.2313C28.4735 19.0973 28.4273 19.9503 28.3542 20.7869C26.1437 22.5558 23.7719 24.1098 21.2734 25.4284C20.3943 25.9004 19.5142 26.3367 18.6448 26.7415L18.604 26.7599L18.403 26.8511C17.682 27.1821 16.9695 27.4859 16.2656 27.7648L16.1474 27.8104L15.9915 27.869L15.6391 28.0046L15.5423 28.0405L15.1168 28.1978L15.0652 28.2184C13.6811 28.7285 12.2604 29.1322 10.8161 29.4241C7.65128 30.0361 6.1715 29.5641 5.82439 28.9184H5.82009ZM10.1745 22.685C11.7059 21.4402 13.3243 20.3073 15.0158 19.2948C15.0426 21.5064 15.2898 23.7094 15.753 25.8711C15.0856 25.5825 14.4215 25.2678 13.7606 24.9259C12.5119 24.2705 11.3136 23.5206 10.1756 22.6839L10.1745 22.685ZM19.367 33.9364C18.6867 34.0254 18.0022 34.0688 17.3166 34.0688C14.2753 34.0774 11.2954 33.1973 8.73774 31.5337C8.63887 31.4697 8.60985 31.3351 8.67433 31.2353C8.71194 31.1767 8.77535 31.1398 8.84413 31.1365H8.96448C9.67375 31.0855 10.3798 30.989 11.0772 30.8479C12.8977 30.4735 14.6837 29.9406 16.4139 29.2559C16.5837 29.1919 16.7739 29.2765 16.8427 29.4469C17.5777 31.2548 18.4815 32.62 19.4916 33.4882C19.598 33.5815 19.6088 33.7432 19.5164 33.8506C19.4777 33.8962 19.4239 33.9266 19.3648 33.9353H19.3681L19.367 33.9364ZM26.0856 29.6498C24.9497 31.9049 23.5538 33.1702 22.1997 33.1453C20.7275 33.1181 19.2595 31.5706 18.172 28.8945C18.1032 28.7241 18.1827 28.5299 18.3493 28.4572L18.3837 28.4431C18.4546 28.4116 18.5352 28.4062 18.6094 28.4268C20.534 28.9889 22.5264 29.2841 24.5295 29.3036C24.7337 29.3036 24.9358 29.3036 25.1356 29.2928C25.371 29.2852 25.6031 29.2722 25.8309 29.2537C25.9803 29.2494 26.106 29.3677 26.1103 29.5185C26.1114 29.5641 26.1017 29.6097 26.0813 29.6498H26.0845H26.0856ZM26.5778 27.7095C26.0824 27.7822 25.5838 27.8267 25.0841 27.8429C23.7418 27.8809 22.4007 27.7724 21.081 27.5206C20.9832 27.5022 20.9198 27.4078 20.9381 27.309C20.9489 27.2537 20.9843 27.2059 21.0348 27.1799C21.3357 27.0225 21.6377 26.8652 21.9386 26.7078C23.96 25.6313 25.904 24.4148 27.7578 23.0659C27.8384 23.0073 27.9501 23.0246 28.0082 23.106C28.0361 23.1451 28.0479 23.1939 28.0404 23.2428C27.8179 24.6242 27.4848 25.984 27.0464 27.3112C26.9765 27.5217 26.796 27.6758 26.5789 27.7095H26.5778ZM28.9151 28.9835C28.7948 29.1126 28.6734 29.2396 28.5487 29.3666C28.3316 29.5858 28.1102 29.7963 27.8835 29.996C27.8115 30.0622 27.6997 30.0568 27.6353 29.983C27.588 29.9298 27.5761 29.8527 27.6062 29.7876L27.675 29.6303C27.7707 29.4208 27.862 29.2027 27.9512 28.9781C27.9727 28.926 28.0178 28.8869 28.0716 28.8728C28.2972 28.8164 28.5175 28.7513 28.7303 28.6818C28.8174 28.6373 28.9227 28.6731 28.9667 28.761C29.0043 28.8381 28.9828 28.9303 28.9162 28.9824L28.9151 28.9835ZM32.109 23.8895C32.0327 24.086 31.9532 24.2802 31.8672 24.4734C31.8543 24.5005 31.8425 24.5266 31.8285 24.5537C31.3051 25.5727 30.4261 26.3757 29.2515 26.9346C29.0806 27.0128 28.8797 26.9357 28.8023 26.7632C28.7701 26.6905 28.7636 26.6091 28.784 26.532C29.1892 25.0409 29.4826 23.5217 29.6599 21.9861C29.6964 21.6866 29.8415 21.412 30.0682 21.2167C30.5507 20.7935 31.0032 20.3713 31.418 19.9568C31.5663 19.8059 31.8081 19.8048 31.9574 19.9546C32.0015 19.9991 32.0348 20.0544 32.0531 20.1141C32.4625 21.4869 32.4862 22.7707 32.1111 23.8895H32.11H32.109ZM32.4206 16.3669C32.3325 16.5243 32.1358 16.5807 31.9789 16.4917C31.9327 16.4657 31.894 16.4288 31.8661 16.3843L31.8048 16.2877C31.3137 15.5291 30.77 14.8075 30.1768 14.1271C30.0811 14.0153 30.094 13.846 30.2047 13.7494C30.252 13.7082 30.3133 13.6843 30.3767 13.6843C31.8006 13.6843 32.5474 14.0402 32.7742 14.4711C32.9762 14.8368 32.9193 15.4705 32.4281 16.3626L32.4206 16.3658V16.3669ZM33.189 18.4896C33.1879 18.5449 33.1417 18.5894 33.0869 18.5872C33.0482 18.5872 33.0127 18.5623 32.9977 18.5254C32.9805 18.4831 32.9622 18.4386 32.9429 18.3962C32.9085 18.317 32.9182 18.2248 32.9698 18.1553L33.0278 18.0783C33.0976 17.9871 33.1976 18.0012 33.1976 18.1022C33.2051 18.2356 33.2019 18.3528 33.1976 18.4896H33.1901H33.189ZM83.6132 14.6914H89.5871C90.0814 14.6903 90.4812 14.2833 90.4801 13.783C90.4801 13.7472 90.478 13.7125 90.4737 13.6778C90.4081 13.222 90.0191 12.8856 89.5634 12.891H82.1452C81.653 12.8932 81.2543 13.2958 81.2522 13.7928V22.8195C81.2543 23.3166 81.653 23.7203 82.1452 23.7213H89.5946C90.0889 23.7192 90.4887 23.3133 90.4876 22.813C90.4876 22.7783 90.4855 22.7436 90.4812 22.7088C90.4156 22.2531 90.0266 21.9166 89.571 21.9221H83.6207C83.2994 21.9221 83.0393 21.6595 83.0393 21.335V19.7994C83.0393 19.4749 83.2994 19.2123 83.6207 19.2123H88.1052C88.5995 19.2101 88.9993 18.8043 88.9982 18.304C88.9982 18.2693 88.996 18.2345 88.9917 18.1998C88.9262 17.744 88.5372 17.4076 88.0815 17.413H83.6207C83.2994 17.413 83.0393 17.1504 83.0393 16.826V15.2904C83.0329 14.9659 83.2886 14.6979 83.61 14.6924C83.6132 14.6924 83.6175 14.6924 83.6207 14.6924H83.6132V14.6914ZM101.871 18.1998C101.051 17.6724 99.9488 17.4011 98.5635 17.4011C96.7313 17.4011 95.8071 16.9497 95.8071 16.0457C95.8071 15.1417 96.7313 14.6914 98.5635 14.6914C99.5619 14.6892 100.551 14.8824 101.476 15.2611C102.013 15.426 102.386 15.2307 102.593 14.7033C102.773 14.2312 102.534 13.7852 102.043 13.5606C100.945 13.0939 99.7628 12.8639 98.5721 12.8834C97.217 12.8834 96.1295 13.1688 95.2805 13.7255C94.4864 14.2182 94.0114 15.1016 94.0339 16.0435C94.0339 17.0831 94.452 17.8808 95.2709 18.4049C96.0908 18.9291 97.1923 19.2036 98.5775 19.2036C100.41 19.2036 101.334 19.6551 101.334 20.5591C101.334 21.463 100.41 21.9134 98.5775 21.9134H98.1305C97.1407 21.8982 96.1617 21.705 95.2408 21.3415C94.7905 21.1711 94.2886 21.4012 94.1188 21.8559C94.1156 21.8646 94.1124 21.8743 94.1092 21.883C93.9426 22.3616 94.1887 22.8857 94.6605 23.0572C95.7609 23.5108 96.9419 23.7365 98.1305 23.7181H98.5775C99.9326 23.7181 101.02 23.4327 101.85 22.876C102.655 22.3909 103.138 21.5054 103.117 20.558C103.117 19.5216 102.699 18.724 101.881 18.1977H101.873L101.871 18.1998ZM119.754 12.8856C119.261 12.8856 118.861 13.2893 118.86 13.7874V22.8185C118.881 23.3176 119.298 23.704 119.791 23.6834C120.255 23.6638 120.628 23.2873 120.647 22.8185V13.7874C120.645 13.2925 120.252 12.891 119.762 12.8856H119.754ZM115.031 12.8856H106.126C105.631 12.8856 105.232 13.2914 105.233 13.7906C105.233 13.8265 105.235 13.8623 105.239 13.8981C105.304 14.3539 105.693 14.6914 106.149 14.6848H109.119C109.44 14.6848 109.701 14.9486 109.701 15.2741V22.8195C109.703 23.3198 110.105 23.7235 110.6 23.7213C110.634 23.7213 110.668 23.7192 110.703 23.7148C111.154 23.6486 111.487 23.2547 111.482 22.7935V15.2795C111.482 14.9551 111.741 14.6914 112.061 14.6903C112.061 14.6903 112.063 14.6903 112.064 14.6903H115.056C115.551 14.6881 115.952 14.2812 115.95 13.7798C115.95 13.7451 115.948 13.7103 115.944 13.6756C115.88 13.2198 115.493 12.8812 115.039 12.8834H115.031V12.8856ZM77.4308 21.9166H71.4837C71.1613 21.9166 70.9002 21.6529 70.8991 21.3274V13.8102C70.9034 13.35 70.5714 12.9572 70.12 12.891C69.6289 12.8313 69.1829 13.1851 69.1227 13.681C69.1184 13.7158 69.1163 13.7516 69.1163 13.7863V22.8174C69.1184 23.3155 69.5171 23.7192 70.0104 23.7192H77.4576C77.952 23.7192 78.3517 23.3133 78.3507 22.8141C78.3507 22.7783 78.3485 22.7425 78.3442 22.7067C78.2819 22.2465 77.8886 21.9069 77.4297 21.9145L77.4308 21.9166ZM48.3059 14.6914C49.2559 14.674 50.1693 15.0625 50.8217 15.7603C51.1827 16.1108 51.7566 16.0989 52.1037 15.7342C52.2627 15.5671 52.353 15.3457 52.3562 15.1135C52.3455 14.8281 52.209 14.5633 51.9833 14.3908C49.8373 12.3397 46.4522 12.4341 44.4222 14.6035C42.3922 16.7717 42.4868 20.1933 44.6328 22.2444C46.7359 24.2542 50.0404 24.2097 52.0887 22.1424C52.4239 21.7745 52.4003 21.2015 52.036 20.8629C51.6932 20.5439 51.1645 20.5439 50.8217 20.8629C50.164 21.5509 49.2527 21.9329 48.3059 21.9166C46.3404 21.9264 44.7392 20.3236 44.7306 18.3376C44.7306 18.3257 44.7306 18.3149 44.7306 18.3029C44.7145 17.3458 45.0917 16.4255 45.773 15.7603C46.4361 15.0668 47.3527 14.6805 48.3059 14.6914ZM58.5891 14.6914H64.5609C65.0563 14.6892 65.4572 14.2822 65.455 13.7809C65.455 13.7461 65.4529 13.7114 65.4486 13.6767C65.383 13.2209 64.9929 12.8834 64.5373 12.8899H57.1051C56.6129 12.8921 56.2131 13.2947 56.211 13.7917V22.8185C56.2131 23.3166 56.6129 23.7192 57.1051 23.7203H64.5523C65.0466 23.7203 65.4475 23.3133 65.4464 22.813C65.4464 22.7772 65.4443 22.7425 65.44 22.7078C65.3744 22.252 64.9843 21.9145 64.5287 21.921H58.5805C58.2592 21.921 57.9992 21.6584 57.9992 21.3339V19.7951C57.9992 19.4706 58.2581 19.2069 58.5784 19.2058H63.0629C63.5572 19.2058 63.958 18.7989 63.957 18.2986C63.957 18.2628 63.9548 18.228 63.9505 18.1933C63.885 17.7375 63.4949 17.4 63.0392 17.4065H58.5805C58.2592 17.4065 57.9992 17.1439 57.9992 16.8194V15.286C57.9949 14.9616 58.2517 14.6957 58.5719 14.6914C58.5741 14.6914 58.5773 14.6914 58.5795 14.6914H58.587H58.5891Z" fill="black"/>
<path d="M144.61 10.2864H143.986V25.3978H144.61V10.2864Z" fill="black"/>
<path d="M152.758 23.821V12.8811H162.681V14.5219H154.397V17.5149H161.057V19.1861H154.397V22.1791H162.681V23.82H152.758V23.821Z" fill="black"/>
<path d="M163.898 23.821V12.8811H172.755C173.116 12.8811 173.447 12.9701 173.746 13.147C174.047 13.3239 174.285 13.5626 174.461 13.861C174.636 14.1595 174.724 14.4915 174.724 14.8562V21.846C174.724 22.2106 174.636 22.5427 174.461 22.8411C174.286 23.1395 174.047 23.3783 173.746 23.5552C173.446 23.7321 173.115 23.821 172.755 23.821H163.898ZM165.883 22.1802H172.709C172.82 22.1802 172.91 22.1422 172.98 22.0663C173.05 21.9903 173.086 21.9013 173.086 21.8004V14.9018C173.086 14.8008 173.05 14.7118 172.98 14.6359C172.91 14.5599 172.82 14.5219 172.709 14.5219H165.883C165.783 14.5219 165.697 14.5599 165.628 14.6359C165.558 14.7118 165.522 14.8008 165.522 14.9018V21.8004C165.522 21.9013 165.558 21.9903 165.628 22.0663C165.697 22.1422 165.783 22.1802 165.883 22.1802Z" fill="black"/>
<path d="M176.062 23.821V12.8811H185.986V14.5219H177.701V17.5149H184.362V19.1861H177.701V22.1791H185.986V23.82H176.062V23.821Z" fill="black"/>
<path d="M187.172 23.821V12.8811H189.112L196.359 21.6029V12.8811H197.998V23.821H196.058L188.796 15.0841V23.821H187.172Z" fill="black"/>
</g>
<defs>
<clipPath id="clip0_1515_195">
<rect width="198" height="35" fill="white" transform="translate(0 0.5)"/>
</clipPath>
</defs>
</svg>
