<svg preserveAspectRatio="xMidYMid meet" width="760" height="215" overflow="visible" viewBox="0 0 759.537 214.871" fill="none" xmlns="http://www.w3.org/2000/svg">
<g id="BULLET">
<path id="Vector" fill-rule="evenodd" clip-rule="evenodd" d="M91.6425 211.196C97.5001 213.665 103.548 214.871 109.502 214.871H109.482C121.312 214.871 132.76 210.107 141.652 201.045L197.27 144.362C210.664 130.731 214.462 111.208 207.23 93.3962C199.999 75.5841 183.743 64.5196 164.834 64.5196H94.9622V0H63.3082V64.5196H0V96.7796H63.3082V167.988C63.3082 187.259 74.165 203.825 91.6425 211.196ZM94.9622 167.988V96.7796H164.834C173.65 96.7796 177.122 103.644 177.98 105.744C178.839 107.844 181.128 115.194 174.889 121.553L119.27 178.236C113.032 184.594 105.819 182.261 103.758 181.386C101.698 180.53 94.9622 176.991 94.9622 167.988ZM384.283 125.731C384.283 139.27 380.148 150.349 371.877 158.965C363.608 167.469 352.867 171.721 339.658 171.721C332.422 171.721 325.875 170.322 320.017 167.525C314.159 164.615 309.852 160.643 307.095 155.608H306.578C306.807 158.517 306.922 161.427 306.922 164.336V169.036H289.693V43.1504H308.301V86.1189C308.301 89.9237 308.128 92.7769 307.784 94.6793H308.301C310.943 90.2038 315.078 86.6223 320.706 83.9372C326.334 81.1401 332.48 79.7411 339.141 79.7411C352.465 79.7411 363.32 84.0493 371.706 92.6648C380.09 101.281 384.283 112.303 384.283 125.731ZM315.709 147.047C321.108 152.642 328 155.44 336.385 155.44C344.77 155.44 351.719 152.642 357.233 147.047C362.746 141.341 365.503 134.18 365.503 125.563C365.503 116.835 362.746 109.673 357.233 104.079C351.719 98.484 344.77 95.6861 336.385 95.6861C328 95.6861 321.108 98.484 315.709 104.079C310.311 109.673 307.611 116.835 307.611 125.563C307.611 134.292 310.311 141.453 315.709 147.047ZM502.369 169.036V43.1504H520.977V153.09H543.203V169.036H502.369ZM565.49 162.153C571.233 167.525 579.389 170.21 589.956 170.21C593.402 170.21 596.331 169.819 598.743 169.036V153.09C596.216 153.538 594.321 153.761 593.057 153.761C587.544 153.761 583.236 152.363 580.135 149.565C577.034 146.656 575.483 142.404 575.483 136.809V43.1504H556.876V138.823C556.876 148.894 559.747 156.67 565.49 162.153ZM716.808 169.035V98.2039H707.331V82.4262H716.808V59.9346H735.416V82.4262H759.537V98.2039H735.416V153.09H756.952V169.035H716.808ZM688.928 154.601C680.084 166.014 667.966 171.721 652.574 171.721C638.791 171.721 627.419 167.357 618.459 158.629C609.615 149.9 605.193 138.935 605.193 125.731C605.193 112.415 609.615 101.449 618.459 92.8329C627.305 84.1053 638.561 79.7411 652.23 79.7411C665.094 79.7411 675.604 84.1053 683.76 92.8329C691.915 101.449 695.992 112.415 695.992 125.731C695.992 128.416 695.82 130.598 695.476 132.277H624.662C625.926 139.439 629.027 145.089 633.966 149.23C638.906 153.37 645.165 155.44 652.747 155.44C663.314 155.44 671.756 151.523 678.074 143.691L688.928 154.601ZM651.885 95.6861C644.649 95.6861 638.619 97.8125 633.794 102.065C628.969 106.317 625.926 112.023 624.662 119.185H677.557C676.868 112.247 674.168 106.596 669.459 102.232C664.864 97.8686 659.006 95.6861 651.885 95.6861ZM403.602 169.036H476.827V82.427H458.219V153.09H422.209V82.427H403.602V169.036Z" fill="var(--fill-0, white)"/>
</g>
</svg>
