<svg width="195" height="55" viewBox="0 0 195 55" fill="none" xmlns="http://www.w3.org/2000/svg">
<path fill-rule="evenodd" clip-rule="evenodd" d="M23.4595 54.0641C24.959 54.696 26.5072 55.0048 28.0313 55.0048H28.0264C31.0546 55.0048 33.9853 53.7853 36.2613 51.4655L50.4992 36.9552C53.9279 33.4657 54.9001 28.4681 53.0488 23.9084C51.1976 19.3487 47.0363 16.5163 42.1959 16.5163H24.3093V0H16.2062V16.5163H0V24.7746H16.2062V43.0032C16.2062 47.9363 18.9855 52.1772 23.4595 54.0641ZM24.3093 43.0032V24.7746H42.1959C44.4525 24.7746 45.3414 26.5318 45.5611 27.0693C45.7809 27.6069 46.367 29.4885 44.7699 31.1162L30.532 45.6265C28.9349 47.2543 27.0886 46.6569 26.561 46.4329C26.0335 46.2139 24.3093 45.3079 24.3093 43.0032ZM98.3725 32.1859C98.3725 35.6518 97.3139 38.4877 95.1968 40.6934C93.0798 42.8704 90.3304 43.9589 86.949 43.9589C85.0966 43.9589 83.4205 43.6008 81.921 42.8845C80.4214 42.1398 79.3188 41.123 78.6131 39.8339H78.4807C78.5395 40.5786 78.5689 41.3236 78.5689 42.0683V43.2713H74.1584V11.0461H78.9219V22.0455C78.9219 23.0195 78.8777 23.7499 78.7895 24.2369H78.9219C79.5981 23.0912 80.6566 22.1744 82.0974 21.4871C83.5382 20.771 85.1113 20.4129 86.8166 20.4129C90.2275 20.4129 93.0061 21.5157 95.1528 23.7212C97.2992 25.9269 98.3725 28.7485 98.3725 32.1859ZM80.8183 37.6426C82.2003 39.0749 83.9646 39.7909 86.111 39.7909C88.2574 39.7909 90.0364 39.0749 91.4479 37.6426C92.8592 36.1818 93.5649 34.3486 93.5649 32.1429C93.5649 29.9085 92.8592 28.0753 91.4479 26.6432C90.0364 25.2109 88.2574 24.4946 86.111 24.4946C83.9646 24.4946 82.2003 25.2109 80.8183 26.6432C79.4364 28.0753 78.7453 29.9085 78.7453 32.1429C78.7453 34.3772 79.4364 36.2105 80.8183 37.6426ZM128.601 43.2713V11.0461H133.365V39.1894H139.054V43.2713H128.601ZM144.759 41.5096C146.23 42.8845 148.317 43.5721 151.023 43.5721C151.905 43.5721 152.654 43.4719 153.272 43.2713V39.1894C152.625 39.3041 152.14 39.3613 151.816 39.3613C150.405 39.3613 149.302 39.0033 148.509 38.2871C147.715 37.5424 147.318 36.4539 147.318 35.0216V11.0461H142.554V35.5373C142.554 38.1152 143.289 40.106 144.759 41.5096ZM183.495 43.2711V25.1392H181.07V21.1003H183.495V15.3426H188.259V21.1003H194.434V25.1392H188.259V39.1894H193.772V43.2711H183.495ZM176.359 39.5762C174.094 42.4979 170.992 43.9587 167.052 43.9587C163.524 43.9587 160.613 42.8417 158.319 40.6073C156.055 38.3729 154.923 35.5659 154.923 32.1859C154.923 28.7772 156.055 25.9699 158.319 23.7643C160.583 21.5301 163.465 20.4129 166.964 20.4129C170.257 20.4129 172.948 21.5301 175.035 23.7643C177.123 25.9699 178.167 28.7772 178.167 32.1859C178.167 32.8733 178.123 33.4317 178.035 33.8616H159.907C160.231 35.6948 161.024 37.1412 162.289 38.2013C163.553 39.2611 165.156 39.7909 167.096 39.7909C169.801 39.7909 171.963 38.7884 173.58 36.7833L176.359 39.5762ZM166.876 24.4946C165.023 24.4946 163.48 25.039 162.245 26.1275C161.01 27.216 160.231 28.6768 159.907 30.51H173.448C173.271 28.7341 172.58 27.2875 171.375 26.1703C170.198 25.0533 168.699 24.4946 166.876 24.4946ZM103.318 43.2713H122.063V21.1004H117.299V39.1894H108.081V21.1004H103.318V43.2713Z" fill="white"/>
</svg>
