<svg width="316" height="51" viewBox="0 0 316 51" fill="none" xmlns="http://www.w3.org/2000/svg">
<g clip-path="url(#clip0_510_10243)">
<mask id="mask0_510_10243" style="mask-type:luminance" maskUnits="userSpaceOnUse" x="0" y="0" width="316" height="51">
<path d="M315.123 0H0V50.2334H315.123V0Z" fill="white"/>
</mask>
<g mask="url(#mask0_510_10243)">
<path d="M56.047 21.039C56.0981 25.7239 55.1351 30.2006 53.2435 34.4778C50.5421 40.5683 44.0658 45.5484 38.1518 40.2473C33.3287 35.9267 32.4339 27.1554 25.2078 25.8714C15.6467 24.6915 15.4166 35.9787 9.17037 37.2541C2.20833 38.6944 -0.10098 26.7736 0.00127784 21.3599C0.103535 15.9462 1.5181 8.33739 7.56834 8.33739C14.5304 8.33739 14.999 19.0694 23.8359 18.4882C32.5874 17.8809 32.7407 6.71499 38.4586 1.93459C43.3925 -2.19514 49.1957 0.832745 52.1014 5.80403C54.7943 10.4023 55.9788 15.7986 56.0384 21.039H56.047Z" fill="white"/>
<path d="M82.2969 39.2501V3.01953H85.6713V18.6881H106.481V3.01953H109.804V39.2501H106.481V21.6033H85.6713V39.2501H82.2969Z" fill="white"/>
<path d="M118.618 50.2323L123.22 38.5718L113.25 14.21H116.727L123.271 30.7116C123.646 31.7178 124.175 33.0541 124.856 34.7198C124.959 34.4769 125.061 34.2078 125.163 33.9129C125.265 33.6179 125.368 33.349 125.47 33.1061C125.674 32.6549 125.853 32.2299 126.007 31.8307C126.16 31.4317 126.305 31.0411 126.441 30.6595L132.577 14.21H135.9L121.942 50.2323H118.618Z" fill="white"/>
<path d="M139.268 50.2344V14.2122H142.437V18.793C143.256 17.2314 144.44 15.956 145.991 14.967C147.542 13.9779 149.272 13.4834 151.181 13.4834C153.464 13.4834 155.45 14.0473 157.137 15.1752C158.824 16.3031 160.12 17.8647 161.023 19.8601C161.926 21.8556 162.378 24.1201 162.378 26.6534C162.378 29.1868 161.909 31.5119 160.972 33.5247C160.034 35.5376 158.713 37.1165 157.009 38.2617C155.305 39.407 153.362 39.9795 151.181 39.9795C149.34 39.9795 147.644 39.5284 146.093 38.626C144.542 37.7238 143.324 36.405 142.437 34.67V50.2344H139.268ZM150.72 37.3768C152.391 37.3768 153.865 36.9256 155.143 36.0234C156.421 35.121 157.401 33.863 158.083 32.2493C158.765 30.6357 159.106 28.7702 159.106 26.6534C159.106 24.5365 158.756 22.7839 158.057 21.1875C157.359 19.5912 156.379 18.3506 155.117 17.4656C153.856 16.5807 152.391 16.1382 150.72 16.1382C149.05 16.1382 147.627 16.572 146.349 17.4396C145.071 18.3072 144.074 19.5391 143.358 21.1355C142.642 22.7318 142.284 24.5711 142.284 26.6534C142.284 28.7356 142.642 30.6357 143.358 32.2493C144.074 33.863 145.062 35.121 146.323 36.0234C147.584 36.9256 149.05 37.3768 150.72 37.3768Z" fill="white"/>
<path d="M177.519 39.9795C175.201 39.9795 173.164 39.459 171.409 38.4179C169.653 37.3768 168.29 35.8497 167.319 33.837C166.347 31.8243 165.861 29.4123 165.861 26.6014C165.861 24.1027 166.364 21.8556 167.37 19.8601C168.375 17.8647 169.747 16.3031 171.485 15.1752C173.224 14.0473 175.167 13.4834 177.314 13.4834C179.631 13.4834 181.608 14.0213 183.245 15.0971C184.881 16.1729 186.125 17.6912 186.978 19.652C187.831 21.6127 188.255 23.8944 188.255 26.4972V27.1739H169.031C169.031 29.3255 169.389 31.1649 170.105 32.6919C170.821 34.2188 171.826 35.3813 173.122 36.1795C174.417 36.9777 175.9 37.3768 177.57 37.3768C179.547 37.3768 181.191 36.8996 182.504 35.9452C183.816 34.9909 184.625 33.5595 184.932 31.6508H188.102C187.864 33.2471 187.311 34.67 186.44 35.9192C185.571 37.1686 184.379 38.1576 182.861 38.8864C181.344 39.6151 179.564 39.9795 177.519 39.9795ZM184.881 24.7274C184.847 22.1245 184.165 20.0424 182.837 18.4807C181.506 16.919 179.667 16.1382 177.314 16.1382C174.962 16.1382 173.147 16.9451 171.665 18.5589C170.182 20.1724 169.338 22.2286 169.134 24.7274H184.881Z" fill="white"/>
<path d="M193.15 39.2507V14.2122H196.32V19.2094C197.002 17.5437 198.067 16.1729 199.515 15.0971C200.964 14.0213 202.661 13.4834 204.602 13.4834C205.08 13.4834 205.54 13.5181 205.984 13.5875V16.7108C205.404 16.6414 204.893 16.6067 204.449 16.6067C202.814 16.6067 201.381 16.9798 200.155 17.7259C198.928 18.472 197.982 19.5391 197.318 20.9274C196.652 22.3154 196.32 23.9292 196.32 25.7684V39.2507H193.15Z" fill="white"/>
<path d="M213.856 38.5541L213.712 39.2568H203.682L203.826 38.5541C206.596 38.2503 207.729 37.4436 208.173 35.3354L213.805 8.30989C214.402 5.54228 213.558 5.09115 210.695 5.68979L210.839 4.98704L216.966 2.87012H217.657L210.882 35.3266C210.439 37.4436 211.181 38.2417 213.847 38.5453L213.856 38.5541Z" fill="white"/>
<path d="M225.161 38.5547L225.015 39.2574H214.986L215.131 38.5547C217.899 38.251 219.034 37.4442 219.476 35.3358L222.884 18.8777C223.481 16.058 222.689 15.6589 219.774 16.2576L219.92 15.5548L226.047 13.4379H226.736L222.186 35.3272C221.742 37.4442 222.484 38.2424 225.152 38.5459L225.161 38.5547ZM226.838 4.33691C228.178 4.33691 229.064 5.39537 228.918 6.74882C228.722 8.11093 227.538 9.11732 226.252 9.11732C224.87 9.11732 223.924 8.11093 224.128 6.74882C224.274 5.3867 225.467 4.33691 226.847 4.33691H226.838Z" fill="white"/>
<path d="M242.427 46.5119L245.179 33.5675C243.449 37.3935 239.845 40.0049 236.035 40.0049C229.909 40.0049 227.036 34.1139 228.869 25.308C230.155 18.9139 235.789 13.4307 242.46 13.4307C245.528 13.4307 248.042 14.8362 249.082 16.901L251.408 13.4307H252.099L245.146 46.4945C244.65 48.759 246.432 49.21 248.213 49.5137L248.067 50.2164H236.555L236.7 49.5137C240.014 49.21 241.94 48.759 242.435 46.4945L242.427 46.5119ZM237.672 38.1482C240.834 38.1482 243.995 35.3807 245.477 32.0578L247.556 22.1414C248.102 18.5669 246.423 14.8448 241.625 14.8448C236.828 14.8448 233.079 19.0699 231.843 25.2558C230.257 32.856 232.481 38.1396 237.672 38.1396V38.1482Z" fill="white"/>
<path d="M286.393 38.5547L286.247 39.2574H276.217L276.363 38.5547C279.131 38.251 280.266 37.4442 280.708 35.3358L284.116 18.8777C284.714 16.058 283.921 15.6589 281.006 16.2576L281.151 15.5548L287.279 13.4379H287.968L283.419 35.3272C282.975 37.4442 283.716 38.2424 286.384 38.5459L286.393 38.5547ZM288.071 4.33691C289.408 4.33691 290.294 5.39537 290.15 6.74882C289.954 8.11093 288.77 9.11732 287.484 9.11732C286.102 9.11732 285.156 8.11093 285.36 6.74882C285.507 5.3867 286.7 4.33691 288.079 4.33691H288.071Z" fill="white"/>
<path d="M272.162 35.2748L274.437 24.2217L276.678 13.4463H275.988L269.861 15.5632L269.716 16.2659C272.58 15.6586 273.422 16.0664 272.826 18.886L269.912 32.9237C266.699 35.995 264.425 37.8082 261.655 37.8082C258.247 37.8082 256.465 35.4397 257.309 31.3706L261.066 13.455H260.377L254.197 15.5719L254.053 16.2746C256.967 15.6673 257.76 16.0751 257.214 18.8948L254.548 31.7784C253.508 36.5588 255.885 40.0293 260.282 40.0293C263.196 40.0293 265.762 38.3721 269.707 34.0603L269.519 34.9711V35.0145H269.512L268.625 39.2831H274.99L275.135 38.5196C272.469 38.216 271.727 37.409 272.169 35.3009L272.162 35.2748Z" fill="white"/>
<path d="M313.119 12.5004L315.114 2.87012H314.423L308.296 4.98704L308.151 5.68979C311.015 5.08247 311.857 5.54228 311.262 8.30989L309.531 16.5086C308.44 14.6433 306.072 13.4374 303.302 13.4374C296.578 13.4374 290.997 18.8685 289.566 25.7657C287.836 34.1206 290.657 40.0029 296.835 40.0029C300.685 40.0029 304.351 37.3395 306.03 33.5133L305.586 35.7084L304.844 39.2482L311.21 39.196L311.355 38.4933C308.687 38.1897 307.947 37.3827 308.389 35.2746L313.11 12.5004H313.119ZM306.319 32.0038C304.837 35.3786 301.674 38.1463 298.462 38.1463C293.272 38.1463 291.048 32.8626 292.53 25.7137C293.912 19.068 297.866 14.8429 302.467 14.8429C307.376 14.8429 309.011 18.8077 308.365 22.417L308.134 23.5101L306.328 32.0038H306.319Z" fill="white"/>
</g>
</g>
<defs>
<clipPath id="clip0_510_10243">
<rect width="315.419" height="50.2334" fill="white"/>
</clipPath>
</defs>
</svg>
