<svg width="285" height="43" viewBox="0 0 285 43" fill="none" xmlns="http://www.w3.org/2000/svg">
<mask id="mask0_510_10273" style="mask-type:luminance" maskUnits="userSpaceOnUse" x="0" y="0" width="285" height="43">
<path d="M284.991 0H0V42.3516H284.991V0Z" fill="white"/>
</mask>
<g mask="url(#mask0_510_10273)">
<path d="M47.8783 33.3917L40.0609 41.7738C39.8918 41.9559 39.687 42.1012 39.4593 42.2006C39.2316 42.3 38.9858 42.3515 38.7374 42.3517H1.67977C1.50302 42.3516 1.33014 42.3 1.18229 42.2032C1.03444 42.1063 0.918047 41.9685 0.84735 41.8065C0.776654 41.6445 0.754728 41.4654 0.78426 41.2911C0.813791 41.1169 0.893491 40.955 1.01361 40.8253L8.82218 32.4432C8.99128 32.2612 9.19602 32.1159 9.42375 32.0165C9.65143 31.9171 9.8972 31.8656 10.1457 31.8653H47.2033C47.3815 31.8616 47.5571 31.9108 47.7075 32.0066C47.858 32.1024 47.9771 32.2406 48.049 32.4037C48.1213 32.5669 48.1434 32.7478 48.113 32.9236C48.0825 33.0994 48.0009 33.2623 47.8783 33.3917ZM40.0609 16.5085C39.8912 16.3272 39.6862 16.1825 39.4587 16.0831C39.2311 15.9838 38.9857 15.9319 38.7374 15.9306H1.67977C1.50302 15.9307 1.33014 15.9823 1.18229 16.0792C1.03444 16.176 0.918047 16.3139 0.84735 16.4759C0.776654 16.6379 0.754728 16.8169 0.78426 16.9912C0.813791 17.1654 0.893491 17.3273 1.01361 17.457L8.82218 25.8435C8.9919 26.0247 9.19682 26.1694 9.42437 26.2688C9.65192 26.3682 9.89738 26.4201 10.1457 26.4214H47.2033C47.3797 26.4204 47.5518 26.3682 47.6992 26.271C47.8465 26.1738 47.9621 26.0359 48.0322 25.8741C48.1024 25.7123 48.124 25.5335 48.094 25.3597C48.0644 25.1858 47.985 25.0243 47.865 24.895L40.0609 16.5085ZM1.67977 10.4866H38.7374C38.9858 10.4864 39.2316 10.4349 39.4593 10.3355C39.687 10.2361 39.8918 10.0907 40.0609 9.90867L47.8783 1.52661C48.0009 1.39714 48.0825 1.23426 48.113 1.05846C48.1434 0.882663 48.1213 0.7018 48.049 0.538632C47.9771 0.375464 47.858 0.237282 47.7075 0.141473C47.5571 0.0456644 47.3815 -0.00349088 47.2033 0.000192877H10.1457C9.8972 0.000454416 9.65143 0.0519051 9.42375 0.151337C9.19602 0.250768 8.99128 0.396048 8.82218 0.578116L1.01361 8.96017C0.893491 9.08983 0.813791 9.25174 0.78426 9.426C0.754728 9.60026 0.776654 9.77932 0.84735 9.94132C0.918047 10.1033 1.03444 10.2412 1.18229 10.338C1.33014 10.4349 1.50302 10.4865 1.67977 10.4866Z" fill="white"/>
<path d="M93.0585 17.912H73.2327V11.3828H98.2113V4.85361H73.1665C72.3106 4.84898 71.4627 5.01291 70.6704 5.33607C69.8781 5.65926 69.1568 6.13532 68.5488 6.73711C67.9405 7.3389 67.4565 8.05464 67.1248 8.84339C66.793 9.63219 66.6196 10.4786 66.6152 11.3343V17.9517C66.6188 18.8081 66.7908 19.6555 67.1221 20.4453C67.4534 21.2351 67.937 21.9519 68.5453 22.5546C69.1541 23.1573 69.8754 23.6342 70.6682 23.9579C71.461 24.2816 72.3102 24.4459 73.1665 24.4412H93.0188V30.9704H67.0873V37.4996H93.0585C93.9143 37.5043 94.7623 37.3403 95.5546 37.0172C96.3469 36.694 97.0682 36.2179 97.6761 35.6161C98.2845 35.0143 98.7684 34.2986 99.1002 33.5098C99.432 32.721 99.6053 31.8746 99.6097 31.0189V24.4015C99.6062 23.5451 99.4342 22.6977 99.1029 21.9079C98.7715 21.1181 98.288 20.4014 97.6797 19.7986C97.0709 19.1959 96.3496 18.7191 95.5568 18.3953C94.764 18.0716 93.9148 17.9074 93.0585 17.912Z" fill="white"/>
<path d="M131.464 4.85275H111.563C110.706 4.84578 109.856 5.008 109.061 5.33014C108.267 5.65227 107.544 6.12793 106.934 6.72999C106.323 7.332 105.838 8.04849 105.505 8.83843C105.172 9.62838 104.999 10.4762 104.994 11.3334V31.0181C104.999 31.8753 105.172 32.7231 105.505 33.5131C105.838 34.303 106.323 35.0195 106.934 35.6215C107.544 36.2236 108.267 36.6992 109.061 37.0214C109.856 37.3435 110.706 37.5057 111.563 37.4988H131.464C132.32 37.5034 133.168 37.3394 133.96 37.0163C134.752 36.6931 135.474 36.217 136.082 35.6153C136.69 35.0135 137.174 34.2977 137.506 33.509C137.837 32.7202 138.011 31.8738 138.015 31.0181V11.3334C138.011 10.4777 137.837 9.63133 137.506 8.84254C137.174 8.05378 136.69 7.33804 136.082 6.73625C135.474 6.13446 134.752 5.6584 133.96 5.33521C133.168 5.01206 132.32 4.84812 131.464 4.85275ZM131.415 30.9696H111.612V11.382H131.407L131.415 30.9696Z" fill="white"/>
<path d="M201.169 4.85302H181.758C180.902 4.84839 180.055 5.01233 179.262 5.33548C178.47 5.65867 177.749 6.13473 177.141 6.73652C176.532 7.33831 176.048 8.05405 175.717 8.8428C175.385 9.6316 175.211 10.478 175.207 11.3337V37.499H181.824V26.7744H201.147V37.499H207.765V11.3337C207.76 10.4743 207.586 9.62423 207.251 8.83252C206.916 8.04086 206.429 7.32318 205.816 6.72077C205.203 6.11841 204.477 5.64328 203.679 5.32273C202.882 5.00218 202.029 4.84257 201.169 4.85302ZM201.121 20.2452H181.798V11.3822H201.121V20.2452Z" fill="white"/>
<path d="M278.435 4.85361H259.024C258.168 4.84898 257.32 5.01291 256.528 5.33607C255.735 5.65926 255.015 6.13532 254.406 6.73711C253.798 7.3389 253.314 8.05464 252.982 8.84339C252.65 9.63219 252.477 10.4786 252.473 11.3343V37.4996H259.09V26.775H278.369V37.4996H284.986V11.3343C284.982 10.4786 284.809 9.63219 284.477 8.84339C284.145 8.05464 283.661 7.3389 283.053 6.73711C282.444 6.13532 281.723 5.65926 280.931 5.33607C280.139 5.01291 279.291 4.84898 278.435 4.85361ZM278.369 20.2458H259.046V11.3828H278.369V20.2458Z" fill="white"/>
<path d="M239.99 30.9704H237.343L227.88 7.58878C227.556 6.78211 226.998 6.09077 226.278 5.60346C225.558 5.11611 224.709 4.85498 223.839 4.85357H217.967C217.396 4.85066 216.831 4.9602 216.303 5.17588C215.774 5.39161 215.294 5.70925 214.888 6.11071C214.482 6.51221 214.16 6.98959 213.939 7.51572C213.718 8.04181 213.603 8.60632 213.6 9.17696V37.4996H220.217V11.3828H222.864L232.323 34.7644C232.652 35.5695 233.215 36.258 233.938 36.742C234.66 37.2261 235.511 37.4837 236.381 37.4819H242.253C242.824 37.4848 243.39 37.3753 243.918 37.1596C244.446 36.9439 244.927 36.6262 245.332 36.2248C245.738 35.8233 246.06 35.3459 246.281 34.8198C246.502 34.2937 246.618 33.7292 246.621 33.1585V4.85357H239.99V30.9704Z" fill="white"/>
<path d="M150.477 4.85352H143.859V31.0188C143.864 31.8764 144.038 32.7246 144.371 33.5148C144.704 34.3051 145.19 35.0218 145.8 35.6239C146.411 36.226 147.135 36.7015 147.93 37.0234C148.725 37.3453 149.575 37.5071 150.433 37.4995H170.285V30.9703H150.477V4.85352Z" fill="white"/>
</g>
</svg>
