<svg width="80" height="80" viewBox="0 0 80 80" fill="none" xmlns="http://www.w3.org/2000/svg">
    <path
        d="M48.7318 37.5884L75.2078 39.6034L48.7318 41.6184C45.3548 41.8754 42.6708 44.5594 42.4138 47.9364L40.3988 74.4124L38.3838 47.9364C38.1268 44.5594 35.4428 41.8754 32.0658 41.6184L5.58984 39.6034L32.0658 37.5884C35.4428 37.3314 38.1268 34.6474 38.3838 31.2704L40.3988 4.79443L42.4138 31.2704C42.6708 34.6474 45.3548 37.3314 48.7318 37.5884Z"
        fill="white" />
    <path opacity="0.4"
        d="M47.7151 44.0703L65.0121 64.2163L44.8661 46.9193C42.2961 44.7133 38.5012 44.7133 35.9312 46.9193L15.7852 64.2163L33.0822 44.0703C35.2882 41.5003 35.2882 37.7053 33.0822 35.1353L15.7852 14.9893L35.9312 32.2863C38.5012 34.4923 42.2961 34.4923 44.8661 32.2863L65.0121 14.9893L47.7151 35.1353C45.5091 37.7053 45.5091 41.5003 47.7151 44.0703Z"
        fill="white" />
    <path opacity="0.2"
        d="M40.3986 35.3262L56.7636 0.0942383L43.4226 36.5792L79.9076 23.2382L44.6756 39.6032L79.9076 55.9682L43.4226 42.6272L56.7636 79.1112L40.3986 43.8792L24.0336 79.1112L37.3756 42.6272L0.890625 55.9682L36.1226 39.6032L0.890625 23.2382L37.3756 36.5792L24.0336 0.0942383L40.3986 35.3262Z"
        fill="white" />
</svg>