<svg preserveAspectRatio="none" width="100%" height="100%" overflow="visible" style="display: block;" viewBox="0 0 26 26" fill="none" xmlns="http://www.w3.org/2000/svg">
<g id="Frame">
<path id="Vector" fill-rule="evenodd" clip-rule="evenodd" d="M9.63794 5.13195C9.57963 5.12276 9.52042 5.12136 9.46179 5.12779C8.29562 5.25397 6.52067 5.88352 5.47237 6.45205C5.40313 6.48982 5.34115 6.53959 5.28933 6.59906C4.85391 7.09683 4.45871 7.90803 4.14949 8.67627C3.83055 9.46387 3.56709 10.2959 3.41871 10.8977C2.92783 12.8529 2.66021 15.2005 2.62415 17.4275C2.62301 17.5386 2.64971 17.6483 2.70181 17.7464C3.11781 18.541 4.01498 19.2773 4.91354 19.8154C5.82181 20.3603 6.88259 20.7902 7.73682 20.8734C7.83913 20.8831 7.94235 20.8691 8.03835 20.8323C8.13436 20.7955 8.22048 20.7369 8.2901 20.6612C8.50362 20.4296 8.86691 19.8888 9.14147 19.4687C9.26627 19.2773 9.38418 19.0943 9.4757 18.9487C10.3936 19.1151 11.5446 19.2122 13.0006 19.2122C14.4538 19.2122 15.6047 19.1151 16.5227 18.9487C16.6143 19.0957 16.7307 19.2773 16.8555 19.4673C17.1301 19.8888 17.4934 20.4296 17.7083 20.6612C17.7779 20.7369 17.8641 20.7955 17.96 20.8323C18.056 20.8691 18.1592 20.8831 18.2616 20.8734C19.1158 20.7902 20.1752 20.3603 21.0835 19.8154C21.982 19.2773 22.8792 18.541 23.2966 17.7464C23.3482 17.6482 23.3745 17.5385 23.3728 17.4275C23.3382 15.2005 23.0691 12.8515 22.5811 10.8963C22.3849 10.1412 22.1399 9.39959 21.8475 8.67627C21.5383 7.90803 21.1431 7.09547 20.7091 6.59906C20.6568 6.53946 20.5943 6.48968 20.5247 6.45205C19.4777 5.88352 17.7027 5.25397 16.5366 5.12779C16.478 5.12136 16.4187 5.12276 16.3605 5.13195C16.0991 5.18224 15.854 5.29553 15.6463 5.46197C15.1812 5.83642 14.8051 6.3096 14.5453 6.84723C14.0314 6.80693 13.5161 6.78704 13.0006 6.78763C12.4431 6.78763 11.9273 6.80843 11.4517 6.84587C11.1917 6.30871 10.8157 5.83602 10.3507 5.46197C10.1434 5.29573 9.89878 5.18246 9.63794 5.13195ZM17.8789 18.5992C18.074 18.8998 18.2742 19.197 18.4793 19.4909C19.0284 19.3661 19.7287 19.0749 20.3999 18.6727C21.1528 18.2221 21.7504 17.7021 22.0389 17.2625C21.9931 15.1742 21.7352 13.0055 21.2901 11.2194C21.1087 10.5238 20.8827 9.84061 20.6134 9.1741C20.336 8.48354 20.0379 7.89835 19.7786 7.56275C18.8773 7.09547 17.4559 6.60179 16.5296 6.46731C16.5018 6.48421 16.4749 6.50273 16.4492 6.52275C16.3343 6.61317 16.2293 6.71541 16.1359 6.82786C16.0812 6.89293 16.0289 6.96001 15.9791 7.02891C16.4021 7.10658 16.7792 7.19947 17.1135 7.3021C18.0619 7.5933 18.7455 7.99539 19.0797 8.44051C19.1857 8.58176 19.2311 8.75927 19.2061 8.93399C19.1812 9.10878 19.0878 9.26647 18.9466 9.37235C18.8767 9.42481 18.7971 9.46296 18.7125 9.48467C18.6278 9.50638 18.5396 9.51119 18.4531 9.49878C18.2784 9.47382 18.1207 9.38048 18.0147 9.23923C17.933 9.13107 17.5766 8.83714 16.7224 8.57363C15.8973 8.3213 14.684 8.11883 13.0006 8.11883C11.3171 8.11883 10.1024 8.3213 9.27875 8.57506C8.42458 8.83851 8.06819 9.12971 7.98642 9.23923C7.93396 9.30917 7.86825 9.36806 7.79304 9.41265C7.71784 9.45718 7.63457 9.48643 7.54806 9.49878C7.37327 9.5238 7.19576 9.4783 7.05458 9.37235C6.98464 9.3199 6.92575 9.25425 6.88116 9.17904C6.83663 9.10377 6.80738 9.02057 6.79503 8.93399C6.77001 8.75927 6.81551 8.58176 6.92146 8.44051C7.25562 7.99403 7.93923 7.59467 8.88771 7.30347C9.22051 7.19947 9.5977 7.10795 10.0192 7.03027C9.96937 6.96066 9.91666 6.89312 9.86115 6.82786C9.76813 6.71548 9.66355 6.61323 9.54915 6.52275C9.52302 6.50267 9.49572 6.48417 9.46738 6.46731C8.54243 6.60179 7.12114 7.09547 6.21978 7.56275C5.95909 7.89971 5.66234 8.48354 5.38362 9.1741C5.08826 9.90899 4.84282 10.6814 4.70831 11.2194C4.26181 13.0055 4.00389 15.1742 3.95951 17.2625C4.24794 17.7035 4.84421 18.2221 5.59717 18.6741C6.2697 19.0763 6.96858 19.3675 7.51907 19.4909C7.72629 19.1985 7.92649 18.9012 8.11954 18.5992C7.03098 18.2124 6.44719 17.6813 6.06725 17.1127C6.01881 17.0399 5.98519 16.9582 5.96832 16.8724C5.95144 16.7866 5.95163 16.6982 5.96889 16.6125C5.98614 16.5268 6.02012 16.4453 6.06888 16.3726C6.11764 16.3 6.18023 16.2377 6.25306 16.1892C6.3259 16.1408 6.40757 16.1072 6.4934 16.0903C6.57923 16.0734 6.66757 16.0736 6.7533 16.0909C6.83904 16.1081 6.92055 16.1421 6.99322 16.1909C7.06582 16.2396 7.12816 16.3022 7.17658 16.3751C7.53714 16.9186 8.48562 17.881 13.0006 17.881C17.517 17.881 18.464 16.9186 18.8246 16.3751C18.9224 16.2279 19.0746 16.1257 19.2479 16.0909C19.421 16.056 19.601 16.0914 19.7481 16.1892C19.8952 16.2871 19.9974 16.4393 20.0323 16.6125C20.0671 16.7857 20.0318 16.9657 19.9339 17.1127C19.5539 17.6813 18.9688 18.2138 17.8789 18.5992ZM8.25818 12.3232C8.59651 11.9599 9.05554 11.7547 9.53394 11.7519C10.0123 11.7547 10.4713 11.9599 10.8096 12.3232C11.1466 12.6879 11.3366 13.1802 11.3366 13.6932C11.3366 14.2063 11.1466 14.6986 10.8096 15.0632C10.4713 15.4266 10.0123 15.6318 9.53394 15.6346C9.29344 15.632 9.05606 15.58 8.83655 15.4817C8.61711 15.3834 8.42023 15.2409 8.25818 15.0632C7.91654 14.6891 7.72837 14.1999 7.73123 13.6932C7.73123 13.1802 7.92122 12.6879 8.25818 12.3232ZM16.4672 11.7519C15.9888 11.7547 15.5299 11.9599 15.1915 12.3232C14.8546 12.6879 14.6646 13.1802 14.6646 13.6932C14.6646 14.2063 14.8546 14.6986 15.1915 15.0632C15.5299 15.4266 15.9888 15.6318 16.4672 15.6346C16.9456 15.6318 17.4047 15.4266 17.743 15.0632C18.0799 14.6986 18.2699 14.2063 18.2699 13.6932C18.2699 13.1802 18.0799 12.6879 17.743 12.3232C17.5809 12.1455 17.3841 12.003 17.1646 11.9048C16.9451 11.8065 16.7077 11.7544 16.4672 11.7519Z" fill="var(--fill-0, white)"/>
</g>
</svg>
