<svg preserveAspectRatio="none" width="100%" height="100%" overflow="visible" style="display: block;" viewBox="0 0 26 26" fill="none" xmlns="http://www.w3.org/2000/svg">
<g id="Frame">
<path id="Vector" d="M13.0005 2.20327C18.9712 2.20327 23.8073 7.0393 23.8073 13.01C23.8073 15.2745 23.0969 17.4819 21.7762 19.3213C20.4554 21.1606 18.5909 22.5392 16.4452 23.263C15.9049 23.371 15.7022 23.0333 15.7022 22.7496C15.7022 22.3849 15.7157 21.2232 15.7157 19.7777C15.7157 18.7647 15.378 18.1162 14.9863 17.7785C17.3908 17.5083 19.9169 16.5898 19.9169 12.4427C19.9169 11.2539 19.4981 10.2948 18.8092 9.53836C18.9172 9.26822 19.2955 8.16049 18.7011 6.67459C18.7011 6.67459 17.796 6.37738 15.7292 7.78226C14.8647 7.53909 13.9461 7.41754 13.0276 7.41754C12.109 7.41754 11.1904 7.53909 10.3258 7.78226C8.25903 6.39089 7.35397 6.67459 7.35397 6.67459C6.75961 8.16049 7.13785 9.26822 7.24594 9.53836C6.55701 10.2948 6.13822 11.2674 6.13822 12.4427C6.13822 16.5762 8.65079 17.5083 11.0553 17.7785C10.7446 18.0487 10.4609 18.5215 10.3664 19.2239C9.745 19.5076 8.1915 19.9669 7.2189 18.3323C7.0163 18.0082 6.40839 17.2112 5.55736 17.2247C4.65229 17.2382 5.19263 17.738 5.57087 17.9407C6.03016 18.1973 6.55701 19.1564 6.67856 19.467C6.89468 20.0749 7.59714 21.2367 10.3123 20.7369C10.3123 21.6419 10.3258 22.493 10.3258 22.7496C10.3258 23.0333 10.1232 23.3575 9.58289 23.263C7.43048 22.5465 5.55835 21.1705 4.23203 19.3302C2.90571 17.4898 2.19256 15.2785 2.19375 13.01C2.19375 7.0393 7.02975 2.20327 13.0005 2.20327Z" fill="var(--fill-0, white)"/>
</g>
</svg>
