<svg preserveAspectRatio="none" width="100%" height="100%" overflow="visible" style="display: block;" viewBox="0 0 26 26" fill="none" xmlns="http://www.w3.org/2000/svg">
<g id="Frame">
<path id="Vector" fill-rule="evenodd" clip-rule="evenodd" d="M2.67127 2.95408C2.7824 2.73675 3.00591 2.6 3.25 2.6H8.66664C8.87536 2.6 9.0714 2.70022 9.1936 2.8694L14.653 10.4277L22.2904 2.79038C22.5442 2.53654 22.9558 2.53654 23.2096 2.79038C23.4634 3.04422 23.4634 3.45578 23.2096 3.70962L15.424 11.4952L23.277 22.3694C23.4199 22.5674 23.4398 22.8286 23.3288 23.0459C23.2176 23.2632 22.9941 23.4 22.75 23.4H17.3334C17.1246 23.4 16.9286 23.2998 16.8064 23.1306L11.347 15.5723L3.70962 23.2096C3.45578 23.4634 3.04422 23.4634 2.79038 23.2096C2.53654 22.9558 2.53654 22.5442 2.79038 22.2904L10.576 14.5048L2.72304 3.63055C2.58014 3.43266 2.56015 3.1714 2.67127 2.95408ZM11.954 14.1924L17.6656 22.1H21.4788L14.0461 11.8076L8.33436 3.9H4.52118L11.954 14.1924Z" fill="var(--fill-0, white)"/>
</g>
</svg>
