<svg preserveAspectRatio="none" width="100%" height="100%" overflow="visible" style="display: block;" viewBox="0 0 26 26" fill="none" xmlns="http://www.w3.org/2000/svg">
<g id="Frame">
<path id="Vector" d="M23.5483 11.9975C23.5476 11.4735 23.3916 10.9616 23.1 10.5262C22.8084 10.0909 22.3943 9.75175 21.9101 9.55162C21.4258 9.35148 20.8932 9.29935 20.3793 9.40179C19.8654 9.50423 19.3935 9.75669 19.023 10.1272C17.5403 9.17039 15.6467 8.56102 13.5673 8.46599C13.5669 8.03205 13.6643 7.60363 13.8522 7.21259C14.0402 6.82149 14.3138 6.47778 14.653 6.20702C14.9913 5.93431 15.387 5.7415 15.8103 5.64294C16.2336 5.54438 16.6737 5.54262 17.0978 5.63779L17.216 5.6642C17.216 5.69377 17.2118 5.72334 17.2118 5.75291C17.2107 6.28573 17.4019 6.80108 17.7503 7.20421C18.0986 7.6074 18.5808 7.8713 19.1081 7.94742C19.6355 8.0236 20.1726 7.90686 20.6208 7.61871C21.069 7.33057 21.3981 6.89039 21.5478 6.37898C21.6974 5.8676 21.6575 5.31939 21.4353 4.83509C21.2131 4.35079 20.8236 3.96295 20.3384 3.74282C19.8531 3.52268 19.3048 3.48505 18.794 3.63684C18.2833 3.78863 17.8445 4.11963 17.5583 4.56904L17.346 4.52152C16.7546 4.38873 16.1409 4.3912 15.5506 4.52871C14.9603 4.66622 14.4087 4.93524 13.9369 5.31569C13.4642 5.6933 13.0826 6.17264 12.8205 6.71807C12.5585 7.26342 12.4229 7.8609 12.4236 8.46599C10.3431 8.56102 8.45059 9.17039 6.96891 10.1262C6.69942 9.85419 6.37431 9.64379 6.01582 9.5095C5.65733 9.37514 5.274 9.32009 4.89219 9.34804C4.51038 9.37599 4.13916 9.48629 3.80405 9.67141C3.46895 9.85653 3.17791 10.112 2.95096 10.4203C2.72401 10.7286 2.56654 11.0824 2.48937 11.4574C2.4122 11.8323 2.41717 12.2196 2.50394 12.5924C2.5907 12.9654 2.7572 13.315 2.99198 13.6174C3.22676 13.9197 3.52425 14.1677 3.86399 14.3441C3.79957 14.6715 3.76578 15.0074 3.76578 15.3496C3.76578 19.1578 7.89718 22.2458 12.996 22.2458C18.0926 22.2458 22.2251 19.1578 22.2251 15.3496C22.2251 15.0074 22.1913 14.6726 22.1269 14.3441C22.5555 14.1201 22.9145 13.7829 23.1651 13.3693C23.4157 12.9555 23.5482 12.4812 23.5483 11.9975ZM19.4243 4.68415C19.7021 4.69288 19.9656 4.80936 20.159 5.00895C20.3524 5.20852 20.4605 5.47552 20.4605 5.75344C20.4605 6.03135 20.3524 6.29836 20.159 6.49793C19.9656 6.69753 19.7021 6.81401 19.4243 6.82272C19.1465 6.81401 18.8831 6.69753 18.6896 6.49793C18.4963 6.29836 18.3881 6.03135 18.3881 5.75344C18.3881 5.47552 18.4963 5.20852 18.6896 5.00895C18.8831 4.80936 19.1465 4.69288 19.4243 4.68415ZM3.58519 11.9986C3.58519 11.1675 4.26108 10.4916 5.09222 10.4916C5.44812 10.4916 5.77445 10.6162 6.03213 10.8231C5.22634 11.5149 4.6022 12.3281 4.21461 13.2205C4.02008 13.0816 3.86149 12.8982 3.75202 12.6857C3.64255 12.4732 3.58535 12.2376 3.58519 11.9986ZM18.8371 19.3099C17.29 20.4663 15.2148 21.1031 12.9949 21.1031C10.775 21.1031 8.6998 20.4663 7.15371 19.3099C5.70686 18.2295 4.90952 16.8228 4.90952 15.3496C4.90952 13.8774 5.7058 12.4717 7.15371 11.3892C8.6998 10.2339 10.7739 9.59809 12.9949 9.59809C15.2159 9.59809 17.29 10.2339 18.8371 11.3903C20.284 12.4717 21.0813 13.8774 21.0813 15.3506C21.0813 16.8228 20.284 18.2295 18.8371 19.3109V19.3099ZM21.7752 13.2194C21.3876 12.3271 20.7635 11.5149 19.9577 10.8231C20.2153 10.6162 20.5427 10.4916 20.8976 10.4916C21.7287 10.4916 22.4046 11.1675 22.4046 11.9986C22.4046 12.5013 22.1564 12.947 21.7752 13.2194Z" fill="var(--fill-0, white)"/>
<path id="Vector_2" d="M9.6239 14.9461C10.2905 14.9461 10.8309 14.4057 10.8309 13.739C10.8309 13.0723 10.2905 12.5319 9.6239 12.5319C8.95719 12.5319 8.41678 13.0723 8.41678 13.739C8.41678 14.4057 8.95719 14.9461 9.6239 14.9461Z" fill="var(--fill-0, white)"/>
<path id="Vector_3" d="M16.3659 14.9461C17.0326 14.9461 17.573 14.4057 17.573 13.739C17.573 13.0723 17.0326 12.5319 16.3659 12.5319C15.6993 12.5319 15.1588 13.0723 15.1588 13.739C15.1588 14.4057 15.6993 14.9461 16.3659 14.9461Z" fill="var(--fill-0, white)"/>
<path id="Vector_4" d="M15.8548 16.6718C15.0061 17.4459 13.8986 17.8745 12.7499 17.8736C12.1164 17.8762 11.4893 17.7471 10.9084 17.4944C10.3275 17.2417 9.80558 16.8709 9.37567 16.4056C9.27232 16.2946 9.12912 16.2291 8.97748 16.2237C8.8259 16.2182 8.67835 16.2732 8.56726 16.3766C8.45618 16.4799 8.39079 16.6232 8.38533 16.7748C8.37987 16.9264 8.43486 17.0739 8.53821 17.185C9.07764 17.7622 9.72972 18.2226 10.4541 18.5377C11.1785 18.8529 11.9599 19.0161 12.7499 19.0173C14.1839 19.0186 15.5665 18.4833 16.6257 17.5167C16.6812 17.466 16.7261 17.4049 16.758 17.3369C16.7899 17.2689 16.8081 17.1954 16.8115 17.1203C16.8149 17.0453 16.8035 16.9703 16.7781 16.8997C16.7525 16.8291 16.7133 16.7642 16.6627 16.7087C16.6121 16.6533 16.551 16.6083 16.483 16.5764C16.415 16.5445 16.3414 16.5264 16.2664 16.5229C16.1914 16.5195 16.1164 16.5309 16.0458 16.5564C15.9751 16.582 15.9102 16.6211 15.8548 16.6718Z" fill="var(--fill-0, white)"/>
</g>
</svg>
