<svg width="223" height="40" viewBox="0 0 223 40" fill="none" xmlns="http://www.w3.org/2000/svg">
<g clip-path="url(#clip0_1632_984)">
<path d="M152.739 24.4827L146.916 14.3448C146.625 13.8616 145.998 13.7062 145.516 14C145.376 14.085 145.257 14.204 145.172 14.3448L139.349 24.4827C139.282 24.6065 139.242 24.7437 139.236 24.8845C139.197 25.4515 139.624 25.942 140.188 25.9809C140.197 25.9809 140.204 25.9809 140.212 25.9821C140.611 25.9906 140.914 25.7903 141.161 25.3605L142.062 23.7894C142.179 23.583 142.397 23.4567 142.634 23.4567H149.433C149.669 23.4567 149.888 23.5842 150.005 23.7894L150.906 25.3605C151.132 25.7672 151.432 25.97 151.807 25.9821C152.366 26.004 152.838 25.5657 152.859 25.0035C152.859 24.9938 152.859 24.9829 152.859 24.9732C152.855 24.8032 152.814 24.6357 152.738 24.4839L152.739 24.4827ZM147.883 21.4352H144.198C143.949 21.4352 143.748 21.2313 143.749 20.9812C143.749 20.9022 143.77 20.8258 143.809 20.7578L145.661 17.5501C145.786 17.3339 146.062 17.2599 146.277 17.3849C146.346 17.425 146.402 17.4821 146.442 17.5501L148.28 20.7578C148.405 20.9751 148.33 21.2507 148.115 21.3757C148.044 21.4158 147.965 21.4365 147.885 21.4365L147.883 21.4352ZM38.5898 15.5176C36.3471 4.93537 25.9831 -1.81877 15.4412 0.432207C11.7521 1.22017 8.37044 3.0632 5.70288 5.74033C4.81693 6.62907 4.0169 7.60158 3.31491 8.64329C3.10674 8.92254 2.92035 9.21635 2.75695 9.52353C-2.76334 18.8188 0.266103 30.8471 9.52388 36.3895C18.7817 41.932 30.7639 38.8906 36.2842 29.5978C36.6872 28.9191 37.0491 28.2161 37.3686 27.4937C37.4848 27.2509 37.5889 27.002 37.6773 26.7482C39.051 23.1921 39.3717 19.313 38.6007 15.5783L38.5898 15.5188V15.5176ZM31.8217 6.55986C31.9343 6.66792 32.0444 6.77598 32.1545 6.88767C33.8538 8.58744 35.1937 10.6138 36.0954 12.8454C36.1583 13.0008 36.0833 13.1768 35.9295 13.2399C35.8763 13.2618 35.8182 13.2679 35.7625 13.2569C35.19 13.1598 34.6103 13.1185 34.0305 13.1331C33.5876 13.1428 33.2027 12.8271 33.1228 12.3901C32.8117 10.5592 32.3095 8.76713 31.6244 7.04187L31.5143 6.77598C31.4719 6.67885 31.5143 6.56593 31.6111 6.52222C31.6825 6.49066 31.7648 6.50523 31.8217 6.55865V6.55986ZM33.6759 18.0527C33.6747 17.9374 33.7667 17.8414 33.8817 17.8402C33.9495 17.8402 34.0136 17.8718 34.0535 17.9264C34.2012 18.1328 34.3416 18.3405 34.4759 18.5481C34.6551 18.8237 34.8221 19.0993 34.9758 19.3724C35.0738 19.5424 35.0496 19.7561 34.9177 19.9006C34.7083 20.1349 34.4808 20.3741 34.2363 20.6157L33.9676 20.8865C33.9022 20.9581 33.7909 20.9617 33.7195 20.8962C33.6796 20.8585 33.659 20.8051 33.6638 20.7505C33.6759 20.4567 33.6832 20.1604 33.688 19.8702C33.6929 19.2559 33.6892 18.6513 33.6735 18.0527H33.6759ZM9.10995 4.95965C12.1382 2.78274 15.7728 1.61597 19.4982 1.6269C20.4846 1.6269 21.471 1.70703 22.4441 1.86851C22.6075 1.89765 22.7164 2.05427 22.6862 2.21818C22.6741 2.28859 22.6365 2.35173 22.5821 2.39665C21.6489 3.13241 20.7799 4.22147 20.0113 5.63228C19.8237 5.97587 19.4256 6.14463 19.0491 6.03901C16.6575 5.33725 14.1739 5.00822 11.6831 5.06528C10.8698 5.09199 10.0601 5.1782 9.26003 5.32268C9.14989 5.33846 9.04701 5.26197 9.03128 5.15027C9.02038 5.07742 9.05064 5.00336 9.10995 4.95965ZM6.55495 31.7941C6.17975 31.0802 6.66509 29.4302 9.13658 26.9218C9.37622 26.679 9.3738 26.2881 9.13295 26.0477C9.11721 26.0319 9.10027 26.0161 9.08211 26.0028L8.78679 25.7672C8.5411 25.5669 8.18526 25.5863 7.96256 25.8109L7.86573 25.908C6.63725 27.1804 5.75977 28.3581 5.2829 29.4169C5.18607 29.6293 4.93554 29.7228 4.72494 29.6257C4.65353 29.5929 4.59302 29.5407 4.54944 29.4751C2.61897 26.543 1.59383 23.1047 1.60351 19.591C1.60351 18.3307 1.73302 17.0753 1.99324 15.843C1.9884 15.7459 2.06344 15.6633 2.16026 15.6585C2.25709 15.6536 2.33939 15.7289 2.34423 15.8272C2.76663 17.17 3.37543 18.4461 4.15367 19.6177C5.37367 21.4571 6.8418 23.1168 8.5181 24.5494C9.11842 25.0776 9.74658 25.5766 10.411 26.0622C11.7872 27.0736 13.2384 27.9769 14.7525 28.7661C15.4387 29.1182 16.1068 29.4703 16.7919 29.7738C17.1719 29.9474 17.6064 29.9596 17.9962 29.8078C18.3193 29.6815 18.6437 29.5492 18.9705 29.412C19.3263 29.2627 19.52 28.8741 19.4256 28.499C19.4134 28.4516 19.405 28.414 19.3989 28.3909C18.8349 25.9226 18.5408 23.3997 18.5214 20.867V20.0973V19.5934C18.5214 19.1333 18.5456 18.6755 18.5711 18.2227C18.7466 14.9834 19.2852 11.9396 20.1505 9.38026C20.2304 9.14351 20.1058 8.88611 19.8697 8.80477C19.6386 8.72706 19.4086 8.65179 19.1799 8.57894C18.9475 8.50609 18.6994 8.63115 18.6207 8.86304C17.6778 11.6422 17.0957 14.9421 16.9395 18.4339C16.9202 18.8759 16.6805 19.279 16.3005 19.5048C14.3531 20.6533 12.4868 21.9342 10.7148 23.3402C10.3735 23.6122 9.88819 23.6024 9.55898 23.3159C8.00129 21.9852 6.63604 20.4445 5.50197 18.7363C3.4541 15.5795 2.96634 12.6062 4.13188 10.3649L4.14035 10.3491C4.28922 10.1002 4.44415 9.85741 4.60391 9.6158C5.94253 7.83833 8.43338 6.80754 11.7351 6.6922C11.9433 6.68492 12.1539 6.68127 12.3669 6.68127C14.5395 6.70556 16.6975 7.03337 18.7792 7.65742L18.9245 7.70113L19.037 7.7327C19.5478 7.88689 20.0598 8.05566 20.5729 8.2402L20.6092 8.25234L21.0099 8.40168L21.1357 8.44903L21.2568 8.49517C22.3582 8.92254 23.4341 9.41061 24.4823 9.95697C26.4757 10.9902 28.3505 12.2371 30.0752 13.677C26.9392 14.397 23.2962 15.7908 19.6313 17.6654C19.4619 17.7516 19.3505 17.9216 19.342 18.1134C19.3275 18.3405 19.3118 18.7982 19.2997 19.1709C19.2936 19.3348 19.4219 19.4732 19.5865 19.4781C19.6386 19.4793 19.6894 19.4684 19.7354 19.4441C23.3627 17.5306 26.984 16.0968 30.0885 15.3464C30.6695 15.2044 31.0483 14.6447 30.966 14.0498C30.9091 13.6345 30.8438 13.2229 30.7736 12.8162C30.684 12.3124 30.4093 11.8607 30.0038 11.5511C28.4994 10.405 26.9005 9.39119 25.2242 8.51945C24.0853 7.92453 22.9137 7.39518 21.7143 6.93381C21.4867 6.84761 21.3718 6.59264 21.4577 6.36439C21.4662 6.34375 21.4746 6.32311 21.4855 6.30368C22.6983 4.12434 24.141 2.90537 25.5462 2.90537H25.5897C27.2479 2.93572 28.9012 4.66705 30.1236 7.66107C30.7881 9.32198 31.271 11.0497 31.5663 12.815C31.7067 13.6248 31.8193 14.4626 31.9028 15.3197L31.8798 15.3343L31.9101 15.3646C32.0529 16.8507 32.1122 18.3441 32.0856 19.8375C32.0686 20.8063 32.0166 21.7606 31.9343 22.6967C29.4446 24.6757 26.7734 26.4143 23.9594 27.8895C22.9694 28.4176 21.9781 28.9057 20.999 29.3586L20.953 29.3792L20.7267 29.4812C19.9145 29.8515 19.1121 30.1915 18.3193 30.5035L18.1862 30.5545L18.0107 30.62L17.6137 30.7718L17.5048 30.8119L17.0255 30.9879L16.9674 31.011C15.4085 31.5816 13.8084 32.0333 12.1818 32.3599C8.61735 33.0446 6.95073 32.5165 6.55979 31.7941H6.55495ZM11.4592 24.8202C13.1839 23.4276 15.0067 22.1601 16.9117 21.0273C16.942 23.5017 17.2203 25.9663 17.742 28.3848C16.9904 28.0619 16.2424 27.7098 15.498 27.3274C14.0916 26.594 12.7421 25.7551 11.4604 24.819L11.4592 24.8202ZM21.8123 37.4082C21.0462 37.5077 20.2752 37.5563 19.503 37.5563C16.0778 37.566 12.7216 36.5814 9.84099 34.7201C9.72964 34.6485 9.69696 34.4979 9.76958 34.3862C9.81194 34.3207 9.88335 34.2794 9.96081 34.2758H10.0964C10.8952 34.2187 11.6904 34.1106 12.4759 33.9528C14.5262 33.5339 16.5377 32.9378 18.4863 32.1717C18.6776 32.1001 18.8918 32.1948 18.9693 32.3854C19.7971 34.4081 20.815 35.9355 21.9527 36.9067C22.0725 37.0112 22.0846 37.1921 21.9805 37.3123C21.937 37.3633 21.8765 37.3973 21.8099 37.407H21.8135L21.8123 37.4082ZM29.3793 32.6124C28.1 35.1353 26.5277 36.551 25.0027 36.5231C23.3446 36.4927 21.6913 34.7614 20.4664 31.7674C20.389 31.5768 20.4785 31.3594 20.6661 31.2781L20.7049 31.2623C20.7847 31.2271 20.8755 31.221 20.959 31.2441C23.1267 31.873 25.3707 32.2033 27.6267 32.2251C27.8567 32.2251 28.0842 32.2251 28.3093 32.213C28.5744 32.2045 28.8358 32.1899 29.0924 32.1693C29.2607 32.1644 29.4023 32.2967 29.4071 32.4655C29.4083 32.5165 29.3974 32.5675 29.3744 32.6124H29.3781H29.3793ZM29.9336 30.4416C29.3756 30.5229 28.814 30.5727 28.2512 30.5909C26.7395 30.6334 25.2291 30.512 23.7428 30.2303C23.6326 30.2097 23.5612 30.104 23.5818 29.9936C23.5939 29.9316 23.6339 29.8782 23.6907 29.8491C24.0296 29.673 24.3697 29.497 24.7086 29.3209C26.9852 28.1165 29.1747 26.7555 31.2625 25.2464C31.3533 25.1808 31.4792 25.2002 31.5445 25.2913C31.576 25.335 31.5893 25.3896 31.5808 25.4443C31.3303 26.9898 30.9551 28.5111 30.4613 29.996C30.3826 30.2315 30.1793 30.4039 29.9348 30.4416H29.9336ZM32.5661 31.8669C32.4305 32.0114 32.2937 32.1535 32.1533 32.2955C31.9088 32.5408 31.6595 32.7763 31.4041 32.9997C31.323 33.0738 31.1972 33.0677 31.1246 32.9851C31.0713 32.9257 31.058 32.8395 31.0919 32.7666L31.1693 32.5906C31.2771 32.3562 31.3799 32.1122 31.4804 31.8609C31.5046 31.8026 31.5554 31.7589 31.6159 31.7431C31.8701 31.68 32.1182 31.6071 32.3579 31.5294C32.4559 31.4796 32.5745 31.5197 32.6241 31.6181C32.6665 31.7043 32.6423 31.8075 32.5673 31.8657L32.5661 31.8669ZM36.1631 26.1679C36.0772 26.3876 35.9876 26.605 35.8908 26.8211C35.8763 26.8514 35.863 26.8806 35.8472 26.9109C35.2578 28.051 34.2678 28.9494 32.9449 29.5747C32.7524 29.6621 32.5261 29.5759 32.439 29.3829C32.4027 29.3015 32.3954 29.2105 32.4184 29.1242C32.8747 27.4561 33.2051 25.7563 33.4048 24.0383C33.446 23.7032 33.6093 23.396 33.8647 23.1775C34.4082 22.704 34.9177 22.2317 35.3849 21.7679C35.5519 21.5991 35.8242 21.5979 35.9925 21.7655C36.0421 21.8153 36.0796 21.8772 36.1002 21.944C36.5613 23.4798 36.588 24.9161 36.1656 26.1679H36.1643H36.1631ZM36.5141 17.7516C36.4149 17.9277 36.1934 17.9908 36.0167 17.8912C35.9646 17.8621 35.9211 17.8208 35.8896 17.771L35.8206 17.663C35.2675 16.8143 34.6551 16.0069 33.987 15.2457C33.8793 15.1206 33.8938 14.9312 34.0184 14.8232C34.0717 14.777 34.1407 14.7503 34.2121 14.7503C35.8158 14.7503 36.657 15.1485 36.9123 15.6305C37.1399 16.0397 37.0757 16.7487 36.5226 17.7467L36.5141 17.7504V17.7516ZM37.3795 20.1264C37.3783 20.1883 37.3263 20.2381 37.2645 20.2357C37.221 20.2357 37.181 20.2078 37.1641 20.1665C37.1447 20.1191 37.1241 20.0694 37.1023 20.022C37.0636 19.9334 37.0745 19.8302 37.1326 19.7525L37.198 19.6663C37.2766 19.5643 37.3892 19.5801 37.3892 19.693C37.3977 19.8423 37.394 19.9734 37.3892 20.1264H37.3807H37.3795ZM94.1704 15.877H100.899C101.455 15.8758 101.906 15.4205 101.904 14.8608C101.904 14.8207 101.902 14.7819 101.897 14.743C101.823 14.2331 101.385 13.8567 100.872 13.8628H92.5171C91.9628 13.8652 91.5137 14.3156 91.5113 14.8717V24.9707C91.5137 25.5268 91.9628 25.9785 92.5171 25.9797H100.907C101.464 25.9773 101.914 25.5232 101.913 24.9635C101.913 24.9246 101.91 24.8858 101.906 24.8469C101.832 24.337 101.394 23.9606 100.88 23.9667H94.1789C93.817 23.9667 93.5241 23.6729 93.5241 23.3098V21.5919C93.5241 21.2288 93.817 20.935 94.1789 20.935H99.2296C99.7863 20.9326 100.237 20.4785 100.235 19.9188C100.235 19.88 100.233 19.8411 100.228 19.8022C100.154 19.2923 99.7161 18.9159 99.2029 18.922H94.1789C93.817 18.922 93.5241 18.6282 93.5241 18.2652V16.5472C93.5168 16.1842 93.8049 15.8843 94.1668 15.8782C94.1704 15.8782 94.1752 15.8782 94.1789 15.8782H94.1704V15.877ZM114.734 19.8022C113.81 19.2122 112.569 18.9087 111.008 18.9087C108.945 18.9087 107.904 18.4036 107.904 17.3922C107.904 16.3809 108.945 15.877 111.008 15.877C112.133 15.8746 113.246 16.0907 114.288 16.5144C114.894 16.699 115.314 16.4804 115.547 15.8904C115.749 15.3622 115.481 14.8632 114.927 14.6119C113.691 14.0898 112.359 13.8324 111.018 13.8543C109.492 13.8543 108.267 14.1736 107.311 14.7964C106.416 15.3477 105.882 16.3359 105.907 17.3898C105.907 18.5529 106.378 19.4453 107.3 20.0317C108.223 20.6181 109.464 20.9253 111.024 20.9253C113.088 20.9253 114.129 21.4304 114.129 22.4417C114.129 23.4531 113.088 23.957 111.024 23.957H110.521C109.406 23.94 108.303 23.7239 107.266 23.3171C106.759 23.1265 106.194 23.3839 106.003 23.8926C105.999 23.9023 105.995 23.9133 105.992 23.923C105.804 24.4584 106.081 25.0448 106.613 25.2366C107.852 25.7441 109.182 25.9967 110.521 25.976H111.024C112.55 25.976 113.775 25.6567 114.71 25.0339C115.616 24.4912 116.161 23.5005 116.137 22.4405C116.137 21.281 115.666 20.3887 114.745 19.7998H114.736L114.734 19.8022ZM134.875 13.8567C134.319 13.8567 133.869 14.3084 133.868 14.8656V24.9695C133.891 25.528 134.36 25.9603 134.916 25.9372C135.439 25.9153 135.859 25.494 135.881 24.9695V14.8656C135.878 14.312 135.435 13.8628 134.883 13.8567H134.875ZM129.555 13.8567H119.525C118.969 13.8567 118.519 14.3108 118.52 14.8693C118.52 14.9094 118.522 14.9494 118.527 14.9895C118.6 15.4994 119.038 15.877 119.552 15.8697H122.896C123.258 15.8697 123.552 16.1648 123.552 16.529V24.9707C123.555 25.5305 124.007 25.9821 124.564 25.9797C124.603 25.9797 124.642 25.9773 124.68 25.9724C125.189 25.8983 125.564 25.4576 125.558 24.9416V16.5351C125.558 16.172 125.849 15.877 126.21 15.8758C126.21 15.8758 126.213 15.8758 126.214 15.8758H129.583C130.141 15.8734 130.593 15.4181 130.59 14.8571C130.59 14.8183 130.588 14.7794 130.583 14.7406C130.512 14.2307 130.076 13.8519 129.564 13.8543H129.555V13.8567ZM87.2074 23.9606H80.5095C80.1464 23.9606 79.8522 23.6656 79.851 23.3013V14.8911C79.8559 14.3764 79.4819 13.9368 78.9735 13.8628C78.4204 13.796 77.9181 14.1918 77.8504 14.7467C77.8455 14.7855 77.8431 14.8256 77.8431 14.8644V24.9683C77.8455 25.5256 78.2946 25.9773 78.8501 25.9773H87.2377C87.7944 25.9773 88.2446 25.5232 88.2434 24.9647C88.2434 24.9246 88.241 24.8845 88.2362 24.8445C88.166 24.3297 87.723 23.9497 87.2062 23.9582L87.2074 23.9606ZM54.4052 15.877C55.4751 15.8576 56.5039 16.2922 57.2385 17.0729C57.6452 17.4651 58.2915 17.4517 58.6824 17.0438C58.8616 16.8568 58.9632 16.6091 58.9669 16.3493C58.9548 16.03 58.8011 15.7337 58.5469 15.5407C56.1299 13.246 52.3173 13.3516 50.031 15.7787C47.7447 18.2045 47.8512 22.0326 50.2683 24.3273C52.6369 26.5758 56.3586 26.526 58.6655 24.2131C59.0431 23.8016 59.0165 23.1605 58.6062 22.7817C58.2201 22.4247 57.6246 22.4247 57.2385 22.7817C56.4978 23.5514 55.4715 23.9788 54.4052 23.9606C52.1915 23.9715 50.3881 22.1783 50.3784 19.9564C50.3784 19.9431 50.3784 19.9309 50.3784 19.9176C50.3603 18.8467 50.7851 17.8172 51.5524 17.0729C52.2992 16.2971 53.3316 15.8649 54.4052 15.877ZM65.9868 15.877H72.7125C73.2705 15.8746 73.722 15.4193 73.7195 14.8584C73.7195 14.8195 73.7171 14.7807 73.7123 14.7418C73.6384 14.2319 73.1991 13.8543 72.6859 13.8616H64.3153C63.761 13.864 63.3107 14.3144 63.3083 14.8705V24.9695C63.3107 25.5268 63.761 25.9773 64.3153 25.9785H72.7029C73.2596 25.9785 73.7111 25.5232 73.7098 24.9635C73.7098 24.9234 73.7074 24.8845 73.7026 24.8457C73.6288 24.3358 73.1894 23.9582 72.6762 23.9655H65.9771C65.6152 23.9655 65.3223 23.6716 65.3223 23.3086V21.587C65.3223 21.224 65.614 20.9289 65.9747 20.9277H71.0253C71.5821 20.9277 72.0335 20.4724 72.0323 19.9127C72.0323 19.8727 72.0299 19.8338 72.0251 19.795C71.9512 19.285 71.5119 18.9074 70.9987 18.9147H65.9771C65.6152 18.9147 65.3223 18.6209 65.3223 18.2579V16.5423C65.3175 16.1793 65.6067 15.8819 65.9674 15.877C65.9698 15.877 65.9734 15.877 65.9759 15.877H65.9843H65.9868Z" fill="white"/>
<path d="M162.866 10.9487H162.164V27.8553H162.866V10.9487Z" fill="white"/>
<path d="M172.047 26.0916V13.8521H183.223V15.6878H173.893V19.0363H181.394V20.9061H173.893V24.2546H183.223V26.0904H172.047V26.0916Z" fill="white"/>
<path d="M184.594 26.0916V13.8521H194.568C194.975 13.8521 195.347 13.9516 195.685 14.1495C196.024 14.3474 196.292 14.6145 196.49 14.9484C196.687 15.2823 196.787 15.6538 196.787 16.0617V23.8819C196.787 24.2898 196.687 24.6613 196.49 24.9952C196.293 25.3291 196.024 25.5962 195.685 25.7941C195.346 25.992 194.973 26.0916 194.568 26.0916H184.594ZM186.829 24.2558H194.517C194.642 24.2558 194.744 24.2133 194.822 24.1283C194.901 24.0434 194.941 23.9438 194.941 23.8309V16.1127C194.941 15.9998 194.901 15.9003 194.822 15.8153C194.744 15.7303 194.642 15.6878 194.517 15.6878H186.829C186.717 15.6878 186.62 15.7303 186.541 15.8153C186.462 15.9003 186.423 15.9998 186.423 16.1127V23.8309C186.423 23.9438 186.462 24.0434 186.541 24.1283C186.62 24.2133 186.717 24.2558 186.829 24.2558Z" fill="white"/>
<path d="M198.297 26.0916V13.8521H209.473V15.6878H200.143V19.0363H207.644V20.9061H200.143V24.2546H209.473V26.0904H198.297V26.0916Z" fill="white"/>
<path d="M210.805 26.0916V13.8521H212.989L221.152 23.6099V13.8521H222.998V26.0916H220.813L212.633 16.3167V26.0916H210.805Z" fill="white"/>
</g>
<defs>
<clipPath id="clip0_1632_984">
<rect width="223" height="39.1577" fill="white"/>
</clipPath>
</defs>
</svg>
